<?xml version="1.0" encoding="utf-8" standalone="no"?>
<!DOCTYPE svg PUBLIC "-//W3C//DTD SVG 1.1//EN"
  "http://www.w3.org/Graphics/SVG/1.1/DTD/svg11.dtd">
<svg xmlns:xlink="http://www.w3.org/1999/xlink" width="864pt" height="288pt" viewBox="0 0 864 288" xmlns="http://www.w3.org/2000/svg" version="1.1">
 <metadata>
  <rdf:RDF xmlns:dc="http://purl.org/dc/elements/1.1/" xmlns:cc="http://creativecommons.org/ns#" xmlns:rdf="http://www.w3.org/1999/02/22-rdf-syntax-ns#">
   <cc:Work>
    <dc:type rdf:resource="http://purl.org/dc/dcmitype/StillImage"/>
    <dc:date>2025-01-05T17:48:57.544492</dc:date>
    <dc:format>image/svg+xml</dc:format>
    <dc:creator>
     <cc:Agent>
      <dc:title>Matplotlib v3.7.2, https://matplotlib.org/</dc:title>
     </cc:Agent>
    </dc:creator>
   </cc:Work>
  </rdf:RDF>
 </metadata>
 <defs>
  <style type="text/css">*{stroke-linejoin: round; stroke-linecap: butt}</style>
 </defs>
 <g id="figure_1">
  <g id="patch_1">
   <path d="M 0 288 
L 864 288 
L 864 0 
L 0 0 
z
" style="fill: #ffffff"/>
  </g>
  <g id="axes_1">
   <g id="patch_2">
    <path d="M 47.27 246.76 
L 284.4 246.76 
L 284.4 27.6 
L 47.27 27.6 
z
" style="fill: #eaeaf2"/>
   </g>
   <g id="matplotlib.axis_1">
    <g id="xtick_1">
     <g id="line2d_1">
      <path d="M 58.048636 246.76 
L 58.048636 27.6 
" clip-path="url(#p45e6d33cba)" style="fill: none; stroke: #ffffff; stroke-width: 0.8; stroke-linecap: round"/>
     </g>
     <g id="text_1">
      <!-- 0 -->
      <g style="fill: #262626" transform="translate(55.268168 260.917812) scale(0.1 -0.1)">
       <defs>
        <path id="ArialMT-30" d="M 266 2259 
Q 266 3072 433 3567 
Q 600 4063 929 4331 
Q 1259 4600 1759 4600 
Q 2128 4600 2406 4451 
Q 2684 4303 2865 4023 
Q 3047 3744 3150 3342 
Q 3253 2941 3253 2259 
Q 3253 1453 3087 958 
Q 2922 463 2592 192 
Q 2263 -78 1759 -78 
Q 1097 -78 719 397 
Q 266 969 266 2259 
z
M 844 2259 
Q 844 1131 1108 757 
Q 1372 384 1759 384 
Q 2147 384 2411 759 
Q 2675 1134 2675 2259 
Q 2675 3391 2411 3762 
Q 2147 4134 1753 4134 
Q 1366 4134 1134 3806 
Q 844 3388 844 2259 
z
" transform="scale(0.015625)"/>
       </defs>
       <use xlink:href="#ArialMT-30"/>
      </g>
     </g>
    </g>
    <g id="xtick_2">
     <g id="line2d_2">
      <path d="M 101.163182 246.76 
L 101.163182 27.6 
" clip-path="url(#p45e6d33cba)" style="fill: none; stroke: #ffffff; stroke-width: 0.8; stroke-linecap: round"/>
     </g>
     <g id="text_2">
      <!-- 2 -->
      <g style="fill: #262626" transform="translate(98.382713 260.917812) scale(0.1 -0.1)">
       <defs>
        <path id="ArialMT-32" d="M 3222 541 
L 3222 0 
L 194 0 
Q 188 203 259 391 
Q 375 700 629 1000 
Q 884 1300 1366 1694 
Q 2113 2306 2375 2664 
Q 2638 3022 2638 3341 
Q 2638 3675 2398 3904 
Q 2159 4134 1775 4134 
Q 1369 4134 1125 3890 
Q 881 3647 878 3216 
L 300 3275 
Q 359 3922 746 4261 
Q 1134 4600 1788 4600 
Q 2447 4600 2831 4234 
Q 3216 3869 3216 3328 
Q 3216 3053 3103 2787 
Q 2991 2522 2730 2228 
Q 2469 1934 1863 1422 
Q 1356 997 1212 845 
Q 1069 694 975 541 
L 3222 541 
z
" transform="scale(0.015625)"/>
       </defs>
       <use xlink:href="#ArialMT-32"/>
      </g>
     </g>
    </g>
    <g id="xtick_3">
     <g id="line2d_3">
      <path d="M 144.277727 246.76 
L 144.277727 27.6 
" clip-path="url(#p45e6d33cba)" style="fill: none; stroke: #ffffff; stroke-width: 0.8; stroke-linecap: round"/>
     </g>
     <g id="text_3">
      <!-- 4 -->
      <g style="fill: #262626" transform="translate(141.497259 260.917812) scale(0.1 -0.1)">
       <defs>
        <path id="ArialMT-34" d="M 2069 0 
L 2069 1097 
L 81 1097 
L 81 1613 
L 2172 4581 
L 2631 4581 
L 2631 1613 
L 3250 1613 
L 3250 1097 
L 2631 1097 
L 2631 0 
L 2069 0 
z
M 2069 1613 
L 2069 3678 
L 634 1613 
L 2069 1613 
z
" transform="scale(0.015625)"/>
       </defs>
       <use xlink:href="#ArialMT-34"/>
      </g>
     </g>
    </g>
    <g id="xtick_4">
     <g id="line2d_4">
      <path d="M 187.392273 246.76 
L 187.392273 27.6 
" clip-path="url(#p45e6d33cba)" style="fill: none; stroke: #ffffff; stroke-width: 0.8; stroke-linecap: round"/>
     </g>
     <g id="text_4">
      <!-- 6 -->
      <g style="fill: #262626" transform="translate(184.611804 260.917812) scale(0.1 -0.1)">
       <defs>
        <path id="ArialMT-36" d="M 3184 3459 
L 2625 3416 
Q 2550 3747 2413 3897 
Q 2184 4138 1850 4138 
Q 1581 4138 1378 3988 
Q 1113 3794 959 3422 
Q 806 3050 800 2363 
Q 1003 2672 1297 2822 
Q 1591 2972 1913 2972 
Q 2475 2972 2870 2558 
Q 3266 2144 3266 1488 
Q 3266 1056 3080 686 
Q 2894 316 2569 119 
Q 2244 -78 1831 -78 
Q 1128 -78 684 439 
Q 241 956 241 2144 
Q 241 3472 731 4075 
Q 1159 4600 1884 4600 
Q 2425 4600 2770 4297 
Q 3116 3994 3184 3459 
z
M 888 1484 
Q 888 1194 1011 928 
Q 1134 663 1356 523 
Q 1578 384 1822 384 
Q 2178 384 2434 671 
Q 2691 959 2691 1453 
Q 2691 1928 2437 2201 
Q 2184 2475 1800 2475 
Q 1419 2475 1153 2201 
Q 888 1928 888 1484 
z
" transform="scale(0.015625)"/>
       </defs>
       <use xlink:href="#ArialMT-36"/>
      </g>
     </g>
    </g>
    <g id="xtick_5">
     <g id="line2d_5">
      <path d="M 230.506818 246.76 
L 230.506818 27.6 
" clip-path="url(#p45e6d33cba)" style="fill: none; stroke: #ffffff; stroke-width: 0.8; stroke-linecap: round"/>
     </g>
     <g id="text_5">
      <!-- 8 -->
      <g style="fill: #262626" transform="translate(227.726349 260.917812) scale(0.1 -0.1)">
       <defs>
        <path id="ArialMT-38" d="M 1131 2484 
Q 781 2613 612 2850 
Q 444 3088 444 3419 
Q 444 3919 803 4259 
Q 1163 4600 1759 4600 
Q 2359 4600 2725 4251 
Q 3091 3903 3091 3403 
Q 3091 3084 2923 2848 
Q 2756 2613 2416 2484 
Q 2838 2347 3058 2040 
Q 3278 1734 3278 1309 
Q 3278 722 2862 322 
Q 2447 -78 1769 -78 
Q 1091 -78 675 323 
Q 259 725 259 1325 
Q 259 1772 486 2073 
Q 713 2375 1131 2484 
z
M 1019 3438 
Q 1019 3113 1228 2906 
Q 1438 2700 1772 2700 
Q 2097 2700 2305 2904 
Q 2513 3109 2513 3406 
Q 2513 3716 2298 3927 
Q 2084 4138 1766 4138 
Q 1444 4138 1231 3931 
Q 1019 3725 1019 3438 
z
M 838 1322 
Q 838 1081 952 856 
Q 1066 631 1291 507 
Q 1516 384 1775 384 
Q 2178 384 2440 643 
Q 2703 903 2703 1303 
Q 2703 1709 2433 1975 
Q 2163 2241 1756 2241 
Q 1359 2241 1098 1978 
Q 838 1716 838 1322 
z
" transform="scale(0.015625)"/>
       </defs>
       <use xlink:href="#ArialMT-38"/>
      </g>
     </g>
    </g>
    <g id="xtick_6">
     <g id="line2d_6">
      <path d="M 273.621364 246.76 
L 273.621364 27.6 
" clip-path="url(#p45e6d33cba)" style="fill: none; stroke: #ffffff; stroke-width: 0.8; stroke-linecap: round"/>
     </g>
     <g id="text_6">
      <!-- 10 -->
      <g style="fill: #262626" transform="translate(268.060426 260.917812) scale(0.1 -0.1)">
       <defs>
        <path id="ArialMT-31" d="M 2384 0 
L 1822 0 
L 1822 3584 
Q 1619 3391 1289 3197 
Q 959 3003 697 2906 
L 697 3450 
Q 1169 3672 1522 3987 
Q 1875 4303 2022 4600 
L 2384 4600 
L 2384 0 
z
" transform="scale(0.015625)"/>
       </defs>
       <use xlink:href="#ArialMT-31"/>
       <use xlink:href="#ArialMT-30" x="55.615234"/>
      </g>
     </g>
    </g>
    <g id="text_7">
     <!-- $d$ -->
     <g style="fill: #262626" transform="translate(162.635 274.063125) scale(0.1 -0.1)">
      <defs>
       <path id="DejaVuSans-Oblique-64" d="M 2675 525 
Q 2444 222 2128 65 
Q 1813 -91 1428 -91 
Q 903 -91 598 267 
Q 294 625 294 1247 
Q 294 1766 478 2236 
Q 663 2706 1013 3078 
Q 1244 3325 1534 3454 
Q 1825 3584 2144 3584 
Q 2481 3584 2739 3421 
Q 2997 3259 3138 2956 
L 3513 4863 
L 4091 4863 
L 3144 0 
L 2566 0 
L 2675 525 
z
M 891 1350 
Q 891 897 1095 644 
Q 1300 391 1663 391 
Q 1931 391 2161 520 
Q 2391 650 2566 903 
Q 2750 1166 2856 1509 
Q 2963 1853 2963 2188 
Q 2963 2622 2758 2865 
Q 2553 3109 2194 3109 
Q 1922 3109 1687 2981 
Q 1453 2853 1288 2613 
Q 1106 2353 998 2009 
Q 891 1666 891 1350 
z
" transform="scale(0.015625)"/>
      </defs>
      <use xlink:href="#DejaVuSans-Oblique-64" transform="translate(0 0.015625)"/>
     </g>
    </g>
   </g>
   <g id="matplotlib.axis_2">
    <g id="ytick_1">
     <g id="line2d_7">
      <path d="M 47.27 226.780907 
L 284.4 226.780907 
" clip-path="url(#p45e6d33cba)" style="fill: none; stroke: #ffffff; stroke-width: 0.8; stroke-linecap: round"/>
     </g>
     <g id="text_8">
      <!-- 0.2 -->
      <g style="fill: #262626" transform="translate(26.37 230.359813) scale(0.1 -0.1)">
       <defs>
        <path id="ArialMT-2e" d="M 581 0 
L 581 641 
L 1222 641 
L 1222 0 
L 581 0 
z
" transform="scale(0.015625)"/>
       </defs>
       <use xlink:href="#ArialMT-30"/>
       <use xlink:href="#ArialMT-2e" x="55.615234"/>
       <use xlink:href="#ArialMT-32" x="83.398438"/>
      </g>
     </g>
    </g>
    <g id="ytick_2">
     <g id="line2d_8">
      <path d="M 47.27 180.056057 
L 284.4 180.056057 
" clip-path="url(#p45e6d33cba)" style="fill: none; stroke: #ffffff; stroke-width: 0.8; stroke-linecap: round"/>
     </g>
     <g id="text_9">
      <!-- 0.4 -->
      <g style="fill: #262626" transform="translate(26.37 183.634964) scale(0.1 -0.1)">
       <use xlink:href="#ArialMT-30"/>
       <use xlink:href="#ArialMT-2e" x="55.615234"/>
       <use xlink:href="#ArialMT-34" x="83.398438"/>
      </g>
     </g>
    </g>
    <g id="ytick_3">
     <g id="line2d_9">
      <path d="M 47.27 133.331208 
L 284.4 133.331208 
" clip-path="url(#p45e6d33cba)" style="fill: none; stroke: #ffffff; stroke-width: 0.8; stroke-linecap: round"/>
     </g>
     <g id="text_10">
      <!-- 0.6 -->
      <g style="fill: #262626" transform="translate(26.37 136.910114) scale(0.1 -0.1)">
       <use xlink:href="#ArialMT-30"/>
       <use xlink:href="#ArialMT-2e" x="55.615234"/>
       <use xlink:href="#ArialMT-36" x="83.398438"/>
      </g>
     </g>
    </g>
    <g id="ytick_4">
     <g id="line2d_10">
      <path d="M 47.27 86.606358 
L 284.4 86.606358 
" clip-path="url(#p45e6d33cba)" style="fill: none; stroke: #ffffff; stroke-width: 0.8; stroke-linecap: round"/>
     </g>
     <g id="text_11">
      <!-- 0.8 -->
      <g style="fill: #262626" transform="translate(26.37 90.185264) scale(0.1 -0.1)">
       <use xlink:href="#ArialMT-30"/>
       <use xlink:href="#ArialMT-2e" x="55.615234"/>
       <use xlink:href="#ArialMT-38" x="83.398438"/>
      </g>
     </g>
    </g>
    <g id="ytick_5">
     <g id="line2d_11">
      <path d="M 47.27 39.881508 
L 284.4 39.881508 
" clip-path="url(#p45e6d33cba)" style="fill: none; stroke: #ffffff; stroke-width: 0.8; stroke-linecap: round"/>
     </g>
     <g id="text_12">
      <!-- 1.0 -->
      <g style="fill: #262626" transform="translate(26.37 43.460414) scale(0.1 -0.1)">
       <use xlink:href="#ArialMT-31"/>
       <use xlink:href="#ArialMT-2e" x="55.615234"/>
       <use xlink:href="#ArialMT-30" x="83.398438"/>
      </g>
     </g>
    </g>
    <g id="text_13">
     <!-- $\mathbb{E}(h(x))$ -->
     <g style="fill: #262626" transform="translate(20.3825 154.33) rotate(-90) scale(0.1 -0.1)">
      <defs>
       <path id="STIXNonUnicode-Italic-e156" d="M 4250 4179 
L 4192 3942 
L 2150 3942 
L 1709 2266 
L 3514 2266 
L 3443 2029 
L 1645 2029 
L 1165 237 
L 3443 237 
L 3392 0 
L 109 0 
L 1229 4179 
L 4250 4179 
z
M 1914 3942 
L 1414 3942 
L 416 237 
L 928 237 
L 1914 3942 
z
" transform="scale(0.015625)"/>
       <path id="DejaVuSans-28" d="M 1984 4856 
Q 1566 4138 1362 3434 
Q 1159 2731 1159 2009 
Q 1159 1288 1364 580 
Q 1569 -128 1984 -844 
L 1484 -844 
Q 1016 -109 783 600 
Q 550 1309 550 2009 
Q 550 2706 781 3412 
Q 1013 4119 1484 4856 
L 1984 4856 
z
" transform="scale(0.015625)"/>
       <path id="DejaVuSans-Oblique-68" d="M 3566 2113 
L 3156 0 
L 2578 0 
L 2988 2091 
Q 3016 2238 3031 2350 
Q 3047 2463 3047 2528 
Q 3047 2791 2881 2937 
Q 2716 3084 2419 3084 
Q 1956 3084 1617 2771 
Q 1278 2459 1178 1941 
L 800 0 
L 225 0 
L 1172 4863 
L 1747 4863 
L 1375 2950 
Q 1594 3244 1934 3414 
Q 2275 3584 2650 3584 
Q 3113 3584 3367 3334 
Q 3622 3084 3622 2631 
Q 3622 2519 3608 2391 
Q 3594 2263 3566 2113 
z
" transform="scale(0.015625)"/>
       <path id="DejaVuSans-Oblique-78" d="M 3841 3500 
L 2234 1784 
L 3219 0 
L 2559 0 
L 1819 1388 
L 531 0 
L -166 0 
L 1556 1844 
L 641 3500 
L 1300 3500 
L 1972 2234 
L 3144 3500 
L 3841 3500 
z
" transform="scale(0.015625)"/>
       <path id="DejaVuSans-29" d="M 513 4856 
L 1013 4856 
Q 1481 4119 1714 3412 
Q 1947 2706 1947 2009 
Q 1947 1309 1714 600 
Q 1481 -109 1013 -844 
L 513 -844 
Q 928 -128 1133 580 
Q 1338 1288 1338 2009 
Q 1338 2731 1133 3434 
Q 928 4138 513 4856 
z
" transform="scale(0.015625)"/>
      </defs>
      <use xlink:href="#STIXNonUnicode-Italic-e156" transform="translate(0 0.015625)"/>
      <use xlink:href="#DejaVuSans-28" transform="translate(63.899994 0.015625)"/>
      <use xlink:href="#DejaVuSans-Oblique-68" transform="translate(102.913666 0.015625)"/>
      <use xlink:href="#DejaVuSans-28" transform="translate(166.292572 0.015625)"/>
      <use xlink:href="#DejaVuSans-Oblique-78" transform="translate(205.306244 0.015625)"/>
      <use xlink:href="#DejaVuSans-29" transform="translate(264.485931 0.015625)"/>
      <use xlink:href="#DejaVuSans-29" transform="translate(303.499603 0.015625)"/>
     </g>
    </g>
   </g>
   <g id="line2d_12">
    <path d="M 58.048636 37.561818 
L 60.226139 50.029784 
L 62.403641 44.640232 
L 64.581143 46.578138 
L 66.758646 62.87356 
L 68.936148 65.035055 
L 71.11365 70.552202 
L 73.291152 67.7187 
L 75.468655 92.853658 
L 77.646157 98.627787 
L 79.823659 96.548505 
L 82.001162 106.642504 
L 84.178664 118.321676 
L 86.356166 110.841327 
L 88.533669 121.2845 
L 90.711171 128.228783 
L 92.888673 130.109131 
L 95.066175 131.446015 
L 97.243678 145.320695 
L 99.42118 134.418669 
L 101.598682 153.539914 
L 103.776185 155.497455 
L 105.953687 152.695709 
L 108.131189 157.552946 
L 110.308691 155.17613 
L 112.486194 151.978384 
L 114.663696 173.219526 
L 116.841198 170.70278 
L 119.018701 172.533893 
L 121.196203 167.735335 
L 123.373705 175.869429 
L 125.551208 170.265884 
L 127.72871 180.031415 
L 129.906212 172.128903 
L 132.083714 179.012829 
L 134.261217 190.012402 
L 136.438719 189.937222 
L 138.616221 190.015357 
L 140.793724 185.848161 
L 142.971226 191.147155 
L 145.148728 198.211606 
L 147.32623 163.410132 
L 149.503733 195.603963 
L 151.681235 185.166339 
L 153.858737 193.440026 
L 156.03624 197.535444 
L 158.213742 203.393292 
L 160.391244 195.930728 
L 162.568747 202.3561 
L 164.746249 202.853339 
L 166.923751 203.604688 
L 169.101253 196.63703 
L 171.278756 204.080604 
L 173.456258 211.021285 
L 175.63376 204.26061 
L 177.811263 209.909946 
L 179.988765 213.026191 
L 182.166267 206.257644 
L 184.34377 215.862205 
L 186.521272 217.841699 
L 188.698774 217.323672 
L 190.876276 205.759178 
L 193.053779 220.890315 
L 195.231281 220.486705 
L 197.408783 217.177833 
L 199.586286 210.975957 
L 201.763788 210.723243 
L 203.94129 214.743114 
L 206.118792 213.223216 
L 208.296295 215.130952 
L 210.473797 220.702449 
L 212.651299 216.303003 
L 214.828802 207.457712 
L 217.006304 195.633442 
L 219.183806 219.434032 
L 221.361309 217.553375 
L 223.538811 226.707431 
L 225.716313 213.698974 
L 227.893815 227.436869 
L 230.071318 227.563006 
L 232.24882 228.222532 
L 234.426322 223.44009 
L 236.603825 225.780976 
L 238.781327 226.214498 
L 240.958829 228.133784 
L 243.136331 226.591535 
L 245.313834 235.999527 
L 247.491336 229.068077 
L 249.668838 231.055615 
L 251.846341 222.470724 
L 254.023843 229.707033 
L 256.201345 233.37224 
L 258.378848 233.263222 
L 260.55635 232.714405 
L 262.733852 230.303093 
L 264.911354 236.161398 
L 267.088857 236.798182 
L 269.266359 228.309673 
L 271.443861 202.209924 
L 273.621364 236.34785 
" clip-path="url(#p45e6d33cba)" style="fill: none; stroke: #1f77b4; stroke-width: 1.5; stroke-linecap: round"/>
   </g>
   <g id="line2d_13">
    <path d="M 58.048636 39.881508 
L 60.226139 41.847877 
L 62.403641 46.480597 
L 64.581143 52.516676 
L 66.758646 59.228271 
L 68.936148 66.18936 
L 71.11365 73.149468 
L 73.291152 79.962696 
L 75.468655 86.546568 
L 77.646157 92.857528 
L 79.823659 98.876041 
L 82.001162 104.597367 
L 84.178664 110.025775 
L 86.356166 115.170877 
L 88.533669 120.045288 
L 90.711171 124.663134 
L 92.888673 129.039105 
L 95.066175 133.187858 
L 97.243678 137.123651 
L 99.42118 140.860129 
L 101.598682 144.410204 
L 103.776185 147.786006 
L 105.953687 150.998868 
L 108.131189 154.059341 
L 110.308691 156.977224 
L 112.486194 159.761604 
L 114.663696 162.420899 
L 116.841198 164.962902 
L 119.018701 167.39483 
L 121.196203 169.723363 
L 123.373705 171.954688 
L 125.551208 174.094541 
L 127.72871 176.148236 
L 129.906212 178.120709 
L 132.083714 180.016538 
L 134.261217 181.839983 
L 136.438719 183.595002 
L 138.616221 185.285283 
L 140.793724 186.91426 
L 142.971226 188.485137 
L 145.148728 190.000904 
L 147.32623 191.464358 
L 149.503733 192.878109 
L 151.681235 194.244606 
L 153.858737 195.566139 
L 156.03624 196.844857 
L 158.213742 198.082778 
L 160.391244 199.281796 
L 162.568747 200.443691 
L 164.746249 201.570141 
L 166.923751 202.662722 
L 169.101253 203.722921 
L 171.278756 204.752142 
L 173.456258 205.751707 
L 175.63376 206.722868 
L 177.811263 207.666806 
L 179.988765 208.584639 
L 182.166267 209.477426 
L 184.34377 210.346168 
L 186.521272 211.191817 
L 188.698774 212.015273 
L 190.876276 212.817392 
L 193.053779 213.598986 
L 195.231281 214.360828 
L 197.408783 215.103652 
L 199.586286 215.828155 
L 201.763788 216.535004 
L 203.94129 217.224832 
L 206.118792 217.898242 
L 208.296295 218.55581 
L 210.473797 219.198085 
L 212.651299 219.825592 
L 214.828802 220.438831 
L 217.006304 221.038282 
L 219.183806 221.624401 
L 221.361309 222.197626 
L 223.538811 222.758376 
L 225.716313 223.307052 
L 227.893815 223.844038 
L 230.071318 224.369702 
L 232.24882 224.884396 
L 234.426322 225.38846 
L 236.603825 225.882217 
L 238.781327 226.36598 
L 240.958829 226.840047 
L 243.136331 227.304706 
L 245.313834 227.760234 
L 247.491336 228.206895 
L 249.668838 228.644946 
L 251.846341 229.074632 
L 254.023843 229.496189 
L 256.201345 229.909846 
L 258.378848 230.315821 
L 260.55635 230.714327 
L 262.733852 231.105566 
L 264.911354 231.489735 
L 267.088857 231.867023 
L 269.266359 232.237614 
L 271.443861 232.601682 
L 273.621364 232.9594 
" clip-path="url(#p45e6d33cba)" style="fill: none; stroke-dasharray: 5.55,2.4; stroke-dashoffset: 0; stroke: #ff0000; stroke-width: 1.5"/>
   </g>
   <g id="patch_3">
    <path d="M 47.27 246.76 
L 47.27 27.6 
" style="fill: none; stroke: #ffffff; stroke-width: 0.8; stroke-linejoin: miter; stroke-linecap: square"/>
   </g>
   <g id="patch_4">
    <path d="M 284.4 246.76 
L 284.4 27.6 
" style="fill: none; stroke: #ffffff; stroke-width: 0.8; stroke-linejoin: miter; stroke-linecap: square"/>
   </g>
   <g id="patch_5">
    <path d="M 47.27 246.76 
L 284.4 246.76 
" style="fill: none; stroke: #ffffff; stroke-width: 0.8; stroke-linejoin: miter; stroke-linecap: square"/>
   </g>
   <g id="patch_6">
    <path d="M 47.27 27.6 
L 284.4 27.6 
" style="fill: none; stroke: #ffffff; stroke-width: 0.8; stroke-linejoin: miter; stroke-linecap: square"/>
   </g>
   <g id="text_14">
    <!-- Integral Deductible, $\alpha = 2, \lambda = 1$ -->
    <g style="fill: #262626" transform="translate(79.495 21.6) scale(0.12 -0.12)">
     <defs>
      <path id="ArialMT-49" d="M 597 0 
L 597 4581 
L 1203 4581 
L 1203 0 
L 597 0 
z
" transform="scale(0.015625)"/>
      <path id="ArialMT-6e" d="M 422 0 
L 422 3319 
L 928 3319 
L 928 2847 
Q 1294 3394 1984 3394 
Q 2284 3394 2536 3286 
Q 2788 3178 2913 3003 
Q 3038 2828 3088 2588 
Q 3119 2431 3119 2041 
L 3119 0 
L 2556 0 
L 2556 2019 
Q 2556 2363 2490 2533 
Q 2425 2703 2258 2804 
Q 2091 2906 1866 2906 
Q 1506 2906 1245 2678 
Q 984 2450 984 1813 
L 984 0 
L 422 0 
z
" transform="scale(0.015625)"/>
      <path id="ArialMT-74" d="M 1650 503 
L 1731 6 
Q 1494 -44 1306 -44 
Q 1000 -44 831 53 
Q 663 150 594 308 
Q 525 466 525 972 
L 525 2881 
L 113 2881 
L 113 3319 
L 525 3319 
L 525 4141 
L 1084 4478 
L 1084 3319 
L 1650 3319 
L 1650 2881 
L 1084 2881 
L 1084 941 
Q 1084 700 1114 631 
Q 1144 563 1211 522 
Q 1278 481 1403 481 
Q 1497 481 1650 503 
z
" transform="scale(0.015625)"/>
      <path id="ArialMT-65" d="M 2694 1069 
L 3275 997 
Q 3138 488 2766 206 
Q 2394 -75 1816 -75 
Q 1088 -75 661 373 
Q 234 822 234 1631 
Q 234 2469 665 2931 
Q 1097 3394 1784 3394 
Q 2450 3394 2872 2941 
Q 3294 2488 3294 1666 
Q 3294 1616 3291 1516 
L 816 1516 
Q 847 969 1125 678 
Q 1403 388 1819 388 
Q 2128 388 2347 550 
Q 2566 713 2694 1069 
z
M 847 1978 
L 2700 1978 
Q 2663 2397 2488 2606 
Q 2219 2931 1791 2931 
Q 1403 2931 1139 2672 
Q 875 2413 847 1978 
z
" transform="scale(0.015625)"/>
      <path id="ArialMT-67" d="M 319 -275 
L 866 -356 
Q 900 -609 1056 -725 
Q 1266 -881 1628 -881 
Q 2019 -881 2231 -725 
Q 2444 -569 2519 -288 
Q 2563 -116 2559 434 
Q 2191 0 1641 0 
Q 956 0 581 494 
Q 206 988 206 1678 
Q 206 2153 378 2554 
Q 550 2956 876 3175 
Q 1203 3394 1644 3394 
Q 2231 3394 2613 2919 
L 2613 3319 
L 3131 3319 
L 3131 450 
Q 3131 -325 2973 -648 
Q 2816 -972 2473 -1159 
Q 2131 -1347 1631 -1347 
Q 1038 -1347 672 -1080 
Q 306 -813 319 -275 
z
M 784 1719 
Q 784 1066 1043 766 
Q 1303 466 1694 466 
Q 2081 466 2343 764 
Q 2606 1063 2606 1700 
Q 2606 2309 2336 2618 
Q 2066 2928 1684 2928 
Q 1309 2928 1046 2623 
Q 784 2319 784 1719 
z
" transform="scale(0.015625)"/>
      <path id="ArialMT-72" d="M 416 0 
L 416 3319 
L 922 3319 
L 922 2816 
Q 1116 3169 1280 3281 
Q 1444 3394 1641 3394 
Q 1925 3394 2219 3213 
L 2025 2691 
Q 1819 2813 1613 2813 
Q 1428 2813 1281 2702 
Q 1134 2591 1072 2394 
Q 978 2094 978 1738 
L 978 0 
L 416 0 
z
" transform="scale(0.015625)"/>
      <path id="ArialMT-61" d="M 2588 409 
Q 2275 144 1986 34 
Q 1697 -75 1366 -75 
Q 819 -75 525 192 
Q 231 459 231 875 
Q 231 1119 342 1320 
Q 453 1522 633 1644 
Q 813 1766 1038 1828 
Q 1203 1872 1538 1913 
Q 2219 1994 2541 2106 
Q 2544 2222 2544 2253 
Q 2544 2597 2384 2738 
Q 2169 2928 1744 2928 
Q 1347 2928 1158 2789 
Q 969 2650 878 2297 
L 328 2372 
Q 403 2725 575 2942 
Q 747 3159 1072 3276 
Q 1397 3394 1825 3394 
Q 2250 3394 2515 3294 
Q 2781 3194 2906 3042 
Q 3031 2891 3081 2659 
Q 3109 2516 3109 2141 
L 3109 1391 
Q 3109 606 3145 398 
Q 3181 191 3288 0 
L 2700 0 
Q 2613 175 2588 409 
z
M 2541 1666 
Q 2234 1541 1622 1453 
Q 1275 1403 1131 1340 
Q 988 1278 909 1158 
Q 831 1038 831 891 
Q 831 666 1001 516 
Q 1172 366 1500 366 
Q 1825 366 2078 508 
Q 2331 650 2450 897 
Q 2541 1088 2541 1459 
L 2541 1666 
z
" transform="scale(0.015625)"/>
      <path id="ArialMT-6c" d="M 409 0 
L 409 4581 
L 972 4581 
L 972 0 
L 409 0 
z
" transform="scale(0.015625)"/>
      <path id="ArialMT-20" transform="scale(0.015625)"/>
      <path id="ArialMT-44" d="M 494 0 
L 494 4581 
L 2072 4581 
Q 2606 4581 2888 4516 
Q 3281 4425 3559 4188 
Q 3922 3881 4101 3404 
Q 4281 2928 4281 2316 
Q 4281 1794 4159 1391 
Q 4038 988 3847 723 
Q 3656 459 3429 307 
Q 3203 156 2883 78 
Q 2563 0 2147 0 
L 494 0 
z
M 1100 541 
L 2078 541 
Q 2531 541 2789 625 
Q 3047 709 3200 863 
Q 3416 1078 3536 1442 
Q 3656 1806 3656 2325 
Q 3656 3044 3420 3430 
Q 3184 3816 2847 3947 
Q 2603 4041 2063 4041 
L 1100 4041 
L 1100 541 
z
" transform="scale(0.015625)"/>
      <path id="ArialMT-64" d="M 2575 0 
L 2575 419 
Q 2259 -75 1647 -75 
Q 1250 -75 917 144 
Q 584 363 401 755 
Q 219 1147 219 1656 
Q 219 2153 384 2558 
Q 550 2963 881 3178 
Q 1213 3394 1622 3394 
Q 1922 3394 2156 3267 
Q 2391 3141 2538 2938 
L 2538 4581 
L 3097 4581 
L 3097 0 
L 2575 0 
z
M 797 1656 
Q 797 1019 1065 703 
Q 1334 388 1700 388 
Q 2069 388 2326 689 
Q 2584 991 2584 1609 
Q 2584 2291 2321 2609 
Q 2059 2928 1675 2928 
Q 1300 2928 1048 2622 
Q 797 2316 797 1656 
z
" transform="scale(0.015625)"/>
      <path id="ArialMT-75" d="M 2597 0 
L 2597 488 
Q 2209 -75 1544 -75 
Q 1250 -75 995 37 
Q 741 150 617 320 
Q 494 491 444 738 
Q 409 903 409 1263 
L 409 3319 
L 972 3319 
L 972 1478 
Q 972 1038 1006 884 
Q 1059 663 1231 536 
Q 1403 409 1656 409 
Q 1909 409 2131 539 
Q 2353 669 2445 892 
Q 2538 1116 2538 1541 
L 2538 3319 
L 3100 3319 
L 3100 0 
L 2597 0 
z
" transform="scale(0.015625)"/>
      <path id="ArialMT-63" d="M 2588 1216 
L 3141 1144 
Q 3050 572 2676 248 
Q 2303 -75 1759 -75 
Q 1078 -75 664 370 
Q 250 816 250 1647 
Q 250 2184 428 2587 
Q 606 2991 970 3192 
Q 1334 3394 1763 3394 
Q 2303 3394 2647 3120 
Q 2991 2847 3088 2344 
L 2541 2259 
Q 2463 2594 2264 2762 
Q 2066 2931 1784 2931 
Q 1359 2931 1093 2626 
Q 828 2322 828 1663 
Q 828 994 1084 691 
Q 1341 388 1753 388 
Q 2084 388 2306 591 
Q 2528 794 2588 1216 
z
" transform="scale(0.015625)"/>
      <path id="ArialMT-69" d="M 425 3934 
L 425 4581 
L 988 4581 
L 988 3934 
L 425 3934 
z
M 425 0 
L 425 3319 
L 988 3319 
L 988 0 
L 425 0 
z
" transform="scale(0.015625)"/>
      <path id="ArialMT-62" d="M 941 0 
L 419 0 
L 419 4581 
L 981 4581 
L 981 2947 
Q 1338 3394 1891 3394 
Q 2197 3394 2470 3270 
Q 2744 3147 2920 2923 
Q 3097 2700 3197 2384 
Q 3297 2069 3297 1709 
Q 3297 856 2875 390 
Q 2453 -75 1863 -75 
Q 1275 -75 941 416 
L 941 0 
z
M 934 1684 
Q 934 1088 1097 822 
Q 1363 388 1816 388 
Q 2184 388 2453 708 
Q 2722 1028 2722 1663 
Q 2722 2313 2464 2622 
Q 2206 2931 1841 2931 
Q 1472 2931 1203 2611 
Q 934 2291 934 1684 
z
" transform="scale(0.015625)"/>
      <path id="ArialMT-2c" d="M 569 0 
L 569 641 
L 1209 641 
L 1209 0 
Q 1209 -353 1084 -570 
Q 959 -788 688 -906 
L 531 -666 
Q 709 -588 793 -436 
Q 878 -284 888 0 
L 569 0 
z
" transform="scale(0.015625)"/>
      <path id="DejaVuSans-Oblique-3b1" d="M 2619 1628 
L 2622 2350 
Q 2625 3088 2069 3091 
Q 1653 3094 1394 2747 
Q 1069 2319 959 1747 
Q 825 1059 994 731 
Q 1169 397 1547 397 
Q 1966 397 2319 1063 
L 2619 1628 
z
M 2166 3578 
Q 3141 3594 3128 2584 
Q 3128 2584 3616 3500 
L 4128 3500 
L 3119 1603 
L 3109 919 
Q 3109 766 3194 638 
Q 3291 488 3391 488 
L 3669 488 
L 3575 0 
L 3228 0 
Q 2934 0 2722 263 
Q 2622 394 2619 669 
Q 2416 334 2066 50 
Q 1900 -81 1453 -78 
Q 722 -72 456 397 
Q 184 884 353 1747 
Q 534 2675 1009 3097 
Q 1544 3569 2166 3578 
z
" transform="scale(0.015625)"/>
      <path id="DejaVuSans-3d" d="M 678 2906 
L 4684 2906 
L 4684 2381 
L 678 2381 
L 678 2906 
z
M 678 1631 
L 4684 1631 
L 4684 1100 
L 678 1100 
L 678 1631 
z
" transform="scale(0.015625)"/>
      <path id="DejaVuSans-32" d="M 1228 531 
L 3431 531 
L 3431 0 
L 469 0 
L 469 531 
Q 828 903 1448 1529 
Q 2069 2156 2228 2338 
Q 2531 2678 2651 2914 
Q 2772 3150 2772 3378 
Q 2772 3750 2511 3984 
Q 2250 4219 1831 4219 
Q 1534 4219 1204 4116 
Q 875 4013 500 3803 
L 500 4441 
Q 881 4594 1212 4672 
Q 1544 4750 1819 4750 
Q 2544 4750 2975 4387 
Q 3406 4025 3406 3419 
Q 3406 3131 3298 2873 
Q 3191 2616 2906 2266 
Q 2828 2175 2409 1742 
Q 1991 1309 1228 531 
z
" transform="scale(0.015625)"/>
      <path id="DejaVuSans-2c" d="M 750 794 
L 1409 794 
L 1409 256 
L 897 -744 
L 494 -744 
L 750 256 
L 750 794 
z
" transform="scale(0.015625)"/>
      <path id="DejaVuSans-Oblique-3bb" d="M 2350 4316 
L 3125 0 
L 2516 0 
L 2038 2588 
L 328 0 
L -281 0 
L 1903 3356 
L 1794 3975 
Q 1725 4369 1391 4369 
L 1091 4369 
L 1184 4863 
L 1550 4856 
Q 2253 4847 2350 4316 
z
" transform="scale(0.015625)"/>
      <path id="DejaVuSans-31" d="M 794 531 
L 1825 531 
L 1825 4091 
L 703 3866 
L 703 4441 
L 1819 4666 
L 2450 4666 
L 2450 531 
L 3481 531 
L 3481 0 
L 794 0 
L 794 531 
z
" transform="scale(0.015625)"/>
     </defs>
     <use xlink:href="#ArialMT-49" transform="translate(0 0.015625)"/>
     <use xlink:href="#ArialMT-6e" transform="translate(27.783203 0.015625)"/>
     <use xlink:href="#ArialMT-74" transform="translate(83.398438 0.015625)"/>
     <use xlink:href="#ArialMT-65" transform="translate(111.181641 0.015625)"/>
     <use xlink:href="#ArialMT-67" transform="translate(166.796875 0.015625)"/>
     <use xlink:href="#ArialMT-72" transform="translate(222.412109 0.015625)"/>
     <use xlink:href="#ArialMT-61" transform="translate(255.712891 0.015625)"/>
     <use xlink:href="#ArialMT-6c" transform="translate(311.328125 0.015625)"/>
     <use xlink:href="#ArialMT-20" transform="translate(333.544922 0.015625)"/>
     <use xlink:href="#ArialMT-44" transform="translate(361.328125 0.015625)"/>
     <use xlink:href="#ArialMT-65" transform="translate(433.544922 0.015625)"/>
     <use xlink:href="#ArialMT-64" transform="translate(489.160156 0.015625)"/>
     <use xlink:href="#ArialMT-75" transform="translate(544.775391 0.015625)"/>
     <use xlink:href="#ArialMT-63" transform="translate(600.390625 0.015625)"/>
     <use xlink:href="#ArialMT-74" transform="translate(650.390625 0.015625)"/>
     <use xlink:href="#ArialMT-69" transform="translate(678.173828 0.015625)"/>
     <use xlink:href="#ArialMT-62" transform="translate(700.390625 0.015625)"/>
     <use xlink:href="#ArialMT-6c" transform="translate(756.005859 0.015625)"/>
     <use xlink:href="#ArialMT-65" transform="translate(778.222656 0.015625)"/>
     <use xlink:href="#ArialMT-2c" transform="translate(833.837891 0.015625)"/>
     <use xlink:href="#ArialMT-20" transform="translate(861.621094 0.015625)"/>
     <use xlink:href="#DejaVuSans-Oblique-3b1" transform="translate(889.404297 0.015625)"/>
     <use xlink:href="#DejaVuSans-3d" transform="translate(974.804688 0.015625)"/>
     <use xlink:href="#DejaVuSans-32" transform="translate(1078.076172 0.015625)"/>
     <use xlink:href="#DejaVuSans-2c" transform="translate(1141.699219 0.015625)"/>
     <use xlink:href="#DejaVuSans-Oblique-3bb" transform="translate(1192.96875 0.015625)"/>
     <use xlink:href="#DejaVuSans-3d" transform="translate(1271.630859 0.015625)"/>
     <use xlink:href="#DejaVuSans-31" transform="translate(1374.902344 0.015625)"/>
    </g>
   </g>
   <g id="legend_1">
    <g id="patch_7">
     <path d="M 198.7125 64.007812 
L 277.4 64.007812 
Q 279.4 64.007812 279.4 62.007812 
L 279.4 34.6 
Q 279.4 32.6 277.4 32.6 
L 198.7125 32.6 
Q 196.7125 32.6 196.7125 34.6 
L 196.7125 62.007812 
Q 196.7125 64.007812 198.7125 64.007812 
z
" style="fill: #eaeaf2; opacity: 0.8; stroke: #cccccc; stroke-linejoin: miter"/>
    </g>
    <g id="line2d_14">
     <path d="M 200.7125 40.257812 
L 210.7125 40.257812 
L 220.7125 40.257812 
" style="fill: none; stroke: #1f77b4; stroke-width: 1.5; stroke-linecap: round"/>
    </g>
    <g id="text_15">
     <!-- Simulation -->
     <g style="fill: #262626" transform="translate(228.7125 43.757812) scale(0.1 -0.1)">
      <defs>
       <path id="ArialMT-53" d="M 288 1472 
L 859 1522 
Q 900 1178 1048 958 
Q 1197 738 1509 602 
Q 1822 466 2213 466 
Q 2559 466 2825 569 
Q 3091 672 3220 851 
Q 3350 1031 3350 1244 
Q 3350 1459 3225 1620 
Q 3100 1781 2813 1891 
Q 2628 1963 1997 2114 
Q 1366 2266 1113 2400 
Q 784 2572 623 2826 
Q 463 3081 463 3397 
Q 463 3744 659 4045 
Q 856 4347 1234 4503 
Q 1613 4659 2075 4659 
Q 2584 4659 2973 4495 
Q 3363 4331 3572 4012 
Q 3781 3694 3797 3291 
L 3216 3247 
Q 3169 3681 2898 3903 
Q 2628 4125 2100 4125 
Q 1550 4125 1298 3923 
Q 1047 3722 1047 3438 
Q 1047 3191 1225 3031 
Q 1400 2872 2139 2705 
Q 2878 2538 3153 2413 
Q 3553 2228 3743 1945 
Q 3934 1663 3934 1294 
Q 3934 928 3725 604 
Q 3516 281 3123 101 
Q 2731 -78 2241 -78 
Q 1619 -78 1198 103 
Q 778 284 539 648 
Q 300 1013 288 1472 
z
" transform="scale(0.015625)"/>
       <path id="ArialMT-6d" d="M 422 0 
L 422 3319 
L 925 3319 
L 925 2853 
Q 1081 3097 1340 3245 
Q 1600 3394 1931 3394 
Q 2300 3394 2536 3241 
Q 2772 3088 2869 2813 
Q 3263 3394 3894 3394 
Q 4388 3394 4653 3120 
Q 4919 2847 4919 2278 
L 4919 0 
L 4359 0 
L 4359 2091 
Q 4359 2428 4304 2576 
Q 4250 2725 4106 2815 
Q 3963 2906 3769 2906 
Q 3419 2906 3187 2673 
Q 2956 2441 2956 1928 
L 2956 0 
L 2394 0 
L 2394 2156 
Q 2394 2531 2256 2718 
Q 2119 2906 1806 2906 
Q 1569 2906 1367 2781 
Q 1166 2656 1075 2415 
Q 984 2175 984 1722 
L 984 0 
L 422 0 
z
" transform="scale(0.015625)"/>
       <path id="ArialMT-6f" d="M 213 1659 
Q 213 2581 725 3025 
Q 1153 3394 1769 3394 
Q 2453 3394 2887 2945 
Q 3322 2497 3322 1706 
Q 3322 1066 3130 698 
Q 2938 331 2570 128 
Q 2203 -75 1769 -75 
Q 1072 -75 642 372 
Q 213 819 213 1659 
z
M 791 1659 
Q 791 1022 1069 705 
Q 1347 388 1769 388 
Q 2188 388 2466 706 
Q 2744 1025 2744 1678 
Q 2744 2294 2464 2611 
Q 2184 2928 1769 2928 
Q 1347 2928 1069 2612 
Q 791 2297 791 1659 
z
" transform="scale(0.015625)"/>
      </defs>
      <use xlink:href="#ArialMT-53"/>
      <use xlink:href="#ArialMT-69" x="66.699219"/>
      <use xlink:href="#ArialMT-6d" x="88.916016"/>
      <use xlink:href="#ArialMT-75" x="172.216797"/>
      <use xlink:href="#ArialMT-6c" x="227.832031"/>
      <use xlink:href="#ArialMT-61" x="250.048828"/>
      <use xlink:href="#ArialMT-74" x="305.664062"/>
      <use xlink:href="#ArialMT-69" x="333.447266"/>
      <use xlink:href="#ArialMT-6f" x="355.664062"/>
      <use xlink:href="#ArialMT-6e" x="411.279297"/>
     </g>
    </g>
    <g id="line2d_15">
     <path d="M 200.7125 54.403125 
L 210.7125 54.403125 
L 220.7125 54.403125 
" style="fill: none; stroke-dasharray: 5.55,2.4; stroke-dashoffset: 0; stroke: #ff0000; stroke-width: 1.5"/>
    </g>
    <g id="text_16">
     <!-- Analytical -->
     <g style="fill: #262626" transform="translate(228.7125 57.903125) scale(0.1 -0.1)">
      <defs>
       <path id="ArialMT-41" d="M -9 0 
L 1750 4581 
L 2403 4581 
L 4278 0 
L 3588 0 
L 3053 1388 
L 1138 1388 
L 634 0 
L -9 0 
z
M 1313 1881 
L 2866 1881 
L 2388 3150 
Q 2169 3728 2063 4100 
Q 1975 3659 1816 3225 
L 1313 1881 
z
" transform="scale(0.015625)"/>
       <path id="ArialMT-79" d="M 397 -1278 
L 334 -750 
Q 519 -800 656 -800 
Q 844 -800 956 -737 
Q 1069 -675 1141 -563 
Q 1194 -478 1313 -144 
Q 1328 -97 1363 -6 
L 103 3319 
L 709 3319 
L 1400 1397 
Q 1534 1031 1641 628 
Q 1738 1016 1872 1384 
L 2581 3319 
L 3144 3319 
L 1881 -56 
Q 1678 -603 1566 -809 
Q 1416 -1088 1222 -1217 
Q 1028 -1347 759 -1347 
Q 597 -1347 397 -1278 
z
" transform="scale(0.015625)"/>
      </defs>
      <use xlink:href="#ArialMT-41"/>
      <use xlink:href="#ArialMT-6e" x="66.699219"/>
      <use xlink:href="#ArialMT-61" x="122.314453"/>
      <use xlink:href="#ArialMT-6c" x="177.929688"/>
      <use xlink:href="#ArialMT-79" x="200.146484"/>
      <use xlink:href="#ArialMT-74" x="250.146484"/>
      <use xlink:href="#ArialMT-69" x="277.929688"/>
      <use xlink:href="#ArialMT-63" x="300.146484"/>
      <use xlink:href="#ArialMT-61" x="350.146484"/>
      <use xlink:href="#ArialMT-6c" x="405.761719"/>
     </g>
    </g>
   </g>
  </g>
  <g id="axes_2">
   <g id="patch_8">
    <path d="M 331.67 246.76 
L 568.8 246.76 
L 568.8 27.6 
L 331.67 27.6 
z
" style="fill: #eaeaf2"/>
   </g>
   <g id="matplotlib.axis_3">
    <g id="xtick_7">
     <g id="line2d_16">
      <path d="M 342.448636 246.76 
L 342.448636 27.6 
" clip-path="url(#p6ac4620510)" style="fill: none; stroke: #ffffff; stroke-width: 0.8; stroke-linecap: round"/>
     </g>
     <g id="text_17">
      <!-- 0 -->
      <g style="fill: #262626" transform="translate(339.668168 260.917812) scale(0.1 -0.1)">
       <use xlink:href="#ArialMT-30"/>
      </g>
     </g>
    </g>
    <g id="xtick_8">
     <g id="line2d_17">
      <path d="M 385.563182 246.76 
L 385.563182 27.6 
" clip-path="url(#p6ac4620510)" style="fill: none; stroke: #ffffff; stroke-width: 0.8; stroke-linecap: round"/>
     </g>
     <g id="text_18">
      <!-- 2 -->
      <g style="fill: #262626" transform="translate(382.782713 260.917812) scale(0.1 -0.1)">
       <use xlink:href="#ArialMT-32"/>
      </g>
     </g>
    </g>
    <g id="xtick_9">
     <g id="line2d_18">
      <path d="M 428.677727 246.76 
L 428.677727 27.6 
" clip-path="url(#p6ac4620510)" style="fill: none; stroke: #ffffff; stroke-width: 0.8; stroke-linecap: round"/>
     </g>
     <g id="text_19">
      <!-- 4 -->
      <g style="fill: #262626" transform="translate(425.897259 260.917812) scale(0.1 -0.1)">
       <use xlink:href="#ArialMT-34"/>
      </g>
     </g>
    </g>
    <g id="xtick_10">
     <g id="line2d_19">
      <path d="M 471.792273 246.76 
L 471.792273 27.6 
" clip-path="url(#p6ac4620510)" style="fill: none; stroke: #ffffff; stroke-width: 0.8; stroke-linecap: round"/>
     </g>
     <g id="text_20">
      <!-- 6 -->
      <g style="fill: #262626" transform="translate(469.011804 260.917812) scale(0.1 -0.1)">
       <use xlink:href="#ArialMT-36"/>
      </g>
     </g>
    </g>
    <g id="xtick_11">
     <g id="line2d_20">
      <path d="M 514.906818 246.76 
L 514.906818 27.6 
" clip-path="url(#p6ac4620510)" style="fill: none; stroke: #ffffff; stroke-width: 0.8; stroke-linecap: round"/>
     </g>
     <g id="text_21">
      <!-- 8 -->
      <g style="fill: #262626" transform="translate(512.126349 260.917812) scale(0.1 -0.1)">
       <use xlink:href="#ArialMT-38"/>
      </g>
     </g>
    </g>
    <g id="xtick_12">
     <g id="line2d_21">
      <path d="M 558.021364 246.76 
L 558.021364 27.6 
" clip-path="url(#p6ac4620510)" style="fill: none; stroke: #ffffff; stroke-width: 0.8; stroke-linecap: round"/>
     </g>
     <g id="text_22">
      <!-- 10 -->
      <g style="fill: #262626" transform="translate(552.460426 260.917812) scale(0.1 -0.1)">
       <use xlink:href="#ArialMT-31"/>
       <use xlink:href="#ArialMT-30" x="55.615234"/>
      </g>
     </g>
    </g>
    <g id="text_23">
     <!-- $d$ -->
     <g style="fill: #262626" transform="translate(447.035 274.063125) scale(0.1 -0.1)">
      <use xlink:href="#DejaVuSans-Oblique-64" transform="translate(0 0.015625)"/>
     </g>
    </g>
   </g>
   <g id="matplotlib.axis_4">
    <g id="ytick_6">
     <g id="line2d_22">
      <path d="M 331.67 224.798439 
L 568.8 224.798439 
" clip-path="url(#p6ac4620510)" style="fill: none; stroke: #ffffff; stroke-width: 0.8; stroke-linecap: round"/>
     </g>
     <g id="text_24">
      <!-- 2.0 -->
      <g style="fill: #262626" transform="translate(310.77 228.377345) scale(0.1 -0.1)">
       <use xlink:href="#ArialMT-32"/>
       <use xlink:href="#ArialMT-2e" x="55.615234"/>
       <use xlink:href="#ArialMT-30" x="83.398438"/>
      </g>
     </g>
    </g>
    <g id="ytick_7">
     <g id="line2d_23">
      <path d="M 331.67 178.596859 
L 568.8 178.596859 
" clip-path="url(#p6ac4620510)" style="fill: none; stroke: #ffffff; stroke-width: 0.8; stroke-linecap: round"/>
     </g>
     <g id="text_25">
      <!-- 2.5 -->
      <g style="fill: #262626" transform="translate(310.77 182.175765) scale(0.1 -0.1)">
       <defs>
        <path id="ArialMT-35" d="M 266 1200 
L 856 1250 
Q 922 819 1161 601 
Q 1400 384 1738 384 
Q 2144 384 2425 690 
Q 2706 997 2706 1503 
Q 2706 1984 2436 2262 
Q 2166 2541 1728 2541 
Q 1456 2541 1237 2417 
Q 1019 2294 894 2097 
L 366 2166 
L 809 4519 
L 3088 4519 
L 3088 3981 
L 1259 3981 
L 1013 2750 
Q 1425 3038 1878 3038 
Q 2478 3038 2890 2622 
Q 3303 2206 3303 1553 
Q 3303 931 2941 478 
Q 2500 -78 1738 -78 
Q 1113 -78 717 272 
Q 322 622 266 1200 
z
" transform="scale(0.015625)"/>
       </defs>
       <use xlink:href="#ArialMT-32"/>
       <use xlink:href="#ArialMT-2e" x="55.615234"/>
       <use xlink:href="#ArialMT-35" x="83.398438"/>
      </g>
     </g>
    </g>
    <g id="ytick_8">
     <g id="line2d_24">
      <path d="M 331.67 132.395278 
L 568.8 132.395278 
" clip-path="url(#p6ac4620510)" style="fill: none; stroke: #ffffff; stroke-width: 0.8; stroke-linecap: round"/>
     </g>
     <g id="text_26">
      <!-- 3.0 -->
      <g style="fill: #262626" transform="translate(310.77 135.974184) scale(0.1 -0.1)">
       <defs>
        <path id="ArialMT-33" d="M 269 1209 
L 831 1284 
Q 928 806 1161 595 
Q 1394 384 1728 384 
Q 2125 384 2398 659 
Q 2672 934 2672 1341 
Q 2672 1728 2419 1979 
Q 2166 2231 1775 2231 
Q 1616 2231 1378 2169 
L 1441 2663 
Q 1497 2656 1531 2656 
Q 1891 2656 2178 2843 
Q 2466 3031 2466 3422 
Q 2466 3731 2256 3934 
Q 2047 4138 1716 4138 
Q 1388 4138 1169 3931 
Q 950 3725 888 3313 
L 325 3413 
Q 428 3978 793 4289 
Q 1159 4600 1703 4600 
Q 2078 4600 2393 4439 
Q 2709 4278 2876 4000 
Q 3044 3722 3044 3409 
Q 3044 3113 2884 2869 
Q 2725 2625 2413 2481 
Q 2819 2388 3044 2092 
Q 3269 1797 3269 1353 
Q 3269 753 2831 336 
Q 2394 -81 1725 -81 
Q 1122 -81 723 278 
Q 325 638 269 1209 
z
" transform="scale(0.015625)"/>
       </defs>
       <use xlink:href="#ArialMT-33"/>
       <use xlink:href="#ArialMT-2e" x="55.615234"/>
       <use xlink:href="#ArialMT-30" x="83.398438"/>
      </g>
     </g>
    </g>
    <g id="ytick_9">
     <g id="line2d_25">
      <path d="M 331.67 86.193697 
L 568.8 86.193697 
" clip-path="url(#p6ac4620510)" style="fill: none; stroke: #ffffff; stroke-width: 0.8; stroke-linecap: round"/>
     </g>
     <g id="text_27">
      <!-- 3.5 -->
      <g style="fill: #262626" transform="translate(310.77 89.772604) scale(0.1 -0.1)">
       <use xlink:href="#ArialMT-33"/>
       <use xlink:href="#ArialMT-2e" x="55.615234"/>
       <use xlink:href="#ArialMT-35" x="83.398438"/>
      </g>
     </g>
    </g>
    <g id="ytick_10">
     <g id="line2d_26">
      <path d="M 331.67 39.992117 
L 568.8 39.992117 
" clip-path="url(#p6ac4620510)" style="fill: none; stroke: #ffffff; stroke-width: 0.8; stroke-linecap: round"/>
     </g>
     <g id="text_28">
      <!-- 4.0 -->
      <g style="fill: #262626" transform="translate(310.77 43.571023) scale(0.1 -0.1)">
       <use xlink:href="#ArialMT-34"/>
       <use xlink:href="#ArialMT-2e" x="55.615234"/>
       <use xlink:href="#ArialMT-30" x="83.398438"/>
      </g>
     </g>
    </g>
    <g id="text_29">
     <!-- $\mathbb{E}(h(x))$ -->
     <g style="fill: #262626" transform="translate(304.7825 154.33) rotate(-90) scale(0.1 -0.1)">
      <use xlink:href="#STIXNonUnicode-Italic-e156" transform="translate(0 0.015625)"/>
      <use xlink:href="#DejaVuSans-28" transform="translate(63.899994 0.015625)"/>
      <use xlink:href="#DejaVuSans-Oblique-68" transform="translate(102.913666 0.015625)"/>
      <use xlink:href="#DejaVuSans-28" transform="translate(166.292572 0.015625)"/>
      <use xlink:href="#DejaVuSans-Oblique-78" transform="translate(205.306244 0.015625)"/>
      <use xlink:href="#DejaVuSans-29" transform="translate(264.485931 0.015625)"/>
      <use xlink:href="#DejaVuSans-29" transform="translate(303.499603 0.015625)"/>
     </g>
    </g>
   </g>
   <g id="line2d_27">
    <path d="M 342.448636 37.561818 
L 344.626139 48.618724 
L 346.803641 57.249135 
L 348.981143 39.417777 
L 351.158646 62.744171 
L 353.336148 50.18415 
L 355.51365 62.991871 
L 357.691152 59.779867 
L 359.868655 38.098384 
L 362.046157 53.455895 
L 364.223659 63.450119 
L 366.401162 65.091075 
L 368.578664 61.69243 
L 370.756166 79.672581 
L 372.933669 70.697513 
L 375.111171 71.08397 
L 377.288673 86.844073 
L 379.466175 79.317097 
L 381.643678 80.298915 
L 383.82118 73.39509 
L 385.998682 91.265065 
L 388.176185 80.889438 
L 390.353687 93.425669 
L 392.531189 89.009184 
L 394.708691 102.20669 
L 396.886194 90.035993 
L 399.063696 95.911466 
L 401.241198 97.027377 
L 403.418701 110.795647 
L 405.596203 100.028821 
L 407.773705 99.802457 
L 409.951208 102.195446 
L 412.12871 109.186934 
L 414.306212 114.03215 
L 416.483714 120.627376 
L 418.661217 111.413919 
L 420.838719 117.140558 
L 423.016221 132.20592 
L 425.193724 126.344317 
L 427.371226 127.95404 
L 429.548728 138.693349 
L 431.72623 138.917054 
L 433.903733 133.984857 
L 436.081235 134.900589 
L 438.258737 151.240319 
L 440.43624 156.100466 
L 442.613742 158.046718 
L 444.791244 163.194304 
L 446.968747 149.343057 
L 449.146249 135.523562 
L 451.323751 137.738939 
L 453.501253 168.057629 
L 455.678756 144.271022 
L 457.856258 171.039444 
L 460.03376 170.741528 
L 462.211263 162.148572 
L 464.388765 176.654586 
L 466.566267 174.492049 
L 468.74377 175.780329 
L 470.921272 179.043295 
L 473.098774 188.760426 
L 475.276276 171.579088 
L 477.453779 177.634957 
L 479.631281 192.107962 
L 481.808783 171.894329 
L 483.986286 174.515226 
L 486.163788 192.680087 
L 488.34129 196.297117 
L 490.518792 205.441199 
L 492.696295 199.398178 
L 494.873797 200.121543 
L 497.051299 193.555913 
L 499.228802 199.531802 
L 501.406304 211.703105 
L 503.583806 200.960506 
L 505.761309 182.105706 
L 507.938811 210.266035 
L 510.116313 206.645868 
L 512.293815 199.374231 
L 514.471318 212.626485 
L 516.64882 193.956813 
L 518.826322 204.043311 
L 521.003825 208.861884 
L 523.181327 225.234185 
L 525.358829 223.074105 
L 527.536331 210.854336 
L 529.713834 223.286037 
L 531.891336 188.611731 
L 534.068838 223.952683 
L 536.246341 229.732595 
L 538.423843 227.641097 
L 540.601345 236.452189 
L 542.778848 217.394708 
L 544.95635 234.098199 
L 547.133852 212.770284 
L 549.311354 228.695678 
L 551.488857 235.028907 
L 553.666359 236.798182 
L 555.843861 209.415853 
L 558.021364 223.357221 
" clip-path="url(#p6ac4620510)" style="fill: none; stroke: #1f77b4; stroke-width: 1.5; stroke-linecap: round"/>
   </g>
   <g id="line2d_28">
    <path d="M 342.448636 39.992117 
L 344.626139 40.216347 
L 346.803641 40.846436 
L 348.981143 41.825149 
L 351.158646 43.103072 
L 353.336148 44.637453 
L 355.51365 46.391228 
L 357.691152 48.332213 
L 359.868655 50.432415 
L 362.046157 52.667448 
L 364.223659 55.016044 
L 366.401162 57.459633 
L 368.578664 59.981984 
L 370.756166 62.568899 
L 372.933669 65.207949 
L 375.111171 67.888253 
L 377.288673 70.600275 
L 379.466175 73.335664 
L 381.643678 76.087102 
L 383.82118 78.848179 
L 385.998682 81.613288 
L 388.176185 84.377519 
L 390.353687 87.136587 
L 392.531189 89.886749 
L 394.708691 92.624747 
L 396.886194 95.347747 
L 399.063696 98.053294 
L 401.241198 100.739264 
L 403.418701 103.403831 
L 405.596203 106.045427 
L 407.773705 108.662718 
L 409.951208 111.254576 
L 412.12871 113.820054 
L 414.306212 116.358366 
L 416.483714 118.86887 
L 418.661217 121.351052 
L 420.838719 123.804508 
L 423.016221 126.228936 
L 425.193724 128.624121 
L 427.371226 130.989927 
L 429.548728 133.326286 
L 431.72623 135.633192 
L 433.903733 137.910692 
L 436.081235 140.158879 
L 438.258737 142.377891 
L 440.43624 144.567899 
L 442.613742 146.729107 
L 444.791244 148.861748 
L 446.968747 150.966077 
L 449.146249 153.042369 
L 451.323751 155.09092 
L 453.501253 157.11204 
L 455.678756 159.106049 
L 457.856258 161.07328 
L 460.03376 163.014077 
L 462.211263 164.928787 
L 464.388765 166.817765 
L 466.566267 168.681369 
L 468.74377 170.519963 
L 470.921272 172.33391 
L 473.098774 174.123574 
L 475.276276 175.889323 
L 477.453779 177.631521 
L 479.631281 179.350532 
L 481.808783 181.046718 
L 483.986286 182.72044 
L 486.163788 184.372056 
L 488.34129 186.00192 
L 490.518792 187.610384 
L 492.696295 189.197795 
L 494.873797 190.764497 
L 497.051299 192.310831 
L 499.228802 193.83713 
L 501.406304 195.343727 
L 503.583806 196.830948 
L 505.761309 198.299114 
L 507.938811 199.748543 
L 510.116313 201.179546 
L 512.293815 202.592432 
L 514.471318 203.987501 
L 516.64882 205.365052 
L 518.826322 206.725377 
L 521.003825 208.068764 
L 523.181327 209.395494 
L 525.358829 210.705847 
L 527.536331 212.000093 
L 529.713834 213.278503 
L 531.891336 214.541338 
L 534.068838 215.788856 
L 536.246341 217.021313 
L 538.423843 218.238956 
L 540.601345 219.442029 
L 542.778848 220.630774 
L 544.95635 221.805425 
L 547.133852 222.966213 
L 549.311354 224.113365 
L 551.488857 225.247104 
L 553.666359 226.367646 
L 555.843861 227.475207 
L 558.021364 228.569997 
" clip-path="url(#p6ac4620510)" style="fill: none; stroke-dasharray: 5.55,2.4; stroke-dashoffset: 0; stroke: #ff0000; stroke-width: 1.5"/>
   </g>
   <g id="patch_9">
    <path d="M 331.67 246.76 
L 331.67 27.6 
" style="fill: none; stroke: #ffffff; stroke-width: 0.8; stroke-linejoin: miter; stroke-linecap: square"/>
   </g>
   <g id="patch_10">
    <path d="M 568.8 246.76 
L 568.8 27.6 
" style="fill: none; stroke: #ffffff; stroke-width: 0.8; stroke-linejoin: miter; stroke-linecap: square"/>
   </g>
   <g id="patch_11">
    <path d="M 331.67 246.76 
L 568.8 246.76 
" style="fill: none; stroke: #ffffff; stroke-width: 0.8; stroke-linejoin: miter; stroke-linecap: square"/>
   </g>
   <g id="patch_12">
    <path d="M 331.67 27.6 
L 568.8 27.6 
" style="fill: none; stroke: #ffffff; stroke-width: 0.8; stroke-linejoin: miter; stroke-linecap: square"/>
   </g>
   <g id="text_30">
    <!-- Integral Deductible, $\alpha = 2, \lambda = 4$ -->
    <g style="fill: #262626" transform="translate(363.895 21.6) scale(0.12 -0.12)">
     <defs>
      <path id="DejaVuSans-34" d="M 2419 4116 
L 825 1625 
L 2419 1625 
L 2419 4116 
z
M 2253 4666 
L 3047 4666 
L 3047 1625 
L 3713 1625 
L 3713 1100 
L 3047 1100 
L 3047 0 
L 2419 0 
L 2419 1100 
L 313 1100 
L 313 1709 
L 2253 4666 
z
" transform="scale(0.015625)"/>
     </defs>
     <use xlink:href="#ArialMT-49" transform="translate(0 0.015625)"/>
     <use xlink:href="#ArialMT-6e" transform="translate(27.783203 0.015625)"/>
     <use xlink:href="#ArialMT-74" transform="translate(83.398438 0.015625)"/>
     <use xlink:href="#ArialMT-65" transform="translate(111.181641 0.015625)"/>
     <use xlink:href="#ArialMT-67" transform="translate(166.796875 0.015625)"/>
     <use xlink:href="#ArialMT-72" transform="translate(222.412109 0.015625)"/>
     <use xlink:href="#ArialMT-61" transform="translate(255.712891 0.015625)"/>
     <use xlink:href="#ArialMT-6c" transform="translate(311.328125 0.015625)"/>
     <use xlink:href="#ArialMT-20" transform="translate(333.544922 0.015625)"/>
     <use xlink:href="#ArialMT-44" transform="translate(361.328125 0.015625)"/>
     <use xlink:href="#ArialMT-65" transform="translate(433.544922 0.015625)"/>
     <use xlink:href="#ArialMT-64" transform="translate(489.160156 0.015625)"/>
     <use xlink:href="#ArialMT-75" transform="translate(544.775391 0.015625)"/>
     <use xlink:href="#ArialMT-63" transform="translate(600.390625 0.015625)"/>
     <use xlink:href="#ArialMT-74" transform="translate(650.390625 0.015625)"/>
     <use xlink:href="#ArialMT-69" transform="translate(678.173828 0.015625)"/>
     <use xlink:href="#ArialMT-62" transform="translate(700.390625 0.015625)"/>
     <use xlink:href="#ArialMT-6c" transform="translate(756.005859 0.015625)"/>
     <use xlink:href="#ArialMT-65" transform="translate(778.222656 0.015625)"/>
     <use xlink:href="#ArialMT-2c" transform="translate(833.837891 0.015625)"/>
     <use xlink:href="#ArialMT-20" transform="translate(861.621094 0.015625)"/>
     <use xlink:href="#DejaVuSans-Oblique-3b1" transform="translate(889.404297 0.015625)"/>
     <use xlink:href="#DejaVuSans-3d" transform="translate(974.804688 0.015625)"/>
     <use xlink:href="#DejaVuSans-32" transform="translate(1078.076172 0.015625)"/>
     <use xlink:href="#DejaVuSans-2c" transform="translate(1141.699219 0.015625)"/>
     <use xlink:href="#DejaVuSans-Oblique-3bb" transform="translate(1192.96875 0.015625)"/>
     <use xlink:href="#DejaVuSans-3d" transform="translate(1271.630859 0.015625)"/>
     <use xlink:href="#DejaVuSans-34" transform="translate(1374.902344 0.015625)"/>
    </g>
   </g>
   <g id="legend_2">
    <g id="patch_13">
     <path d="M 483.1125 64.007812 
L 561.8 64.007812 
Q 563.8 64.007812 563.8 62.007812 
L 563.8 34.6 
Q 563.8 32.6 561.8 32.6 
L 483.1125 32.6 
Q 481.1125 32.6 481.1125 34.6 
L 481.1125 62.007812 
Q 481.1125 64.007812 483.1125 64.007812 
z
" style="fill: #eaeaf2; opacity: 0.8; stroke: #cccccc; stroke-linejoin: miter"/>
    </g>
    <g id="line2d_29">
     <path d="M 485.1125 40.257812 
L 495.1125 40.257812 
L 505.1125 40.257812 
" style="fill: none; stroke: #1f77b4; stroke-width: 1.5; stroke-linecap: round"/>
    </g>
    <g id="text_31">
     <!-- Simulation -->
     <g style="fill: #262626" transform="translate(513.1125 43.757812) scale(0.1 -0.1)">
      <use xlink:href="#ArialMT-53"/>
      <use xlink:href="#ArialMT-69" x="66.699219"/>
      <use xlink:href="#ArialMT-6d" x="88.916016"/>
      <use xlink:href="#ArialMT-75" x="172.216797"/>
      <use xlink:href="#ArialMT-6c" x="227.832031"/>
      <use xlink:href="#ArialMT-61" x="250.048828"/>
      <use xlink:href="#ArialMT-74" x="305.664062"/>
      <use xlink:href="#ArialMT-69" x="333.447266"/>
      <use xlink:href="#ArialMT-6f" x="355.664062"/>
      <use xlink:href="#ArialMT-6e" x="411.279297"/>
     </g>
    </g>
    <g id="line2d_30">
     <path d="M 485.1125 54.403125 
L 495.1125 54.403125 
L 505.1125 54.403125 
" style="fill: none; stroke-dasharray: 5.55,2.4; stroke-dashoffset: 0; stroke: #ff0000; stroke-width: 1.5"/>
    </g>
    <g id="text_32">
     <!-- Analytical -->
     <g style="fill: #262626" transform="translate(513.1125 57.903125) scale(0.1 -0.1)">
      <use xlink:href="#ArialMT-41"/>
      <use xlink:href="#ArialMT-6e" x="66.699219"/>
      <use xlink:href="#ArialMT-61" x="122.314453"/>
      <use xlink:href="#ArialMT-6c" x="177.929688"/>
      <use xlink:href="#ArialMT-79" x="200.146484"/>
      <use xlink:href="#ArialMT-74" x="250.146484"/>
      <use xlink:href="#ArialMT-69" x="277.929688"/>
      <use xlink:href="#ArialMT-63" x="300.146484"/>
      <use xlink:href="#ArialMT-61" x="350.146484"/>
      <use xlink:href="#ArialMT-6c" x="405.761719"/>
     </g>
    </g>
   </g>
  </g>
  <g id="axes_3">
   <g id="patch_14">
    <path d="M 616.07 246.76 
L 853.2 246.76 
L 853.2 27.6 
L 616.07 27.6 
z
" style="fill: #eaeaf2"/>
   </g>
   <g id="matplotlib.axis_5">
    <g id="xtick_13">
     <g id="line2d_31">
      <path d="M 626.848636 246.76 
L 626.848636 27.6 
" clip-path="url(#pe0a4831426)" style="fill: none; stroke: #ffffff; stroke-width: 0.8; stroke-linecap: round"/>
     </g>
     <g id="text_33">
      <!-- 0 -->
      <g style="fill: #262626" transform="translate(624.068168 260.917812) scale(0.1 -0.1)">
       <use xlink:href="#ArialMT-30"/>
      </g>
     </g>
    </g>
    <g id="xtick_14">
     <g id="line2d_32">
      <path d="M 669.963182 246.76 
L 669.963182 27.6 
" clip-path="url(#pe0a4831426)" style="fill: none; stroke: #ffffff; stroke-width: 0.8; stroke-linecap: round"/>
     </g>
     <g id="text_34">
      <!-- 2 -->
      <g style="fill: #262626" transform="translate(667.182713 260.917812) scale(0.1 -0.1)">
       <use xlink:href="#ArialMT-32"/>
      </g>
     </g>
    </g>
    <g id="xtick_15">
     <g id="line2d_33">
      <path d="M 713.077727 246.76 
L 713.077727 27.6 
" clip-path="url(#pe0a4831426)" style="fill: none; stroke: #ffffff; stroke-width: 0.8; stroke-linecap: round"/>
     </g>
     <g id="text_35">
      <!-- 4 -->
      <g style="fill: #262626" transform="translate(710.297259 260.917812) scale(0.1 -0.1)">
       <use xlink:href="#ArialMT-34"/>
      </g>
     </g>
    </g>
    <g id="xtick_16">
     <g id="line2d_34">
      <path d="M 756.192273 246.76 
L 756.192273 27.6 
" clip-path="url(#pe0a4831426)" style="fill: none; stroke: #ffffff; stroke-width: 0.8; stroke-linecap: round"/>
     </g>
     <g id="text_36">
      <!-- 6 -->
      <g style="fill: #262626" transform="translate(753.411804 260.917812) scale(0.1 -0.1)">
       <use xlink:href="#ArialMT-36"/>
      </g>
     </g>
    </g>
    <g id="xtick_17">
     <g id="line2d_35">
      <path d="M 799.306818 246.76 
L 799.306818 27.6 
" clip-path="url(#pe0a4831426)" style="fill: none; stroke: #ffffff; stroke-width: 0.8; stroke-linecap: round"/>
     </g>
     <g id="text_37">
      <!-- 8 -->
      <g style="fill: #262626" transform="translate(796.526349 260.917812) scale(0.1 -0.1)">
       <use xlink:href="#ArialMT-38"/>
      </g>
     </g>
    </g>
    <g id="xtick_18">
     <g id="line2d_36">
      <path d="M 842.421364 246.76 
L 842.421364 27.6 
" clip-path="url(#pe0a4831426)" style="fill: none; stroke: #ffffff; stroke-width: 0.8; stroke-linecap: round"/>
     </g>
     <g id="text_38">
      <!-- 10 -->
      <g style="fill: #262626" transform="translate(836.860426 260.917812) scale(0.1 -0.1)">
       <use xlink:href="#ArialMT-31"/>
       <use xlink:href="#ArialMT-30" x="55.615234"/>
      </g>
     </g>
    </g>
    <g id="text_39">
     <!-- $d$ -->
     <g style="fill: #262626" transform="translate(731.435 274.063125) scale(0.1 -0.1)">
      <use xlink:href="#DejaVuSans-Oblique-64" transform="translate(0 0.015625)"/>
     </g>
    </g>
   </g>
   <g id="matplotlib.axis_6">
    <g id="ytick_11">
     <g id="line2d_37">
      <path d="M 616.07 234.54989 
L 853.2 234.54989 
" clip-path="url(#pe0a4831426)" style="fill: none; stroke: #ffffff; stroke-width: 0.8; stroke-linecap: round"/>
     </g>
     <g id="text_40">
      <!-- 0.4 -->
      <g style="fill: #262626" transform="translate(595.17 238.128796) scale(0.1 -0.1)">
       <use xlink:href="#ArialMT-30"/>
       <use xlink:href="#ArialMT-2e" x="55.615234"/>
       <use xlink:href="#ArialMT-34" x="83.398438"/>
      </g>
     </g>
    </g>
    <g id="ytick_12">
     <g id="line2d_38">
      <path d="M 616.07 209.926381 
L 853.2 209.926381 
" clip-path="url(#pe0a4831426)" style="fill: none; stroke: #ffffff; stroke-width: 0.8; stroke-linecap: round"/>
     </g>
     <g id="text_41">
      <!-- 0.6 -->
      <g style="fill: #262626" transform="translate(595.17 213.505287) scale(0.1 -0.1)">
       <use xlink:href="#ArialMT-30"/>
       <use xlink:href="#ArialMT-2e" x="55.615234"/>
       <use xlink:href="#ArialMT-36" x="83.398438"/>
      </g>
     </g>
    </g>
    <g id="ytick_13">
     <g id="line2d_39">
      <path d="M 616.07 185.302872 
L 853.2 185.302872 
" clip-path="url(#pe0a4831426)" style="fill: none; stroke: #ffffff; stroke-width: 0.8; stroke-linecap: round"/>
     </g>
     <g id="text_42">
      <!-- 0.8 -->
      <g style="fill: #262626" transform="translate(595.17 188.881778) scale(0.1 -0.1)">
       <use xlink:href="#ArialMT-30"/>
       <use xlink:href="#ArialMT-2e" x="55.615234"/>
       <use xlink:href="#ArialMT-38" x="83.398438"/>
      </g>
     </g>
    </g>
    <g id="ytick_14">
     <g id="line2d_40">
      <path d="M 616.07 160.679363 
L 853.2 160.679363 
" clip-path="url(#pe0a4831426)" style="fill: none; stroke: #ffffff; stroke-width: 0.8; stroke-linecap: round"/>
     </g>
     <g id="text_43">
      <!-- 1.0 -->
      <g style="fill: #262626" transform="translate(595.17 164.258269) scale(0.1 -0.1)">
       <use xlink:href="#ArialMT-31"/>
       <use xlink:href="#ArialMT-2e" x="55.615234"/>
       <use xlink:href="#ArialMT-30" x="83.398438"/>
      </g>
     </g>
    </g>
    <g id="ytick_15">
     <g id="line2d_41">
      <path d="M 616.07 136.055854 
L 853.2 136.055854 
" clip-path="url(#pe0a4831426)" style="fill: none; stroke: #ffffff; stroke-width: 0.8; stroke-linecap: round"/>
     </g>
     <g id="text_44">
      <!-- 1.2 -->
      <g style="fill: #262626" transform="translate(595.17 139.63476) scale(0.1 -0.1)">
       <use xlink:href="#ArialMT-31"/>
       <use xlink:href="#ArialMT-2e" x="55.615234"/>
       <use xlink:href="#ArialMT-32" x="83.398438"/>
      </g>
     </g>
    </g>
    <g id="ytick_16">
     <g id="line2d_42">
      <path d="M 616.07 111.432345 
L 853.2 111.432345 
" clip-path="url(#pe0a4831426)" style="fill: none; stroke: #ffffff; stroke-width: 0.8; stroke-linecap: round"/>
     </g>
     <g id="text_45">
      <!-- 1.4 -->
      <g style="fill: #262626" transform="translate(595.17 115.011251) scale(0.1 -0.1)">
       <use xlink:href="#ArialMT-31"/>
       <use xlink:href="#ArialMT-2e" x="55.615234"/>
       <use xlink:href="#ArialMT-34" x="83.398438"/>
      </g>
     </g>
    </g>
    <g id="ytick_17">
     <g id="line2d_43">
      <path d="M 616.07 86.808836 
L 853.2 86.808836 
" clip-path="url(#pe0a4831426)" style="fill: none; stroke: #ffffff; stroke-width: 0.8; stroke-linecap: round"/>
     </g>
     <g id="text_46">
      <!-- 1.6 -->
      <g style="fill: #262626" transform="translate(595.17 90.387742) scale(0.1 -0.1)">
       <use xlink:href="#ArialMT-31"/>
       <use xlink:href="#ArialMT-2e" x="55.615234"/>
       <use xlink:href="#ArialMT-36" x="83.398438"/>
      </g>
     </g>
    </g>
    <g id="ytick_18">
     <g id="line2d_44">
      <path d="M 616.07 62.185327 
L 853.2 62.185327 
" clip-path="url(#pe0a4831426)" style="fill: none; stroke: #ffffff; stroke-width: 0.8; stroke-linecap: round"/>
     </g>
     <g id="text_47">
      <!-- 1.8 -->
      <g style="fill: #262626" transform="translate(595.17 65.764233) scale(0.1 -0.1)">
       <use xlink:href="#ArialMT-31"/>
       <use xlink:href="#ArialMT-2e" x="55.615234"/>
       <use xlink:href="#ArialMT-38" x="83.398438"/>
      </g>
     </g>
    </g>
    <g id="ytick_19">
     <g id="line2d_45">
      <path d="M 616.07 37.561818 
L 853.2 37.561818 
" clip-path="url(#pe0a4831426)" style="fill: none; stroke: #ffffff; stroke-width: 0.8; stroke-linecap: round"/>
     </g>
     <g id="text_48">
      <!-- 2.0 -->
      <g style="fill: #262626" transform="translate(595.17 41.140724) scale(0.1 -0.1)">
       <use xlink:href="#ArialMT-32"/>
       <use xlink:href="#ArialMT-2e" x="55.615234"/>
       <use xlink:href="#ArialMT-30" x="83.398438"/>
      </g>
     </g>
    </g>
    <g id="text_49">
     <!-- $\mathbb{E}(h(x))$ -->
     <g style="fill: #262626" transform="translate(589.1825 154.33) rotate(-90) scale(0.1 -0.1)">
      <use xlink:href="#STIXNonUnicode-Italic-e156" transform="translate(0 0.015625)"/>
      <use xlink:href="#DejaVuSans-28" transform="translate(63.899994 0.015625)"/>
      <use xlink:href="#DejaVuSans-Oblique-68" transform="translate(102.913666 0.015625)"/>
      <use xlink:href="#DejaVuSans-28" transform="translate(166.292572 0.015625)"/>
      <use xlink:href="#DejaVuSans-Oblique-78" transform="translate(205.306244 0.015625)"/>
      <use xlink:href="#DejaVuSans-29" transform="translate(264.485931 0.015625)"/>
      <use xlink:href="#DejaVuSans-29" transform="translate(303.499603 0.015625)"/>
     </g>
    </g>
   </g>
   <g id="line2d_46">
    <path d="M 626.848636 40.003191 
L 629.026139 39.123744 
L 631.203641 44.051744 
L 633.381143 50.053325 
L 635.558646 41.209351 
L 637.736148 46.267083 
L 639.91365 56.36137 
L 642.091152 55.677452 
L 644.268655 59.331019 
L 646.446157 59.664498 
L 648.623659 62.607073 
L 650.801162 64.263595 
L 652.978664 70.966786 
L 655.156166 75.599012 
L 657.333669 80.578613 
L 659.511171 81.098553 
L 661.688673 87.332895 
L 663.866175 92.820897 
L 666.043678 95.863794 
L 668.22118 99.628342 
L 670.398682 101.931995 
L 672.576185 106.615998 
L 674.753687 106.582717 
L 676.931189 111.143239 
L 679.108691 113.061412 
L 681.286194 126.111082 
L 683.463696 122.403934 
L 685.641198 126.62887 
L 687.818701 131.826988 
L 689.996203 131.790316 
L 692.173705 130.684604 
L 694.351208 141.658167 
L 696.52871 135.908848 
L 698.706212 142.605207 
L 700.883714 147.449782 
L 703.061217 143.171066 
L 705.238719 154.854378 
L 707.416221 150.84261 
L 709.593724 159.825858 
L 711.771226 158.574945 
L 713.948728 167.59064 
L 716.12623 162.616197 
L 718.303733 160.041272 
L 720.481235 170.603087 
L 722.658737 173.073399 
L 724.83624 168.628683 
L 727.013742 173.090964 
L 729.191244 168.85032 
L 731.368747 183.935489 
L 733.546249 180.565069 
L 735.723751 180.475462 
L 737.901253 184.402625 
L 740.078756 185.962063 
L 742.256258 185.914994 
L 744.43376 191.405454 
L 746.611263 190.063738 
L 748.788765 195.854956 
L 750.966267 189.408183 
L 753.14377 191.523274 
L 755.321272 198.835411 
L 757.498774 201.478403 
L 759.676276 202.805995 
L 761.853779 197.31401 
L 764.031281 199.672132 
L 766.208783 207.343809 
L 768.386286 206.852258 
L 770.563788 207.975772 
L 772.74129 207.116496 
L 774.918792 207.639251 
L 777.096295 213.103586 
L 779.273797 207.684922 
L 781.451299 202.947728 
L 783.628802 211.17313 
L 785.806304 207.265193 
L 787.983806 215.27455 
L 790.161309 215.565633 
L 792.338811 216.958627 
L 794.516313 216.360976 
L 796.693815 221.061432 
L 798.871318 220.302975 
L 801.04882 220.999617 
L 803.226322 225.264448 
L 805.403825 223.879516 
L 807.581327 224.875029 
L 809.758829 222.383274 
L 811.936331 226.923559 
L 814.113834 228.656637 
L 816.291336 224.614112 
L 818.468838 224.543983 
L 820.646341 230.847182 
L 822.823843 230.494069 
L 825.001345 229.984201 
L 827.178848 230.603395 
L 829.35635 233.090637 
L 831.533852 233.969641 
L 833.711354 236.798182 
L 835.888857 230.586469 
L 838.066359 232.997465 
L 840.243861 235.402753 
L 842.421364 235.371903 
" clip-path="url(#pe0a4831426)" style="fill: none; stroke: #1f77b4; stroke-width: 1.5; stroke-linecap: round"/>
   </g>
   <g id="line2d_47">
    <path d="M 626.848636 37.561818 
L 629.026139 38.002605 
L 631.203641 39.214529 
L 633.381143 41.053309 
L 635.558646 43.399075 
L 637.736148 46.152072 
L 639.91365 49.229176 
L 642.091152 52.561046 
L 644.268655 56.089808 
L 646.446157 59.767137 
L 648.623659 63.552686 
L 650.801162 67.412789 
L 652.978664 71.31938 
L 655.156166 75.249101 
L 657.333669 79.182551 
L 659.511171 83.103666 
L 661.688673 86.999196 
L 663.866175 90.858265 
L 666.043678 94.672007 
L 668.22118 98.433249 
L 670.398682 102.136254 
L 672.576185 105.776496 
L 674.753687 109.350474 
L 676.931189 112.855554 
L 679.108691 116.28983 
L 681.286194 119.652014 
L 683.463696 122.941333 
L 685.641198 126.157449 
L 687.818701 129.300389 
L 689.996203 132.370482 
L 692.173705 135.368306 
L 694.351208 138.294649 
L 696.52871 141.150468 
L 698.706212 143.936857 
L 700.883714 146.65502 
L 703.061217 149.306248 
L 705.238719 151.8919 
L 707.416221 154.413383 
L 709.593724 156.872143 
L 711.771226 159.269647 
L 713.948728 161.607377 
L 716.12623 163.886817 
L 718.303733 166.109453 
L 720.481235 168.276758 
L 722.658737 170.390194 
L 724.83624 172.451204 
L 727.013742 174.46121 
L 729.191244 176.421609 
L 731.368747 178.333774 
L 733.546249 180.199047 
L 735.723751 182.018742 
L 737.901253 183.794144 
L 740.078756 185.526503 
L 742.256258 187.217042 
L 744.43376 188.866948 
L 746.611263 190.477379 
L 748.788765 192.049461 
L 750.966267 193.584286 
L 753.14377 195.082918 
L 755.321272 196.546388 
L 757.498774 197.975697 
L 759.676276 199.371818 
L 761.853779 200.735691 
L 764.031281 202.068233 
L 766.208783 203.370327 
L 768.386286 204.642834 
L 770.563788 205.886586 
L 772.74129 207.102389 
L 774.918792 208.291026 
L 777.096295 209.453252 
L 779.273797 210.589803 
L 781.451299 211.701387 
L 783.628802 212.788695 
L 785.806304 213.852393 
L 787.983806 214.893126 
L 790.161309 215.91152 
L 792.338811 216.908182 
L 794.516313 217.883699 
L 796.693815 218.838639 
L 798.871318 219.773553 
L 801.04882 220.688977 
L 803.226322 221.585425 
L 805.403825 222.463401 
L 807.581327 223.32339 
L 809.758829 224.165862 
L 811.936331 224.991274 
L 814.113834 225.800069 
L 816.291336 226.592674 
L 818.468838 227.369505 
L 820.646341 228.130966 
L 822.823843 228.877447 
L 825.001345 229.609327 
L 827.178848 230.326974 
L 829.35635 231.030745 
L 831.533852 231.720984 
L 833.711354 232.398028 
L 835.888857 233.062203 
L 838.066359 233.713823 
L 840.243861 234.353197 
L 842.421364 234.980621 
" clip-path="url(#pe0a4831426)" style="fill: none; stroke-dasharray: 5.55,2.4; stroke-dashoffset: 0; stroke: #ff0000; stroke-width: 1.5"/>
   </g>
   <g id="patch_15">
    <path d="M 616.07 246.76 
L 616.07 27.6 
" style="fill: none; stroke: #ffffff; stroke-width: 0.8; stroke-linejoin: miter; stroke-linecap: square"/>
   </g>
   <g id="patch_16">
    <path d="M 853.2 246.76 
L 853.2 27.6 
" style="fill: none; stroke: #ffffff; stroke-width: 0.8; stroke-linejoin: miter; stroke-linecap: square"/>
   </g>
   <g id="patch_17">
    <path d="M 616.07 246.76 
L 853.2 246.76 
" style="fill: none; stroke: #ffffff; stroke-width: 0.8; stroke-linejoin: miter; stroke-linecap: square"/>
   </g>
   <g id="patch_18">
    <path d="M 616.07 27.6 
L 853.2 27.6 
" style="fill: none; stroke: #ffffff; stroke-width: 0.8; stroke-linejoin: miter; stroke-linecap: square"/>
   </g>
   <g id="text_50">
    <!-- Integral Deductible, $\alpha = 3, \lambda = 4$ -->
    <g style="fill: #262626" transform="translate(648.295 21.6) scale(0.12 -0.12)">
     <defs>
      <path id="DejaVuSans-33" d="M 2597 2516 
Q 3050 2419 3304 2112 
Q 3559 1806 3559 1356 
Q 3559 666 3084 287 
Q 2609 -91 1734 -91 
Q 1441 -91 1130 -33 
Q 819 25 488 141 
L 488 750 
Q 750 597 1062 519 
Q 1375 441 1716 441 
Q 2309 441 2620 675 
Q 2931 909 2931 1356 
Q 2931 1769 2642 2001 
Q 2353 2234 1838 2234 
L 1294 2234 
L 1294 2753 
L 1863 2753 
Q 2328 2753 2575 2939 
Q 2822 3125 2822 3475 
Q 2822 3834 2567 4026 
Q 2313 4219 1838 4219 
Q 1578 4219 1281 4162 
Q 984 4106 628 3988 
L 628 4550 
Q 988 4650 1302 4700 
Q 1616 4750 1894 4750 
Q 2613 4750 3031 4423 
Q 3450 4097 3450 3541 
Q 3450 3153 3228 2886 
Q 3006 2619 2597 2516 
z
" transform="scale(0.015625)"/>
     </defs>
     <use xlink:href="#ArialMT-49" transform="translate(0 0.015625)"/>
     <use xlink:href="#ArialMT-6e" transform="translate(27.783203 0.015625)"/>
     <use xlink:href="#ArialMT-74" transform="translate(83.398438 0.015625)"/>
     <use xlink:href="#ArialMT-65" transform="translate(111.181641 0.015625)"/>
     <use xlink:href="#ArialMT-67" transform="translate(166.796875 0.015625)"/>
     <use xlink:href="#ArialMT-72" transform="translate(222.412109 0.015625)"/>
     <use xlink:href="#ArialMT-61" transform="translate(255.712891 0.015625)"/>
     <use xlink:href="#ArialMT-6c" transform="translate(311.328125 0.015625)"/>
     <use xlink:href="#ArialMT-20" transform="translate(333.544922 0.015625)"/>
     <use xlink:href="#ArialMT-44" transform="translate(361.328125 0.015625)"/>
     <use xlink:href="#ArialMT-65" transform="translate(433.544922 0.015625)"/>
     <use xlink:href="#ArialMT-64" transform="translate(489.160156 0.015625)"/>
     <use xlink:href="#ArialMT-75" transform="translate(544.775391 0.015625)"/>
     <use xlink:href="#ArialMT-63" transform="translate(600.390625 0.015625)"/>
     <use xlink:href="#ArialMT-74" transform="translate(650.390625 0.015625)"/>
     <use xlink:href="#ArialMT-69" transform="translate(678.173828 0.015625)"/>
     <use xlink:href="#ArialMT-62" transform="translate(700.390625 0.015625)"/>
     <use xlink:href="#ArialMT-6c" transform="translate(756.005859 0.015625)"/>
     <use xlink:href="#ArialMT-65" transform="translate(778.222656 0.015625)"/>
     <use xlink:href="#ArialMT-2c" transform="translate(833.837891 0.015625)"/>
     <use xlink:href="#ArialMT-20" transform="translate(861.621094 0.015625)"/>
     <use xlink:href="#DejaVuSans-Oblique-3b1" transform="translate(889.404297 0.015625)"/>
     <use xlink:href="#DejaVuSans-3d" transform="translate(974.804688 0.015625)"/>
     <use xlink:href="#DejaVuSans-33" transform="translate(1078.076172 0.015625)"/>
     <use xlink:href="#DejaVuSans-2c" transform="translate(1141.699219 0.015625)"/>
     <use xlink:href="#DejaVuSans-Oblique-3bb" transform="translate(1192.96875 0.015625)"/>
     <use xlink:href="#DejaVuSans-3d" transform="translate(1271.630859 0.015625)"/>
     <use xlink:href="#DejaVuSans-34" transform="translate(1374.902344 0.015625)"/>
    </g>
   </g>
   <g id="legend_3">
    <g id="patch_19">
     <path d="M 767.5125 64.007812 
L 846.2 64.007812 
Q 848.2 64.007812 848.2 62.007812 
L 848.2 34.6 
Q 848.2 32.6 846.2 32.6 
L 767.5125 32.6 
Q 765.5125 32.6 765.5125 34.6 
L 765.5125 62.007812 
Q 765.5125 64.007812 767.5125 64.007812 
z
" style="fill: #eaeaf2; opacity: 0.8; stroke: #cccccc; stroke-linejoin: miter"/>
    </g>
    <g id="line2d_48">
     <path d="M 769.5125 40.257812 
L 779.5125 40.257812 
L 789.5125 40.257812 
" style="fill: none; stroke: #1f77b4; stroke-width: 1.5; stroke-linecap: round"/>
    </g>
    <g id="text_51">
     <!-- Simulation -->
     <g style="fill: #262626" transform="translate(797.5125 43.757812) scale(0.1 -0.1)">
      <use xlink:href="#ArialMT-53"/>
      <use xlink:href="#ArialMT-69" x="66.699219"/>
      <use xlink:href="#ArialMT-6d" x="88.916016"/>
      <use xlink:href="#ArialMT-75" x="172.216797"/>
      <use xlink:href="#ArialMT-6c" x="227.832031"/>
      <use xlink:href="#ArialMT-61" x="250.048828"/>
      <use xlink:href="#ArialMT-74" x="305.664062"/>
      <use xlink:href="#ArialMT-69" x="333.447266"/>
      <use xlink:href="#ArialMT-6f" x="355.664062"/>
      <use xlink:href="#ArialMT-6e" x="411.279297"/>
     </g>
    </g>
    <g id="line2d_49">
     <path d="M 769.5125 54.403125 
L 779.5125 54.403125 
L 789.5125 54.403125 
" style="fill: none; stroke-dasharray: 5.55,2.4; stroke-dashoffset: 0; stroke: #ff0000; stroke-width: 1.5"/>
    </g>
    <g id="text_52">
     <!-- Analytical -->
     <g style="fill: #262626" transform="translate(797.5125 57.903125) scale(0.1 -0.1)">
      <use xlink:href="#ArialMT-41"/>
      <use xlink:href="#ArialMT-6e" x="66.699219"/>
      <use xlink:href="#ArialMT-61" x="122.314453"/>
      <use xlink:href="#ArialMT-6c" x="177.929688"/>
      <use xlink:href="#ArialMT-79" x="200.146484"/>
      <use xlink:href="#ArialMT-74" x="250.146484"/>
      <use xlink:href="#ArialMT-69" x="277.929688"/>
      <use xlink:href="#ArialMT-63" x="300.146484"/>
      <use xlink:href="#ArialMT-61" x="350.146484"/>
      <use xlink:href="#ArialMT-6c" x="405.761719"/>
     </g>
    </g>
   </g>
  </g>
 </g>
 <defs>
  <clipPath id="p45e6d33cba">
   <rect x="47.27" y="27.6" width="237.13" height="219.16"/>
  </clipPath>
  <clipPath id="p6ac4620510">
   <rect x="331.67" y="27.6" width="237.13" height="219.16"/>
  </clipPath>
  <clipPath id="pe0a4831426">
   <rect x="616.07" y="27.6" width="237.13" height="219.16"/>
  </clipPath>
 </defs>
</svg>
