<?xml version="1.0" encoding="utf-8" standalone="no"?>
<!DOCTYPE svg PUBLIC "-//W3C//DTD SVG 1.1//EN"
  "http://www.w3.org/Graphics/SVG/1.1/DTD/svg11.dtd">
<svg xmlns:xlink="http://www.w3.org/1999/xlink" width="864pt" height="288pt" viewBox="0 0 864 288" xmlns="http://www.w3.org/2000/svg" version="1.1">
 <metadata>
  <rdf:RDF xmlns:dc="http://purl.org/dc/elements/1.1/" xmlns:cc="http://creativecommons.org/ns#" xmlns:rdf="http://www.w3.org/1999/02/22-rdf-syntax-ns#">
   <cc:Work>
    <dc:type rdf:resource="http://purl.org/dc/dcmitype/StillImage"/>
    <dc:date>2025-01-05T17:49:22.885524</dc:date>
    <dc:format>image/svg+xml</dc:format>
    <dc:creator>
     <cc:Agent>
      <dc:title>Matplotlib v3.7.2, https://matplotlib.org/</dc:title>
     </cc:Agent>
    </dc:creator>
   </cc:Work>
  </rdf:RDF>
 </metadata>
 <defs>
  <style type="text/css">*{stroke-linejoin: round; stroke-linecap: butt}</style>
 </defs>
 <g id="figure_1">
  <g id="patch_1">
   <path d="M 0 288 
L 864 288 
L 864 0 
L 0 0 
z
" style="fill: #ffffff"/>
  </g>
  <g id="axes_1">
   <g id="patch_2">
    <path d="M 47.27 246.76 
L 280.68 246.76 
L 280.68 27.6 
L 47.27 27.6 
z
" style="fill: #eaeaf2"/>
   </g>
   <g id="matplotlib.axis_1">
    <g id="xtick_1">
     <g id="line2d_1">
      <path d="M 57.879545 246.76 
L 57.879545 27.6 
" clip-path="url(#pc682f04e52)" style="fill: none; stroke: #ffffff; stroke-width: 0.8; stroke-linecap: round"/>
     </g>
     <g id="text_1">
      <!-- 0 -->
      <g style="fill: #262626" transform="translate(55.099077 260.917812) scale(0.1 -0.1)">
       <defs>
        <path id="ArialMT-30" d="M 266 2259 
Q 266 3072 433 3567 
Q 600 4063 929 4331 
Q 1259 4600 1759 4600 
Q 2128 4600 2406 4451 
Q 2684 4303 2865 4023 
Q 3047 3744 3150 3342 
Q 3253 2941 3253 2259 
Q 3253 1453 3087 958 
Q 2922 463 2592 192 
Q 2263 -78 1759 -78 
Q 1097 -78 719 397 
Q 266 969 266 2259 
z
M 844 2259 
Q 844 1131 1108 757 
Q 1372 384 1759 384 
Q 2147 384 2411 759 
Q 2675 1134 2675 2259 
Q 2675 3391 2411 3762 
Q 2147 4134 1753 4134 
Q 1366 4134 1134 3806 
Q 844 3388 844 2259 
z
" transform="scale(0.015625)"/>
       </defs>
       <use xlink:href="#ArialMT-30"/>
      </g>
     </g>
    </g>
    <g id="xtick_2">
     <g id="line2d_2">
      <path d="M 100.317727 246.76 
L 100.317727 27.6 
" clip-path="url(#pc682f04e52)" style="fill: none; stroke: #ffffff; stroke-width: 0.8; stroke-linecap: round"/>
     </g>
     <g id="text_2">
      <!-- 2 -->
      <g style="fill: #262626" transform="translate(97.537259 260.917812) scale(0.1 -0.1)">
       <defs>
        <path id="ArialMT-32" d="M 3222 541 
L 3222 0 
L 194 0 
Q 188 203 259 391 
Q 375 700 629 1000 
Q 884 1300 1366 1694 
Q 2113 2306 2375 2664 
Q 2638 3022 2638 3341 
Q 2638 3675 2398 3904 
Q 2159 4134 1775 4134 
Q 1369 4134 1125 3890 
Q 881 3647 878 3216 
L 300 3275 
Q 359 3922 746 4261 
Q 1134 4600 1788 4600 
Q 2447 4600 2831 4234 
Q 3216 3869 3216 3328 
Q 3216 3053 3103 2787 
Q 2991 2522 2730 2228 
Q 2469 1934 1863 1422 
Q 1356 997 1212 845 
Q 1069 694 975 541 
L 3222 541 
z
" transform="scale(0.015625)"/>
       </defs>
       <use xlink:href="#ArialMT-32"/>
      </g>
     </g>
    </g>
    <g id="xtick_3">
     <g id="line2d_3">
      <path d="M 142.755909 246.76 
L 142.755909 27.6 
" clip-path="url(#pc682f04e52)" style="fill: none; stroke: #ffffff; stroke-width: 0.8; stroke-linecap: round"/>
     </g>
     <g id="text_3">
      <!-- 4 -->
      <g style="fill: #262626" transform="translate(139.97544 260.917812) scale(0.1 -0.1)">
       <defs>
        <path id="ArialMT-34" d="M 2069 0 
L 2069 1097 
L 81 1097 
L 81 1613 
L 2172 4581 
L 2631 4581 
L 2631 1613 
L 3250 1613 
L 3250 1097 
L 2631 1097 
L 2631 0 
L 2069 0 
z
M 2069 1613 
L 2069 3678 
L 634 1613 
L 2069 1613 
z
" transform="scale(0.015625)"/>
       </defs>
       <use xlink:href="#ArialMT-34"/>
      </g>
     </g>
    </g>
    <g id="xtick_4">
     <g id="line2d_4">
      <path d="M 185.194091 246.76 
L 185.194091 27.6 
" clip-path="url(#pc682f04e52)" style="fill: none; stroke: #ffffff; stroke-width: 0.8; stroke-linecap: round"/>
     </g>
     <g id="text_4">
      <!-- 6 -->
      <g style="fill: #262626" transform="translate(182.413622 260.917812) scale(0.1 -0.1)">
       <defs>
        <path id="ArialMT-36" d="M 3184 3459 
L 2625 3416 
Q 2550 3747 2413 3897 
Q 2184 4138 1850 4138 
Q 1581 4138 1378 3988 
Q 1113 3794 959 3422 
Q 806 3050 800 2363 
Q 1003 2672 1297 2822 
Q 1591 2972 1913 2972 
Q 2475 2972 2870 2558 
Q 3266 2144 3266 1488 
Q 3266 1056 3080 686 
Q 2894 316 2569 119 
Q 2244 -78 1831 -78 
Q 1128 -78 684 439 
Q 241 956 241 2144 
Q 241 3472 731 4075 
Q 1159 4600 1884 4600 
Q 2425 4600 2770 4297 
Q 3116 3994 3184 3459 
z
M 888 1484 
Q 888 1194 1011 928 
Q 1134 663 1356 523 
Q 1578 384 1822 384 
Q 2178 384 2434 671 
Q 2691 959 2691 1453 
Q 2691 1928 2437 2201 
Q 2184 2475 1800 2475 
Q 1419 2475 1153 2201 
Q 888 1928 888 1484 
z
" transform="scale(0.015625)"/>
       </defs>
       <use xlink:href="#ArialMT-36"/>
      </g>
     </g>
    </g>
    <g id="xtick_5">
     <g id="line2d_5">
      <path d="M 227.632273 246.76 
L 227.632273 27.6 
" clip-path="url(#pc682f04e52)" style="fill: none; stroke: #ffffff; stroke-width: 0.8; stroke-linecap: round"/>
     </g>
     <g id="text_5">
      <!-- 8 -->
      <g style="fill: #262626" transform="translate(224.851804 260.917812) scale(0.1 -0.1)">
       <defs>
        <path id="ArialMT-38" d="M 1131 2484 
Q 781 2613 612 2850 
Q 444 3088 444 3419 
Q 444 3919 803 4259 
Q 1163 4600 1759 4600 
Q 2359 4600 2725 4251 
Q 3091 3903 3091 3403 
Q 3091 3084 2923 2848 
Q 2756 2613 2416 2484 
Q 2838 2347 3058 2040 
Q 3278 1734 3278 1309 
Q 3278 722 2862 322 
Q 2447 -78 1769 -78 
Q 1091 -78 675 323 
Q 259 725 259 1325 
Q 259 1772 486 2073 
Q 713 2375 1131 2484 
z
M 1019 3438 
Q 1019 3113 1228 2906 
Q 1438 2700 1772 2700 
Q 2097 2700 2305 2904 
Q 2513 3109 2513 3406 
Q 2513 3716 2298 3927 
Q 2084 4138 1766 4138 
Q 1444 4138 1231 3931 
Q 1019 3725 1019 3438 
z
M 838 1322 
Q 838 1081 952 856 
Q 1066 631 1291 507 
Q 1516 384 1775 384 
Q 2178 384 2440 643 
Q 2703 903 2703 1303 
Q 2703 1709 2433 1975 
Q 2163 2241 1756 2241 
Q 1359 2241 1098 1978 
Q 838 1716 838 1322 
z
" transform="scale(0.015625)"/>
       </defs>
       <use xlink:href="#ArialMT-38"/>
      </g>
     </g>
    </g>
    <g id="xtick_6">
     <g id="line2d_6">
      <path d="M 270.070455 246.76 
L 270.070455 27.6 
" clip-path="url(#pc682f04e52)" style="fill: none; stroke: #ffffff; stroke-width: 0.8; stroke-linecap: round"/>
     </g>
     <g id="text_6">
      <!-- 10 -->
      <g style="fill: #262626" transform="translate(264.509517 260.917812) scale(0.1 -0.1)">
       <defs>
        <path id="ArialMT-31" d="M 2384 0 
L 1822 0 
L 1822 3584 
Q 1619 3391 1289 3197 
Q 959 3003 697 2906 
L 697 3450 
Q 1169 3672 1522 3987 
Q 1875 4303 2022 4600 
L 2384 4600 
L 2384 0 
z
" transform="scale(0.015625)"/>
       </defs>
       <use xlink:href="#ArialMT-31"/>
       <use xlink:href="#ArialMT-30" x="55.615234"/>
      </g>
     </g>
    </g>
    <g id="text_7">
     <!-- $d$ -->
     <g style="fill: #262626" transform="translate(160.775 274.063125) scale(0.1 -0.1)">
      <defs>
       <path id="DejaVuSans-Oblique-64" d="M 2675 525 
Q 2444 222 2128 65 
Q 1813 -91 1428 -91 
Q 903 -91 598 267 
Q 294 625 294 1247 
Q 294 1766 478 2236 
Q 663 2706 1013 3078 
Q 1244 3325 1534 3454 
Q 1825 3584 2144 3584 
Q 2481 3584 2739 3421 
Q 2997 3259 3138 2956 
L 3513 4863 
L 4091 4863 
L 3144 0 
L 2566 0 
L 2675 525 
z
M 891 1350 
Q 891 897 1095 644 
Q 1300 391 1663 391 
Q 1931 391 2161 520 
Q 2391 650 2566 903 
Q 2750 1166 2856 1509 
Q 2963 1853 2963 2188 
Q 2963 2622 2758 2865 
Q 2553 3109 2194 3109 
Q 1922 3109 1687 2981 
Q 1453 2853 1288 2613 
Q 1106 2353 998 2009 
Q 891 1666 891 1350 
z
" transform="scale(0.015625)"/>
      </defs>
      <use xlink:href="#DejaVuSans-Oblique-64" transform="translate(0 0.015625)"/>
     </g>
    </g>
   </g>
   <g id="matplotlib.axis_2">
    <g id="ytick_1">
     <g id="line2d_7">
      <path d="M 47.27 208.58811 
L 280.68 208.58811 
" clip-path="url(#pc682f04e52)" style="fill: none; stroke: #ffffff; stroke-width: 0.8; stroke-linecap: round"/>
     </g>
     <g id="text_8">
      <!-- 0.2 -->
      <g style="fill: #262626" transform="translate(26.37 212.167016) scale(0.1 -0.1)">
       <defs>
        <path id="ArialMT-2e" d="M 581 0 
L 581 641 
L 1222 641 
L 1222 0 
L 581 0 
z
" transform="scale(0.015625)"/>
       </defs>
       <use xlink:href="#ArialMT-30"/>
       <use xlink:href="#ArialMT-2e" x="55.615234"/>
       <use xlink:href="#ArialMT-32" x="83.398438"/>
      </g>
     </g>
    </g>
    <g id="ytick_2">
     <g id="line2d_8">
      <path d="M 47.27 168.532598 
L 280.68 168.532598 
" clip-path="url(#pc682f04e52)" style="fill: none; stroke: #ffffff; stroke-width: 0.8; stroke-linecap: round"/>
     </g>
     <g id="text_9">
      <!-- 0.4 -->
      <g style="fill: #262626" transform="translate(26.37 172.111504) scale(0.1 -0.1)">
       <use xlink:href="#ArialMT-30"/>
       <use xlink:href="#ArialMT-2e" x="55.615234"/>
       <use xlink:href="#ArialMT-34" x="83.398438"/>
      </g>
     </g>
    </g>
    <g id="ytick_3">
     <g id="line2d_9">
      <path d="M 47.27 128.477086 
L 280.68 128.477086 
" clip-path="url(#pc682f04e52)" style="fill: none; stroke: #ffffff; stroke-width: 0.8; stroke-linecap: round"/>
     </g>
     <g id="text_10">
      <!-- 0.6 -->
      <g style="fill: #262626" transform="translate(26.37 132.055993) scale(0.1 -0.1)">
       <use xlink:href="#ArialMT-30"/>
       <use xlink:href="#ArialMT-2e" x="55.615234"/>
       <use xlink:href="#ArialMT-36" x="83.398438"/>
      </g>
     </g>
    </g>
    <g id="ytick_4">
     <g id="line2d_10">
      <path d="M 47.27 88.421575 
L 280.68 88.421575 
" clip-path="url(#pc682f04e52)" style="fill: none; stroke: #ffffff; stroke-width: 0.8; stroke-linecap: round"/>
     </g>
     <g id="text_11">
      <!-- 0.8 -->
      <g style="fill: #262626" transform="translate(26.37 92.000481) scale(0.1 -0.1)">
       <use xlink:href="#ArialMT-30"/>
       <use xlink:href="#ArialMT-2e" x="55.615234"/>
       <use xlink:href="#ArialMT-38" x="83.398438"/>
      </g>
     </g>
    </g>
    <g id="ytick_5">
     <g id="line2d_11">
      <path d="M 47.27 48.366063 
L 280.68 48.366063 
" clip-path="url(#pc682f04e52)" style="fill: none; stroke: #ffffff; stroke-width: 0.8; stroke-linecap: round"/>
     </g>
     <g id="text_12">
      <!-- 1.0 -->
      <g style="fill: #262626" transform="translate(26.37 51.94497) scale(0.1 -0.1)">
       <use xlink:href="#ArialMT-31"/>
       <use xlink:href="#ArialMT-2e" x="55.615234"/>
       <use xlink:href="#ArialMT-30" x="83.398438"/>
      </g>
     </g>
    </g>
    <g id="text_13">
     <!-- $\mathbb{E}(h(x))$ -->
     <g style="fill: #262626" transform="translate(20.3825 154.33) rotate(-90) scale(0.1 -0.1)">
      <defs>
       <path id="STIXNonUnicode-Italic-e156" d="M 4250 4179 
L 4192 3942 
L 2150 3942 
L 1709 2266 
L 3514 2266 
L 3443 2029 
L 1645 2029 
L 1165 237 
L 3443 237 
L 3392 0 
L 109 0 
L 1229 4179 
L 4250 4179 
z
M 1914 3942 
L 1414 3942 
L 416 237 
L 928 237 
L 1914 3942 
z
" transform="scale(0.015625)"/>
       <path id="DejaVuSans-28" d="M 1984 4856 
Q 1566 4138 1362 3434 
Q 1159 2731 1159 2009 
Q 1159 1288 1364 580 
Q 1569 -128 1984 -844 
L 1484 -844 
Q 1016 -109 783 600 
Q 550 1309 550 2009 
Q 550 2706 781 3412 
Q 1013 4119 1484 4856 
L 1984 4856 
z
" transform="scale(0.015625)"/>
       <path id="DejaVuSans-Oblique-68" d="M 3566 2113 
L 3156 0 
L 2578 0 
L 2988 2091 
Q 3016 2238 3031 2350 
Q 3047 2463 3047 2528 
Q 3047 2791 2881 2937 
Q 2716 3084 2419 3084 
Q 1956 3084 1617 2771 
Q 1278 2459 1178 1941 
L 800 0 
L 225 0 
L 1172 4863 
L 1747 4863 
L 1375 2950 
Q 1594 3244 1934 3414 
Q 2275 3584 2650 3584 
Q 3113 3584 3367 3334 
Q 3622 3084 3622 2631 
Q 3622 2519 3608 2391 
Q 3594 2263 3566 2113 
z
" transform="scale(0.015625)"/>
       <path id="DejaVuSans-Oblique-78" d="M 3841 3500 
L 2234 1784 
L 3219 0 
L 2559 0 
L 1819 1388 
L 531 0 
L -166 0 
L 1556 1844 
L 641 3500 
L 1300 3500 
L 1972 2234 
L 3144 3500 
L 3841 3500 
z
" transform="scale(0.015625)"/>
       <path id="DejaVuSans-29" d="M 513 4856 
L 1013 4856 
Q 1481 4119 1714 3412 
Q 1947 2706 1947 2009 
Q 1947 1309 1714 600 
Q 1481 -109 1013 -844 
L 513 -844 
Q 928 -128 1133 580 
Q 1338 1288 1338 2009 
Q 1338 2731 1133 3434 
Q 928 4138 513 4856 
z
" transform="scale(0.015625)"/>
      </defs>
      <use xlink:href="#STIXNonUnicode-Italic-e156" transform="translate(0 0.015625)"/>
      <use xlink:href="#DejaVuSans-28" transform="translate(63.899994 0.015625)"/>
      <use xlink:href="#DejaVuSans-Oblique-68" transform="translate(102.913666 0.015625)"/>
      <use xlink:href="#DejaVuSans-28" transform="translate(166.292572 0.015625)"/>
      <use xlink:href="#DejaVuSans-Oblique-78" transform="translate(205.306244 0.015625)"/>
      <use xlink:href="#DejaVuSans-29" transform="translate(264.485931 0.015625)"/>
      <use xlink:href="#DejaVuSans-29" transform="translate(303.499603 0.015625)"/>
     </g>
    </g>
   </g>
   <g id="line2d_12">
    <path d="M 57.879545 37.561818 
L 60.022888 66.743439 
L 62.16623 76.30391 
L 64.309573 94.342714 
L 66.452916 112.215037 
L 68.596258 115.152707 
L 70.739601 127.94543 
L 72.882943 136.821047 
L 75.026286 140.532239 
L 77.169628 147.004005 
L 79.312971 145.559092 
L 81.456313 159.167389 
L 83.599656 158.674782 
L 85.742998 154.682802 
L 87.886341 170.442828 
L 90.029683 160.299183 
L 92.173026 179.602295 
L 94.316368 170.580446 
L 96.459711 178.584214 
L 98.603053 184.297623 
L 100.746396 190.127109 
L 102.889738 185.829432 
L 105.033081 199.199677 
L 107.176423 195.615056 
L 109.319766 189.551918 
L 111.463108 191.219184 
L 113.606451 192.959971 
L 115.749793 197.493158 
L 117.893136 200.151614 
L 120.036478 194.058686 
L 122.179821 201.594809 
L 124.323163 208.124264 
L 126.466506 200.755233 
L 128.609848 196.164494 
L 130.753191 190.57469 
L 132.896534 202.123587 
L 135.039876 208.207852 
L 137.183219 199.114886 
L 139.326561 213.348587 
L 141.469904 202.221089 
L 143.613246 195.791748 
L 145.756589 211.575743 
L 147.899931 215.552064 
L 150.043274 216.003437 
L 152.186616 220.894758 
L 154.329959 210.350401 
L 156.473301 216.90766 
L 158.616644 218.908763 
L 160.759986 218.320485 
L 162.903329 221.017695 
L 165.046671 210.67246 
L 167.190014 219.844626 
L 169.333356 221.157935 
L 171.476699 218.937263 
L 173.620041 211.827107 
L 175.763384 211.715754 
L 177.906726 218.672399 
L 180.050069 223.679863 
L 182.193411 223.927476 
L 184.336754 219.396252 
L 186.480096 221.400278 
L 188.623439 224.783822 
L 190.766781 221.913616 
L 192.910124 227.08655 
L 195.053466 224.401543 
L 197.196809 207.200545 
L 199.340152 222.252924 
L 201.483494 227.632952 
L 203.626837 222.989223 
L 205.770179 214.473327 
L 207.913522 233.387494 
L 210.056864 219.968917 
L 212.200207 221.25361 
L 214.343549 223.426565 
L 216.486892 225.815584 
L 218.630234 223.46272 
L 220.773577 229.617273 
L 222.916919 231.536259 
L 225.060262 227.599174 
L 227.203604 217.453387 
L 229.346947 219.194526 
L 231.490289 233.840065 
L 233.633632 226.33422 
L 235.776974 227.112225 
L 237.920317 224.73784 
L 240.063659 236.798182 
L 242.207002 223.637602 
L 244.350344 222.995494 
L 246.493687 225.101033 
L 248.637029 212.09826 
L 250.780372 223.780872 
L 252.923714 229.680822 
L 255.067057 221.278383 
L 257.210399 235.790269 
L 259.353742 234.473474 
L 261.497084 228.506552 
L 263.640427 229.08544 
L 265.78377 231.575834 
L 267.927112 230.165008 
L 270.070455 232.272243 
" clip-path="url(#pc682f04e52)" style="fill: none; stroke: #1f77b4; stroke-width: 1.5; stroke-linecap: round"/>
   </g>
   <g id="line2d_13">
    <path d="M 57.879545 48.366063 
L 60.022888 66.740151 
L 62.16623 82.026157 
L 64.309573 94.94224 
L 66.452916 105.999893 
L 68.596258 115.573298 
L 70.739601 123.9425 
L 72.882943 131.321265 
L 75.026286 137.875586 
L 77.169628 143.736329 
L 79.312971 149.008052 
L 81.456313 153.775304 
L 83.599656 158.107191 
L 85.742998 162.060747 
L 87.886341 165.683461 
L 90.029683 169.015195 
L 92.173026 172.089651 
L 94.316368 174.935524 
L 96.459711 177.577391 
L 98.603053 180.03643 
L 100.746396 182.330985 
L 102.889738 184.477025 
L 105.033081 186.488517 
L 107.176423 188.37773 
L 109.319766 190.155485 
L 111.463108 191.831363 
L 113.606451 193.413877 
L 115.749793 194.910618 
L 117.893136 196.328375 
L 120.036478 197.67324 
L 122.179821 198.950693 
L 124.323163 200.165679 
L 126.466506 201.322671 
L 128.609848 202.425723 
L 130.753191 203.478523 
L 132.896534 204.484427 
L 135.039876 205.446501 
L 137.183219 206.367548 
L 139.326561 207.250138 
L 141.469904 208.096631 
L 143.613246 208.909196 
L 145.756589 209.689833 
L 147.899931 210.440388 
L 150.043274 211.162566 
L 152.186616 211.857947 
L 154.329959 212.527996 
L 156.473301 213.174072 
L 158.616644 213.797438 
L 160.759986 214.399272 
L 162.903329 214.98067 
L 165.046671 215.542656 
L 167.190014 216.086186 
L 169.333356 216.612154 
L 171.476699 217.121398 
L 173.620041 217.614704 
L 175.763384 218.092807 
L 177.906726 218.556401 
L 180.050069 219.006135 
L 182.193411 219.442622 
L 184.336754 219.866439 
L 186.480096 220.27813 
L 188.623439 220.678208 
L 190.766781 221.067156 
L 192.910124 221.445434 
L 195.053466 221.813475 
L 197.196809 222.171688 
L 199.340152 222.520461 
L 201.483494 222.860164 
L 203.626837 223.191146 
L 205.770179 223.513738 
L 207.913522 223.828254 
L 210.056864 224.134995 
L 212.200207 224.434246 
L 214.343549 224.726277 
L 216.486892 225.011347 
L 218.630234 225.289701 
L 220.773577 225.561574 
L 222.916919 225.827191 
L 225.060262 226.086763 
L 227.203604 226.340496 
L 229.346947 226.588584 
L 231.490289 226.831214 
L 233.633632 227.068563 
L 235.776974 227.300803 
L 237.920317 227.528096 
L 240.063659 227.750599 
L 242.207002 227.968461 
L 244.350344 228.181827 
L 246.493687 228.390834 
L 248.637029 228.595615 
L 250.780372 228.796296 
L 252.923714 228.992999 
L 255.067057 229.185841 
L 257.210399 229.374935 
L 259.353742 229.560389 
L 261.497084 229.742307 
L 263.640427 229.92079 
L 265.78377 230.095933 
L 267.927112 230.26783 
L 270.070455 230.43657 
" clip-path="url(#pc682f04e52)" style="fill: none; stroke-dasharray: 5.55,2.4; stroke-dashoffset: 0; stroke: #ff0000; stroke-width: 1.5"/>
   </g>
   <g id="patch_3">
    <path d="M 47.27 246.76 
L 47.27 27.6 
" style="fill: none; stroke: #ffffff; stroke-width: 0.8; stroke-linejoin: miter; stroke-linecap: square"/>
   </g>
   <g id="patch_4">
    <path d="M 280.68 246.76 
L 280.68 27.6 
" style="fill: none; stroke: #ffffff; stroke-width: 0.8; stroke-linejoin: miter; stroke-linecap: square"/>
   </g>
   <g id="patch_5">
    <path d="M 47.27 246.76 
L 280.68 246.76 
" style="fill: none; stroke: #ffffff; stroke-width: 0.8; stroke-linejoin: miter; stroke-linecap: square"/>
   </g>
   <g id="patch_6">
    <path d="M 47.27 27.6 
L 280.68 27.6 
" style="fill: none; stroke: #ffffff; stroke-width: 0.8; stroke-linejoin: miter; stroke-linecap: square"/>
   </g>
   <g id="text_14">
    <!-- Reducing Deductible, $\alpha = 2, \lambda = 1$ -->
    <g style="fill: #262626" transform="translate(72.295 21.6) scale(0.12 -0.12)">
     <defs>
      <path id="ArialMT-52" d="M 503 0 
L 503 4581 
L 2534 4581 
Q 3147 4581 3465 4457 
Q 3784 4334 3975 4021 
Q 4166 3709 4166 3331 
Q 4166 2844 3850 2509 
Q 3534 2175 2875 2084 
Q 3116 1969 3241 1856 
Q 3506 1613 3744 1247 
L 4541 0 
L 3778 0 
L 3172 953 
Q 2906 1366 2734 1584 
Q 2563 1803 2427 1890 
Q 2291 1978 2150 2013 
Q 2047 2034 1813 2034 
L 1109 2034 
L 1109 0 
L 503 0 
z
M 1109 2559 
L 2413 2559 
Q 2828 2559 3062 2645 
Q 3297 2731 3419 2920 
Q 3541 3109 3541 3331 
Q 3541 3656 3305 3865 
Q 3069 4075 2559 4075 
L 1109 4075 
L 1109 2559 
z
" transform="scale(0.015625)"/>
      <path id="ArialMT-65" d="M 2694 1069 
L 3275 997 
Q 3138 488 2766 206 
Q 2394 -75 1816 -75 
Q 1088 -75 661 373 
Q 234 822 234 1631 
Q 234 2469 665 2931 
Q 1097 3394 1784 3394 
Q 2450 3394 2872 2941 
Q 3294 2488 3294 1666 
Q 3294 1616 3291 1516 
L 816 1516 
Q 847 969 1125 678 
Q 1403 388 1819 388 
Q 2128 388 2347 550 
Q 2566 713 2694 1069 
z
M 847 1978 
L 2700 1978 
Q 2663 2397 2488 2606 
Q 2219 2931 1791 2931 
Q 1403 2931 1139 2672 
Q 875 2413 847 1978 
z
" transform="scale(0.015625)"/>
      <path id="ArialMT-64" d="M 2575 0 
L 2575 419 
Q 2259 -75 1647 -75 
Q 1250 -75 917 144 
Q 584 363 401 755 
Q 219 1147 219 1656 
Q 219 2153 384 2558 
Q 550 2963 881 3178 
Q 1213 3394 1622 3394 
Q 1922 3394 2156 3267 
Q 2391 3141 2538 2938 
L 2538 4581 
L 3097 4581 
L 3097 0 
L 2575 0 
z
M 797 1656 
Q 797 1019 1065 703 
Q 1334 388 1700 388 
Q 2069 388 2326 689 
Q 2584 991 2584 1609 
Q 2584 2291 2321 2609 
Q 2059 2928 1675 2928 
Q 1300 2928 1048 2622 
Q 797 2316 797 1656 
z
" transform="scale(0.015625)"/>
      <path id="ArialMT-75" d="M 2597 0 
L 2597 488 
Q 2209 -75 1544 -75 
Q 1250 -75 995 37 
Q 741 150 617 320 
Q 494 491 444 738 
Q 409 903 409 1263 
L 409 3319 
L 972 3319 
L 972 1478 
Q 972 1038 1006 884 
Q 1059 663 1231 536 
Q 1403 409 1656 409 
Q 1909 409 2131 539 
Q 2353 669 2445 892 
Q 2538 1116 2538 1541 
L 2538 3319 
L 3100 3319 
L 3100 0 
L 2597 0 
z
" transform="scale(0.015625)"/>
      <path id="ArialMT-63" d="M 2588 1216 
L 3141 1144 
Q 3050 572 2676 248 
Q 2303 -75 1759 -75 
Q 1078 -75 664 370 
Q 250 816 250 1647 
Q 250 2184 428 2587 
Q 606 2991 970 3192 
Q 1334 3394 1763 3394 
Q 2303 3394 2647 3120 
Q 2991 2847 3088 2344 
L 2541 2259 
Q 2463 2594 2264 2762 
Q 2066 2931 1784 2931 
Q 1359 2931 1093 2626 
Q 828 2322 828 1663 
Q 828 994 1084 691 
Q 1341 388 1753 388 
Q 2084 388 2306 591 
Q 2528 794 2588 1216 
z
" transform="scale(0.015625)"/>
      <path id="ArialMT-69" d="M 425 3934 
L 425 4581 
L 988 4581 
L 988 3934 
L 425 3934 
z
M 425 0 
L 425 3319 
L 988 3319 
L 988 0 
L 425 0 
z
" transform="scale(0.015625)"/>
      <path id="ArialMT-6e" d="M 422 0 
L 422 3319 
L 928 3319 
L 928 2847 
Q 1294 3394 1984 3394 
Q 2284 3394 2536 3286 
Q 2788 3178 2913 3003 
Q 3038 2828 3088 2588 
Q 3119 2431 3119 2041 
L 3119 0 
L 2556 0 
L 2556 2019 
Q 2556 2363 2490 2533 
Q 2425 2703 2258 2804 
Q 2091 2906 1866 2906 
Q 1506 2906 1245 2678 
Q 984 2450 984 1813 
L 984 0 
L 422 0 
z
" transform="scale(0.015625)"/>
      <path id="ArialMT-67" d="M 319 -275 
L 866 -356 
Q 900 -609 1056 -725 
Q 1266 -881 1628 -881 
Q 2019 -881 2231 -725 
Q 2444 -569 2519 -288 
Q 2563 -116 2559 434 
Q 2191 0 1641 0 
Q 956 0 581 494 
Q 206 988 206 1678 
Q 206 2153 378 2554 
Q 550 2956 876 3175 
Q 1203 3394 1644 3394 
Q 2231 3394 2613 2919 
L 2613 3319 
L 3131 3319 
L 3131 450 
Q 3131 -325 2973 -648 
Q 2816 -972 2473 -1159 
Q 2131 -1347 1631 -1347 
Q 1038 -1347 672 -1080 
Q 306 -813 319 -275 
z
M 784 1719 
Q 784 1066 1043 766 
Q 1303 466 1694 466 
Q 2081 466 2343 764 
Q 2606 1063 2606 1700 
Q 2606 2309 2336 2618 
Q 2066 2928 1684 2928 
Q 1309 2928 1046 2623 
Q 784 2319 784 1719 
z
" transform="scale(0.015625)"/>
      <path id="ArialMT-20" transform="scale(0.015625)"/>
      <path id="ArialMT-44" d="M 494 0 
L 494 4581 
L 2072 4581 
Q 2606 4581 2888 4516 
Q 3281 4425 3559 4188 
Q 3922 3881 4101 3404 
Q 4281 2928 4281 2316 
Q 4281 1794 4159 1391 
Q 4038 988 3847 723 
Q 3656 459 3429 307 
Q 3203 156 2883 78 
Q 2563 0 2147 0 
L 494 0 
z
M 1100 541 
L 2078 541 
Q 2531 541 2789 625 
Q 3047 709 3200 863 
Q 3416 1078 3536 1442 
Q 3656 1806 3656 2325 
Q 3656 3044 3420 3430 
Q 3184 3816 2847 3947 
Q 2603 4041 2063 4041 
L 1100 4041 
L 1100 541 
z
" transform="scale(0.015625)"/>
      <path id="ArialMT-74" d="M 1650 503 
L 1731 6 
Q 1494 -44 1306 -44 
Q 1000 -44 831 53 
Q 663 150 594 308 
Q 525 466 525 972 
L 525 2881 
L 113 2881 
L 113 3319 
L 525 3319 
L 525 4141 
L 1084 4478 
L 1084 3319 
L 1650 3319 
L 1650 2881 
L 1084 2881 
L 1084 941 
Q 1084 700 1114 631 
Q 1144 563 1211 522 
Q 1278 481 1403 481 
Q 1497 481 1650 503 
z
" transform="scale(0.015625)"/>
      <path id="ArialMT-62" d="M 941 0 
L 419 0 
L 419 4581 
L 981 4581 
L 981 2947 
Q 1338 3394 1891 3394 
Q 2197 3394 2470 3270 
Q 2744 3147 2920 2923 
Q 3097 2700 3197 2384 
Q 3297 2069 3297 1709 
Q 3297 856 2875 390 
Q 2453 -75 1863 -75 
Q 1275 -75 941 416 
L 941 0 
z
M 934 1684 
Q 934 1088 1097 822 
Q 1363 388 1816 388 
Q 2184 388 2453 708 
Q 2722 1028 2722 1663 
Q 2722 2313 2464 2622 
Q 2206 2931 1841 2931 
Q 1472 2931 1203 2611 
Q 934 2291 934 1684 
z
" transform="scale(0.015625)"/>
      <path id="ArialMT-6c" d="M 409 0 
L 409 4581 
L 972 4581 
L 972 0 
L 409 0 
z
" transform="scale(0.015625)"/>
      <path id="ArialMT-2c" d="M 569 0 
L 569 641 
L 1209 641 
L 1209 0 
Q 1209 -353 1084 -570 
Q 959 -788 688 -906 
L 531 -666 
Q 709 -588 793 -436 
Q 878 -284 888 0 
L 569 0 
z
" transform="scale(0.015625)"/>
      <path id="DejaVuSans-Oblique-3b1" d="M 2619 1628 
L 2622 2350 
Q 2625 3088 2069 3091 
Q 1653 3094 1394 2747 
Q 1069 2319 959 1747 
Q 825 1059 994 731 
Q 1169 397 1547 397 
Q 1966 397 2319 1063 
L 2619 1628 
z
M 2166 3578 
Q 3141 3594 3128 2584 
Q 3128 2584 3616 3500 
L 4128 3500 
L 3119 1603 
L 3109 919 
Q 3109 766 3194 638 
Q 3291 488 3391 488 
L 3669 488 
L 3575 0 
L 3228 0 
Q 2934 0 2722 263 
Q 2622 394 2619 669 
Q 2416 334 2066 50 
Q 1900 -81 1453 -78 
Q 722 -72 456 397 
Q 184 884 353 1747 
Q 534 2675 1009 3097 
Q 1544 3569 2166 3578 
z
" transform="scale(0.015625)"/>
      <path id="DejaVuSans-3d" d="M 678 2906 
L 4684 2906 
L 4684 2381 
L 678 2381 
L 678 2906 
z
M 678 1631 
L 4684 1631 
L 4684 1100 
L 678 1100 
L 678 1631 
z
" transform="scale(0.015625)"/>
      <path id="DejaVuSans-32" d="M 1228 531 
L 3431 531 
L 3431 0 
L 469 0 
L 469 531 
Q 828 903 1448 1529 
Q 2069 2156 2228 2338 
Q 2531 2678 2651 2914 
Q 2772 3150 2772 3378 
Q 2772 3750 2511 3984 
Q 2250 4219 1831 4219 
Q 1534 4219 1204 4116 
Q 875 4013 500 3803 
L 500 4441 
Q 881 4594 1212 4672 
Q 1544 4750 1819 4750 
Q 2544 4750 2975 4387 
Q 3406 4025 3406 3419 
Q 3406 3131 3298 2873 
Q 3191 2616 2906 2266 
Q 2828 2175 2409 1742 
Q 1991 1309 1228 531 
z
" transform="scale(0.015625)"/>
      <path id="DejaVuSans-2c" d="M 750 794 
L 1409 794 
L 1409 256 
L 897 -744 
L 494 -744 
L 750 256 
L 750 794 
z
" transform="scale(0.015625)"/>
      <path id="DejaVuSans-Oblique-3bb" d="M 2350 4316 
L 3125 0 
L 2516 0 
L 2038 2588 
L 328 0 
L -281 0 
L 1903 3356 
L 1794 3975 
Q 1725 4369 1391 4369 
L 1091 4369 
L 1184 4863 
L 1550 4856 
Q 2253 4847 2350 4316 
z
" transform="scale(0.015625)"/>
      <path id="DejaVuSans-31" d="M 794 531 
L 1825 531 
L 1825 4091 
L 703 3866 
L 703 4441 
L 1819 4666 
L 2450 4666 
L 2450 531 
L 3481 531 
L 3481 0 
L 794 0 
L 794 531 
z
" transform="scale(0.015625)"/>
     </defs>
     <use xlink:href="#ArialMT-52" transform="translate(0 0.015625)"/>
     <use xlink:href="#ArialMT-65" transform="translate(72.216797 0.015625)"/>
     <use xlink:href="#ArialMT-64" transform="translate(127.832031 0.015625)"/>
     <use xlink:href="#ArialMT-75" transform="translate(183.447266 0.015625)"/>
     <use xlink:href="#ArialMT-63" transform="translate(239.0625 0.015625)"/>
     <use xlink:href="#ArialMT-69" transform="translate(289.0625 0.015625)"/>
     <use xlink:href="#ArialMT-6e" transform="translate(311.279297 0.015625)"/>
     <use xlink:href="#ArialMT-67" transform="translate(366.894531 0.015625)"/>
     <use xlink:href="#ArialMT-20" transform="translate(422.509766 0.015625)"/>
     <use xlink:href="#ArialMT-44" transform="translate(450.292969 0.015625)"/>
     <use xlink:href="#ArialMT-65" transform="translate(522.509766 0.015625)"/>
     <use xlink:href="#ArialMT-64" transform="translate(578.125 0.015625)"/>
     <use xlink:href="#ArialMT-75" transform="translate(633.740234 0.015625)"/>
     <use xlink:href="#ArialMT-63" transform="translate(689.355469 0.015625)"/>
     <use xlink:href="#ArialMT-74" transform="translate(739.355469 0.015625)"/>
     <use xlink:href="#ArialMT-69" transform="translate(767.138672 0.015625)"/>
     <use xlink:href="#ArialMT-62" transform="translate(789.355469 0.015625)"/>
     <use xlink:href="#ArialMT-6c" transform="translate(844.970703 0.015625)"/>
     <use xlink:href="#ArialMT-65" transform="translate(867.1875 0.015625)"/>
     <use xlink:href="#ArialMT-2c" transform="translate(922.802734 0.015625)"/>
     <use xlink:href="#ArialMT-20" transform="translate(950.585938 0.015625)"/>
     <use xlink:href="#DejaVuSans-Oblique-3b1" transform="translate(978.369141 0.015625)"/>
     <use xlink:href="#DejaVuSans-3d" transform="translate(1063.769531 0.015625)"/>
     <use xlink:href="#DejaVuSans-32" transform="translate(1167.041016 0.015625)"/>
     <use xlink:href="#DejaVuSans-2c" transform="translate(1230.664062 0.015625)"/>
     <use xlink:href="#DejaVuSans-Oblique-3bb" transform="translate(1281.933594 0.015625)"/>
     <use xlink:href="#DejaVuSans-3d" transform="translate(1360.595703 0.015625)"/>
     <use xlink:href="#DejaVuSans-31" transform="translate(1463.867188 0.015625)"/>
    </g>
   </g>
   <g id="legend_1">
    <g id="patch_7">
     <path d="M 194.9925 64.007812 
L 273.68 64.007812 
Q 275.68 64.007812 275.68 62.007812 
L 275.68 34.6 
Q 275.68 32.6 273.68 32.6 
L 194.9925 32.6 
Q 192.9925 32.6 192.9925 34.6 
L 192.9925 62.007812 
Q 192.9925 64.007812 194.9925 64.007812 
z
" style="fill: #eaeaf2; opacity: 0.8; stroke: #cccccc; stroke-linejoin: miter"/>
    </g>
    <g id="line2d_14">
     <path d="M 196.9925 40.257812 
L 206.9925 40.257812 
L 216.9925 40.257812 
" style="fill: none; stroke: #1f77b4; stroke-width: 1.5; stroke-linecap: round"/>
    </g>
    <g id="text_15">
     <!-- Simulation -->
     <g style="fill: #262626" transform="translate(224.9925 43.757812) scale(0.1 -0.1)">
      <defs>
       <path id="ArialMT-53" d="M 288 1472 
L 859 1522 
Q 900 1178 1048 958 
Q 1197 738 1509 602 
Q 1822 466 2213 466 
Q 2559 466 2825 569 
Q 3091 672 3220 851 
Q 3350 1031 3350 1244 
Q 3350 1459 3225 1620 
Q 3100 1781 2813 1891 
Q 2628 1963 1997 2114 
Q 1366 2266 1113 2400 
Q 784 2572 623 2826 
Q 463 3081 463 3397 
Q 463 3744 659 4045 
Q 856 4347 1234 4503 
Q 1613 4659 2075 4659 
Q 2584 4659 2973 4495 
Q 3363 4331 3572 4012 
Q 3781 3694 3797 3291 
L 3216 3247 
Q 3169 3681 2898 3903 
Q 2628 4125 2100 4125 
Q 1550 4125 1298 3923 
Q 1047 3722 1047 3438 
Q 1047 3191 1225 3031 
Q 1400 2872 2139 2705 
Q 2878 2538 3153 2413 
Q 3553 2228 3743 1945 
Q 3934 1663 3934 1294 
Q 3934 928 3725 604 
Q 3516 281 3123 101 
Q 2731 -78 2241 -78 
Q 1619 -78 1198 103 
Q 778 284 539 648 
Q 300 1013 288 1472 
z
" transform="scale(0.015625)"/>
       <path id="ArialMT-6d" d="M 422 0 
L 422 3319 
L 925 3319 
L 925 2853 
Q 1081 3097 1340 3245 
Q 1600 3394 1931 3394 
Q 2300 3394 2536 3241 
Q 2772 3088 2869 2813 
Q 3263 3394 3894 3394 
Q 4388 3394 4653 3120 
Q 4919 2847 4919 2278 
L 4919 0 
L 4359 0 
L 4359 2091 
Q 4359 2428 4304 2576 
Q 4250 2725 4106 2815 
Q 3963 2906 3769 2906 
Q 3419 2906 3187 2673 
Q 2956 2441 2956 1928 
L 2956 0 
L 2394 0 
L 2394 2156 
Q 2394 2531 2256 2718 
Q 2119 2906 1806 2906 
Q 1569 2906 1367 2781 
Q 1166 2656 1075 2415 
Q 984 2175 984 1722 
L 984 0 
L 422 0 
z
" transform="scale(0.015625)"/>
       <path id="ArialMT-61" d="M 2588 409 
Q 2275 144 1986 34 
Q 1697 -75 1366 -75 
Q 819 -75 525 192 
Q 231 459 231 875 
Q 231 1119 342 1320 
Q 453 1522 633 1644 
Q 813 1766 1038 1828 
Q 1203 1872 1538 1913 
Q 2219 1994 2541 2106 
Q 2544 2222 2544 2253 
Q 2544 2597 2384 2738 
Q 2169 2928 1744 2928 
Q 1347 2928 1158 2789 
Q 969 2650 878 2297 
L 328 2372 
Q 403 2725 575 2942 
Q 747 3159 1072 3276 
Q 1397 3394 1825 3394 
Q 2250 3394 2515 3294 
Q 2781 3194 2906 3042 
Q 3031 2891 3081 2659 
Q 3109 2516 3109 2141 
L 3109 1391 
Q 3109 606 3145 398 
Q 3181 191 3288 0 
L 2700 0 
Q 2613 175 2588 409 
z
M 2541 1666 
Q 2234 1541 1622 1453 
Q 1275 1403 1131 1340 
Q 988 1278 909 1158 
Q 831 1038 831 891 
Q 831 666 1001 516 
Q 1172 366 1500 366 
Q 1825 366 2078 508 
Q 2331 650 2450 897 
Q 2541 1088 2541 1459 
L 2541 1666 
z
" transform="scale(0.015625)"/>
       <path id="ArialMT-6f" d="M 213 1659 
Q 213 2581 725 3025 
Q 1153 3394 1769 3394 
Q 2453 3394 2887 2945 
Q 3322 2497 3322 1706 
Q 3322 1066 3130 698 
Q 2938 331 2570 128 
Q 2203 -75 1769 -75 
Q 1072 -75 642 372 
Q 213 819 213 1659 
z
M 791 1659 
Q 791 1022 1069 705 
Q 1347 388 1769 388 
Q 2188 388 2466 706 
Q 2744 1025 2744 1678 
Q 2744 2294 2464 2611 
Q 2184 2928 1769 2928 
Q 1347 2928 1069 2612 
Q 791 2297 791 1659 
z
" transform="scale(0.015625)"/>
      </defs>
      <use xlink:href="#ArialMT-53"/>
      <use xlink:href="#ArialMT-69" x="66.699219"/>
      <use xlink:href="#ArialMT-6d" x="88.916016"/>
      <use xlink:href="#ArialMT-75" x="172.216797"/>
      <use xlink:href="#ArialMT-6c" x="227.832031"/>
      <use xlink:href="#ArialMT-61" x="250.048828"/>
      <use xlink:href="#ArialMT-74" x="305.664062"/>
      <use xlink:href="#ArialMT-69" x="333.447266"/>
      <use xlink:href="#ArialMT-6f" x="355.664062"/>
      <use xlink:href="#ArialMT-6e" x="411.279297"/>
     </g>
    </g>
    <g id="line2d_15">
     <path d="M 196.9925 54.403125 
L 206.9925 54.403125 
L 216.9925 54.403125 
" style="fill: none; stroke-dasharray: 5.55,2.4; stroke-dashoffset: 0; stroke: #ff0000; stroke-width: 1.5"/>
    </g>
    <g id="text_16">
     <!-- Analytical -->
     <g style="fill: #262626" transform="translate(224.9925 57.903125) scale(0.1 -0.1)">
      <defs>
       <path id="ArialMT-41" d="M -9 0 
L 1750 4581 
L 2403 4581 
L 4278 0 
L 3588 0 
L 3053 1388 
L 1138 1388 
L 634 0 
L -9 0 
z
M 1313 1881 
L 2866 1881 
L 2388 3150 
Q 2169 3728 2063 4100 
Q 1975 3659 1816 3225 
L 1313 1881 
z
" transform="scale(0.015625)"/>
       <path id="ArialMT-79" d="M 397 -1278 
L 334 -750 
Q 519 -800 656 -800 
Q 844 -800 956 -737 
Q 1069 -675 1141 -563 
Q 1194 -478 1313 -144 
Q 1328 -97 1363 -6 
L 103 3319 
L 709 3319 
L 1400 1397 
Q 1534 1031 1641 628 
Q 1738 1016 1872 1384 
L 2581 3319 
L 3144 3319 
L 1881 -56 
Q 1678 -603 1566 -809 
Q 1416 -1088 1222 -1217 
Q 1028 -1347 759 -1347 
Q 597 -1347 397 -1278 
z
" transform="scale(0.015625)"/>
      </defs>
      <use xlink:href="#ArialMT-41"/>
      <use xlink:href="#ArialMT-6e" x="66.699219"/>
      <use xlink:href="#ArialMT-61" x="122.314453"/>
      <use xlink:href="#ArialMT-6c" x="177.929688"/>
      <use xlink:href="#ArialMT-79" x="200.146484"/>
      <use xlink:href="#ArialMT-74" x="250.146484"/>
      <use xlink:href="#ArialMT-69" x="277.929688"/>
      <use xlink:href="#ArialMT-63" x="300.146484"/>
      <use xlink:href="#ArialMT-61" x="350.146484"/>
      <use xlink:href="#ArialMT-6c" x="405.761719"/>
     </g>
    </g>
   </g>
  </g>
  <g id="axes_2">
   <g id="patch_8">
    <path d="M 333.53 246.76 
L 566.94 246.76 
L 566.94 27.6 
L 333.53 27.6 
z
" style="fill: #eaeaf2"/>
   </g>
   <g id="matplotlib.axis_3">
    <g id="xtick_7">
     <g id="line2d_16">
      <path d="M 344.139545 246.76 
L 344.139545 27.6 
" clip-path="url(#pa610d5f824)" style="fill: none; stroke: #ffffff; stroke-width: 0.8; stroke-linecap: round"/>
     </g>
     <g id="text_17">
      <!-- 0 -->
      <g style="fill: #262626" transform="translate(341.359077 260.917812) scale(0.1 -0.1)">
       <use xlink:href="#ArialMT-30"/>
      </g>
     </g>
    </g>
    <g id="xtick_8">
     <g id="line2d_17">
      <path d="M 386.577727 246.76 
L 386.577727 27.6 
" clip-path="url(#pa610d5f824)" style="fill: none; stroke: #ffffff; stroke-width: 0.8; stroke-linecap: round"/>
     </g>
     <g id="text_18">
      <!-- 2 -->
      <g style="fill: #262626" transform="translate(383.797259 260.917812) scale(0.1 -0.1)">
       <use xlink:href="#ArialMT-32"/>
      </g>
     </g>
    </g>
    <g id="xtick_9">
     <g id="line2d_18">
      <path d="M 429.015909 246.76 
L 429.015909 27.6 
" clip-path="url(#pa610d5f824)" style="fill: none; stroke: #ffffff; stroke-width: 0.8; stroke-linecap: round"/>
     </g>
     <g id="text_19">
      <!-- 4 -->
      <g style="fill: #262626" transform="translate(426.23544 260.917812) scale(0.1 -0.1)">
       <use xlink:href="#ArialMT-34"/>
      </g>
     </g>
    </g>
    <g id="xtick_10">
     <g id="line2d_19">
      <path d="M 471.454091 246.76 
L 471.454091 27.6 
" clip-path="url(#pa610d5f824)" style="fill: none; stroke: #ffffff; stroke-width: 0.8; stroke-linecap: round"/>
     </g>
     <g id="text_20">
      <!-- 6 -->
      <g style="fill: #262626" transform="translate(468.673622 260.917812) scale(0.1 -0.1)">
       <use xlink:href="#ArialMT-36"/>
      </g>
     </g>
    </g>
    <g id="xtick_11">
     <g id="line2d_20">
      <path d="M 513.892273 246.76 
L 513.892273 27.6 
" clip-path="url(#pa610d5f824)" style="fill: none; stroke: #ffffff; stroke-width: 0.8; stroke-linecap: round"/>
     </g>
     <g id="text_21">
      <!-- 8 -->
      <g style="fill: #262626" transform="translate(511.111804 260.917812) scale(0.1 -0.1)">
       <use xlink:href="#ArialMT-38"/>
      </g>
     </g>
    </g>
    <g id="xtick_12">
     <g id="line2d_21">
      <path d="M 556.330455 246.76 
L 556.330455 27.6 
" clip-path="url(#pa610d5f824)" style="fill: none; stroke: #ffffff; stroke-width: 0.8; stroke-linecap: round"/>
     </g>
     <g id="text_22">
      <!-- 10 -->
      <g style="fill: #262626" transform="translate(550.769517 260.917812) scale(0.1 -0.1)">
       <use xlink:href="#ArialMT-31"/>
       <use xlink:href="#ArialMT-30" x="55.615234"/>
      </g>
     </g>
    </g>
    <g id="text_23">
     <!-- $d$ -->
     <g style="fill: #262626" transform="translate(447.035 274.063125) scale(0.1 -0.1)">
      <use xlink:href="#DejaVuSans-Oblique-64" transform="translate(0 0.015625)"/>
     </g>
    </g>
   </g>
   <g id="matplotlib.axis_4">
    <g id="ytick_6">
     <g id="line2d_22">
      <path d="M 333.53 232.034363 
L 566.94 232.034363 
" clip-path="url(#pa610d5f824)" style="fill: none; stroke: #ffffff; stroke-width: 0.8; stroke-linecap: round"/>
     </g>
     <g id="text_24">
      <!-- 1.0 -->
      <g style="fill: #262626" transform="translate(312.63 235.61327) scale(0.1 -0.1)">
       <use xlink:href="#ArialMT-31"/>
       <use xlink:href="#ArialMT-2e" x="55.615234"/>
       <use xlink:href="#ArialMT-30" x="83.398438"/>
      </g>
     </g>
    </g>
    <g id="ytick_7">
     <g id="line2d_23">
      <path d="M 333.53 199.622272 
L 566.94 199.622272 
" clip-path="url(#pa610d5f824)" style="fill: none; stroke: #ffffff; stroke-width: 0.8; stroke-linecap: round"/>
     </g>
     <g id="text_25">
      <!-- 1.5 -->
      <g style="fill: #262626" transform="translate(312.63 203.201179) scale(0.1 -0.1)">
       <defs>
        <path id="ArialMT-35" d="M 266 1200 
L 856 1250 
Q 922 819 1161 601 
Q 1400 384 1738 384 
Q 2144 384 2425 690 
Q 2706 997 2706 1503 
Q 2706 1984 2436 2262 
Q 2166 2541 1728 2541 
Q 1456 2541 1237 2417 
Q 1019 2294 894 2097 
L 366 2166 
L 809 4519 
L 3088 4519 
L 3088 3981 
L 1259 3981 
L 1013 2750 
Q 1425 3038 1878 3038 
Q 2478 3038 2890 2622 
Q 3303 2206 3303 1553 
Q 3303 931 2941 478 
Q 2500 -78 1738 -78 
Q 1113 -78 717 272 
Q 322 622 266 1200 
z
" transform="scale(0.015625)"/>
       </defs>
       <use xlink:href="#ArialMT-31"/>
       <use xlink:href="#ArialMT-2e" x="55.615234"/>
       <use xlink:href="#ArialMT-35" x="83.398438"/>
      </g>
     </g>
    </g>
    <g id="ytick_8">
     <g id="line2d_24">
      <path d="M 333.53 167.210182 
L 566.94 167.210182 
" clip-path="url(#pa610d5f824)" style="fill: none; stroke: #ffffff; stroke-width: 0.8; stroke-linecap: round"/>
     </g>
     <g id="text_26">
      <!-- 2.0 -->
      <g style="fill: #262626" transform="translate(312.63 170.789088) scale(0.1 -0.1)">
       <use xlink:href="#ArialMT-32"/>
       <use xlink:href="#ArialMT-2e" x="55.615234"/>
       <use xlink:href="#ArialMT-30" x="83.398438"/>
      </g>
     </g>
    </g>
    <g id="ytick_9">
     <g id="line2d_25">
      <path d="M 333.53 134.798091 
L 566.94 134.798091 
" clip-path="url(#pa610d5f824)" style="fill: none; stroke: #ffffff; stroke-width: 0.8; stroke-linecap: round"/>
     </g>
     <g id="text_27">
      <!-- 2.5 -->
      <g style="fill: #262626" transform="translate(312.63 138.376997) scale(0.1 -0.1)">
       <use xlink:href="#ArialMT-32"/>
       <use xlink:href="#ArialMT-2e" x="55.615234"/>
       <use xlink:href="#ArialMT-35" x="83.398438"/>
      </g>
     </g>
    </g>
    <g id="ytick_10">
     <g id="line2d_26">
      <path d="M 333.53 102.386 
L 566.94 102.386 
" clip-path="url(#pa610d5f824)" style="fill: none; stroke: #ffffff; stroke-width: 0.8; stroke-linecap: round"/>
     </g>
     <g id="text_28">
      <!-- 3.0 -->
      <g style="fill: #262626" transform="translate(312.63 105.964906) scale(0.1 -0.1)">
       <defs>
        <path id="ArialMT-33" d="M 269 1209 
L 831 1284 
Q 928 806 1161 595 
Q 1394 384 1728 384 
Q 2125 384 2398 659 
Q 2672 934 2672 1341 
Q 2672 1728 2419 1979 
Q 2166 2231 1775 2231 
Q 1616 2231 1378 2169 
L 1441 2663 
Q 1497 2656 1531 2656 
Q 1891 2656 2178 2843 
Q 2466 3031 2466 3422 
Q 2466 3731 2256 3934 
Q 2047 4138 1716 4138 
Q 1388 4138 1169 3931 
Q 950 3725 888 3313 
L 325 3413 
Q 428 3978 793 4289 
Q 1159 4600 1703 4600 
Q 2078 4600 2393 4439 
Q 2709 4278 2876 4000 
Q 3044 3722 3044 3409 
Q 3044 3113 2884 2869 
Q 2725 2625 2413 2481 
Q 2819 2388 3044 2092 
Q 3269 1797 3269 1353 
Q 3269 753 2831 336 
Q 2394 -81 1725 -81 
Q 1122 -81 723 278 
Q 325 638 269 1209 
z
" transform="scale(0.015625)"/>
       </defs>
       <use xlink:href="#ArialMT-33"/>
       <use xlink:href="#ArialMT-2e" x="55.615234"/>
       <use xlink:href="#ArialMT-30" x="83.398438"/>
      </g>
     </g>
    </g>
    <g id="ytick_11">
     <g id="line2d_27">
      <path d="M 333.53 69.973909 
L 566.94 69.973909 
" clip-path="url(#pa610d5f824)" style="fill: none; stroke: #ffffff; stroke-width: 0.8; stroke-linecap: round"/>
     </g>
     <g id="text_29">
      <!-- 3.5 -->
      <g style="fill: #262626" transform="translate(312.63 73.552815) scale(0.1 -0.1)">
       <use xlink:href="#ArialMT-33"/>
       <use xlink:href="#ArialMT-2e" x="55.615234"/>
       <use xlink:href="#ArialMT-35" x="83.398438"/>
      </g>
     </g>
    </g>
    <g id="ytick_12">
     <g id="line2d_28">
      <path d="M 333.53 37.561818 
L 566.94 37.561818 
" clip-path="url(#pa610d5f824)" style="fill: none; stroke: #ffffff; stroke-width: 0.8; stroke-linecap: round"/>
     </g>
     <g id="text_30">
      <!-- 4.0 -->
      <g style="fill: #262626" transform="translate(312.63 41.140724) scale(0.1 -0.1)">
       <use xlink:href="#ArialMT-34"/>
       <use xlink:href="#ArialMT-2e" x="55.615234"/>
       <use xlink:href="#ArialMT-30" x="83.398438"/>
      </g>
     </g>
    </g>
    <g id="text_31">
     <!-- $\mathbb{E}(h(x))$ -->
     <g style="fill: #262626" transform="translate(306.6425 154.33) rotate(-90) scale(0.1 -0.1)">
      <use xlink:href="#STIXNonUnicode-Italic-e156" transform="translate(0 0.015625)"/>
      <use xlink:href="#DejaVuSans-28" transform="translate(63.899994 0.015625)"/>
      <use xlink:href="#DejaVuSans-Oblique-68" transform="translate(102.913666 0.015625)"/>
      <use xlink:href="#DejaVuSans-28" transform="translate(166.292572 0.015625)"/>
      <use xlink:href="#DejaVuSans-Oblique-78" transform="translate(205.306244 0.015625)"/>
      <use xlink:href="#DejaVuSans-29" transform="translate(264.485931 0.015625)"/>
      <use xlink:href="#DejaVuSans-29" transform="translate(303.499603 0.015625)"/>
     </g>
    </g>
   </g>
   <g id="line2d_29">
    <path d="M 344.139545 40.202839 
L 346.282888 46.388557 
L 348.42623 61.404852 
L 350.569573 66.201426 
L 352.712916 42.141703 
L 354.856258 65.91233 
L 356.999601 72.517292 
L 359.142943 62.335867 
L 361.286286 59.286651 
L 363.429628 93.464092 
L 365.572971 86.436616 
L 367.716313 96.256694 
L 369.859656 100.266652 
L 372.002998 106.916104 
L 374.146341 112.720406 
L 376.289683 92.755703 
L 378.433026 107.815724 
L 380.576368 127.448361 
L 382.719711 110.473187 
L 384.863053 136.864749 
L 387.006396 133.147973 
L 389.149738 129.600774 
L 391.293081 125.88493 
L 393.436423 143.338756 
L 395.579766 137.158847 
L 397.723108 156.12161 
L 399.866451 148.434986 
L 402.009793 146.027453 
L 404.153136 148.614085 
L 406.296478 144.553323 
L 408.439821 149.600158 
L 410.583163 155.202138 
L 412.726506 156.361457 
L 414.869848 148.621403 
L 417.013191 154.759431 
L 419.156534 159.209604 
L 421.299876 167.266555 
L 423.443219 169.609994 
L 425.586561 172.030875 
L 427.729904 155.156521 
L 429.873246 159.179937 
L 432.016589 183.3501 
L 434.159931 172.427944 
L 436.303274 167.220536 
L 438.446616 161.583098 
L 440.589959 178.779482 
L 442.733301 178.745819 
L 444.876644 177.904983 
L 447.019986 187.623921 
L 449.163329 180.1274 
L 451.306671 181.607574 
L 453.450014 179.067953 
L 455.593356 198.923374 
L 457.736699 187.502961 
L 459.880041 191.582776 
L 462.023384 201.07409 
L 464.166726 194.918532 
L 466.310069 187.358419 
L 468.453411 199.621559 
L 470.596754 198.344179 
L 472.740096 186.156399 
L 474.883439 197.617525 
L 477.026781 199.63156 
L 479.170124 195.650628 
L 481.313466 209.282706 
L 483.456809 192.505789 
L 485.600152 199.73649 
L 487.743494 209.034824 
L 489.886837 173.083001 
L 492.030179 204.952316 
L 494.173522 214.064888 
L 496.316864 204.392988 
L 498.460207 195.989431 
L 500.603549 213.312791 
L 502.746892 211.337603 
L 504.890234 208.254619 
L 507.033577 207.476583 
L 509.176919 208.867904 
L 511.320262 207.118321 
L 513.463604 208.132361 
L 515.606947 196.795982 
L 517.750289 204.915811 
L 519.893632 191.131399 
L 522.036974 214.348143 
L 524.180317 216.880181 
L 526.323659 214.668057 
L 528.467002 210.98879 
L 530.610344 222.980667 
L 532.753687 212.074162 
L 534.897029 190.793934 
L 537.040372 226.839991 
L 539.183714 212.114572 
L 541.327057 209.902992 
L 543.470399 223.488533 
L 545.613742 219.361734 
L 547.757084 233.228869 
L 549.900427 216.954977 
L 552.04377 236.798182 
L 554.187112 221.805516 
L 556.330455 229.461321 
" clip-path="url(#pa610d5f824)" style="fill: none; stroke: #1f77b4; stroke-width: 1.5; stroke-linecap: round"/>
   </g>
   <g id="line2d_30">
    <path d="M 344.139545 37.561818 
L 346.282888 43.948437 
L 348.42623 50.028007 
L 350.569573 55.822151 
L 352.712916 61.350509 
L 354.856258 66.630958 
L 356.999601 71.679809 
L 359.142943 76.51197 
L 361.286286 81.1411 
L 363.429628 85.579731 
L 365.572971 89.839384 
L 367.716313 93.930672 
L 369.859656 97.863383 
L 372.002998 101.646561 
L 374.146341 105.288575 
L 376.289683 108.797183 
L 378.433026 112.179581 
L 380.576368 115.442461 
L 382.719711 118.592045 
L 384.863053 121.634136 
L 387.006396 124.574143 
L 389.149738 127.41712 
L 391.293081 130.167792 
L 393.436423 132.830584 
L 395.579766 135.40964 
L 397.723108 137.908849 
L 399.866451 140.331862 
L 402.009793 142.682113 
L 404.153136 144.962829 
L 406.296478 147.177053 
L 408.439821 149.327649 
L 410.583163 151.417321 
L 412.726506 153.448623 
L 414.869848 155.423967 
L 417.013191 157.345632 
L 419.156534 159.215779 
L 421.299876 161.03645 
L 423.443219 162.809584 
L 425.586561 164.537019 
L 427.729904 166.220499 
L 429.873246 167.861681 
L 432.016589 169.462138 
L 434.159931 171.023369 
L 436.303274 172.546797 
L 438.446616 174.03378 
L 440.589959 175.485609 
L 442.733301 176.903517 
L 444.876644 178.288679 
L 447.019986 179.642216 
L 449.163329 180.9652 
L 451.306671 182.258652 
L 453.450014 183.523552 
L 455.593356 184.760833 
L 457.736699 185.971392 
L 459.880041 187.156084 
L 462.023384 188.315729 
L 464.166726 189.451114 
L 466.310069 190.562992 
L 468.453411 191.652086 
L 470.596754 192.719089 
L 472.740096 193.764666 
L 474.883439 194.789456 
L 477.026781 195.794073 
L 479.170124 196.779107 
L 481.313466 197.745124 
L 483.456809 198.692671 
L 485.600152 199.622272 
L 487.743494 200.534433 
L 489.886837 201.429638 
L 492.030179 202.308357 
L 494.173522 203.171042 
L 496.316864 204.018126 
L 498.460207 204.850029 
L 500.603549 205.667156 
L 502.746892 206.469897 
L 504.890234 207.258629 
L 507.033577 208.033715 
L 509.176919 208.795506 
L 511.320262 209.544341 
L 513.463604 210.280549 
L 515.606947 211.004445 
L 517.750289 211.716336 
L 519.893632 212.416519 
L 522.036974 213.105279 
L 524.180317 213.782895 
L 526.323659 214.449633 
L 528.467002 215.105755 
L 530.610344 215.751512 
L 532.753687 216.387147 
L 534.897029 217.012897 
L 537.040372 217.62899 
L 539.183714 218.235648 
L 541.327057 218.833086 
L 543.470399 219.421514 
L 545.613742 220.001132 
L 547.757084 220.572138 
L 549.900427 221.134722 
L 552.04377 221.689069 
L 554.187112 222.235359 
L 556.330455 222.773766 
" clip-path="url(#pa610d5f824)" style="fill: none; stroke-dasharray: 5.55,2.4; stroke-dashoffset: 0; stroke: #ff0000; stroke-width: 1.5"/>
   </g>
   <g id="patch_9">
    <path d="M 333.53 246.76 
L 333.53 27.6 
" style="fill: none; stroke: #ffffff; stroke-width: 0.8; stroke-linejoin: miter; stroke-linecap: square"/>
   </g>
   <g id="patch_10">
    <path d="M 566.94 246.76 
L 566.94 27.6 
" style="fill: none; stroke: #ffffff; stroke-width: 0.8; stroke-linejoin: miter; stroke-linecap: square"/>
   </g>
   <g id="patch_11">
    <path d="M 333.53 246.76 
L 566.94 246.76 
" style="fill: none; stroke: #ffffff; stroke-width: 0.8; stroke-linejoin: miter; stroke-linecap: square"/>
   </g>
   <g id="patch_12">
    <path d="M 333.53 27.6 
L 566.94 27.6 
" style="fill: none; stroke: #ffffff; stroke-width: 0.8; stroke-linejoin: miter; stroke-linecap: square"/>
   </g>
   <g id="text_32">
    <!-- Reducing Deductible, $\alpha = 2, \lambda = 4$ -->
    <g style="fill: #262626" transform="translate(358.555 21.6) scale(0.12 -0.12)">
     <defs>
      <path id="DejaVuSans-34" d="M 2419 4116 
L 825 1625 
L 2419 1625 
L 2419 4116 
z
M 2253 4666 
L 3047 4666 
L 3047 1625 
L 3713 1625 
L 3713 1100 
L 3047 1100 
L 3047 0 
L 2419 0 
L 2419 1100 
L 313 1100 
L 313 1709 
L 2253 4666 
z
" transform="scale(0.015625)"/>
     </defs>
     <use xlink:href="#ArialMT-52" transform="translate(0 0.015625)"/>
     <use xlink:href="#ArialMT-65" transform="translate(72.216797 0.015625)"/>
     <use xlink:href="#ArialMT-64" transform="translate(127.832031 0.015625)"/>
     <use xlink:href="#ArialMT-75" transform="translate(183.447266 0.015625)"/>
     <use xlink:href="#ArialMT-63" transform="translate(239.0625 0.015625)"/>
     <use xlink:href="#ArialMT-69" transform="translate(289.0625 0.015625)"/>
     <use xlink:href="#ArialMT-6e" transform="translate(311.279297 0.015625)"/>
     <use xlink:href="#ArialMT-67" transform="translate(366.894531 0.015625)"/>
     <use xlink:href="#ArialMT-20" transform="translate(422.509766 0.015625)"/>
     <use xlink:href="#ArialMT-44" transform="translate(450.292969 0.015625)"/>
     <use xlink:href="#ArialMT-65" transform="translate(522.509766 0.015625)"/>
     <use xlink:href="#ArialMT-64" transform="translate(578.125 0.015625)"/>
     <use xlink:href="#ArialMT-75" transform="translate(633.740234 0.015625)"/>
     <use xlink:href="#ArialMT-63" transform="translate(689.355469 0.015625)"/>
     <use xlink:href="#ArialMT-74" transform="translate(739.355469 0.015625)"/>
     <use xlink:href="#ArialMT-69" transform="translate(767.138672 0.015625)"/>
     <use xlink:href="#ArialMT-62" transform="translate(789.355469 0.015625)"/>
     <use xlink:href="#ArialMT-6c" transform="translate(844.970703 0.015625)"/>
     <use xlink:href="#ArialMT-65" transform="translate(867.1875 0.015625)"/>
     <use xlink:href="#ArialMT-2c" transform="translate(922.802734 0.015625)"/>
     <use xlink:href="#ArialMT-20" transform="translate(950.585938 0.015625)"/>
     <use xlink:href="#DejaVuSans-Oblique-3b1" transform="translate(978.369141 0.015625)"/>
     <use xlink:href="#DejaVuSans-3d" transform="translate(1063.769531 0.015625)"/>
     <use xlink:href="#DejaVuSans-32" transform="translate(1167.041016 0.015625)"/>
     <use xlink:href="#DejaVuSans-2c" transform="translate(1230.664062 0.015625)"/>
     <use xlink:href="#DejaVuSans-Oblique-3bb" transform="translate(1281.933594 0.015625)"/>
     <use xlink:href="#DejaVuSans-3d" transform="translate(1360.595703 0.015625)"/>
     <use xlink:href="#DejaVuSans-34" transform="translate(1463.867188 0.015625)"/>
    </g>
   </g>
   <g id="legend_2">
    <g id="patch_13">
     <path d="M 481.2525 64.007812 
L 559.94 64.007812 
Q 561.94 64.007812 561.94 62.007812 
L 561.94 34.6 
Q 561.94 32.6 559.94 32.6 
L 481.2525 32.6 
Q 479.2525 32.6 479.2525 34.6 
L 479.2525 62.007812 
Q 479.2525 64.007812 481.2525 64.007812 
z
" style="fill: #eaeaf2; opacity: 0.8; stroke: #cccccc; stroke-linejoin: miter"/>
    </g>
    <g id="line2d_31">
     <path d="M 483.2525 40.257812 
L 493.2525 40.257812 
L 503.2525 40.257812 
" style="fill: none; stroke: #1f77b4; stroke-width: 1.5; stroke-linecap: round"/>
    </g>
    <g id="text_33">
     <!-- Simulation -->
     <g style="fill: #262626" transform="translate(511.2525 43.757812) scale(0.1 -0.1)">
      <use xlink:href="#ArialMT-53"/>
      <use xlink:href="#ArialMT-69" x="66.699219"/>
      <use xlink:href="#ArialMT-6d" x="88.916016"/>
      <use xlink:href="#ArialMT-75" x="172.216797"/>
      <use xlink:href="#ArialMT-6c" x="227.832031"/>
      <use xlink:href="#ArialMT-61" x="250.048828"/>
      <use xlink:href="#ArialMT-74" x="305.664062"/>
      <use xlink:href="#ArialMT-69" x="333.447266"/>
      <use xlink:href="#ArialMT-6f" x="355.664062"/>
      <use xlink:href="#ArialMT-6e" x="411.279297"/>
     </g>
    </g>
    <g id="line2d_32">
     <path d="M 483.2525 54.403125 
L 493.2525 54.403125 
L 503.2525 54.403125 
" style="fill: none; stroke-dasharray: 5.55,2.4; stroke-dashoffset: 0; stroke: #ff0000; stroke-width: 1.5"/>
    </g>
    <g id="text_34">
     <!-- Analytical -->
     <g style="fill: #262626" transform="translate(511.2525 57.903125) scale(0.1 -0.1)">
      <use xlink:href="#ArialMT-41"/>
      <use xlink:href="#ArialMT-6e" x="66.699219"/>
      <use xlink:href="#ArialMT-61" x="122.314453"/>
      <use xlink:href="#ArialMT-6c" x="177.929688"/>
      <use xlink:href="#ArialMT-79" x="200.146484"/>
      <use xlink:href="#ArialMT-74" x="250.146484"/>
      <use xlink:href="#ArialMT-69" x="277.929688"/>
      <use xlink:href="#ArialMT-63" x="300.146484"/>
      <use xlink:href="#ArialMT-61" x="350.146484"/>
      <use xlink:href="#ArialMT-6c" x="405.761719"/>
     </g>
    </g>
   </g>
  </g>
  <g id="axes_3">
   <g id="patch_14">
    <path d="M 619.79 246.76 
L 853.2 246.76 
L 853.2 27.6 
L 619.79 27.6 
z
" style="fill: #eaeaf2"/>
   </g>
   <g id="matplotlib.axis_5">
    <g id="xtick_13">
     <g id="line2d_33">
      <path d="M 630.399545 246.76 
L 630.399545 27.6 
" clip-path="url(#p98ee55a224)" style="fill: none; stroke: #ffffff; stroke-width: 0.8; stroke-linecap: round"/>
     </g>
     <g id="text_35">
      <!-- 0 -->
      <g style="fill: #262626" transform="translate(627.619077 260.917812) scale(0.1 -0.1)">
       <use xlink:href="#ArialMT-30"/>
      </g>
     </g>
    </g>
    <g id="xtick_14">
     <g id="line2d_34">
      <path d="M 672.837727 246.76 
L 672.837727 27.6 
" clip-path="url(#p98ee55a224)" style="fill: none; stroke: #ffffff; stroke-width: 0.8; stroke-linecap: round"/>
     </g>
     <g id="text_36">
      <!-- 2 -->
      <g style="fill: #262626" transform="translate(670.057259 260.917812) scale(0.1 -0.1)">
       <use xlink:href="#ArialMT-32"/>
      </g>
     </g>
    </g>
    <g id="xtick_15">
     <g id="line2d_35">
      <path d="M 715.275909 246.76 
L 715.275909 27.6 
" clip-path="url(#p98ee55a224)" style="fill: none; stroke: #ffffff; stroke-width: 0.8; stroke-linecap: round"/>
     </g>
     <g id="text_37">
      <!-- 4 -->
      <g style="fill: #262626" transform="translate(712.49544 260.917812) scale(0.1 -0.1)">
       <use xlink:href="#ArialMT-34"/>
      </g>
     </g>
    </g>
    <g id="xtick_16">
     <g id="line2d_36">
      <path d="M 757.714091 246.76 
L 757.714091 27.6 
" clip-path="url(#p98ee55a224)" style="fill: none; stroke: #ffffff; stroke-width: 0.8; stroke-linecap: round"/>
     </g>
     <g id="text_38">
      <!-- 6 -->
      <g style="fill: #262626" transform="translate(754.933622 260.917812) scale(0.1 -0.1)">
       <use xlink:href="#ArialMT-36"/>
      </g>
     </g>
    </g>
    <g id="xtick_17">
     <g id="line2d_37">
      <path d="M 800.152273 246.76 
L 800.152273 27.6 
" clip-path="url(#p98ee55a224)" style="fill: none; stroke: #ffffff; stroke-width: 0.8; stroke-linecap: round"/>
     </g>
     <g id="text_39">
      <!-- 8 -->
      <g style="fill: #262626" transform="translate(797.371804 260.917812) scale(0.1 -0.1)">
       <use xlink:href="#ArialMT-38"/>
      </g>
     </g>
    </g>
    <g id="xtick_18">
     <g id="line2d_38">
      <path d="M 842.590455 246.76 
L 842.590455 27.6 
" clip-path="url(#p98ee55a224)" style="fill: none; stroke: #ffffff; stroke-width: 0.8; stroke-linecap: round"/>
     </g>
     <g id="text_40">
      <!-- 10 -->
      <g style="fill: #262626" transform="translate(837.029517 260.917812) scale(0.1 -0.1)">
       <use xlink:href="#ArialMT-31"/>
       <use xlink:href="#ArialMT-30" x="55.615234"/>
      </g>
     </g>
    </g>
    <g id="text_41">
     <!-- $d$ -->
     <g style="fill: #262626" transform="translate(733.295 274.063125) scale(0.1 -0.1)">
      <use xlink:href="#DejaVuSans-Oblique-64" transform="translate(0 0.015625)"/>
     </g>
    </g>
   </g>
   <g id="matplotlib.axis_6">
    <g id="ytick_13">
     <g id="line2d_39">
      <path d="M 619.79 225.660147 
L 853.2 225.660147 
" clip-path="url(#p98ee55a224)" style="fill: none; stroke: #ffffff; stroke-width: 0.8; stroke-linecap: round"/>
     </g>
     <g id="text_42">
      <!-- 0.25 -->
      <g style="fill: #262626" transform="translate(593.329063 229.239054) scale(0.1 -0.1)">
       <use xlink:href="#ArialMT-30"/>
       <use xlink:href="#ArialMT-2e" x="55.615234"/>
       <use xlink:href="#ArialMT-32" x="83.398438"/>
       <use xlink:href="#ArialMT-35" x="139.013672"/>
      </g>
     </g>
    </g>
    <g id="ytick_14">
     <g id="line2d_40">
      <path d="M 619.79 198.788957 
L 853.2 198.788957 
" clip-path="url(#p98ee55a224)" style="fill: none; stroke: #ffffff; stroke-width: 0.8; stroke-linecap: round"/>
     </g>
     <g id="text_43">
      <!-- 0.50 -->
      <g style="fill: #262626" transform="translate(593.329063 202.367864) scale(0.1 -0.1)">
       <use xlink:href="#ArialMT-30"/>
       <use xlink:href="#ArialMT-2e" x="55.615234"/>
       <use xlink:href="#ArialMT-35" x="83.398438"/>
       <use xlink:href="#ArialMT-30" x="139.013672"/>
      </g>
     </g>
    </g>
    <g id="ytick_15">
     <g id="line2d_41">
      <path d="M 619.79 171.917768 
L 853.2 171.917768 
" clip-path="url(#p98ee55a224)" style="fill: none; stroke: #ffffff; stroke-width: 0.8; stroke-linecap: round"/>
     </g>
     <g id="text_44">
      <!-- 0.75 -->
      <g style="fill: #262626" transform="translate(593.329063 175.496674) scale(0.1 -0.1)">
       <defs>
        <path id="ArialMT-37" d="M 303 3981 
L 303 4522 
L 3269 4522 
L 3269 4084 
Q 2831 3619 2401 2847 
Q 1972 2075 1738 1259 
Q 1569 684 1522 0 
L 944 0 
Q 953 541 1156 1306 
Q 1359 2072 1739 2783 
Q 2119 3494 2547 3981 
L 303 3981 
z
" transform="scale(0.015625)"/>
       </defs>
       <use xlink:href="#ArialMT-30"/>
       <use xlink:href="#ArialMT-2e" x="55.615234"/>
       <use xlink:href="#ArialMT-37" x="83.398438"/>
       <use xlink:href="#ArialMT-35" x="139.013672"/>
      </g>
     </g>
    </g>
    <g id="ytick_16">
     <g id="line2d_42">
      <path d="M 619.79 145.046578 
L 853.2 145.046578 
" clip-path="url(#p98ee55a224)" style="fill: none; stroke: #ffffff; stroke-width: 0.8; stroke-linecap: round"/>
     </g>
     <g id="text_45">
      <!-- 1.00 -->
      <g style="fill: #262626" transform="translate(593.329063 148.625484) scale(0.1 -0.1)">
       <use xlink:href="#ArialMT-31"/>
       <use xlink:href="#ArialMT-2e" x="55.615234"/>
       <use xlink:href="#ArialMT-30" x="83.398438"/>
       <use xlink:href="#ArialMT-30" x="139.013672"/>
      </g>
     </g>
    </g>
    <g id="ytick_17">
     <g id="line2d_43">
      <path d="M 619.79 118.175388 
L 853.2 118.175388 
" clip-path="url(#p98ee55a224)" style="fill: none; stroke: #ffffff; stroke-width: 0.8; stroke-linecap: round"/>
     </g>
     <g id="text_46">
      <!-- 1.25 -->
      <g style="fill: #262626" transform="translate(593.329063 121.754294) scale(0.1 -0.1)">
       <use xlink:href="#ArialMT-31"/>
       <use xlink:href="#ArialMT-2e" x="55.615234"/>
       <use xlink:href="#ArialMT-32" x="83.398438"/>
       <use xlink:href="#ArialMT-35" x="139.013672"/>
      </g>
     </g>
    </g>
    <g id="ytick_18">
     <g id="line2d_44">
      <path d="M 619.79 91.304198 
L 853.2 91.304198 
" clip-path="url(#p98ee55a224)" style="fill: none; stroke: #ffffff; stroke-width: 0.8; stroke-linecap: round"/>
     </g>
     <g id="text_47">
      <!-- 1.50 -->
      <g style="fill: #262626" transform="translate(593.329063 94.883104) scale(0.1 -0.1)">
       <use xlink:href="#ArialMT-31"/>
       <use xlink:href="#ArialMT-2e" x="55.615234"/>
       <use xlink:href="#ArialMT-35" x="83.398438"/>
       <use xlink:href="#ArialMT-30" x="139.013672"/>
      </g>
     </g>
    </g>
    <g id="ytick_19">
     <g id="line2d_45">
      <path d="M 619.79 64.433008 
L 853.2 64.433008 
" clip-path="url(#p98ee55a224)" style="fill: none; stroke: #ffffff; stroke-width: 0.8; stroke-linecap: round"/>
     </g>
     <g id="text_48">
      <!-- 1.75 -->
      <g style="fill: #262626" transform="translate(593.329063 68.011914) scale(0.1 -0.1)">
       <use xlink:href="#ArialMT-31"/>
       <use xlink:href="#ArialMT-2e" x="55.615234"/>
       <use xlink:href="#ArialMT-37" x="83.398438"/>
       <use xlink:href="#ArialMT-35" x="139.013672"/>
      </g>
     </g>
    </g>
    <g id="ytick_20">
     <g id="line2d_46">
      <path d="M 619.79 37.561818 
L 853.2 37.561818 
" clip-path="url(#p98ee55a224)" style="fill: none; stroke: #ffffff; stroke-width: 0.8; stroke-linecap: round"/>
     </g>
     <g id="text_49">
      <!-- 2.00 -->
      <g style="fill: #262626" transform="translate(593.329063 41.140724) scale(0.1 -0.1)">
       <use xlink:href="#ArialMT-32"/>
       <use xlink:href="#ArialMT-2e" x="55.615234"/>
       <use xlink:href="#ArialMT-30" x="83.398438"/>
       <use xlink:href="#ArialMT-30" x="139.013672"/>
      </g>
     </g>
    </g>
    <g id="text_50">
     <!-- $\mathbb{E}(h(x))$ -->
     <g style="fill: #262626" transform="translate(587.341563 154.33) rotate(-90) scale(0.1 -0.1)">
      <use xlink:href="#STIXNonUnicode-Italic-e156" transform="translate(0 0.015625)"/>
      <use xlink:href="#DejaVuSans-28" transform="translate(63.899994 0.015625)"/>
      <use xlink:href="#DejaVuSans-Oblique-68" transform="translate(102.913666 0.015625)"/>
      <use xlink:href="#DejaVuSans-28" transform="translate(166.292572 0.015625)"/>
      <use xlink:href="#DejaVuSans-Oblique-78" transform="translate(205.306244 0.015625)"/>
      <use xlink:href="#DejaVuSans-29" transform="translate(264.485931 0.015625)"/>
      <use xlink:href="#DejaVuSans-29" transform="translate(303.499603 0.015625)"/>
     </g>
    </g>
   </g>
   <g id="line2d_47">
    <path d="M 630.399545 41.077024 
L 632.542888 46.428204 
L 634.68623 62.613951 
L 636.829573 66.189505 
L 638.972916 71.387488 
L 641.116258 94.983775 
L 643.259601 91.971429 
L 645.402943 96.773754 
L 647.546286 100.338242 
L 649.689628 108.977322 
L 651.832971 114.769339 
L 653.976313 118.957424 
L 656.119656 128.939255 
L 658.262998 135.738935 
L 660.406341 132.225042 
L 662.549683 139.639406 
L 664.693026 145.619834 
L 666.836368 147.359755 
L 668.979711 148.005407 
L 671.123053 148.354415 
L 673.266396 158.191371 
L 675.409738 163.328192 
L 677.553081 166.463637 
L 679.696423 164.924923 
L 681.839766 160.934173 
L 683.983108 170.214974 
L 686.126451 173.846088 
L 688.269793 178.294798 
L 690.413136 181.390763 
L 692.556478 182.213821 
L 694.699821 183.874289 
L 696.843163 185.597575 
L 698.986506 186.149384 
L 701.129848 185.202688 
L 703.273191 193.055399 
L 705.416534 193.348328 
L 707.559876 193.253145 
L 709.703219 198.181796 
L 711.846561 199.61741 
L 713.989904 191.816855 
L 716.133246 194.410871 
L 718.276589 199.98264 
L 720.419931 206.69956 
L 722.563274 201.553031 
L 724.706616 202.74031 
L 726.849959 202.571642 
L 728.993301 203.95135 
L 731.136644 203.879962 
L 733.279986 207.239926 
L 735.423329 209.754043 
L 737.566671 214.496566 
L 739.710014 211.728062 
L 741.853356 216.463073 
L 743.996699 210.864718 
L 746.140041 215.751123 
L 748.283384 217.227371 
L 750.426726 216.453588 
L 752.570069 215.181045 
L 754.713411 215.446976 
L 756.856754 216.82793 
L 759.000096 222.703878 
L 761.143439 220.284066 
L 763.286781 218.475432 
L 765.430124 222.913851 
L 767.573466 223.922849 
L 769.716809 216.717097 
L 771.860152 221.31518 
L 774.003494 225.100606 
L 776.146837 222.683757 
L 778.290179 226.667558 
L 780.433522 221.998779 
L 782.576864 225.150208 
L 784.720207 221.850324 
L 786.863549 227.165129 
L 789.006892 229.111989 
L 791.150234 228.919771 
L 793.293577 225.305219 
L 795.436919 222.304568 
L 797.580262 229.901305 
L 799.723604 229.132302 
L 801.866947 226.77455 
L 804.010289 233.78221 
L 806.153632 228.99242 
L 808.296974 229.271943 
L 810.440317 225.935392 
L 812.583659 229.856752 
L 814.727002 230.884099 
L 816.870344 231.166767 
L 819.013687 235.239074 
L 821.157029 232.784726 
L 823.300372 234.620285 
L 825.443714 234.340524 
L 827.587057 232.893517 
L 829.730399 235.335459 
L 831.873742 233.126686 
L 834.017084 234.07075 
L 836.160427 234.869453 
L 838.30377 234.539284 
L 840.447112 234.564096 
L 842.590455 236.798182 
" clip-path="url(#p98ee55a224)" style="fill: none; stroke: #1f77b4; stroke-width: 1.5; stroke-linecap: round"/>
   </g>
   <g id="line2d_48">
    <path d="M 630.399545 37.561818 
L 632.542888 48.021035 
L 634.68623 57.735086 
L 636.829573 66.77311 
L 638.972916 75.196411 
L 641.116258 83.059499 
L 643.259601 90.410973 
L 645.402943 97.294272 
L 647.546286 103.748324 
L 649.689628 109.80809 
L 651.832971 115.505046 
L 653.976313 120.867586 
L 656.119656 125.921383 
L 658.262998 130.689688 
L 660.406341 135.193609 
L 662.549683 139.452334 
L 664.693026 143.483345 
L 666.836368 147.302591 
L 668.979711 150.92465 
L 671.123053 154.362867 
L 673.266396 157.629474 
L 675.409738 160.735707 
L 677.553081 163.691893 
L 679.696423 166.507544 
L 681.839766 169.191428 
L 683.983108 171.75164 
L 686.126451 174.195664 
L 688.269793 176.530426 
L 690.413136 178.762343 
L 692.556478 180.897366 
L 694.699821 182.941026 
L 696.843163 184.898461 
L 698.986506 186.774455 
L 701.129848 188.573464 
L 703.273191 190.299642 
L 705.416534 191.95687 
L 707.559876 193.548771 
L 709.703219 195.078733 
L 711.846561 196.54993 
L 713.989904 197.965331 
L 716.133246 199.327725 
L 718.276589 200.639724 
L 720.419931 201.903784 
L 722.563274 203.122212 
L 724.706616 204.297179 
L 726.849959 205.430727 
L 728.993301 206.524781 
L 731.136644 207.581153 
L 733.279986 208.601556 
L 735.423329 209.587602 
L 737.566671 210.540819 
L 739.710014 211.462646 
L 741.853356 212.354448 
L 743.996699 213.217514 
L 746.140041 214.053065 
L 748.283384 214.86226 
L 750.426726 215.646194 
L 752.570069 216.405909 
L 754.713411 217.142392 
L 756.856754 217.85658 
L 759.000096 218.549365 
L 761.143439 219.221593 
L 763.286781 219.87407 
L 765.430124 220.507562 
L 767.573466 221.122797 
L 769.716809 221.720472 
L 771.860152 222.301249 
L 774.003494 222.865757 
L 776.146837 223.4146 
L 778.290179 223.948351 
L 780.433522 224.467558 
L 782.576864 224.972747 
L 784.720207 225.464415 
L 786.863549 225.943043 
L 789.006892 226.409086 
L 791.150234 226.862983 
L 793.293577 227.305151 
L 795.436919 227.735992 
L 797.580262 228.155889 
L 799.723604 228.565209 
L 801.866947 228.964305 
L 804.010289 229.353514 
L 806.153632 229.733161 
L 808.296974 230.103556 
L 810.440317 230.464997 
L 812.583659 230.81777 
L 814.727002 231.162151 
L 816.870344 231.498404 
L 819.013687 231.826782 
L 821.157029 232.147529 
L 823.300372 232.460881 
L 825.443714 232.767062 
L 827.587057 233.066289 
L 829.730399 233.358773 
L 831.873742 233.644713 
L 834.017084 233.924304 
L 836.160427 234.197732 
L 838.30377 234.465177 
L 840.447112 234.726812 
L 842.590455 234.982805 
" clip-path="url(#p98ee55a224)" style="fill: none; stroke-dasharray: 5.55,2.4; stroke-dashoffset: 0; stroke: #ff0000; stroke-width: 1.5"/>
   </g>
   <g id="patch_15">
    <path d="M 619.79 246.76 
L 619.79 27.6 
" style="fill: none; stroke: #ffffff; stroke-width: 0.8; stroke-linejoin: miter; stroke-linecap: square"/>
   </g>
   <g id="patch_16">
    <path d="M 853.2 246.76 
L 853.2 27.6 
" style="fill: none; stroke: #ffffff; stroke-width: 0.8; stroke-linejoin: miter; stroke-linecap: square"/>
   </g>
   <g id="patch_17">
    <path d="M 619.79 246.76 
L 853.2 246.76 
" style="fill: none; stroke: #ffffff; stroke-width: 0.8; stroke-linejoin: miter; stroke-linecap: square"/>
   </g>
   <g id="patch_18">
    <path d="M 619.79 27.6 
L 853.2 27.6 
" style="fill: none; stroke: #ffffff; stroke-width: 0.8; stroke-linejoin: miter; stroke-linecap: square"/>
   </g>
   <g id="text_51">
    <!-- Reducing Deductible, $\alpha = 3, \lambda = 4$ -->
    <g style="fill: #262626" transform="translate(644.815 21.6) scale(0.12 -0.12)">
     <defs>
      <path id="DejaVuSans-33" d="M 2597 2516 
Q 3050 2419 3304 2112 
Q 3559 1806 3559 1356 
Q 3559 666 3084 287 
Q 2609 -91 1734 -91 
Q 1441 -91 1130 -33 
Q 819 25 488 141 
L 488 750 
Q 750 597 1062 519 
Q 1375 441 1716 441 
Q 2309 441 2620 675 
Q 2931 909 2931 1356 
Q 2931 1769 2642 2001 
Q 2353 2234 1838 2234 
L 1294 2234 
L 1294 2753 
L 1863 2753 
Q 2328 2753 2575 2939 
Q 2822 3125 2822 3475 
Q 2822 3834 2567 4026 
Q 2313 4219 1838 4219 
Q 1578 4219 1281 4162 
Q 984 4106 628 3988 
L 628 4550 
Q 988 4650 1302 4700 
Q 1616 4750 1894 4750 
Q 2613 4750 3031 4423 
Q 3450 4097 3450 3541 
Q 3450 3153 3228 2886 
Q 3006 2619 2597 2516 
z
" transform="scale(0.015625)"/>
     </defs>
     <use xlink:href="#ArialMT-52" transform="translate(0 0.015625)"/>
     <use xlink:href="#ArialMT-65" transform="translate(72.216797 0.015625)"/>
     <use xlink:href="#ArialMT-64" transform="translate(127.832031 0.015625)"/>
     <use xlink:href="#ArialMT-75" transform="translate(183.447266 0.015625)"/>
     <use xlink:href="#ArialMT-63" transform="translate(239.0625 0.015625)"/>
     <use xlink:href="#ArialMT-69" transform="translate(289.0625 0.015625)"/>
     <use xlink:href="#ArialMT-6e" transform="translate(311.279297 0.015625)"/>
     <use xlink:href="#ArialMT-67" transform="translate(366.894531 0.015625)"/>
     <use xlink:href="#ArialMT-20" transform="translate(422.509766 0.015625)"/>
     <use xlink:href="#ArialMT-44" transform="translate(450.292969 0.015625)"/>
     <use xlink:href="#ArialMT-65" transform="translate(522.509766 0.015625)"/>
     <use xlink:href="#ArialMT-64" transform="translate(578.125 0.015625)"/>
     <use xlink:href="#ArialMT-75" transform="translate(633.740234 0.015625)"/>
     <use xlink:href="#ArialMT-63" transform="translate(689.355469 0.015625)"/>
     <use xlink:href="#ArialMT-74" transform="translate(739.355469 0.015625)"/>
     <use xlink:href="#ArialMT-69" transform="translate(767.138672 0.015625)"/>
     <use xlink:href="#ArialMT-62" transform="translate(789.355469 0.015625)"/>
     <use xlink:href="#ArialMT-6c" transform="translate(844.970703 0.015625)"/>
     <use xlink:href="#ArialMT-65" transform="translate(867.1875 0.015625)"/>
     <use xlink:href="#ArialMT-2c" transform="translate(922.802734 0.015625)"/>
     <use xlink:href="#ArialMT-20" transform="translate(950.585938 0.015625)"/>
     <use xlink:href="#DejaVuSans-Oblique-3b1" transform="translate(978.369141 0.015625)"/>
     <use xlink:href="#DejaVuSans-3d" transform="translate(1063.769531 0.015625)"/>
     <use xlink:href="#DejaVuSans-33" transform="translate(1167.041016 0.015625)"/>
     <use xlink:href="#DejaVuSans-2c" transform="translate(1230.664062 0.015625)"/>
     <use xlink:href="#DejaVuSans-Oblique-3bb" transform="translate(1281.933594 0.015625)"/>
     <use xlink:href="#DejaVuSans-3d" transform="translate(1360.595703 0.015625)"/>
     <use xlink:href="#DejaVuSans-34" transform="translate(1463.867188 0.015625)"/>
    </g>
   </g>
   <g id="legend_3">
    <g id="patch_19">
     <path d="M 767.5125 64.007812 
L 846.2 64.007812 
Q 848.2 64.007812 848.2 62.007812 
L 848.2 34.6 
Q 848.2 32.6 846.2 32.6 
L 767.5125 32.6 
Q 765.5125 32.6 765.5125 34.6 
L 765.5125 62.007812 
Q 765.5125 64.007812 767.5125 64.007812 
z
" style="fill: #eaeaf2; opacity: 0.8; stroke: #cccccc; stroke-linejoin: miter"/>
    </g>
    <g id="line2d_49">
     <path d="M 769.5125 40.257812 
L 779.5125 40.257812 
L 789.5125 40.257812 
" style="fill: none; stroke: #1f77b4; stroke-width: 1.5; stroke-linecap: round"/>
    </g>
    <g id="text_52">
     <!-- Simulation -->
     <g style="fill: #262626" transform="translate(797.5125 43.757812) scale(0.1 -0.1)">
      <use xlink:href="#ArialMT-53"/>
      <use xlink:href="#ArialMT-69" x="66.699219"/>
      <use xlink:href="#ArialMT-6d" x="88.916016"/>
      <use xlink:href="#ArialMT-75" x="172.216797"/>
      <use xlink:href="#ArialMT-6c" x="227.832031"/>
      <use xlink:href="#ArialMT-61" x="250.048828"/>
      <use xlink:href="#ArialMT-74" x="305.664062"/>
      <use xlink:href="#ArialMT-69" x="333.447266"/>
      <use xlink:href="#ArialMT-6f" x="355.664062"/>
      <use xlink:href="#ArialMT-6e" x="411.279297"/>
     </g>
    </g>
    <g id="line2d_50">
     <path d="M 769.5125 54.403125 
L 779.5125 54.403125 
L 789.5125 54.403125 
" style="fill: none; stroke-dasharray: 5.55,2.4; stroke-dashoffset: 0; stroke: #ff0000; stroke-width: 1.5"/>
    </g>
    <g id="text_53">
     <!-- Analytical -->
     <g style="fill: #262626" transform="translate(797.5125 57.903125) scale(0.1 -0.1)">
      <use xlink:href="#ArialMT-41"/>
      <use xlink:href="#ArialMT-6e" x="66.699219"/>
      <use xlink:href="#ArialMT-61" x="122.314453"/>
      <use xlink:href="#ArialMT-6c" x="177.929688"/>
      <use xlink:href="#ArialMT-79" x="200.146484"/>
      <use xlink:href="#ArialMT-74" x="250.146484"/>
      <use xlink:href="#ArialMT-69" x="277.929688"/>
      <use xlink:href="#ArialMT-63" x="300.146484"/>
      <use xlink:href="#ArialMT-61" x="350.146484"/>
      <use xlink:href="#ArialMT-6c" x="405.761719"/>
     </g>
    </g>
   </g>
  </g>
 </g>
 <defs>
  <clipPath id="pc682f04e52">
   <rect x="47.27" y="27.6" width="233.41" height="219.16"/>
  </clipPath>
  <clipPath id="pa610d5f824">
   <rect x="333.53" y="27.6" width="233.41" height="219.16"/>
  </clipPath>
  <clipPath id="p98ee55a224">
   <rect x="619.79" y="27.6" width="233.41" height="219.16"/>
  </clipPath>
 </defs>
</svg>
