<?xml version="1.0" encoding="utf-8" standalone="no"?>
<!DOCTYPE svg PUBLIC "-//W3C//DTD SVG 1.1//EN"
  "http://www.w3.org/Graphics/SVG/1.1/DTD/svg11.dtd">
<svg xmlns:xlink="http://www.w3.org/1999/xlink" width="432pt" height="288pt" viewBox="0 0 432 288" xmlns="http://www.w3.org/2000/svg" version="1.1">
 <metadata>
  <rdf:RDF xmlns:dc="http://purl.org/dc/elements/1.1/" xmlns:cc="http://creativecommons.org/ns#" xmlns:rdf="http://www.w3.org/1999/02/22-rdf-syntax-ns#">
   <cc:Work>
    <dc:type rdf:resource="http://purl.org/dc/dcmitype/StillImage"/>
    <dc:date>2025-01-01T16:00:15.029609</dc:date>
    <dc:format>image/svg+xml</dc:format>
    <dc:creator>
     <cc:Agent>
      <dc:title>Matplotlib v3.5.0, https://matplotlib.org/</dc:title>
     </cc:Agent>
    </dc:creator>
   </cc:Work>
  </rdf:RDF>
 </metadata>
 <defs>
  <style type="text/css">*{stroke-linejoin: round; stroke-linecap: butt}</style>
 </defs>
 <g id="figure_1">
  <g id="patch_1">
   <path d="M 0 288 
L 432 288 
L 432 0 
L 0 0 
z
" style="fill: #ffffff"/>
  </g>
  <g id="axes_1">
   <g id="patch_2">
    <path d="M 54 252 
L 388.8 252 
L 388.8 34.56 
L 54 34.56 
z
" style="fill: #eaeaf2"/>
   </g>
   <g id="matplotlib.axis_1">
    <g id="xtick_1">
     <g id="line2d_1">
      <path d="M 66.11243 252 
L 66.11243 34.56 
" clip-path="url(#pc4d32d05d6)" style="fill: none; stroke: #ffffff; stroke-width: 0.8; stroke-linecap: round"/>
     </g>
     <g id="text_1">
      <!-- 0.0 -->
      <g style="fill: #262626" transform="translate(59.16243 266.157812)scale(0.1 -0.1)">
       <defs>
        <path id="ArialMT-30" d="M 266 2259 
Q 266 3072 433 3567 
Q 600 4063 929 4331 
Q 1259 4600 1759 4600 
Q 2128 4600 2406 4451 
Q 2684 4303 2865 4023 
Q 3047 3744 3150 3342 
Q 3253 2941 3253 2259 
Q 3253 1453 3087 958 
Q 2922 463 2592 192 
Q 2263 -78 1759 -78 
Q 1097 -78 719 397 
Q 266 969 266 2259 
z
M 844 2259 
Q 844 1131 1108 757 
Q 1372 384 1759 384 
Q 2147 384 2411 759 
Q 2675 1134 2675 2259 
Q 2675 3391 2411 3762 
Q 2147 4134 1753 4134 
Q 1366 4134 1134 3806 
Q 844 3388 844 2259 
z
" transform="scale(0.015625)"/>
        <path id="ArialMT-2e" d="M 581 0 
L 581 641 
L 1222 641 
L 1222 0 
L 581 0 
z
" transform="scale(0.015625)"/>
       </defs>
       <use xlink:href="#ArialMT-30"/>
       <use xlink:href="#ArialMT-2e" x="55.615234"/>
       <use xlink:href="#ArialMT-30" x="83.398438"/>
      </g>
     </g>
    </g>
    <g id="xtick_2">
     <g id="line2d_2">
      <path d="M 128.227458 252 
L 128.227458 34.56 
" clip-path="url(#pc4d32d05d6)" style="fill: none; stroke: #ffffff; stroke-width: 0.8; stroke-linecap: round"/>
     </g>
     <g id="text_2">
      <!-- 0.2 -->
      <g style="fill: #262626" transform="translate(121.277458 266.157812)scale(0.1 -0.1)">
       <defs>
        <path id="ArialMT-32" d="M 3222 541 
L 3222 0 
L 194 0 
Q 188 203 259 391 
Q 375 700 629 1000 
Q 884 1300 1366 1694 
Q 2113 2306 2375 2664 
Q 2638 3022 2638 3341 
Q 2638 3675 2398 3904 
Q 2159 4134 1775 4134 
Q 1369 4134 1125 3890 
Q 881 3647 878 3216 
L 300 3275 
Q 359 3922 746 4261 
Q 1134 4600 1788 4600 
Q 2447 4600 2831 4234 
Q 3216 3869 3216 3328 
Q 3216 3053 3103 2787 
Q 2991 2522 2730 2228 
Q 2469 1934 1863 1422 
Q 1356 997 1212 845 
Q 1069 694 975 541 
L 3222 541 
z
" transform="scale(0.015625)"/>
       </defs>
       <use xlink:href="#ArialMT-30"/>
       <use xlink:href="#ArialMT-2e" x="55.615234"/>
       <use xlink:href="#ArialMT-32" x="83.398438"/>
      </g>
     </g>
    </g>
    <g id="xtick_3">
     <g id="line2d_3">
      <path d="M 190.342486 252 
L 190.342486 34.56 
" clip-path="url(#pc4d32d05d6)" style="fill: none; stroke: #ffffff; stroke-width: 0.8; stroke-linecap: round"/>
     </g>
     <g id="text_3">
      <!-- 0.4 -->
      <g style="fill: #262626" transform="translate(183.392486 266.157812)scale(0.1 -0.1)">
       <defs>
        <path id="ArialMT-34" d="M 2069 0 
L 2069 1097 
L 81 1097 
L 81 1613 
L 2172 4581 
L 2631 4581 
L 2631 1613 
L 3250 1613 
L 3250 1097 
L 2631 1097 
L 2631 0 
L 2069 0 
z
M 2069 1613 
L 2069 3678 
L 634 1613 
L 2069 1613 
z
" transform="scale(0.015625)"/>
       </defs>
       <use xlink:href="#ArialMT-30"/>
       <use xlink:href="#ArialMT-2e" x="55.615234"/>
       <use xlink:href="#ArialMT-34" x="83.398438"/>
      </g>
     </g>
    </g>
    <g id="xtick_4">
     <g id="line2d_4">
      <path d="M 252.457514 252 
L 252.457514 34.56 
" clip-path="url(#pc4d32d05d6)" style="fill: none; stroke: #ffffff; stroke-width: 0.8; stroke-linecap: round"/>
     </g>
     <g id="text_4">
      <!-- 0.6 -->
      <g style="fill: #262626" transform="translate(245.507514 266.157812)scale(0.1 -0.1)">
       <defs>
        <path id="ArialMT-36" d="M 3184 3459 
L 2625 3416 
Q 2550 3747 2413 3897 
Q 2184 4138 1850 4138 
Q 1581 4138 1378 3988 
Q 1113 3794 959 3422 
Q 806 3050 800 2363 
Q 1003 2672 1297 2822 
Q 1591 2972 1913 2972 
Q 2475 2972 2870 2558 
Q 3266 2144 3266 1488 
Q 3266 1056 3080 686 
Q 2894 316 2569 119 
Q 2244 -78 1831 -78 
Q 1128 -78 684 439 
Q 241 956 241 2144 
Q 241 3472 731 4075 
Q 1159 4600 1884 4600 
Q 2425 4600 2770 4297 
Q 3116 3994 3184 3459 
z
M 888 1484 
Q 888 1194 1011 928 
Q 1134 663 1356 523 
Q 1578 384 1822 384 
Q 2178 384 2434 671 
Q 2691 959 2691 1453 
Q 2691 1928 2437 2201 
Q 2184 2475 1800 2475 
Q 1419 2475 1153 2201 
Q 888 1928 888 1484 
z
" transform="scale(0.015625)"/>
       </defs>
       <use xlink:href="#ArialMT-30"/>
       <use xlink:href="#ArialMT-2e" x="55.615234"/>
       <use xlink:href="#ArialMT-36" x="83.398438"/>
      </g>
     </g>
    </g>
    <g id="xtick_5">
     <g id="line2d_5">
      <path d="M 314.572542 252 
L 314.572542 34.56 
" clip-path="url(#pc4d32d05d6)" style="fill: none; stroke: #ffffff; stroke-width: 0.8; stroke-linecap: round"/>
     </g>
     <g id="text_5">
      <!-- 0.8 -->
      <g style="fill: #262626" transform="translate(307.622542 266.157812)scale(0.1 -0.1)">
       <defs>
        <path id="ArialMT-38" d="M 1131 2484 
Q 781 2613 612 2850 
Q 444 3088 444 3419 
Q 444 3919 803 4259 
Q 1163 4600 1759 4600 
Q 2359 4600 2725 4251 
Q 3091 3903 3091 3403 
Q 3091 3084 2923 2848 
Q 2756 2613 2416 2484 
Q 2838 2347 3058 2040 
Q 3278 1734 3278 1309 
Q 3278 722 2862 322 
Q 2447 -78 1769 -78 
Q 1091 -78 675 323 
Q 259 725 259 1325 
Q 259 1772 486 2073 
Q 713 2375 1131 2484 
z
M 1019 3438 
Q 1019 3113 1228 2906 
Q 1438 2700 1772 2700 
Q 2097 2700 2305 2904 
Q 2513 3109 2513 3406 
Q 2513 3716 2298 3927 
Q 2084 4138 1766 4138 
Q 1444 4138 1231 3931 
Q 1019 3725 1019 3438 
z
M 838 1322 
Q 838 1081 952 856 
Q 1066 631 1291 507 
Q 1516 384 1775 384 
Q 2178 384 2440 643 
Q 2703 903 2703 1303 
Q 2703 1709 2433 1975 
Q 2163 2241 1756 2241 
Q 1359 2241 1098 1978 
Q 838 1716 838 1322 
z
" transform="scale(0.015625)"/>
       </defs>
       <use xlink:href="#ArialMT-30"/>
       <use xlink:href="#ArialMT-2e" x="55.615234"/>
       <use xlink:href="#ArialMT-38" x="83.398438"/>
      </g>
     </g>
    </g>
    <g id="xtick_6">
     <g id="line2d_6">
      <path d="M 376.68757 252 
L 376.68757 34.56 
" clip-path="url(#pc4d32d05d6)" style="fill: none; stroke: #ffffff; stroke-width: 0.8; stroke-linecap: round"/>
     </g>
     <g id="text_6">
      <!-- 1.0 -->
      <g style="fill: #262626" transform="translate(369.73757 266.157812)scale(0.1 -0.1)">
       <defs>
        <path id="ArialMT-31" d="M 2384 0 
L 1822 0 
L 1822 3584 
Q 1619 3391 1289 3197 
Q 959 3003 697 2906 
L 697 3450 
Q 1169 3672 1522 3987 
Q 1875 4303 2022 4600 
L 2384 4600 
L 2384 0 
z
" transform="scale(0.015625)"/>
       </defs>
       <use xlink:href="#ArialMT-31"/>
       <use xlink:href="#ArialMT-2e" x="55.615234"/>
       <use xlink:href="#ArialMT-30" x="83.398438"/>
      </g>
     </g>
    </g>
    <g id="text_7">
     <!-- $p$ -->
     <g style="fill: #262626" transform="translate(218.2 279.190625)scale(0.1 -0.1)">
      <defs>
       <path id="DejaVuSans-Oblique-70" d="M 3175 2156 
Q 3175 2616 2975 2859 
Q 2775 3103 2400 3103 
Q 2144 3103 1911 2972 
Q 1678 2841 1497 2591 
Q 1319 2344 1212 1994 
Q 1106 1644 1106 1300 
Q 1106 863 1306 627 
Q 1506 391 1875 391 
Q 2147 391 2380 519 
Q 2613 647 2778 891 
Q 2956 1147 3065 1494 
Q 3175 1841 3175 2156 
z
M 1394 2969 
Q 1625 3272 1939 3428 
Q 2253 3584 2638 3584 
Q 3175 3584 3472 3232 
Q 3769 2881 3769 2247 
Q 3769 1728 3584 1258 
Q 3400 788 3053 416 
Q 2822 169 2531 39 
Q 2241 -91 1919 -91 
Q 1547 -91 1294 64 
Q 1041 219 916 525 
L 556 -1331 
L -19 -1331 
L 922 3500 
L 1497 3500 
L 1394 2969 
z
" transform="scale(0.015625)"/>
      </defs>
      <use xlink:href="#DejaVuSans-Oblique-70"/>
     </g>
    </g>
   </g>
   <g id="matplotlib.axis_2">
    <g id="ytick_1">
     <g id="line2d_7">
      <path d="M 54 251.807735 
L 388.8 251.807735 
" clip-path="url(#pc4d32d05d6)" style="fill: none; stroke: #ffffff; stroke-width: 0.8; stroke-linecap: round"/>
     </g>
     <g id="text_8">
      <!-- 0 -->
      <g style="fill: #262626" transform="translate(41.439062 255.386642)scale(0.1 -0.1)">
       <use xlink:href="#ArialMT-30"/>
      </g>
     </g>
    </g>
    <g id="ytick_2">
     <g id="line2d_8">
      <path d="M 54 203.593203 
L 388.8 203.593203 
" clip-path="url(#pc4d32d05d6)" style="fill: none; stroke: #ffffff; stroke-width: 0.8; stroke-linecap: round"/>
     </g>
     <g id="text_9">
      <!-- 5 -->
      <g style="fill: #262626" transform="translate(41.439062 207.172109)scale(0.1 -0.1)">
       <defs>
        <path id="ArialMT-35" d="M 266 1200 
L 856 1250 
Q 922 819 1161 601 
Q 1400 384 1738 384 
Q 2144 384 2425 690 
Q 2706 997 2706 1503 
Q 2706 1984 2436 2262 
Q 2166 2541 1728 2541 
Q 1456 2541 1237 2417 
Q 1019 2294 894 2097 
L 366 2166 
L 809 4519 
L 3088 4519 
L 3088 3981 
L 1259 3981 
L 1013 2750 
Q 1425 3038 1878 3038 
Q 2478 3038 2890 2622 
Q 3303 2206 3303 1553 
Q 3303 931 2941 478 
Q 2500 -78 1738 -78 
Q 1113 -78 717 272 
Q 322 622 266 1200 
z
" transform="scale(0.015625)"/>
       </defs>
       <use xlink:href="#ArialMT-35"/>
      </g>
     </g>
    </g>
    <g id="ytick_3">
     <g id="line2d_9">
      <path d="M 54 155.37867 
L 388.8 155.37867 
" clip-path="url(#pc4d32d05d6)" style="fill: none; stroke: #ffffff; stroke-width: 0.8; stroke-linecap: round"/>
     </g>
     <g id="text_10">
      <!-- 10 -->
      <g style="fill: #262626" transform="translate(35.878125 158.957577)scale(0.1 -0.1)">
       <use xlink:href="#ArialMT-31"/>
       <use xlink:href="#ArialMT-30" x="55.615234"/>
      </g>
     </g>
    </g>
    <g id="ytick_4">
     <g id="line2d_10">
      <path d="M 54 107.164138 
L 388.8 107.164138 
" clip-path="url(#pc4d32d05d6)" style="fill: none; stroke: #ffffff; stroke-width: 0.8; stroke-linecap: round"/>
     </g>
     <g id="text_11">
      <!-- 15 -->
      <g style="fill: #262626" transform="translate(35.878125 110.743044)scale(0.1 -0.1)">
       <use xlink:href="#ArialMT-31"/>
       <use xlink:href="#ArialMT-35" x="55.615234"/>
      </g>
     </g>
    </g>
    <g id="ytick_5">
     <g id="line2d_11">
      <path d="M 54 58.949605 
L 388.8 58.949605 
" clip-path="url(#pc4d32d05d6)" style="fill: none; stroke: #ffffff; stroke-width: 0.8; stroke-linecap: round"/>
     </g>
     <g id="text_12">
      <!-- 20 -->
      <g style="fill: #262626" transform="translate(35.878125 62.528512)scale(0.1 -0.1)">
       <use xlink:href="#ArialMT-32"/>
       <use xlink:href="#ArialMT-30" x="55.615234"/>
      </g>
     </g>
    </g>
    <g id="text_13">
     <!-- $\hat{E}[X]$ -->
     <g style="fill: #262626" transform="translate(29.890625 153.78)rotate(-90)scale(0.1 -0.1)">
      <defs>
       <path id="DejaVuSans-302" d="M -1831 5119 
L -1369 5119 
L -603 3944 
L -1038 3944 
L -1600 4709 
L -2163 3944 
L -2597 3944 
L -1831 5119 
z
M -1600 3584 
L -1600 3584 
z
" transform="scale(0.015625)"/>
       <path id="DejaVuSans-Oblique-45" d="M 1081 4666 
L 4031 4666 
L 3928 4134 
L 1606 4134 
L 1338 2753 
L 3566 2753 
L 3463 2222 
L 1234 2222 
L 909 531 
L 3284 531 
L 3181 0 
L 172 0 
L 1081 4666 
z
" transform="scale(0.015625)"/>
       <path id="DejaVuSans-5b" d="M 550 4863 
L 1875 4863 
L 1875 4416 
L 1125 4416 
L 1125 -397 
L 1875 -397 
L 1875 -844 
L 550 -844 
L 550 4863 
z
" transform="scale(0.015625)"/>
       <path id="DejaVuSans-Oblique-58" d="M 878 4666 
L 1516 4666 
L 2316 2981 
L 3763 4666 
L 4500 4666 
L 2578 2438 
L 3738 0 
L 3103 0 
L 2163 1966 
L 459 0 
L -275 0 
L 1906 2509 
L 878 4666 
z
" transform="scale(0.015625)"/>
       <path id="DejaVuSans-5d" d="M 1947 4863 
L 1947 -844 
L 622 -844 
L 622 -397 
L 1369 -397 
L 1369 4416 
L 622 4416 
L 622 4863 
L 1947 4863 
z
" transform="scale(0.015625)"/>
      </defs>
      <use xlink:href="#DejaVuSans-302" transform="translate(64.374023 30.015625)"/>
      <use xlink:href="#DejaVuSans-Oblique-45" transform="translate(0 0.609375)"/>
      <use xlink:href="#DejaVuSans-5b" transform="translate(63.183594 0.609375)"/>
      <use xlink:href="#DejaVuSans-Oblique-58" transform="translate(102.197266 0.609375)"/>
      <use xlink:href="#DejaVuSans-5d" transform="translate(170.703125 0.609375)"/>
     </g>
    </g>
   </g>
   <g id="line2d_12">
    <path d="M 69.218182 242.116364 
L 72.323933 242.067175 
L 75.429685 242.016791 
L 78.535436 241.966359 
L 81.641187 241.915319 
L 84.746939 241.859689 
L 87.85269 241.805052 
L 90.958442 241.754292 
L 94.064193 241.693648 
L 97.169944 241.636735 
L 100.275696 241.578193 
L 103.381447 241.520943 
L 106.487199 241.455805 
L 109.59295 241.403473 
L 112.698701 241.334777 
L 115.804453 241.273333 
L 118.910204 241.207086 
L 122.015955 241.139836 
L 125.121707 241.073387 
L 128.227458 241.000949 
L 131.33321 240.932273 
L 134.438961 240.860539 
L 137.544712 240.780493 
L 140.650464 240.707506 
L 143.756215 240.632523 
L 146.861967 240.548253 
L 149.967718 240.471843 
L 153.073469 240.395413 
L 156.179221 240.308338 
L 159.284972 240.217405 
L 162.390724 240.131265 
L 165.496475 240.036051 
L 168.602226 239.956314 
L 171.707978 239.858718 
L 174.813729 239.749127 
L 177.919481 239.660402 
L 181.025232 239.550444 
L 184.130983 239.440081 
L 187.236735 239.334105 
L 190.342486 239.228226 
L 193.448237 239.10606 
L 196.553989 238.992149 
L 199.65974 238.857929 
L 202.765492 238.740681 
L 205.871243 238.604427 
L 208.976994 238.477777 
L 212.082746 238.350905 
L 215.188497 238.190235 
L 218.294249 238.043065 
L 221.4 237.904371 
L 224.505751 237.738677 
L 227.611503 237.563523 
L 230.717254 237.41751 
L 233.823006 237.210361 
L 236.928757 237.04297 
L 240.034508 236.863284 
L 243.14026 236.669664 
L 246.246011 236.458986 
L 249.351763 236.230102 
L 252.457514 236.027071 
L 255.563265 235.797492 
L 258.669017 235.518504 
L 261.774768 235.293853 
L 264.880519 235.019223 
L 267.986271 234.745528 
L 271.092022 234.463281 
L 274.197774 234.154303 
L 277.303525 233.807013 
L 280.409276 233.464545 
L 283.515028 233.112849 
L 286.620779 232.726352 
L 289.726531 232.334889 
L 292.832282 231.873032 
L 295.938033 231.447153 
L 299.043785 230.961903 
L 302.149536 230.386057 
L 305.255288 229.851059 
L 308.361039 229.248657 
L 311.46679 228.533308 
L 314.572542 227.836964 
L 317.678293 227.08449 
L 320.784045 226.178182 
L 323.889796 225.212329 
L 326.995547 224.209264 
L 330.101299 222.97721 
L 333.20705 221.599489 
L 336.312801 220.253744 
L 339.418553 218.465139 
L 342.524304 216.431412 
L 345.630056 214.187498 
L 348.735807 211.287606 
L 351.841558 207.874663 
L 354.94731 203.742726 
L 358.053061 197.957811 
L 361.158813 190.713848 
L 364.264564 179.646375 
L 367.370315 163.057288 
L 370.476067 130.930479 
L 373.581818 44.443636 
" clip-path="url(#pc4d32d05d6)" style="fill: none; stroke: #1f77b4; stroke-width: 1.5; stroke-linecap: round"/>
   </g>
   <g id="line2d_13">
    <path d="M 69.218182 203.593203 
L 72.323933 203.593203 
L 75.429685 203.593203 
L 78.535436 203.593203 
L 81.641187 203.593203 
L 84.746939 203.593203 
L 87.85269 203.593203 
L 90.958442 203.593203 
L 94.064193 203.593203 
L 97.169944 203.593203 
L 100.275696 203.593203 
L 103.381447 203.593203 
L 106.487199 203.593203 
L 109.59295 203.593203 
L 112.698701 203.593203 
L 115.804453 203.593203 
L 118.910204 203.593203 
L 122.015955 203.593203 
L 125.121707 203.593203 
L 128.227458 203.593203 
L 131.33321 203.593203 
L 134.438961 203.593203 
L 137.544712 203.593203 
L 140.650464 203.593203 
L 143.756215 203.593203 
L 146.861967 203.593203 
L 149.967718 203.593203 
L 153.073469 203.593203 
L 156.179221 203.593203 
L 159.284972 203.593203 
L 162.390724 203.593203 
L 165.496475 203.593203 
L 168.602226 203.593203 
L 171.707978 203.593203 
L 174.813729 203.593203 
L 177.919481 203.593203 
L 181.025232 203.593203 
L 184.130983 203.593203 
L 187.236735 203.593203 
L 190.342486 203.593203 
L 193.448237 203.593203 
L 196.553989 203.593203 
L 199.65974 203.593203 
L 202.765492 203.593203 
L 205.871243 203.593203 
L 208.976994 203.593203 
L 212.082746 203.593203 
L 215.188497 203.593203 
L 218.294249 203.593203 
L 221.4 203.593203 
L 224.505751 203.593203 
L 227.611503 203.593203 
L 230.717254 203.593203 
L 233.823006 203.593203 
L 236.928757 203.593203 
L 240.034508 203.593203 
L 243.14026 203.593203 
L 246.246011 203.593203 
L 249.351763 203.593203 
L 252.457514 203.593203 
L 255.563265 203.593203 
L 258.669017 203.593203 
L 261.774768 203.593203 
L 264.880519 203.593203 
L 267.986271 203.593203 
L 271.092022 203.593203 
L 274.197774 203.593203 
L 277.303525 203.593203 
L 280.409276 203.593203 
L 283.515028 203.593203 
L 286.620779 203.593203 
L 289.726531 203.593203 
L 292.832282 203.593203 
L 295.938033 203.593203 
L 299.043785 203.593203 
L 302.149536 203.593203 
L 305.255288 203.593203 
L 308.361039 203.593203 
L 311.46679 203.593203 
L 314.572542 203.593203 
L 317.678293 203.593203 
L 320.784045 203.593203 
L 323.889796 203.593203 
L 326.995547 203.593203 
L 330.101299 203.593203 
L 333.20705 203.593203 
L 336.312801 203.593203 
L 339.418553 203.593203 
L 342.524304 203.593203 
L 345.630056 203.593203 
L 348.735807 203.593203 
L 351.841558 203.593203 
L 354.94731 203.593203 
L 358.053061 203.593203 
L 361.158813 203.593203 
L 364.264564 203.593203 
L 367.370315 203.593203 
L 370.476067 203.593203 
L 373.581818 203.593203 
" clip-path="url(#pc4d32d05d6)" style="fill: none; stroke-dasharray: 3.7,1.6; stroke-dashoffset: 0; stroke: #ff0000"/>
   </g>
   <g id="patch_3">
    <path d="M 54 252 
L 54 34.56 
" style="fill: none; stroke: #ffffff; stroke-width: 0.8; stroke-linejoin: miter; stroke-linecap: square"/>
   </g>
   <g id="patch_4">
    <path d="M 388.8 252 
L 388.8 34.56 
" style="fill: none; stroke: #ffffff; stroke-width: 0.8; stroke-linejoin: miter; stroke-linecap: square"/>
   </g>
   <g id="patch_5">
    <path d="M 54 252 
L 388.8 252 
" style="fill: none; stroke: #ffffff; stroke-width: 0.8; stroke-linejoin: miter; stroke-linecap: square"/>
   </g>
   <g id="patch_6">
    <path d="M 54 34.56 
L 388.8 34.56 
" style="fill: none; stroke: #ffffff; stroke-width: 0.8; stroke-linejoin: miter; stroke-linecap: square"/>
   </g>
  </g>
 </g>
 <defs>
  <clipPath id="pc4d32d05d6">
   <rect x="54" y="34.56" width="334.8" height="217.44"/>
  </clipPath>
 </defs>
</svg>
