<?xml version="1.0" encoding="utf-8" standalone="no"?>
<!DOCTYPE svg PUBLIC "-//W3C//DTD SVG 1.1//EN"
  "http://www.w3.org/Graphics/SVG/1.1/DTD/svg11.dtd">
<svg xmlns:xlink="http://www.w3.org/1999/xlink" width="864pt" height="288pt" viewBox="0 0 864 288" xmlns="http://www.w3.org/2000/svg" version="1.1">
 <metadata>
  <rdf:RDF xmlns:dc="http://purl.org/dc/elements/1.1/" xmlns:cc="http://creativecommons.org/ns#" xmlns:rdf="http://www.w3.org/1999/02/22-rdf-syntax-ns#">
   <cc:Work>
    <dc:type rdf:resource="http://purl.org/dc/dcmitype/StillImage"/>
    <dc:date>2025-01-05T17:50:09.059742</dc:date>
    <dc:format>image/svg+xml</dc:format>
    <dc:creator>
     <cc:Agent>
      <dc:title>Matplotlib v3.7.2, https://matplotlib.org/</dc:title>
     </cc:Agent>
    </dc:creator>
   </cc:Work>
  </rdf:RDF>
 </metadata>
 <defs>
  <style type="text/css">*{stroke-linejoin: round; stroke-linecap: butt}</style>
 </defs>
 <g id="figure_1">
  <g id="patch_1">
   <path d="M 0 288 
L 864 288 
L 864 0 
L 0 0 
z
" style="fill: #ffffff"/>
  </g>
  <g id="axes_1">
   <g id="patch_2">
    <path d="M 47.27 246.76 
L 280.68 246.76 
L 280.68 27.6 
L 47.27 27.6 
z
" style="fill: #eaeaf2"/>
   </g>
   <g id="matplotlib.axis_1">
    <g id="xtick_1">
     <g id="line2d_1">
      <path d="M 57.879545 246.76 
L 57.879545 27.6 
" clip-path="url(#p93a21711ab)" style="fill: none; stroke: #ffffff; stroke-width: 0.8; stroke-linecap: round"/>
     </g>
     <g id="text_1">
      <!-- 0.0 -->
      <g style="fill: #262626" transform="translate(50.929545 260.917812) scale(0.1 -0.1)">
       <defs>
        <path id="ArialMT-30" d="M 266 2259 
Q 266 3072 433 3567 
Q 600 4063 929 4331 
Q 1259 4600 1759 4600 
Q 2128 4600 2406 4451 
Q 2684 4303 2865 4023 
Q 3047 3744 3150 3342 
Q 3253 2941 3253 2259 
Q 3253 1453 3087 958 
Q 2922 463 2592 192 
Q 2263 -78 1759 -78 
Q 1097 -78 719 397 
Q 266 969 266 2259 
z
M 844 2259 
Q 844 1131 1108 757 
Q 1372 384 1759 384 
Q 2147 384 2411 759 
Q 2675 1134 2675 2259 
Q 2675 3391 2411 3762 
Q 2147 4134 1753 4134 
Q 1366 4134 1134 3806 
Q 844 3388 844 2259 
z
" transform="scale(0.015625)"/>
        <path id="ArialMT-2e" d="M 581 0 
L 581 641 
L 1222 641 
L 1222 0 
L 581 0 
z
" transform="scale(0.015625)"/>
       </defs>
       <use xlink:href="#ArialMT-30"/>
       <use xlink:href="#ArialMT-2e" x="55.615234"/>
       <use xlink:href="#ArialMT-30" x="83.398438"/>
      </g>
     </g>
    </g>
    <g id="xtick_2">
     <g id="line2d_2">
      <path d="M 100.317727 246.76 
L 100.317727 27.6 
" clip-path="url(#p93a21711ab)" style="fill: none; stroke: #ffffff; stroke-width: 0.8; stroke-linecap: round"/>
     </g>
     <g id="text_2">
      <!-- 0.2 -->
      <g style="fill: #262626" transform="translate(93.367727 260.917812) scale(0.1 -0.1)">
       <defs>
        <path id="ArialMT-32" d="M 3222 541 
L 3222 0 
L 194 0 
Q 188 203 259 391 
Q 375 700 629 1000 
Q 884 1300 1366 1694 
Q 2113 2306 2375 2664 
Q 2638 3022 2638 3341 
Q 2638 3675 2398 3904 
Q 2159 4134 1775 4134 
Q 1369 4134 1125 3890 
Q 881 3647 878 3216 
L 300 3275 
Q 359 3922 746 4261 
Q 1134 4600 1788 4600 
Q 2447 4600 2831 4234 
Q 3216 3869 3216 3328 
Q 3216 3053 3103 2787 
Q 2991 2522 2730 2228 
Q 2469 1934 1863 1422 
Q 1356 997 1212 845 
Q 1069 694 975 541 
L 3222 541 
z
" transform="scale(0.015625)"/>
       </defs>
       <use xlink:href="#ArialMT-30"/>
       <use xlink:href="#ArialMT-2e" x="55.615234"/>
       <use xlink:href="#ArialMT-32" x="83.398438"/>
      </g>
     </g>
    </g>
    <g id="xtick_3">
     <g id="line2d_3">
      <path d="M 142.755909 246.76 
L 142.755909 27.6 
" clip-path="url(#p93a21711ab)" style="fill: none; stroke: #ffffff; stroke-width: 0.8; stroke-linecap: round"/>
     </g>
     <g id="text_3">
      <!-- 0.4 -->
      <g style="fill: #262626" transform="translate(135.805909 260.917812) scale(0.1 -0.1)">
       <defs>
        <path id="ArialMT-34" d="M 2069 0 
L 2069 1097 
L 81 1097 
L 81 1613 
L 2172 4581 
L 2631 4581 
L 2631 1613 
L 3250 1613 
L 3250 1097 
L 2631 1097 
L 2631 0 
L 2069 0 
z
M 2069 1613 
L 2069 3678 
L 634 1613 
L 2069 1613 
z
" transform="scale(0.015625)"/>
       </defs>
       <use xlink:href="#ArialMT-30"/>
       <use xlink:href="#ArialMT-2e" x="55.615234"/>
       <use xlink:href="#ArialMT-34" x="83.398438"/>
      </g>
     </g>
    </g>
    <g id="xtick_4">
     <g id="line2d_4">
      <path d="M 185.194091 246.76 
L 185.194091 27.6 
" clip-path="url(#p93a21711ab)" style="fill: none; stroke: #ffffff; stroke-width: 0.8; stroke-linecap: round"/>
     </g>
     <g id="text_4">
      <!-- 0.6 -->
      <g style="fill: #262626" transform="translate(178.244091 260.917812) scale(0.1 -0.1)">
       <defs>
        <path id="ArialMT-36" d="M 3184 3459 
L 2625 3416 
Q 2550 3747 2413 3897 
Q 2184 4138 1850 4138 
Q 1581 4138 1378 3988 
Q 1113 3794 959 3422 
Q 806 3050 800 2363 
Q 1003 2672 1297 2822 
Q 1591 2972 1913 2972 
Q 2475 2972 2870 2558 
Q 3266 2144 3266 1488 
Q 3266 1056 3080 686 
Q 2894 316 2569 119 
Q 2244 -78 1831 -78 
Q 1128 -78 684 439 
Q 241 956 241 2144 
Q 241 3472 731 4075 
Q 1159 4600 1884 4600 
Q 2425 4600 2770 4297 
Q 3116 3994 3184 3459 
z
M 888 1484 
Q 888 1194 1011 928 
Q 1134 663 1356 523 
Q 1578 384 1822 384 
Q 2178 384 2434 671 
Q 2691 959 2691 1453 
Q 2691 1928 2437 2201 
Q 2184 2475 1800 2475 
Q 1419 2475 1153 2201 
Q 888 1928 888 1484 
z
" transform="scale(0.015625)"/>
       </defs>
       <use xlink:href="#ArialMT-30"/>
       <use xlink:href="#ArialMT-2e" x="55.615234"/>
       <use xlink:href="#ArialMT-36" x="83.398438"/>
      </g>
     </g>
    </g>
    <g id="xtick_5">
     <g id="line2d_5">
      <path d="M 227.632273 246.76 
L 227.632273 27.6 
" clip-path="url(#p93a21711ab)" style="fill: none; stroke: #ffffff; stroke-width: 0.8; stroke-linecap: round"/>
     </g>
     <g id="text_5">
      <!-- 0.8 -->
      <g style="fill: #262626" transform="translate(220.682273 260.917812) scale(0.1 -0.1)">
       <defs>
        <path id="ArialMT-38" d="M 1131 2484 
Q 781 2613 612 2850 
Q 444 3088 444 3419 
Q 444 3919 803 4259 
Q 1163 4600 1759 4600 
Q 2359 4600 2725 4251 
Q 3091 3903 3091 3403 
Q 3091 3084 2923 2848 
Q 2756 2613 2416 2484 
Q 2838 2347 3058 2040 
Q 3278 1734 3278 1309 
Q 3278 722 2862 322 
Q 2447 -78 1769 -78 
Q 1091 -78 675 323 
Q 259 725 259 1325 
Q 259 1772 486 2073 
Q 713 2375 1131 2484 
z
M 1019 3438 
Q 1019 3113 1228 2906 
Q 1438 2700 1772 2700 
Q 2097 2700 2305 2904 
Q 2513 3109 2513 3406 
Q 2513 3716 2298 3927 
Q 2084 4138 1766 4138 
Q 1444 4138 1231 3931 
Q 1019 3725 1019 3438 
z
M 838 1322 
Q 838 1081 952 856 
Q 1066 631 1291 507 
Q 1516 384 1775 384 
Q 2178 384 2440 643 
Q 2703 903 2703 1303 
Q 2703 1709 2433 1975 
Q 2163 2241 1756 2241 
Q 1359 2241 1098 1978 
Q 838 1716 838 1322 
z
" transform="scale(0.015625)"/>
       </defs>
       <use xlink:href="#ArialMT-30"/>
       <use xlink:href="#ArialMT-2e" x="55.615234"/>
       <use xlink:href="#ArialMT-38" x="83.398438"/>
      </g>
     </g>
    </g>
    <g id="xtick_6">
     <g id="line2d_6">
      <path d="M 270.070455 246.76 
L 270.070455 27.6 
" clip-path="url(#p93a21711ab)" style="fill: none; stroke: #ffffff; stroke-width: 0.8; stroke-linecap: round"/>
     </g>
     <g id="text_6">
      <!-- 1.0 -->
      <g style="fill: #262626" transform="translate(263.120455 260.917812) scale(0.1 -0.1)">
       <defs>
        <path id="ArialMT-31" d="M 2384 0 
L 1822 0 
L 1822 3584 
Q 1619 3391 1289 3197 
Q 959 3003 697 2906 
L 697 3450 
Q 1169 3672 1522 3987 
Q 1875 4303 2022 4600 
L 2384 4600 
L 2384 0 
z
" transform="scale(0.015625)"/>
       </defs>
       <use xlink:href="#ArialMT-31"/>
       <use xlink:href="#ArialMT-2e" x="55.615234"/>
       <use xlink:href="#ArialMT-30" x="83.398438"/>
      </g>
     </g>
    </g>
    <g id="text_7">
     <!-- $d$ -->
     <g style="fill: #262626" transform="translate(160.775 274.063125) scale(0.1 -0.1)">
      <defs>
       <path id="DejaVuSans-Oblique-64" d="M 2675 525 
Q 2444 222 2128 65 
Q 1813 -91 1428 -91 
Q 903 -91 598 267 
Q 294 625 294 1247 
Q 294 1766 478 2236 
Q 663 2706 1013 3078 
Q 1244 3325 1534 3454 
Q 1825 3584 2144 3584 
Q 2481 3584 2739 3421 
Q 2997 3259 3138 2956 
L 3513 4863 
L 4091 4863 
L 3144 0 
L 2566 0 
L 2675 525 
z
M 891 1350 
Q 891 897 1095 644 
Q 1300 391 1663 391 
Q 1931 391 2161 520 
Q 2391 650 2566 903 
Q 2750 1166 2856 1509 
Q 2963 1853 2963 2188 
Q 2963 2622 2758 2865 
Q 2553 3109 2194 3109 
Q 1922 3109 1687 2981 
Q 1453 2853 1288 2613 
Q 1106 2353 998 2009 
Q 891 1666 891 1350 
z
" transform="scale(0.015625)"/>
      </defs>
      <use xlink:href="#DejaVuSans-Oblique-64" transform="translate(0 0.015625)"/>
     </g>
    </g>
   </g>
   <g id="matplotlib.axis_2">
    <g id="ytick_1">
     <g id="line2d_7">
      <path d="M 47.27 236.798182 
L 280.68 236.798182 
" clip-path="url(#p93a21711ab)" style="fill: none; stroke: #ffffff; stroke-width: 0.8; stroke-linecap: round"/>
     </g>
     <g id="text_8">
      <!-- 0.0 -->
      <g style="fill: #262626" transform="translate(26.37 240.377088) scale(0.1 -0.1)">
       <use xlink:href="#ArialMT-30"/>
       <use xlink:href="#ArialMT-2e" x="55.615234"/>
       <use xlink:href="#ArialMT-30" x="83.398438"/>
      </g>
     </g>
    </g>
    <g id="ytick_2">
     <g id="line2d_8">
      <path d="M 47.27 198.167627 
L 280.68 198.167627 
" clip-path="url(#p93a21711ab)" style="fill: none; stroke: #ffffff; stroke-width: 0.8; stroke-linecap: round"/>
     </g>
     <g id="text_9">
      <!-- 0.2 -->
      <g style="fill: #262626" transform="translate(26.37 201.746533) scale(0.1 -0.1)">
       <use xlink:href="#ArialMT-30"/>
       <use xlink:href="#ArialMT-2e" x="55.615234"/>
       <use xlink:href="#ArialMT-32" x="83.398438"/>
      </g>
     </g>
    </g>
    <g id="ytick_3">
     <g id="line2d_9">
      <path d="M 47.27 159.537072 
L 280.68 159.537072 
" clip-path="url(#p93a21711ab)" style="fill: none; stroke: #ffffff; stroke-width: 0.8; stroke-linecap: round"/>
     </g>
     <g id="text_10">
      <!-- 0.4 -->
      <g style="fill: #262626" transform="translate(26.37 163.115978) scale(0.1 -0.1)">
       <use xlink:href="#ArialMT-30"/>
       <use xlink:href="#ArialMT-2e" x="55.615234"/>
       <use xlink:href="#ArialMT-34" x="83.398438"/>
      </g>
     </g>
    </g>
    <g id="ytick_4">
     <g id="line2d_10">
      <path d="M 47.27 120.906517 
L 280.68 120.906517 
" clip-path="url(#p93a21711ab)" style="fill: none; stroke: #ffffff; stroke-width: 0.8; stroke-linecap: round"/>
     </g>
     <g id="text_11">
      <!-- 0.6 -->
      <g style="fill: #262626" transform="translate(26.37 124.485423) scale(0.1 -0.1)">
       <use xlink:href="#ArialMT-30"/>
       <use xlink:href="#ArialMT-2e" x="55.615234"/>
       <use xlink:href="#ArialMT-36" x="83.398438"/>
      </g>
     </g>
    </g>
    <g id="ytick_5">
     <g id="line2d_11">
      <path d="M 47.27 82.275961 
L 280.68 82.275961 
" clip-path="url(#p93a21711ab)" style="fill: none; stroke: #ffffff; stroke-width: 0.8; stroke-linecap: round"/>
     </g>
     <g id="text_12">
      <!-- 0.8 -->
      <g style="fill: #262626" transform="translate(26.37 85.854868) scale(0.1 -0.1)">
       <use xlink:href="#ArialMT-30"/>
       <use xlink:href="#ArialMT-2e" x="55.615234"/>
       <use xlink:href="#ArialMT-38" x="83.398438"/>
      </g>
     </g>
    </g>
    <g id="ytick_6">
     <g id="line2d_12">
      <path d="M 47.27 43.645406 
L 280.68 43.645406 
" clip-path="url(#p93a21711ab)" style="fill: none; stroke: #ffffff; stroke-width: 0.8; stroke-linecap: round"/>
     </g>
     <g id="text_13">
      <!-- 1.0 -->
      <g style="fill: #262626" transform="translate(26.37 47.224313) scale(0.1 -0.1)">
       <use xlink:href="#ArialMT-31"/>
       <use xlink:href="#ArialMT-2e" x="55.615234"/>
       <use xlink:href="#ArialMT-30" x="83.398438"/>
      </g>
     </g>
    </g>
    <g id="text_14">
     <!-- $\mathbb{E}(h(x))$ -->
     <g style="fill: #262626" transform="translate(20.3825 154.33) rotate(-90) scale(0.1 -0.1)">
      <defs>
       <path id="STIXNonUnicode-Italic-e156" d="M 4250 4179 
L 4192 3942 
L 2150 3942 
L 1709 2266 
L 3514 2266 
L 3443 2029 
L 1645 2029 
L 1165 237 
L 3443 237 
L 3392 0 
L 109 0 
L 1229 4179 
L 4250 4179 
z
M 1914 3942 
L 1414 3942 
L 416 237 
L 928 237 
L 1914 3942 
z
" transform="scale(0.015625)"/>
       <path id="DejaVuSans-28" d="M 1984 4856 
Q 1566 4138 1362 3434 
Q 1159 2731 1159 2009 
Q 1159 1288 1364 580 
Q 1569 -128 1984 -844 
L 1484 -844 
Q 1016 -109 783 600 
Q 550 1309 550 2009 
Q 550 2706 781 3412 
Q 1013 4119 1484 4856 
L 1984 4856 
z
" transform="scale(0.015625)"/>
       <path id="DejaVuSans-Oblique-68" d="M 3566 2113 
L 3156 0 
L 2578 0 
L 2988 2091 
Q 3016 2238 3031 2350 
Q 3047 2463 3047 2528 
Q 3047 2791 2881 2937 
Q 2716 3084 2419 3084 
Q 1956 3084 1617 2771 
Q 1278 2459 1178 1941 
L 800 0 
L 225 0 
L 1172 4863 
L 1747 4863 
L 1375 2950 
Q 1594 3244 1934 3414 
Q 2275 3584 2650 3584 
Q 3113 3584 3367 3334 
Q 3622 3084 3622 2631 
Q 3622 2519 3608 2391 
Q 3594 2263 3566 2113 
z
" transform="scale(0.015625)"/>
       <path id="DejaVuSans-Oblique-78" d="M 3841 3500 
L 2234 1784 
L 3219 0 
L 2559 0 
L 1819 1388 
L 531 0 
L -166 0 
L 1556 1844 
L 641 3500 
L 1300 3500 
L 1972 2234 
L 3144 3500 
L 3841 3500 
z
" transform="scale(0.015625)"/>
       <path id="DejaVuSans-29" d="M 513 4856 
L 1013 4856 
Q 1481 4119 1714 3412 
Q 1947 2706 1947 2009 
Q 1947 1309 1714 600 
Q 1481 -109 1013 -844 
L 513 -844 
Q 928 -128 1133 580 
Q 1338 1288 1338 2009 
Q 1338 2731 1133 3434 
Q 928 4138 513 4856 
z
" transform="scale(0.015625)"/>
      </defs>
      <use xlink:href="#STIXNonUnicode-Italic-e156" transform="translate(0 0.015625)"/>
      <use xlink:href="#DejaVuSans-28" transform="translate(63.899994 0.015625)"/>
      <use xlink:href="#DejaVuSans-Oblique-68" transform="translate(102.913666 0.015625)"/>
      <use xlink:href="#DejaVuSans-28" transform="translate(166.292572 0.015625)"/>
      <use xlink:href="#DejaVuSans-Oblique-78" transform="translate(205.306244 0.015625)"/>
      <use xlink:href="#DejaVuSans-29" transform="translate(264.485931 0.015625)"/>
      <use xlink:href="#DejaVuSans-29" transform="translate(303.499603 0.015625)"/>
     </g>
    </g>
   </g>
   <g id="line2d_13">
    <path d="M 57.879545 37.561818 
L 60.022888 44.611227 
L 62.16623 52.775194 
L 64.309573 57.207543 
L 66.452916 52.688835 
L 68.596258 56.292402 
L 70.739601 62.108605 
L 72.882943 60.977272 
L 75.026286 58.024866 
L 77.169628 58.970981 
L 79.312971 60.737997 
L 81.456313 62.241137 
L 83.599656 69.670983 
L 85.742998 70.538386 
L 87.886341 64.42865 
L 90.029683 71.348782 
L 92.173026 78.417567 
L 94.316368 79.587271 
L 96.459711 74.765697 
L 98.603053 80.555694 
L 100.746396 85.603096 
L 102.889738 79.526241 
L 105.033081 93.75297 
L 107.176423 95.297145 
L 109.319766 86.066439 
L 111.463108 90.511459 
L 113.606451 101.503334 
L 115.749793 95.076059 
L 117.893136 100.373797 
L 120.036478 103.118251 
L 122.179821 97.756237 
L 124.323163 107.723265 
L 126.466506 111.798392 
L 128.609848 95.722578 
L 130.753191 110.312333 
L 132.896534 108.144813 
L 135.039876 112.334234 
L 137.183219 117.373838 
L 139.326561 118.282441 
L 141.469904 117.623811 
L 143.613246 120.630627 
L 145.756589 124.809909 
L 147.899931 125.478928 
L 150.043274 132.866519 
L 152.186616 126.994814 
L 154.329959 131.591902 
L 156.473301 135.383262 
L 158.616644 137.141405 
L 160.759986 134.660733 
L 162.903329 138.862436 
L 165.046671 146.129316 
L 167.190014 141.801536 
L 169.333356 144.339338 
L 171.476699 150.89589 
L 173.620041 153.392294 
L 175.763384 151.097651 
L 177.906726 152.781201 
L 180.050069 157.046769 
L 182.193411 154.751985 
L 184.336754 159.438831 
L 186.480096 163.186642 
L 188.623439 162.879274 
L 190.766781 160.292084 
L 192.910124 169.054521 
L 195.053466 166.623231 
L 197.196809 172.654562 
L 199.340152 171.50585 
L 201.483494 175.779514 
L 203.626837 176.85228 
L 205.770179 177.978195 
L 207.913522 181.536375 
L 210.056864 179.514344 
L 212.200207 182.878119 
L 214.343549 187.999642 
L 216.486892 190.270242 
L 218.630234 189.951108 
L 220.773577 193.284157 
L 222.916919 194.879426 
L 225.060262 196.812687 
L 227.203604 193.524437 
L 229.346947 200.545026 
L 231.490289 201.385419 
L 233.633632 202.671398 
L 235.776974 206.295181 
L 237.920317 204.782996 
L 240.063659 209.541592 
L 242.207002 210.101503 
L 244.350344 213.966139 
L 246.493687 215.638137 
L 248.637029 216.958537 
L 250.780372 219.246288 
L 252.923714 221.28668 
L 255.067057 222.88919 
L 257.210399 225.284026 
L 259.353742 227.286657 
L 261.497084 227.892393 
L 263.640427 230.864092 
L 265.78377 233.029885 
L 267.927112 234.898138 
L 270.070455 236.798182 
" clip-path="url(#p93a21711ab)" style="fill: none; stroke: #1f77b4; stroke-width: 1.5; stroke-linecap: round"/>
   </g>
   <g id="line2d_14">
    <path d="M 57.879545 43.645406 
L 60.022888 45.596444 
L 62.16623 47.547483 
L 64.309573 49.498521 
L 66.452916 51.449559 
L 68.596258 53.400597 
L 70.739601 55.351635 
L 72.882943 57.302673 
L 75.026286 59.253711 
L 77.169628 61.20475 
L 79.312971 63.155788 
L 81.456313 65.106826 
L 83.599656 67.057864 
L 85.742998 69.008902 
L 87.886341 70.95994 
L 90.029683 72.910978 
L 92.173026 74.862017 
L 94.316368 76.813055 
L 96.459711 78.764093 
L 98.603053 80.715131 
L 100.746396 82.666169 
L 102.889738 84.617207 
L 105.033081 86.568245 
L 107.176423 88.519283 
L 109.319766 90.470322 
L 111.463108 92.42136 
L 113.606451 94.372398 
L 115.749793 96.323436 
L 117.893136 98.274474 
L 120.036478 100.225512 
L 122.179821 102.17655 
L 124.323163 104.127589 
L 126.466506 106.078627 
L 128.609848 108.029665 
L 130.753191 109.980703 
L 132.896534 111.931741 
L 135.039876 113.882779 
L 137.183219 115.833817 
L 139.326561 117.784856 
L 141.469904 119.735894 
L 143.613246 121.686932 
L 145.756589 123.63797 
L 147.899931 125.589008 
L 150.043274 127.540046 
L 152.186616 129.491084 
L 154.329959 131.442122 
L 156.473301 133.393161 
L 158.616644 135.344199 
L 160.759986 137.295237 
L 162.903329 139.246275 
L 165.046671 141.197313 
L 167.190014 143.148351 
L 169.333356 145.099389 
L 171.476699 147.050428 
L 173.620041 149.001466 
L 175.763384 150.952504 
L 177.906726 152.903542 
L 180.050069 154.85458 
L 182.193411 156.805618 
L 184.336754 158.756656 
L 186.480096 160.707695 
L 188.623439 162.658733 
L 190.766781 164.609771 
L 192.910124 166.560809 
L 195.053466 168.511847 
L 197.196809 170.462885 
L 199.340152 172.413923 
L 201.483494 174.364961 
L 203.626837 176.316 
L 205.770179 178.267038 
L 207.913522 180.218076 
L 210.056864 182.169114 
L 212.200207 184.120152 
L 214.343549 186.07119 
L 216.486892 188.022228 
L 218.630234 189.973267 
L 220.773577 191.924305 
L 222.916919 193.875343 
L 225.060262 195.826381 
L 227.203604 197.777419 
L 229.346947 199.728457 
L 231.490289 201.679495 
L 233.633632 203.630534 
L 235.776974 205.581572 
L 237.920317 207.53261 
L 240.063659 209.483648 
L 242.207002 211.434686 
L 244.350344 213.385724 
L 246.493687 215.336762 
L 248.637029 217.2878 
L 250.780372 219.238839 
L 252.923714 221.189877 
L 255.067057 223.140915 
L 257.210399 225.091953 
L 259.353742 227.042991 
L 261.497084 228.994029 
L 263.640427 230.945067 
L 265.78377 232.896106 
L 267.927112 234.847144 
L 270.070455 236.798182 
" clip-path="url(#p93a21711ab)" style="fill: none; stroke-dasharray: 5.55,2.4; stroke-dashoffset: 0; stroke: #ff0000; stroke-width: 1.5"/>
   </g>
   <g id="patch_3">
    <path d="M 47.27 246.76 
L 47.27 27.6 
" style="fill: none; stroke: #ffffff; stroke-width: 0.8; stroke-linejoin: miter; stroke-linecap: square"/>
   </g>
   <g id="patch_4">
    <path d="M 280.68 246.76 
L 280.68 27.6 
" style="fill: none; stroke: #ffffff; stroke-width: 0.8; stroke-linejoin: miter; stroke-linecap: square"/>
   </g>
   <g id="patch_5">
    <path d="M 47.27 246.76 
L 280.68 246.76 
" style="fill: none; stroke: #ffffff; stroke-width: 0.8; stroke-linejoin: miter; stroke-linecap: square"/>
   </g>
   <g id="patch_6">
    <path d="M 47.27 27.6 
L 280.68 27.6 
" style="fill: none; stroke: #ffffff; stroke-width: 0.8; stroke-linejoin: miter; stroke-linecap: square"/>
   </g>
   <g id="text_15">
    <!-- Proportional Deductible, $\alpha = 2, \lambda = 1$ -->
    <g style="fill: #262626" transform="translate(65.275 21.6) scale(0.12 -0.12)">
     <defs>
      <path id="ArialMT-50" d="M 494 0 
L 494 4581 
L 2222 4581 
Q 2678 4581 2919 4538 
Q 3256 4481 3484 4323 
Q 3713 4166 3852 3881 
Q 3991 3597 3991 3256 
Q 3991 2672 3619 2267 
Q 3247 1863 2275 1863 
L 1100 1863 
L 1100 0 
L 494 0 
z
M 1100 2403 
L 2284 2403 
Q 2872 2403 3119 2622 
Q 3366 2841 3366 3238 
Q 3366 3525 3220 3729 
Q 3075 3934 2838 4000 
Q 2684 4041 2272 4041 
L 1100 4041 
L 1100 2403 
z
" transform="scale(0.015625)"/>
      <path id="ArialMT-72" d="M 416 0 
L 416 3319 
L 922 3319 
L 922 2816 
Q 1116 3169 1280 3281 
Q 1444 3394 1641 3394 
Q 1925 3394 2219 3213 
L 2025 2691 
Q 1819 2813 1613 2813 
Q 1428 2813 1281 2702 
Q 1134 2591 1072 2394 
Q 978 2094 978 1738 
L 978 0 
L 416 0 
z
" transform="scale(0.015625)"/>
      <path id="ArialMT-6f" d="M 213 1659 
Q 213 2581 725 3025 
Q 1153 3394 1769 3394 
Q 2453 3394 2887 2945 
Q 3322 2497 3322 1706 
Q 3322 1066 3130 698 
Q 2938 331 2570 128 
Q 2203 -75 1769 -75 
Q 1072 -75 642 372 
Q 213 819 213 1659 
z
M 791 1659 
Q 791 1022 1069 705 
Q 1347 388 1769 388 
Q 2188 388 2466 706 
Q 2744 1025 2744 1678 
Q 2744 2294 2464 2611 
Q 2184 2928 1769 2928 
Q 1347 2928 1069 2612 
Q 791 2297 791 1659 
z
" transform="scale(0.015625)"/>
      <path id="ArialMT-70" d="M 422 -1272 
L 422 3319 
L 934 3319 
L 934 2888 
Q 1116 3141 1344 3267 
Q 1572 3394 1897 3394 
Q 2322 3394 2647 3175 
Q 2972 2956 3137 2557 
Q 3303 2159 3303 1684 
Q 3303 1175 3120 767 
Q 2938 359 2589 142 
Q 2241 -75 1856 -75 
Q 1575 -75 1351 44 
Q 1128 163 984 344 
L 984 -1272 
L 422 -1272 
z
M 931 1641 
Q 931 1000 1190 694 
Q 1450 388 1819 388 
Q 2194 388 2461 705 
Q 2728 1022 2728 1688 
Q 2728 2322 2467 2637 
Q 2206 2953 1844 2953 
Q 1484 2953 1207 2617 
Q 931 2281 931 1641 
z
" transform="scale(0.015625)"/>
      <path id="ArialMT-74" d="M 1650 503 
L 1731 6 
Q 1494 -44 1306 -44 
Q 1000 -44 831 53 
Q 663 150 594 308 
Q 525 466 525 972 
L 525 2881 
L 113 2881 
L 113 3319 
L 525 3319 
L 525 4141 
L 1084 4478 
L 1084 3319 
L 1650 3319 
L 1650 2881 
L 1084 2881 
L 1084 941 
Q 1084 700 1114 631 
Q 1144 563 1211 522 
Q 1278 481 1403 481 
Q 1497 481 1650 503 
z
" transform="scale(0.015625)"/>
      <path id="ArialMT-69" d="M 425 3934 
L 425 4581 
L 988 4581 
L 988 3934 
L 425 3934 
z
M 425 0 
L 425 3319 
L 988 3319 
L 988 0 
L 425 0 
z
" transform="scale(0.015625)"/>
      <path id="ArialMT-6e" d="M 422 0 
L 422 3319 
L 928 3319 
L 928 2847 
Q 1294 3394 1984 3394 
Q 2284 3394 2536 3286 
Q 2788 3178 2913 3003 
Q 3038 2828 3088 2588 
Q 3119 2431 3119 2041 
L 3119 0 
L 2556 0 
L 2556 2019 
Q 2556 2363 2490 2533 
Q 2425 2703 2258 2804 
Q 2091 2906 1866 2906 
Q 1506 2906 1245 2678 
Q 984 2450 984 1813 
L 984 0 
L 422 0 
z
" transform="scale(0.015625)"/>
      <path id="ArialMT-61" d="M 2588 409 
Q 2275 144 1986 34 
Q 1697 -75 1366 -75 
Q 819 -75 525 192 
Q 231 459 231 875 
Q 231 1119 342 1320 
Q 453 1522 633 1644 
Q 813 1766 1038 1828 
Q 1203 1872 1538 1913 
Q 2219 1994 2541 2106 
Q 2544 2222 2544 2253 
Q 2544 2597 2384 2738 
Q 2169 2928 1744 2928 
Q 1347 2928 1158 2789 
Q 969 2650 878 2297 
L 328 2372 
Q 403 2725 575 2942 
Q 747 3159 1072 3276 
Q 1397 3394 1825 3394 
Q 2250 3394 2515 3294 
Q 2781 3194 2906 3042 
Q 3031 2891 3081 2659 
Q 3109 2516 3109 2141 
L 3109 1391 
Q 3109 606 3145 398 
Q 3181 191 3288 0 
L 2700 0 
Q 2613 175 2588 409 
z
M 2541 1666 
Q 2234 1541 1622 1453 
Q 1275 1403 1131 1340 
Q 988 1278 909 1158 
Q 831 1038 831 891 
Q 831 666 1001 516 
Q 1172 366 1500 366 
Q 1825 366 2078 508 
Q 2331 650 2450 897 
Q 2541 1088 2541 1459 
L 2541 1666 
z
" transform="scale(0.015625)"/>
      <path id="ArialMT-6c" d="M 409 0 
L 409 4581 
L 972 4581 
L 972 0 
L 409 0 
z
" transform="scale(0.015625)"/>
      <path id="ArialMT-20" transform="scale(0.015625)"/>
      <path id="ArialMT-44" d="M 494 0 
L 494 4581 
L 2072 4581 
Q 2606 4581 2888 4516 
Q 3281 4425 3559 4188 
Q 3922 3881 4101 3404 
Q 4281 2928 4281 2316 
Q 4281 1794 4159 1391 
Q 4038 988 3847 723 
Q 3656 459 3429 307 
Q 3203 156 2883 78 
Q 2563 0 2147 0 
L 494 0 
z
M 1100 541 
L 2078 541 
Q 2531 541 2789 625 
Q 3047 709 3200 863 
Q 3416 1078 3536 1442 
Q 3656 1806 3656 2325 
Q 3656 3044 3420 3430 
Q 3184 3816 2847 3947 
Q 2603 4041 2063 4041 
L 1100 4041 
L 1100 541 
z
" transform="scale(0.015625)"/>
      <path id="ArialMT-65" d="M 2694 1069 
L 3275 997 
Q 3138 488 2766 206 
Q 2394 -75 1816 -75 
Q 1088 -75 661 373 
Q 234 822 234 1631 
Q 234 2469 665 2931 
Q 1097 3394 1784 3394 
Q 2450 3394 2872 2941 
Q 3294 2488 3294 1666 
Q 3294 1616 3291 1516 
L 816 1516 
Q 847 969 1125 678 
Q 1403 388 1819 388 
Q 2128 388 2347 550 
Q 2566 713 2694 1069 
z
M 847 1978 
L 2700 1978 
Q 2663 2397 2488 2606 
Q 2219 2931 1791 2931 
Q 1403 2931 1139 2672 
Q 875 2413 847 1978 
z
" transform="scale(0.015625)"/>
      <path id="ArialMT-64" d="M 2575 0 
L 2575 419 
Q 2259 -75 1647 -75 
Q 1250 -75 917 144 
Q 584 363 401 755 
Q 219 1147 219 1656 
Q 219 2153 384 2558 
Q 550 2963 881 3178 
Q 1213 3394 1622 3394 
Q 1922 3394 2156 3267 
Q 2391 3141 2538 2938 
L 2538 4581 
L 3097 4581 
L 3097 0 
L 2575 0 
z
M 797 1656 
Q 797 1019 1065 703 
Q 1334 388 1700 388 
Q 2069 388 2326 689 
Q 2584 991 2584 1609 
Q 2584 2291 2321 2609 
Q 2059 2928 1675 2928 
Q 1300 2928 1048 2622 
Q 797 2316 797 1656 
z
" transform="scale(0.015625)"/>
      <path id="ArialMT-75" d="M 2597 0 
L 2597 488 
Q 2209 -75 1544 -75 
Q 1250 -75 995 37 
Q 741 150 617 320 
Q 494 491 444 738 
Q 409 903 409 1263 
L 409 3319 
L 972 3319 
L 972 1478 
Q 972 1038 1006 884 
Q 1059 663 1231 536 
Q 1403 409 1656 409 
Q 1909 409 2131 539 
Q 2353 669 2445 892 
Q 2538 1116 2538 1541 
L 2538 3319 
L 3100 3319 
L 3100 0 
L 2597 0 
z
" transform="scale(0.015625)"/>
      <path id="ArialMT-63" d="M 2588 1216 
L 3141 1144 
Q 3050 572 2676 248 
Q 2303 -75 1759 -75 
Q 1078 -75 664 370 
Q 250 816 250 1647 
Q 250 2184 428 2587 
Q 606 2991 970 3192 
Q 1334 3394 1763 3394 
Q 2303 3394 2647 3120 
Q 2991 2847 3088 2344 
L 2541 2259 
Q 2463 2594 2264 2762 
Q 2066 2931 1784 2931 
Q 1359 2931 1093 2626 
Q 828 2322 828 1663 
Q 828 994 1084 691 
Q 1341 388 1753 388 
Q 2084 388 2306 591 
Q 2528 794 2588 1216 
z
" transform="scale(0.015625)"/>
      <path id="ArialMT-62" d="M 941 0 
L 419 0 
L 419 4581 
L 981 4581 
L 981 2947 
Q 1338 3394 1891 3394 
Q 2197 3394 2470 3270 
Q 2744 3147 2920 2923 
Q 3097 2700 3197 2384 
Q 3297 2069 3297 1709 
Q 3297 856 2875 390 
Q 2453 -75 1863 -75 
Q 1275 -75 941 416 
L 941 0 
z
M 934 1684 
Q 934 1088 1097 822 
Q 1363 388 1816 388 
Q 2184 388 2453 708 
Q 2722 1028 2722 1663 
Q 2722 2313 2464 2622 
Q 2206 2931 1841 2931 
Q 1472 2931 1203 2611 
Q 934 2291 934 1684 
z
" transform="scale(0.015625)"/>
      <path id="ArialMT-2c" d="M 569 0 
L 569 641 
L 1209 641 
L 1209 0 
Q 1209 -353 1084 -570 
Q 959 -788 688 -906 
L 531 -666 
Q 709 -588 793 -436 
Q 878 -284 888 0 
L 569 0 
z
" transform="scale(0.015625)"/>
      <path id="DejaVuSans-Oblique-3b1" d="M 2619 1628 
L 2622 2350 
Q 2625 3088 2069 3091 
Q 1653 3094 1394 2747 
Q 1069 2319 959 1747 
Q 825 1059 994 731 
Q 1169 397 1547 397 
Q 1966 397 2319 1063 
L 2619 1628 
z
M 2166 3578 
Q 3141 3594 3128 2584 
Q 3128 2584 3616 3500 
L 4128 3500 
L 3119 1603 
L 3109 919 
Q 3109 766 3194 638 
Q 3291 488 3391 488 
L 3669 488 
L 3575 0 
L 3228 0 
Q 2934 0 2722 263 
Q 2622 394 2619 669 
Q 2416 334 2066 50 
Q 1900 -81 1453 -78 
Q 722 -72 456 397 
Q 184 884 353 1747 
Q 534 2675 1009 3097 
Q 1544 3569 2166 3578 
z
" transform="scale(0.015625)"/>
      <path id="DejaVuSans-3d" d="M 678 2906 
L 4684 2906 
L 4684 2381 
L 678 2381 
L 678 2906 
z
M 678 1631 
L 4684 1631 
L 4684 1100 
L 678 1100 
L 678 1631 
z
" transform="scale(0.015625)"/>
      <path id="DejaVuSans-32" d="M 1228 531 
L 3431 531 
L 3431 0 
L 469 0 
L 469 531 
Q 828 903 1448 1529 
Q 2069 2156 2228 2338 
Q 2531 2678 2651 2914 
Q 2772 3150 2772 3378 
Q 2772 3750 2511 3984 
Q 2250 4219 1831 4219 
Q 1534 4219 1204 4116 
Q 875 4013 500 3803 
L 500 4441 
Q 881 4594 1212 4672 
Q 1544 4750 1819 4750 
Q 2544 4750 2975 4387 
Q 3406 4025 3406 3419 
Q 3406 3131 3298 2873 
Q 3191 2616 2906 2266 
Q 2828 2175 2409 1742 
Q 1991 1309 1228 531 
z
" transform="scale(0.015625)"/>
      <path id="DejaVuSans-2c" d="M 750 794 
L 1409 794 
L 1409 256 
L 897 -744 
L 494 -744 
L 750 256 
L 750 794 
z
" transform="scale(0.015625)"/>
      <path id="DejaVuSans-Oblique-3bb" d="M 2350 4316 
L 3125 0 
L 2516 0 
L 2038 2588 
L 328 0 
L -281 0 
L 1903 3356 
L 1794 3975 
Q 1725 4369 1391 4369 
L 1091 4369 
L 1184 4863 
L 1550 4856 
Q 2253 4847 2350 4316 
z
" transform="scale(0.015625)"/>
      <path id="DejaVuSans-31" d="M 794 531 
L 1825 531 
L 1825 4091 
L 703 3866 
L 703 4441 
L 1819 4666 
L 2450 4666 
L 2450 531 
L 3481 531 
L 3481 0 
L 794 0 
L 794 531 
z
" transform="scale(0.015625)"/>
     </defs>
     <use xlink:href="#ArialMT-50" transform="translate(0 0.015625)"/>
     <use xlink:href="#ArialMT-72" transform="translate(66.699219 0.015625)"/>
     <use xlink:href="#ArialMT-6f" transform="translate(100 0.015625)"/>
     <use xlink:href="#ArialMT-70" transform="translate(155.615234 0.015625)"/>
     <use xlink:href="#ArialMT-6f" transform="translate(211.230469 0.015625)"/>
     <use xlink:href="#ArialMT-72" transform="translate(266.845703 0.015625)"/>
     <use xlink:href="#ArialMT-74" transform="translate(300.146484 0.015625)"/>
     <use xlink:href="#ArialMT-69" transform="translate(327.929688 0.015625)"/>
     <use xlink:href="#ArialMT-6f" transform="translate(350.146484 0.015625)"/>
     <use xlink:href="#ArialMT-6e" transform="translate(405.761719 0.015625)"/>
     <use xlink:href="#ArialMT-61" transform="translate(461.376953 0.015625)"/>
     <use xlink:href="#ArialMT-6c" transform="translate(516.992188 0.015625)"/>
     <use xlink:href="#ArialMT-20" transform="translate(539.208984 0.015625)"/>
     <use xlink:href="#ArialMT-44" transform="translate(566.992188 0.015625)"/>
     <use xlink:href="#ArialMT-65" transform="translate(639.208984 0.015625)"/>
     <use xlink:href="#ArialMT-64" transform="translate(694.824219 0.015625)"/>
     <use xlink:href="#ArialMT-75" transform="translate(750.439453 0.015625)"/>
     <use xlink:href="#ArialMT-63" transform="translate(806.054688 0.015625)"/>
     <use xlink:href="#ArialMT-74" transform="translate(856.054688 0.015625)"/>
     <use xlink:href="#ArialMT-69" transform="translate(883.837891 0.015625)"/>
     <use xlink:href="#ArialMT-62" transform="translate(906.054688 0.015625)"/>
     <use xlink:href="#ArialMT-6c" transform="translate(961.669922 0.015625)"/>
     <use xlink:href="#ArialMT-65" transform="translate(983.886719 0.015625)"/>
     <use xlink:href="#ArialMT-2c" transform="translate(1039.501953 0.015625)"/>
     <use xlink:href="#ArialMT-20" transform="translate(1067.285156 0.015625)"/>
     <use xlink:href="#DejaVuSans-Oblique-3b1" transform="translate(1095.068359 0.015625)"/>
     <use xlink:href="#DejaVuSans-3d" transform="translate(1180.46875 0.015625)"/>
     <use xlink:href="#DejaVuSans-32" transform="translate(1283.740234 0.015625)"/>
     <use xlink:href="#DejaVuSans-2c" transform="translate(1347.363281 0.015625)"/>
     <use xlink:href="#DejaVuSans-Oblique-3bb" transform="translate(1398.632812 0.015625)"/>
     <use xlink:href="#DejaVuSans-3d" transform="translate(1477.294922 0.015625)"/>
     <use xlink:href="#DejaVuSans-31" transform="translate(1580.566406 0.015625)"/>
    </g>
   </g>
   <g id="legend_1">
    <g id="patch_7">
     <path d="M 194.9925 64.007812 
L 273.68 64.007812 
Q 275.68 64.007812 275.68 62.007812 
L 275.68 34.6 
Q 275.68 32.6 273.68 32.6 
L 194.9925 32.6 
Q 192.9925 32.6 192.9925 34.6 
L 192.9925 62.007812 
Q 192.9925 64.007812 194.9925 64.007812 
z
" style="fill: #eaeaf2; opacity: 0.8; stroke: #cccccc; stroke-linejoin: miter"/>
    </g>
    <g id="line2d_15">
     <path d="M 196.9925 40.257812 
L 206.9925 40.257812 
L 216.9925 40.257812 
" style="fill: none; stroke: #1f77b4; stroke-width: 1.5; stroke-linecap: round"/>
    </g>
    <g id="text_16">
     <!-- Simulation -->
     <g style="fill: #262626" transform="translate(224.9925 43.757812) scale(0.1 -0.1)">
      <defs>
       <path id="ArialMT-53" d="M 288 1472 
L 859 1522 
Q 900 1178 1048 958 
Q 1197 738 1509 602 
Q 1822 466 2213 466 
Q 2559 466 2825 569 
Q 3091 672 3220 851 
Q 3350 1031 3350 1244 
Q 3350 1459 3225 1620 
Q 3100 1781 2813 1891 
Q 2628 1963 1997 2114 
Q 1366 2266 1113 2400 
Q 784 2572 623 2826 
Q 463 3081 463 3397 
Q 463 3744 659 4045 
Q 856 4347 1234 4503 
Q 1613 4659 2075 4659 
Q 2584 4659 2973 4495 
Q 3363 4331 3572 4012 
Q 3781 3694 3797 3291 
L 3216 3247 
Q 3169 3681 2898 3903 
Q 2628 4125 2100 4125 
Q 1550 4125 1298 3923 
Q 1047 3722 1047 3438 
Q 1047 3191 1225 3031 
Q 1400 2872 2139 2705 
Q 2878 2538 3153 2413 
Q 3553 2228 3743 1945 
Q 3934 1663 3934 1294 
Q 3934 928 3725 604 
Q 3516 281 3123 101 
Q 2731 -78 2241 -78 
Q 1619 -78 1198 103 
Q 778 284 539 648 
Q 300 1013 288 1472 
z
" transform="scale(0.015625)"/>
       <path id="ArialMT-6d" d="M 422 0 
L 422 3319 
L 925 3319 
L 925 2853 
Q 1081 3097 1340 3245 
Q 1600 3394 1931 3394 
Q 2300 3394 2536 3241 
Q 2772 3088 2869 2813 
Q 3263 3394 3894 3394 
Q 4388 3394 4653 3120 
Q 4919 2847 4919 2278 
L 4919 0 
L 4359 0 
L 4359 2091 
Q 4359 2428 4304 2576 
Q 4250 2725 4106 2815 
Q 3963 2906 3769 2906 
Q 3419 2906 3187 2673 
Q 2956 2441 2956 1928 
L 2956 0 
L 2394 0 
L 2394 2156 
Q 2394 2531 2256 2718 
Q 2119 2906 1806 2906 
Q 1569 2906 1367 2781 
Q 1166 2656 1075 2415 
Q 984 2175 984 1722 
L 984 0 
L 422 0 
z
" transform="scale(0.015625)"/>
      </defs>
      <use xlink:href="#ArialMT-53"/>
      <use xlink:href="#ArialMT-69" x="66.699219"/>
      <use xlink:href="#ArialMT-6d" x="88.916016"/>
      <use xlink:href="#ArialMT-75" x="172.216797"/>
      <use xlink:href="#ArialMT-6c" x="227.832031"/>
      <use xlink:href="#ArialMT-61" x="250.048828"/>
      <use xlink:href="#ArialMT-74" x="305.664062"/>
      <use xlink:href="#ArialMT-69" x="333.447266"/>
      <use xlink:href="#ArialMT-6f" x="355.664062"/>
      <use xlink:href="#ArialMT-6e" x="411.279297"/>
     </g>
    </g>
    <g id="line2d_16">
     <path d="M 196.9925 54.403125 
L 206.9925 54.403125 
L 216.9925 54.403125 
" style="fill: none; stroke-dasharray: 5.55,2.4; stroke-dashoffset: 0; stroke: #ff0000; stroke-width: 1.5"/>
    </g>
    <g id="text_17">
     <!-- Analytical -->
     <g style="fill: #262626" transform="translate(224.9925 57.903125) scale(0.1 -0.1)">
      <defs>
       <path id="ArialMT-41" d="M -9 0 
L 1750 4581 
L 2403 4581 
L 4278 0 
L 3588 0 
L 3053 1388 
L 1138 1388 
L 634 0 
L -9 0 
z
M 1313 1881 
L 2866 1881 
L 2388 3150 
Q 2169 3728 2063 4100 
Q 1975 3659 1816 3225 
L 1313 1881 
z
" transform="scale(0.015625)"/>
       <path id="ArialMT-79" d="M 397 -1278 
L 334 -750 
Q 519 -800 656 -800 
Q 844 -800 956 -737 
Q 1069 -675 1141 -563 
Q 1194 -478 1313 -144 
Q 1328 -97 1363 -6 
L 103 3319 
L 709 3319 
L 1400 1397 
Q 1534 1031 1641 628 
Q 1738 1016 1872 1384 
L 2581 3319 
L 3144 3319 
L 1881 -56 
Q 1678 -603 1566 -809 
Q 1416 -1088 1222 -1217 
Q 1028 -1347 759 -1347 
Q 597 -1347 397 -1278 
z
" transform="scale(0.015625)"/>
      </defs>
      <use xlink:href="#ArialMT-41"/>
      <use xlink:href="#ArialMT-6e" x="66.699219"/>
      <use xlink:href="#ArialMT-61" x="122.314453"/>
      <use xlink:href="#ArialMT-6c" x="177.929688"/>
      <use xlink:href="#ArialMT-79" x="200.146484"/>
      <use xlink:href="#ArialMT-74" x="250.146484"/>
      <use xlink:href="#ArialMT-69" x="277.929688"/>
      <use xlink:href="#ArialMT-63" x="300.146484"/>
      <use xlink:href="#ArialMT-61" x="350.146484"/>
      <use xlink:href="#ArialMT-6c" x="405.761719"/>
     </g>
    </g>
   </g>
  </g>
  <g id="axes_2">
   <g id="patch_8">
    <path d="M 333.53 246.76 
L 566.94 246.76 
L 566.94 27.6 
L 333.53 27.6 
z
" style="fill: #eaeaf2"/>
   </g>
   <g id="matplotlib.axis_3">
    <g id="xtick_7">
     <g id="line2d_17">
      <path d="M 344.139545 246.76 
L 344.139545 27.6 
" clip-path="url(#p3fb2c3c7cb)" style="fill: none; stroke: #ffffff; stroke-width: 0.8; stroke-linecap: round"/>
     </g>
     <g id="text_18">
      <!-- 0.0 -->
      <g style="fill: #262626" transform="translate(337.189545 260.917812) scale(0.1 -0.1)">
       <use xlink:href="#ArialMT-30"/>
       <use xlink:href="#ArialMT-2e" x="55.615234"/>
       <use xlink:href="#ArialMT-30" x="83.398438"/>
      </g>
     </g>
    </g>
    <g id="xtick_8">
     <g id="line2d_18">
      <path d="M 386.577727 246.76 
L 386.577727 27.6 
" clip-path="url(#p3fb2c3c7cb)" style="fill: none; stroke: #ffffff; stroke-width: 0.8; stroke-linecap: round"/>
     </g>
     <g id="text_19">
      <!-- 0.2 -->
      <g style="fill: #262626" transform="translate(379.627727 260.917812) scale(0.1 -0.1)">
       <use xlink:href="#ArialMT-30"/>
       <use xlink:href="#ArialMT-2e" x="55.615234"/>
       <use xlink:href="#ArialMT-32" x="83.398438"/>
      </g>
     </g>
    </g>
    <g id="xtick_9">
     <g id="line2d_19">
      <path d="M 429.015909 246.76 
L 429.015909 27.6 
" clip-path="url(#p3fb2c3c7cb)" style="fill: none; stroke: #ffffff; stroke-width: 0.8; stroke-linecap: round"/>
     </g>
     <g id="text_20">
      <!-- 0.4 -->
      <g style="fill: #262626" transform="translate(422.065909 260.917812) scale(0.1 -0.1)">
       <use xlink:href="#ArialMT-30"/>
       <use xlink:href="#ArialMT-2e" x="55.615234"/>
       <use xlink:href="#ArialMT-34" x="83.398438"/>
      </g>
     </g>
    </g>
    <g id="xtick_10">
     <g id="line2d_20">
      <path d="M 471.454091 246.76 
L 471.454091 27.6 
" clip-path="url(#p3fb2c3c7cb)" style="fill: none; stroke: #ffffff; stroke-width: 0.8; stroke-linecap: round"/>
     </g>
     <g id="text_21">
      <!-- 0.6 -->
      <g style="fill: #262626" transform="translate(464.504091 260.917812) scale(0.1 -0.1)">
       <use xlink:href="#ArialMT-30"/>
       <use xlink:href="#ArialMT-2e" x="55.615234"/>
       <use xlink:href="#ArialMT-36" x="83.398438"/>
      </g>
     </g>
    </g>
    <g id="xtick_11">
     <g id="line2d_21">
      <path d="M 513.892273 246.76 
L 513.892273 27.6 
" clip-path="url(#p3fb2c3c7cb)" style="fill: none; stroke: #ffffff; stroke-width: 0.8; stroke-linecap: round"/>
     </g>
     <g id="text_22">
      <!-- 0.8 -->
      <g style="fill: #262626" transform="translate(506.942273 260.917812) scale(0.1 -0.1)">
       <use xlink:href="#ArialMT-30"/>
       <use xlink:href="#ArialMT-2e" x="55.615234"/>
       <use xlink:href="#ArialMT-38" x="83.398438"/>
      </g>
     </g>
    </g>
    <g id="xtick_12">
     <g id="line2d_22">
      <path d="M 556.330455 246.76 
L 556.330455 27.6 
" clip-path="url(#p3fb2c3c7cb)" style="fill: none; stroke: #ffffff; stroke-width: 0.8; stroke-linecap: round"/>
     </g>
     <g id="text_23">
      <!-- 1.0 -->
      <g style="fill: #262626" transform="translate(549.380455 260.917812) scale(0.1 -0.1)">
       <use xlink:href="#ArialMT-31"/>
       <use xlink:href="#ArialMT-2e" x="55.615234"/>
       <use xlink:href="#ArialMT-30" x="83.398438"/>
      </g>
     </g>
    </g>
    <g id="text_24">
     <!-- $d$ -->
     <g style="fill: #262626" transform="translate(447.035 274.063125) scale(0.1 -0.1)">
      <use xlink:href="#DejaVuSans-Oblique-64" transform="translate(0 0.015625)"/>
     </g>
    </g>
   </g>
   <g id="matplotlib.axis_4">
    <g id="ytick_7">
     <g id="line2d_23">
      <path d="M 333.53 236.798182 
L 566.94 236.798182 
" clip-path="url(#p3fb2c3c7cb)" style="fill: none; stroke: #ffffff; stroke-width: 0.8; stroke-linecap: round"/>
     </g>
     <g id="text_25">
      <!-- 0 -->
      <g style="fill: #262626" transform="translate(320.969062 240.377088) scale(0.1 -0.1)">
       <use xlink:href="#ArialMT-30"/>
      </g>
     </g>
    </g>
    <g id="ytick_8">
     <g id="line2d_24">
      <path d="M 333.53 191.308538 
L 566.94 191.308538 
" clip-path="url(#p3fb2c3c7cb)" style="fill: none; stroke: #ffffff; stroke-width: 0.8; stroke-linecap: round"/>
     </g>
     <g id="text_26">
      <!-- 1 -->
      <g style="fill: #262626" transform="translate(320.969062 194.887444) scale(0.1 -0.1)">
       <use xlink:href="#ArialMT-31"/>
      </g>
     </g>
    </g>
    <g id="ytick_9">
     <g id="line2d_25">
      <path d="M 333.53 145.818894 
L 566.94 145.818894 
" clip-path="url(#p3fb2c3c7cb)" style="fill: none; stroke: #ffffff; stroke-width: 0.8; stroke-linecap: round"/>
     </g>
     <g id="text_27">
      <!-- 2 -->
      <g style="fill: #262626" transform="translate(320.969062 149.397801) scale(0.1 -0.1)">
       <use xlink:href="#ArialMT-32"/>
      </g>
     </g>
    </g>
    <g id="ytick_10">
     <g id="line2d_26">
      <path d="M 333.53 100.329251 
L 566.94 100.329251 
" clip-path="url(#p3fb2c3c7cb)" style="fill: none; stroke: #ffffff; stroke-width: 0.8; stroke-linecap: round"/>
     </g>
     <g id="text_28">
      <!-- 3 -->
      <g style="fill: #262626" transform="translate(320.969062 103.908157) scale(0.1 -0.1)">
       <defs>
        <path id="ArialMT-33" d="M 269 1209 
L 831 1284 
Q 928 806 1161 595 
Q 1394 384 1728 384 
Q 2125 384 2398 659 
Q 2672 934 2672 1341 
Q 2672 1728 2419 1979 
Q 2166 2231 1775 2231 
Q 1616 2231 1378 2169 
L 1441 2663 
Q 1497 2656 1531 2656 
Q 1891 2656 2178 2843 
Q 2466 3031 2466 3422 
Q 2466 3731 2256 3934 
Q 2047 4138 1716 4138 
Q 1388 4138 1169 3931 
Q 950 3725 888 3313 
L 325 3413 
Q 428 3978 793 4289 
Q 1159 4600 1703 4600 
Q 2078 4600 2393 4439 
Q 2709 4278 2876 4000 
Q 3044 3722 3044 3409 
Q 3044 3113 2884 2869 
Q 2725 2625 2413 2481 
Q 2819 2388 3044 2092 
Q 3269 1797 3269 1353 
Q 3269 753 2831 336 
Q 2394 -81 1725 -81 
Q 1122 -81 723 278 
Q 325 638 269 1209 
z
" transform="scale(0.015625)"/>
       </defs>
       <use xlink:href="#ArialMT-33"/>
      </g>
     </g>
    </g>
    <g id="ytick_11">
     <g id="line2d_27">
      <path d="M 333.53 54.839607 
L 566.94 54.839607 
" clip-path="url(#p3fb2c3c7cb)" style="fill: none; stroke: #ffffff; stroke-width: 0.8; stroke-linecap: round"/>
     </g>
     <g id="text_29">
      <!-- 4 -->
      <g style="fill: #262626" transform="translate(320.969062 58.418513) scale(0.1 -0.1)">
       <use xlink:href="#ArialMT-34"/>
      </g>
     </g>
    </g>
    <g id="text_30">
     <!-- $\mathbb{E}(h(x))$ -->
     <g style="fill: #262626" transform="translate(314.981562 154.33) rotate(-90) scale(0.1 -0.1)">
      <use xlink:href="#STIXNonUnicode-Italic-e156" transform="translate(0 0.015625)"/>
      <use xlink:href="#DejaVuSans-28" transform="translate(63.899994 0.015625)"/>
      <use xlink:href="#DejaVuSans-Oblique-68" transform="translate(102.913666 0.015625)"/>
      <use xlink:href="#DejaVuSans-28" transform="translate(166.292572 0.015625)"/>
      <use xlink:href="#DejaVuSans-Oblique-78" transform="translate(205.306244 0.015625)"/>
      <use xlink:href="#DejaVuSans-29" transform="translate(264.485931 0.015625)"/>
      <use xlink:href="#DejaVuSans-29" transform="translate(303.499603 0.015625)"/>
     </g>
    </g>
   </g>
   <g id="line2d_28">
    <path d="M 344.139545 37.561818 
L 346.282888 50.436069 
L 348.42623 59.354071 
L 350.569573 59.79392 
L 352.712916 54.175782 
L 354.856258 66.954376 
L 356.999601 70.253957 
L 359.142943 71.674415 
L 361.286286 75.846326 
L 363.429628 54.783689 
L 365.572971 72.34094 
L 367.716313 81.06732 
L 369.859656 63.657936 
L 372.002998 69.389793 
L 374.146341 77.664073 
L 376.289683 87.818088 
L 378.433026 93.220616 
L 380.576368 85.454049 
L 382.719711 88.9016 
L 384.863053 85.539117 
L 387.006396 71.077055 
L 389.149738 91.988856 
L 391.293081 91.9393 
L 393.436423 96.025404 
L 395.579766 99.560719 
L 397.723108 103.707078 
L 399.866451 106.329892 
L 402.009793 104.165944 
L 404.153136 112.858747 
L 406.296478 105.481733 
L 408.439821 104.595426 
L 410.583163 107.977085 
L 412.726506 109.811415 
L 414.869848 122.101474 
L 417.013191 113.780797 
L 419.156534 119.970614 
L 421.299876 117.423538 
L 423.443219 129.815029 
L 425.586561 120.711169 
L 427.729904 127.143425 
L 429.873246 126.97025 
L 432.016589 128.235557 
L 434.159931 127.553625 
L 436.303274 132.221093 
L 438.446616 134.814358 
L 440.589959 141.446935 
L 442.733301 137.314145 
L 444.876644 143.573353 
L 447.019986 138.293657 
L 449.163329 148.616819 
L 451.306671 148.229477 
L 453.450014 150.343496 
L 455.593356 151.620013 
L 457.736699 146.38395 
L 459.880041 157.28266 
L 462.023384 152.574283 
L 464.166726 158.196333 
L 466.310069 157.436302 
L 468.453411 157.442877 
L 470.596754 165.330586 
L 472.740096 165.506707 
L 474.883439 168.485162 
L 477.026781 166.488333 
L 479.170124 172.672005 
L 481.313466 172.35163 
L 483.456809 176.316165 
L 485.600152 176.639487 
L 487.743494 180.282026 
L 489.886837 179.175968 
L 492.030179 181.976799 
L 494.173522 185.119633 
L 496.316864 184.107917 
L 498.460207 187.959386 
L 500.603549 188.735912 
L 502.746892 191.114589 
L 504.890234 191.892218 
L 507.033577 194.241805 
L 509.176919 193.771528 
L 511.320262 197.292373 
L 513.463604 200.840491 
L 515.606947 200.081546 
L 517.750289 205.34954 
L 519.893632 204.562635 
L 522.036974 207.607789 
L 524.180317 208.683305 
L 526.323659 211.109605 
L 528.467002 212.101016 
L 530.610344 214.74566 
L 532.753687 216.40008 
L 534.897029 218.233794 
L 537.040372 221.035831 
L 539.183714 222.061244 
L 541.327057 223.671872 
L 543.470399 226.068267 
L 545.613742 227.059981 
L 547.757084 229.414334 
L 549.900427 231.381266 
L 552.04377 233.349191 
L 554.187112 234.974222 
L 556.330455 236.798182 
" clip-path="url(#p3fb2c3c7cb)" style="fill: none; stroke: #1f77b4; stroke-width: 1.5; stroke-linecap: round"/>
   </g>
   <g id="line2d_29">
    <path d="M 344.139545 54.839607 
L 346.282888 56.677573 
L 348.42623 58.515538 
L 350.569573 60.353503 
L 352.712916 62.191469 
L 354.856258 64.029434 
L 356.999601 65.8674 
L 359.142943 67.705365 
L 361.286286 69.54333 
L 363.429628 71.381296 
L 365.572971 73.219261 
L 367.716313 75.057227 
L 369.859656 76.895192 
L 372.002998 78.733157 
L 374.146341 80.571123 
L 376.289683 82.409088 
L 378.433026 84.247054 
L 380.576368 86.085019 
L 382.719711 87.922984 
L 384.863053 89.76095 
L 387.006396 91.598915 
L 389.149738 93.436881 
L 391.293081 95.274846 
L 393.436423 97.112811 
L 395.579766 98.950777 
L 397.723108 100.788742 
L 399.866451 102.626708 
L 402.009793 104.464673 
L 404.153136 106.302638 
L 406.296478 108.140604 
L 408.439821 109.978569 
L 410.583163 111.816535 
L 412.726506 113.6545 
L 414.869848 115.492465 
L 417.013191 117.330431 
L 419.156534 119.168396 
L 421.299876 121.006362 
L 423.443219 122.844327 
L 425.586561 124.682292 
L 427.729904 126.520258 
L 429.873246 128.358223 
L 432.016589 130.196189 
L 434.159931 132.034154 
L 436.303274 133.872119 
L 438.446616 135.710085 
L 440.589959 137.54805 
L 442.733301 139.386016 
L 444.876644 141.223981 
L 447.019986 143.061946 
L 449.163329 144.899912 
L 451.306671 146.737877 
L 453.450014 148.575843 
L 455.593356 150.413808 
L 457.736699 152.251773 
L 459.880041 154.089739 
L 462.023384 155.927704 
L 464.166726 157.76567 
L 466.310069 159.603635 
L 468.453411 161.4416 
L 470.596754 163.279566 
L 472.740096 165.117531 
L 474.883439 166.955497 
L 477.026781 168.793462 
L 479.170124 170.631427 
L 481.313466 172.469393 
L 483.456809 174.307358 
L 485.600152 176.145324 
L 487.743494 177.983289 
L 489.886837 179.821254 
L 492.030179 181.65922 
L 494.173522 183.497185 
L 496.316864 185.335151 
L 498.460207 187.173116 
L 500.603549 189.011081 
L 502.746892 190.849047 
L 504.890234 192.687012 
L 507.033577 194.524978 
L 509.176919 196.362943 
L 511.320262 198.200908 
L 513.463604 200.038874 
L 515.606947 201.876839 
L 517.750289 203.714805 
L 519.893632 205.55277 
L 522.036974 207.390735 
L 524.180317 209.228701 
L 526.323659 211.066666 
L 528.467002 212.904632 
L 530.610344 214.742597 
L 532.753687 216.580562 
L 534.897029 218.418528 
L 537.040372 220.256493 
L 539.183714 222.094459 
L 541.327057 223.932424 
L 543.470399 225.770389 
L 545.613742 227.608355 
L 547.757084 229.44632 
L 549.900427 231.284286 
L 552.04377 233.122251 
L 554.187112 234.960216 
L 556.330455 236.798182 
" clip-path="url(#p3fb2c3c7cb)" style="fill: none; stroke-dasharray: 5.55,2.4; stroke-dashoffset: 0; stroke: #ff0000; stroke-width: 1.5"/>
   </g>
   <g id="patch_9">
    <path d="M 333.53 246.76 
L 333.53 27.6 
" style="fill: none; stroke: #ffffff; stroke-width: 0.8; stroke-linejoin: miter; stroke-linecap: square"/>
   </g>
   <g id="patch_10">
    <path d="M 566.94 246.76 
L 566.94 27.6 
" style="fill: none; stroke: #ffffff; stroke-width: 0.8; stroke-linejoin: miter; stroke-linecap: square"/>
   </g>
   <g id="patch_11">
    <path d="M 333.53 246.76 
L 566.94 246.76 
" style="fill: none; stroke: #ffffff; stroke-width: 0.8; stroke-linejoin: miter; stroke-linecap: square"/>
   </g>
   <g id="patch_12">
    <path d="M 333.53 27.6 
L 566.94 27.6 
" style="fill: none; stroke: #ffffff; stroke-width: 0.8; stroke-linejoin: miter; stroke-linecap: square"/>
   </g>
   <g id="text_31">
    <!-- Proportional Deductible, $\alpha = 2, \lambda = 4$ -->
    <g style="fill: #262626" transform="translate(351.535 21.6) scale(0.12 -0.12)">
     <defs>
      <path id="DejaVuSans-34" d="M 2419 4116 
L 825 1625 
L 2419 1625 
L 2419 4116 
z
M 2253 4666 
L 3047 4666 
L 3047 1625 
L 3713 1625 
L 3713 1100 
L 3047 1100 
L 3047 0 
L 2419 0 
L 2419 1100 
L 313 1100 
L 313 1709 
L 2253 4666 
z
" transform="scale(0.015625)"/>
     </defs>
     <use xlink:href="#ArialMT-50" transform="translate(0 0.015625)"/>
     <use xlink:href="#ArialMT-72" transform="translate(66.699219 0.015625)"/>
     <use xlink:href="#ArialMT-6f" transform="translate(100 0.015625)"/>
     <use xlink:href="#ArialMT-70" transform="translate(155.615234 0.015625)"/>
     <use xlink:href="#ArialMT-6f" transform="translate(211.230469 0.015625)"/>
     <use xlink:href="#ArialMT-72" transform="translate(266.845703 0.015625)"/>
     <use xlink:href="#ArialMT-74" transform="translate(300.146484 0.015625)"/>
     <use xlink:href="#ArialMT-69" transform="translate(327.929688 0.015625)"/>
     <use xlink:href="#ArialMT-6f" transform="translate(350.146484 0.015625)"/>
     <use xlink:href="#ArialMT-6e" transform="translate(405.761719 0.015625)"/>
     <use xlink:href="#ArialMT-61" transform="translate(461.376953 0.015625)"/>
     <use xlink:href="#ArialMT-6c" transform="translate(516.992188 0.015625)"/>
     <use xlink:href="#ArialMT-20" transform="translate(539.208984 0.015625)"/>
     <use xlink:href="#ArialMT-44" transform="translate(566.992188 0.015625)"/>
     <use xlink:href="#ArialMT-65" transform="translate(639.208984 0.015625)"/>
     <use xlink:href="#ArialMT-64" transform="translate(694.824219 0.015625)"/>
     <use xlink:href="#ArialMT-75" transform="translate(750.439453 0.015625)"/>
     <use xlink:href="#ArialMT-63" transform="translate(806.054688 0.015625)"/>
     <use xlink:href="#ArialMT-74" transform="translate(856.054688 0.015625)"/>
     <use xlink:href="#ArialMT-69" transform="translate(883.837891 0.015625)"/>
     <use xlink:href="#ArialMT-62" transform="translate(906.054688 0.015625)"/>
     <use xlink:href="#ArialMT-6c" transform="translate(961.669922 0.015625)"/>
     <use xlink:href="#ArialMT-65" transform="translate(983.886719 0.015625)"/>
     <use xlink:href="#ArialMT-2c" transform="translate(1039.501953 0.015625)"/>
     <use xlink:href="#ArialMT-20" transform="translate(1067.285156 0.015625)"/>
     <use xlink:href="#DejaVuSans-Oblique-3b1" transform="translate(1095.068359 0.015625)"/>
     <use xlink:href="#DejaVuSans-3d" transform="translate(1180.46875 0.015625)"/>
     <use xlink:href="#DejaVuSans-32" transform="translate(1283.740234 0.015625)"/>
     <use xlink:href="#DejaVuSans-2c" transform="translate(1347.363281 0.015625)"/>
     <use xlink:href="#DejaVuSans-Oblique-3bb" transform="translate(1398.632812 0.015625)"/>
     <use xlink:href="#DejaVuSans-3d" transform="translate(1477.294922 0.015625)"/>
     <use xlink:href="#DejaVuSans-34" transform="translate(1580.566406 0.015625)"/>
    </g>
   </g>
   <g id="legend_2">
    <g id="patch_13">
     <path d="M 481.2525 64.007812 
L 559.94 64.007812 
Q 561.94 64.007812 561.94 62.007812 
L 561.94 34.6 
Q 561.94 32.6 559.94 32.6 
L 481.2525 32.6 
Q 479.2525 32.6 479.2525 34.6 
L 479.2525 62.007812 
Q 479.2525 64.007812 481.2525 64.007812 
z
" style="fill: #eaeaf2; opacity: 0.8; stroke: #cccccc; stroke-linejoin: miter"/>
    </g>
    <g id="line2d_30">
     <path d="M 483.2525 40.257812 
L 493.2525 40.257812 
L 503.2525 40.257812 
" style="fill: none; stroke: #1f77b4; stroke-width: 1.5; stroke-linecap: round"/>
    </g>
    <g id="text_32">
     <!-- Simulation -->
     <g style="fill: #262626" transform="translate(511.2525 43.757812) scale(0.1 -0.1)">
      <use xlink:href="#ArialMT-53"/>
      <use xlink:href="#ArialMT-69" x="66.699219"/>
      <use xlink:href="#ArialMT-6d" x="88.916016"/>
      <use xlink:href="#ArialMT-75" x="172.216797"/>
      <use xlink:href="#ArialMT-6c" x="227.832031"/>
      <use xlink:href="#ArialMT-61" x="250.048828"/>
      <use xlink:href="#ArialMT-74" x="305.664062"/>
      <use xlink:href="#ArialMT-69" x="333.447266"/>
      <use xlink:href="#ArialMT-6f" x="355.664062"/>
      <use xlink:href="#ArialMT-6e" x="411.279297"/>
     </g>
    </g>
    <g id="line2d_31">
     <path d="M 483.2525 54.403125 
L 493.2525 54.403125 
L 503.2525 54.403125 
" style="fill: none; stroke-dasharray: 5.55,2.4; stroke-dashoffset: 0; stroke: #ff0000; stroke-width: 1.5"/>
    </g>
    <g id="text_33">
     <!-- Analytical -->
     <g style="fill: #262626" transform="translate(511.2525 57.903125) scale(0.1 -0.1)">
      <use xlink:href="#ArialMT-41"/>
      <use xlink:href="#ArialMT-6e" x="66.699219"/>
      <use xlink:href="#ArialMT-61" x="122.314453"/>
      <use xlink:href="#ArialMT-6c" x="177.929688"/>
      <use xlink:href="#ArialMT-79" x="200.146484"/>
      <use xlink:href="#ArialMT-74" x="250.146484"/>
      <use xlink:href="#ArialMT-69" x="277.929688"/>
      <use xlink:href="#ArialMT-63" x="300.146484"/>
      <use xlink:href="#ArialMT-61" x="350.146484"/>
      <use xlink:href="#ArialMT-6c" x="405.761719"/>
     </g>
    </g>
   </g>
  </g>
  <g id="axes_3">
   <g id="patch_14">
    <path d="M 619.79 246.76 
L 853.2 246.76 
L 853.2 27.6 
L 619.79 27.6 
z
" style="fill: #eaeaf2"/>
   </g>
   <g id="matplotlib.axis_5">
    <g id="xtick_13">
     <g id="line2d_32">
      <path d="M 630.399545 246.76 
L 630.399545 27.6 
" clip-path="url(#p60af98bc76)" style="fill: none; stroke: #ffffff; stroke-width: 0.8; stroke-linecap: round"/>
     </g>
     <g id="text_34">
      <!-- 0.0 -->
      <g style="fill: #262626" transform="translate(623.449545 260.917812) scale(0.1 -0.1)">
       <use xlink:href="#ArialMT-30"/>
       <use xlink:href="#ArialMT-2e" x="55.615234"/>
       <use xlink:href="#ArialMT-30" x="83.398438"/>
      </g>
     </g>
    </g>
    <g id="xtick_14">
     <g id="line2d_33">
      <path d="M 672.837727 246.76 
L 672.837727 27.6 
" clip-path="url(#p60af98bc76)" style="fill: none; stroke: #ffffff; stroke-width: 0.8; stroke-linecap: round"/>
     </g>
     <g id="text_35">
      <!-- 0.2 -->
      <g style="fill: #262626" transform="translate(665.887727 260.917812) scale(0.1 -0.1)">
       <use xlink:href="#ArialMT-30"/>
       <use xlink:href="#ArialMT-2e" x="55.615234"/>
       <use xlink:href="#ArialMT-32" x="83.398438"/>
      </g>
     </g>
    </g>
    <g id="xtick_15">
     <g id="line2d_34">
      <path d="M 715.275909 246.76 
L 715.275909 27.6 
" clip-path="url(#p60af98bc76)" style="fill: none; stroke: #ffffff; stroke-width: 0.8; stroke-linecap: round"/>
     </g>
     <g id="text_36">
      <!-- 0.4 -->
      <g style="fill: #262626" transform="translate(708.325909 260.917812) scale(0.1 -0.1)">
       <use xlink:href="#ArialMT-30"/>
       <use xlink:href="#ArialMT-2e" x="55.615234"/>
       <use xlink:href="#ArialMT-34" x="83.398438"/>
      </g>
     </g>
    </g>
    <g id="xtick_16">
     <g id="line2d_35">
      <path d="M 757.714091 246.76 
L 757.714091 27.6 
" clip-path="url(#p60af98bc76)" style="fill: none; stroke: #ffffff; stroke-width: 0.8; stroke-linecap: round"/>
     </g>
     <g id="text_37">
      <!-- 0.6 -->
      <g style="fill: #262626" transform="translate(750.764091 260.917812) scale(0.1 -0.1)">
       <use xlink:href="#ArialMT-30"/>
       <use xlink:href="#ArialMT-2e" x="55.615234"/>
       <use xlink:href="#ArialMT-36" x="83.398438"/>
      </g>
     </g>
    </g>
    <g id="xtick_17">
     <g id="line2d_36">
      <path d="M 800.152273 246.76 
L 800.152273 27.6 
" clip-path="url(#p60af98bc76)" style="fill: none; stroke: #ffffff; stroke-width: 0.8; stroke-linecap: round"/>
     </g>
     <g id="text_38">
      <!-- 0.8 -->
      <g style="fill: #262626" transform="translate(793.202273 260.917812) scale(0.1 -0.1)">
       <use xlink:href="#ArialMT-30"/>
       <use xlink:href="#ArialMT-2e" x="55.615234"/>
       <use xlink:href="#ArialMT-38" x="83.398438"/>
      </g>
     </g>
    </g>
    <g id="xtick_18">
     <g id="line2d_37">
      <path d="M 842.590455 246.76 
L 842.590455 27.6 
" clip-path="url(#p60af98bc76)" style="fill: none; stroke: #ffffff; stroke-width: 0.8; stroke-linecap: round"/>
     </g>
     <g id="text_39">
      <!-- 1.0 -->
      <g style="fill: #262626" transform="translate(835.640455 260.917812) scale(0.1 -0.1)">
       <use xlink:href="#ArialMT-31"/>
       <use xlink:href="#ArialMT-2e" x="55.615234"/>
       <use xlink:href="#ArialMT-30" x="83.398438"/>
      </g>
     </g>
    </g>
    <g id="text_40">
     <!-- $d$ -->
     <g style="fill: #262626" transform="translate(733.295 274.063125) scale(0.1 -0.1)">
      <use xlink:href="#DejaVuSans-Oblique-64" transform="translate(0 0.015625)"/>
     </g>
    </g>
   </g>
   <g id="matplotlib.axis_6">
    <g id="ytick_12">
     <g id="line2d_38">
      <path d="M 619.79 236.798182 
L 853.2 236.798182 
" clip-path="url(#p60af98bc76)" style="fill: none; stroke: #ffffff; stroke-width: 0.8; stroke-linecap: round"/>
     </g>
     <g id="text_41">
      <!-- 0.00 -->
      <g style="fill: #262626" transform="translate(593.329063 240.377088) scale(0.1 -0.1)">
       <use xlink:href="#ArialMT-30"/>
       <use xlink:href="#ArialMT-2e" x="55.615234"/>
       <use xlink:href="#ArialMT-30" x="83.398438"/>
       <use xlink:href="#ArialMT-30" x="139.013672"/>
      </g>
     </g>
    </g>
    <g id="ytick_13">
     <g id="line2d_39">
      <path d="M 619.79 211.893636 
L 853.2 211.893636 
" clip-path="url(#p60af98bc76)" style="fill: none; stroke: #ffffff; stroke-width: 0.8; stroke-linecap: round"/>
     </g>
     <g id="text_42">
      <!-- 0.25 -->
      <g style="fill: #262626" transform="translate(593.329063 215.472543) scale(0.1 -0.1)">
       <defs>
        <path id="ArialMT-35" d="M 266 1200 
L 856 1250 
Q 922 819 1161 601 
Q 1400 384 1738 384 
Q 2144 384 2425 690 
Q 2706 997 2706 1503 
Q 2706 1984 2436 2262 
Q 2166 2541 1728 2541 
Q 1456 2541 1237 2417 
Q 1019 2294 894 2097 
L 366 2166 
L 809 4519 
L 3088 4519 
L 3088 3981 
L 1259 3981 
L 1013 2750 
Q 1425 3038 1878 3038 
Q 2478 3038 2890 2622 
Q 3303 2206 3303 1553 
Q 3303 931 2941 478 
Q 2500 -78 1738 -78 
Q 1113 -78 717 272 
Q 322 622 266 1200 
z
" transform="scale(0.015625)"/>
       </defs>
       <use xlink:href="#ArialMT-30"/>
       <use xlink:href="#ArialMT-2e" x="55.615234"/>
       <use xlink:href="#ArialMT-32" x="83.398438"/>
       <use xlink:href="#ArialMT-35" x="139.013672"/>
      </g>
     </g>
    </g>
    <g id="ytick_14">
     <g id="line2d_40">
      <path d="M 619.79 186.989091 
L 853.2 186.989091 
" clip-path="url(#p60af98bc76)" style="fill: none; stroke: #ffffff; stroke-width: 0.8; stroke-linecap: round"/>
     </g>
     <g id="text_43">
      <!-- 0.50 -->
      <g style="fill: #262626" transform="translate(593.329063 190.567997) scale(0.1 -0.1)">
       <use xlink:href="#ArialMT-30"/>
       <use xlink:href="#ArialMT-2e" x="55.615234"/>
       <use xlink:href="#ArialMT-35" x="83.398438"/>
       <use xlink:href="#ArialMT-30" x="139.013672"/>
      </g>
     </g>
    </g>
    <g id="ytick_15">
     <g id="line2d_41">
      <path d="M 619.79 162.084545 
L 853.2 162.084545 
" clip-path="url(#p60af98bc76)" style="fill: none; stroke: #ffffff; stroke-width: 0.8; stroke-linecap: round"/>
     </g>
     <g id="text_44">
      <!-- 0.75 -->
      <g style="fill: #262626" transform="translate(593.329063 165.663452) scale(0.1 -0.1)">
       <defs>
        <path id="ArialMT-37" d="M 303 3981 
L 303 4522 
L 3269 4522 
L 3269 4084 
Q 2831 3619 2401 2847 
Q 1972 2075 1738 1259 
Q 1569 684 1522 0 
L 944 0 
Q 953 541 1156 1306 
Q 1359 2072 1739 2783 
Q 2119 3494 2547 3981 
L 303 3981 
z
" transform="scale(0.015625)"/>
       </defs>
       <use xlink:href="#ArialMT-30"/>
       <use xlink:href="#ArialMT-2e" x="55.615234"/>
       <use xlink:href="#ArialMT-37" x="83.398438"/>
       <use xlink:href="#ArialMT-35" x="139.013672"/>
      </g>
     </g>
    </g>
    <g id="ytick_16">
     <g id="line2d_42">
      <path d="M 619.79 137.18 
L 853.2 137.18 
" clip-path="url(#p60af98bc76)" style="fill: none; stroke: #ffffff; stroke-width: 0.8; stroke-linecap: round"/>
     </g>
     <g id="text_45">
      <!-- 1.00 -->
      <g style="fill: #262626" transform="translate(593.329063 140.758906) scale(0.1 -0.1)">
       <use xlink:href="#ArialMT-31"/>
       <use xlink:href="#ArialMT-2e" x="55.615234"/>
       <use xlink:href="#ArialMT-30" x="83.398438"/>
       <use xlink:href="#ArialMT-30" x="139.013672"/>
      </g>
     </g>
    </g>
    <g id="ytick_17">
     <g id="line2d_43">
      <path d="M 619.79 112.275455 
L 853.2 112.275455 
" clip-path="url(#p60af98bc76)" style="fill: none; stroke: #ffffff; stroke-width: 0.8; stroke-linecap: round"/>
     </g>
     <g id="text_46">
      <!-- 1.25 -->
      <g style="fill: #262626" transform="translate(593.329063 115.854361) scale(0.1 -0.1)">
       <use xlink:href="#ArialMT-31"/>
       <use xlink:href="#ArialMT-2e" x="55.615234"/>
       <use xlink:href="#ArialMT-32" x="83.398438"/>
       <use xlink:href="#ArialMT-35" x="139.013672"/>
      </g>
     </g>
    </g>
    <g id="ytick_18">
     <g id="line2d_44">
      <path d="M 619.79 87.370909 
L 853.2 87.370909 
" clip-path="url(#p60af98bc76)" style="fill: none; stroke: #ffffff; stroke-width: 0.8; stroke-linecap: round"/>
     </g>
     <g id="text_47">
      <!-- 1.50 -->
      <g style="fill: #262626" transform="translate(593.329063 90.949815) scale(0.1 -0.1)">
       <use xlink:href="#ArialMT-31"/>
       <use xlink:href="#ArialMT-2e" x="55.615234"/>
       <use xlink:href="#ArialMT-35" x="83.398438"/>
       <use xlink:href="#ArialMT-30" x="139.013672"/>
      </g>
     </g>
    </g>
    <g id="ytick_19">
     <g id="line2d_45">
      <path d="M 619.79 62.466364 
L 853.2 62.466364 
" clip-path="url(#p60af98bc76)" style="fill: none; stroke: #ffffff; stroke-width: 0.8; stroke-linecap: round"/>
     </g>
     <g id="text_48">
      <!-- 1.75 -->
      <g style="fill: #262626" transform="translate(593.329063 66.04527) scale(0.1 -0.1)">
       <use xlink:href="#ArialMT-31"/>
       <use xlink:href="#ArialMT-2e" x="55.615234"/>
       <use xlink:href="#ArialMT-37" x="83.398438"/>
       <use xlink:href="#ArialMT-35" x="139.013672"/>
      </g>
     </g>
    </g>
    <g id="ytick_20">
     <g id="line2d_46">
      <path d="M 619.79 37.561818 
L 853.2 37.561818 
" clip-path="url(#p60af98bc76)" style="fill: none; stroke: #ffffff; stroke-width: 0.8; stroke-linecap: round"/>
     </g>
     <g id="text_49">
      <!-- 2.00 -->
      <g style="fill: #262626" transform="translate(593.329063 41.140724) scale(0.1 -0.1)">
       <use xlink:href="#ArialMT-32"/>
       <use xlink:href="#ArialMT-2e" x="55.615234"/>
       <use xlink:href="#ArialMT-30" x="83.398438"/>
       <use xlink:href="#ArialMT-30" x="139.013672"/>
      </g>
     </g>
    </g>
    <g id="text_50">
     <!-- $\mathbb{E}(h(x))$ -->
     <g style="fill: #262626" transform="translate(587.341563 154.33) rotate(-90) scale(0.1 -0.1)">
      <use xlink:href="#STIXNonUnicode-Italic-e156" transform="translate(0 0.015625)"/>
      <use xlink:href="#DejaVuSans-28" transform="translate(63.899994 0.015625)"/>
      <use xlink:href="#DejaVuSans-Oblique-68" transform="translate(102.913666 0.015625)"/>
      <use xlink:href="#DejaVuSans-28" transform="translate(166.292572 0.015625)"/>
      <use xlink:href="#DejaVuSans-Oblique-78" transform="translate(205.306244 0.015625)"/>
      <use xlink:href="#DejaVuSans-29" transform="translate(264.485931 0.015625)"/>
      <use xlink:href="#DejaVuSans-29" transform="translate(303.499603 0.015625)"/>
     </g>
    </g>
   </g>
   <g id="line2d_47">
    <path d="M 630.399545 41.120794 
L 632.542888 38.303784 
L 634.68623 44.855127 
L 636.829573 49.357538 
L 638.972916 49.056337 
L 641.116258 44.986968 
L 643.259601 44.960287 
L 645.402943 47.161942 
L 647.546286 51.457639 
L 649.689628 53.698528 
L 651.832971 60.924822 
L 653.976313 60.294179 
L 656.119656 59.147848 
L 658.262998 63.475781 
L 660.406341 67.288005 
L 662.549683 68.111101 
L 664.693026 68.991292 
L 666.836368 70.303671 
L 668.979711 72.06571 
L 671.123053 75.305942 
L 673.266396 75.467705 
L 675.409738 76.750156 
L 677.553081 81.698037 
L 679.696423 84.677756 
L 681.839766 86.780867 
L 683.983108 85.482359 
L 686.126451 91.002536 
L 688.269793 95.835137 
L 690.413136 94.061627 
L 692.556478 96.577699 
L 694.699821 101.198021 
L 696.843163 99.484948 
L 698.986506 103.307303 
L 701.129848 99.129417 
L 703.273191 110.683672 
L 705.416534 113.45468 
L 707.559876 110.224309 
L 709.703219 110.354487 
L 711.846561 115.654729 
L 713.989904 114.571803 
L 716.133246 117.473229 
L 718.276589 119.625581 
L 720.419931 127.807116 
L 722.563274 122.638986 
L 724.706616 130.748626 
L 726.849959 125.732645 
L 728.993301 130.794593 
L 731.136644 135.358323 
L 733.279986 132.532346 
L 735.423329 140.613604 
L 737.566671 139.079745 
L 739.710014 140.817196 
L 741.853356 139.006145 
L 743.996699 144.175372 
L 746.140041 147.533138 
L 748.283384 146.070987 
L 750.426726 149.848925 
L 752.570069 151.791128 
L 754.713411 154.269147 
L 756.856754 155.175567 
L 759.000096 159.341648 
L 761.143439 157.644687 
L 763.286781 160.788135 
L 765.430124 165.846901 
L 767.573466 165.983401 
L 769.716809 168.903569 
L 771.860152 173.054525 
L 774.003494 170.581634 
L 776.146837 176.295504 
L 778.290179 177.20269 
L 780.433522 177.433139 
L 782.576864 179.96632 
L 784.720207 183.16021 
L 786.863549 186.801371 
L 789.006892 186.710626 
L 791.150234 187.165477 
L 793.293577 190.918528 
L 795.436919 192.937754 
L 797.580262 193.738396 
L 799.723604 196.964458 
L 801.866947 198.714272 
L 804.010289 201.141382 
L 806.153632 202.456217 
L 808.296974 204.623569 
L 810.440317 206.457002 
L 812.583659 208.165337 
L 814.727002 211.573997 
L 816.870344 212.81319 
L 819.013687 214.330999 
L 821.157029 216.326432 
L 823.300372 218.14415 
L 825.443714 220.72662 
L 827.587057 222.739906 
L 829.730399 224.657678 
L 831.873742 226.802946 
L 834.017084 228.701512 
L 836.160427 230.759063 
L 838.30377 232.783602 
L 840.447112 234.770352 
L 842.590455 236.798182 
" clip-path="url(#p60af98bc76)" style="fill: none; stroke: #1f77b4; stroke-width: 1.5; stroke-linecap: round"/>
   </g>
   <g id="line2d_48">
    <path d="M 630.399545 37.561818 
L 632.542888 39.574307 
L 634.68623 41.586795 
L 636.829573 43.599284 
L 638.972916 45.611772 
L 641.116258 47.624261 
L 643.259601 49.636749 
L 645.402943 51.649238 
L 647.546286 53.661726 
L 649.689628 55.674215 
L 651.832971 57.686703 
L 653.976313 59.699192 
L 656.119656 61.71168 
L 658.262998 63.724169 
L 660.406341 65.736657 
L 662.549683 67.749146 
L 664.693026 69.761635 
L 666.836368 71.774123 
L 668.979711 73.786612 
L 671.123053 75.7991 
L 673.266396 77.811589 
L 675.409738 79.824077 
L 677.553081 81.836566 
L 679.696423 83.849054 
L 681.839766 85.861543 
L 683.983108 87.874031 
L 686.126451 89.88652 
L 688.269793 91.899008 
L 690.413136 93.911497 
L 692.556478 95.923985 
L 694.699821 97.936474 
L 696.843163 99.948962 
L 698.986506 101.961451 
L 701.129848 103.973939 
L 703.273191 105.986428 
L 705.416534 107.998916 
L 707.559876 110.011405 
L 709.703219 112.023893 
L 711.846561 114.036382 
L 713.989904 116.048871 
L 716.133246 118.061359 
L 718.276589 120.073848 
L 720.419931 122.086336 
L 722.563274 124.098825 
L 724.706616 126.111313 
L 726.849959 128.123802 
L 728.993301 130.13629 
L 731.136644 132.148779 
L 733.279986 134.161267 
L 735.423329 136.173756 
L 737.566671 138.186244 
L 739.710014 140.198733 
L 741.853356 142.211221 
L 743.996699 144.22371 
L 746.140041 146.236198 
L 748.283384 148.248687 
L 750.426726 150.261175 
L 752.570069 152.273664 
L 754.713411 154.286152 
L 756.856754 156.298641 
L 759.000096 158.311129 
L 761.143439 160.323618 
L 763.286781 162.336107 
L 765.430124 164.348595 
L 767.573466 166.361084 
L 769.716809 168.373572 
L 771.860152 170.386061 
L 774.003494 172.398549 
L 776.146837 174.411038 
L 778.290179 176.423526 
L 780.433522 178.436015 
L 782.576864 180.448503 
L 784.720207 182.460992 
L 786.863549 184.47348 
L 789.006892 186.485969 
L 791.150234 188.498457 
L 793.293577 190.510946 
L 795.436919 192.523434 
L 797.580262 194.535923 
L 799.723604 196.548411 
L 801.866947 198.5609 
L 804.010289 200.573388 
L 806.153632 202.585877 
L 808.296974 204.598365 
L 810.440317 206.610854 
L 812.583659 208.623343 
L 814.727002 210.635831 
L 816.870344 212.64832 
L 819.013687 214.660808 
L 821.157029 216.673297 
L 823.300372 218.685785 
L 825.443714 220.698274 
L 827.587057 222.710762 
L 829.730399 224.723251 
L 831.873742 226.735739 
L 834.017084 228.748228 
L 836.160427 230.760716 
L 838.30377 232.773205 
L 840.447112 234.785693 
L 842.590455 236.798182 
" clip-path="url(#p60af98bc76)" style="fill: none; stroke-dasharray: 5.55,2.4; stroke-dashoffset: 0; stroke: #ff0000; stroke-width: 1.5"/>
   </g>
   <g id="patch_15">
    <path d="M 619.79 246.76 
L 619.79 27.6 
" style="fill: none; stroke: #ffffff; stroke-width: 0.8; stroke-linejoin: miter; stroke-linecap: square"/>
   </g>
   <g id="patch_16">
    <path d="M 853.2 246.76 
L 853.2 27.6 
" style="fill: none; stroke: #ffffff; stroke-width: 0.8; stroke-linejoin: miter; stroke-linecap: square"/>
   </g>
   <g id="patch_17">
    <path d="M 619.79 246.76 
L 853.2 246.76 
" style="fill: none; stroke: #ffffff; stroke-width: 0.8; stroke-linejoin: miter; stroke-linecap: square"/>
   </g>
   <g id="patch_18">
    <path d="M 619.79 27.6 
L 853.2 27.6 
" style="fill: none; stroke: #ffffff; stroke-width: 0.8; stroke-linejoin: miter; stroke-linecap: square"/>
   </g>
   <g id="text_51">
    <!-- Proportional Deductible, $\alpha = 3, \lambda = 4$ -->
    <g style="fill: #262626" transform="translate(637.795 21.6) scale(0.12 -0.12)">
     <defs>
      <path id="DejaVuSans-33" d="M 2597 2516 
Q 3050 2419 3304 2112 
Q 3559 1806 3559 1356 
Q 3559 666 3084 287 
Q 2609 -91 1734 -91 
Q 1441 -91 1130 -33 
Q 819 25 488 141 
L 488 750 
Q 750 597 1062 519 
Q 1375 441 1716 441 
Q 2309 441 2620 675 
Q 2931 909 2931 1356 
Q 2931 1769 2642 2001 
Q 2353 2234 1838 2234 
L 1294 2234 
L 1294 2753 
L 1863 2753 
Q 2328 2753 2575 2939 
Q 2822 3125 2822 3475 
Q 2822 3834 2567 4026 
Q 2313 4219 1838 4219 
Q 1578 4219 1281 4162 
Q 984 4106 628 3988 
L 628 4550 
Q 988 4650 1302 4700 
Q 1616 4750 1894 4750 
Q 2613 4750 3031 4423 
Q 3450 4097 3450 3541 
Q 3450 3153 3228 2886 
Q 3006 2619 2597 2516 
z
" transform="scale(0.015625)"/>
     </defs>
     <use xlink:href="#ArialMT-50" transform="translate(0 0.015625)"/>
     <use xlink:href="#ArialMT-72" transform="translate(66.699219 0.015625)"/>
     <use xlink:href="#ArialMT-6f" transform="translate(100 0.015625)"/>
     <use xlink:href="#ArialMT-70" transform="translate(155.615234 0.015625)"/>
     <use xlink:href="#ArialMT-6f" transform="translate(211.230469 0.015625)"/>
     <use xlink:href="#ArialMT-72" transform="translate(266.845703 0.015625)"/>
     <use xlink:href="#ArialMT-74" transform="translate(300.146484 0.015625)"/>
     <use xlink:href="#ArialMT-69" transform="translate(327.929688 0.015625)"/>
     <use xlink:href="#ArialMT-6f" transform="translate(350.146484 0.015625)"/>
     <use xlink:href="#ArialMT-6e" transform="translate(405.761719 0.015625)"/>
     <use xlink:href="#ArialMT-61" transform="translate(461.376953 0.015625)"/>
     <use xlink:href="#ArialMT-6c" transform="translate(516.992188 0.015625)"/>
     <use xlink:href="#ArialMT-20" transform="translate(539.208984 0.015625)"/>
     <use xlink:href="#ArialMT-44" transform="translate(566.992188 0.015625)"/>
     <use xlink:href="#ArialMT-65" transform="translate(639.208984 0.015625)"/>
     <use xlink:href="#ArialMT-64" transform="translate(694.824219 0.015625)"/>
     <use xlink:href="#ArialMT-75" transform="translate(750.439453 0.015625)"/>
     <use xlink:href="#ArialMT-63" transform="translate(806.054688 0.015625)"/>
     <use xlink:href="#ArialMT-74" transform="translate(856.054688 0.015625)"/>
     <use xlink:href="#ArialMT-69" transform="translate(883.837891 0.015625)"/>
     <use xlink:href="#ArialMT-62" transform="translate(906.054688 0.015625)"/>
     <use xlink:href="#ArialMT-6c" transform="translate(961.669922 0.015625)"/>
     <use xlink:href="#ArialMT-65" transform="translate(983.886719 0.015625)"/>
     <use xlink:href="#ArialMT-2c" transform="translate(1039.501953 0.015625)"/>
     <use xlink:href="#ArialMT-20" transform="translate(1067.285156 0.015625)"/>
     <use xlink:href="#DejaVuSans-Oblique-3b1" transform="translate(1095.068359 0.015625)"/>
     <use xlink:href="#DejaVuSans-3d" transform="translate(1180.46875 0.015625)"/>
     <use xlink:href="#DejaVuSans-33" transform="translate(1283.740234 0.015625)"/>
     <use xlink:href="#DejaVuSans-2c" transform="translate(1347.363281 0.015625)"/>
     <use xlink:href="#DejaVuSans-Oblique-3bb" transform="translate(1398.632812 0.015625)"/>
     <use xlink:href="#DejaVuSans-3d" transform="translate(1477.294922 0.015625)"/>
     <use xlink:href="#DejaVuSans-34" transform="translate(1580.566406 0.015625)"/>
    </g>
   </g>
   <g id="legend_3">
    <g id="patch_19">
     <path d="M 767.5125 64.007812 
L 846.2 64.007812 
Q 848.2 64.007812 848.2 62.007812 
L 848.2 34.6 
Q 848.2 32.6 846.2 32.6 
L 767.5125 32.6 
Q 765.5125 32.6 765.5125 34.6 
L 765.5125 62.007812 
Q 765.5125 64.007812 767.5125 64.007812 
z
" style="fill: #eaeaf2; opacity: 0.8; stroke: #cccccc; stroke-linejoin: miter"/>
    </g>
    <g id="line2d_49">
     <path d="M 769.5125 40.257812 
L 779.5125 40.257812 
L 789.5125 40.257812 
" style="fill: none; stroke: #1f77b4; stroke-width: 1.5; stroke-linecap: round"/>
    </g>
    <g id="text_52">
     <!-- Simulation -->
     <g style="fill: #262626" transform="translate(797.5125 43.757812) scale(0.1 -0.1)">
      <use xlink:href="#ArialMT-53"/>
      <use xlink:href="#ArialMT-69" x="66.699219"/>
      <use xlink:href="#ArialMT-6d" x="88.916016"/>
      <use xlink:href="#ArialMT-75" x="172.216797"/>
      <use xlink:href="#ArialMT-6c" x="227.832031"/>
      <use xlink:href="#ArialMT-61" x="250.048828"/>
      <use xlink:href="#ArialMT-74" x="305.664062"/>
      <use xlink:href="#ArialMT-69" x="333.447266"/>
      <use xlink:href="#ArialMT-6f" x="355.664062"/>
      <use xlink:href="#ArialMT-6e" x="411.279297"/>
     </g>
    </g>
    <g id="line2d_50">
     <path d="M 769.5125 54.403125 
L 779.5125 54.403125 
L 789.5125 54.403125 
" style="fill: none; stroke-dasharray: 5.55,2.4; stroke-dashoffset: 0; stroke: #ff0000; stroke-width: 1.5"/>
    </g>
    <g id="text_53">
     <!-- Analytical -->
     <g style="fill: #262626" transform="translate(797.5125 57.903125) scale(0.1 -0.1)">
      <use xlink:href="#ArialMT-41"/>
      <use xlink:href="#ArialMT-6e" x="66.699219"/>
      <use xlink:href="#ArialMT-61" x="122.314453"/>
      <use xlink:href="#ArialMT-6c" x="177.929688"/>
      <use xlink:href="#ArialMT-79" x="200.146484"/>
      <use xlink:href="#ArialMT-74" x="250.146484"/>
      <use xlink:href="#ArialMT-69" x="277.929688"/>
      <use xlink:href="#ArialMT-63" x="300.146484"/>
      <use xlink:href="#ArialMT-61" x="350.146484"/>
      <use xlink:href="#ArialMT-6c" x="405.761719"/>
     </g>
    </g>
   </g>
  </g>
 </g>
 <defs>
  <clipPath id="p93a21711ab">
   <rect x="47.27" y="27.6" width="233.41" height="219.16"/>
  </clipPath>
  <clipPath id="p3fb2c3c7cb">
   <rect x="333.53" y="27.6" width="233.41" height="219.16"/>
  </clipPath>
  <clipPath id="p60af98bc76">
   <rect x="619.79" y="27.6" width="233.41" height="219.16"/>
  </clipPath>
 </defs>
</svg>
