<?xml version="1.0" encoding="utf-8" standalone="no"?>
<!DOCTYPE svg PUBLIC "-//W3C//DTD SVG 1.1//EN"
  "http://www.w3.org/Graphics/SVG/1.1/DTD/svg11.dtd">
<svg xmlns:xlink="http://www.w3.org/1999/xlink" width="720pt" height="576pt" viewBox="0 0 720 576" xmlns="http://www.w3.org/2000/svg" version="1.1">
 <metadata>
  <rdf:RDF xmlns:dc="http://purl.org/dc/elements/1.1/" xmlns:cc="http://creativecommons.org/ns#" xmlns:rdf="http://www.w3.org/1999/02/22-rdf-syntax-ns#">
   <cc:Work>
    <dc:type rdf:resource="http://purl.org/dc/dcmitype/StillImage"/>
    <dc:date>2025-02-02T10:27:48.389440</dc:date>
    <dc:format>image/svg+xml</dc:format>
    <dc:creator>
     <cc:Agent>
      <dc:title>Matplotlib v3.10.0, https://matplotlib.org/</dc:title>
     </cc:Agent>
    </dc:creator>
   </cc:Work>
  </rdf:RDF>
 </metadata>
 <defs>
  <style type="text/css">*{stroke-linejoin: round; stroke-linecap: butt}</style>
 </defs>
 <g id="figure_1">
  <g id="patch_1">
   <path d="M 0 576 
L 720 576 
L 720 0 
L 0 0 
z
" style="fill: #ffffff"/>
  </g>
  <g id="axes_1">
   <g id="patch_2">
    <path d="M 48.71 251.152 
L 354.6 251.152 
L 354.6 28.32 
L 48.71 28.32 
z
" style="fill: #ffffff"/>
   </g>
   <g id="matplotlib.axis_1">
    <g id="xtick_1">
     <g id="line2d_1">
      <path d="M 62.614091 251.152 
L 62.614091 28.32 
" clip-path="url(#p55e56aada6)" style="fill: none; stroke: #cccccc; stroke-width: 0.8; stroke-linecap: round"/>
     </g>
     <g id="text_1">
      <!-- 0 -->
      <g style="fill: #262626" transform="translate(59.833622 265.309812) scale(0.1 -0.1)">
       <defs>
        <path id="ArialMT-30" d="M 266 2259 
Q 266 3072 433 3567 
Q 600 4063 929 4331 
Q 1259 4600 1759 4600 
Q 2128 4600 2406 4451 
Q 2684 4303 2865 4023 
Q 3047 3744 3150 3342 
Q 3253 2941 3253 2259 
Q 3253 1453 3087 958 
Q 2922 463 2592 192 
Q 2263 -78 1759 -78 
Q 1097 -78 719 397 
Q 266 969 266 2259 
z
M 844 2259 
Q 844 1131 1108 757 
Q 1372 384 1759 384 
Q 2147 384 2411 759 
Q 2675 1134 2675 2259 
Q 2675 3391 2411 3762 
Q 2147 4134 1753 4134 
Q 1366 4134 1134 3806 
Q 844 3388 844 2259 
z
" transform="scale(0.015625)"/>
       </defs>
       <use xlink:href="#ArialMT-30"/>
      </g>
     </g>
    </g>
    <g id="xtick_2">
     <g id="line2d_2">
      <path d="M 118.792236 251.152 
L 118.792236 28.32 
" clip-path="url(#p55e56aada6)" style="fill: none; stroke: #cccccc; stroke-width: 0.8; stroke-linecap: round"/>
     </g>
     <g id="text_2">
      <!-- 20 -->
      <g style="fill: #262626" transform="translate(113.231298 265.309812) scale(0.1 -0.1)">
       <defs>
        <path id="ArialMT-32" d="M 3222 541 
L 3222 0 
L 194 0 
Q 188 203 259 391 
Q 375 700 629 1000 
Q 884 1300 1366 1694 
Q 2113 2306 2375 2664 
Q 2638 3022 2638 3341 
Q 2638 3675 2398 3904 
Q 2159 4134 1775 4134 
Q 1369 4134 1125 3890 
Q 881 3647 878 3216 
L 300 3275 
Q 359 3922 746 4261 
Q 1134 4600 1788 4600 
Q 2447 4600 2831 4234 
Q 3216 3869 3216 3328 
Q 3216 3053 3103 2787 
Q 2991 2522 2730 2228 
Q 2469 1934 1863 1422 
Q 1356 997 1212 845 
Q 1069 694 975 541 
L 3222 541 
z
" transform="scale(0.015625)"/>
       </defs>
       <use xlink:href="#ArialMT-32"/>
       <use xlink:href="#ArialMT-30" transform="translate(55.615234 0)"/>
      </g>
     </g>
    </g>
    <g id="xtick_3">
     <g id="line2d_3">
      <path d="M 174.970381 251.152 
L 174.970381 28.32 
" clip-path="url(#p55e56aada6)" style="fill: none; stroke: #cccccc; stroke-width: 0.8; stroke-linecap: round"/>
     </g>
     <g id="text_3">
      <!-- 40 -->
      <g style="fill: #262626" transform="translate(169.409444 265.309812) scale(0.1 -0.1)">
       <defs>
        <path id="ArialMT-34" d="M 2069 0 
L 2069 1097 
L 81 1097 
L 81 1613 
L 2172 4581 
L 2631 4581 
L 2631 1613 
L 3250 1613 
L 3250 1097 
L 2631 1097 
L 2631 0 
L 2069 0 
z
M 2069 1613 
L 2069 3678 
L 634 1613 
L 2069 1613 
z
" transform="scale(0.015625)"/>
       </defs>
       <use xlink:href="#ArialMT-34"/>
       <use xlink:href="#ArialMT-30" transform="translate(55.615234 0)"/>
      </g>
     </g>
    </g>
    <g id="xtick_4">
     <g id="line2d_4">
      <path d="M 231.148526 251.152 
L 231.148526 28.32 
" clip-path="url(#p55e56aada6)" style="fill: none; stroke: #cccccc; stroke-width: 0.8; stroke-linecap: round"/>
     </g>
     <g id="text_4">
      <!-- 60 -->
      <g style="fill: #262626" transform="translate(225.587589 265.309812) scale(0.1 -0.1)">
       <defs>
        <path id="ArialMT-36" d="M 3184 3459 
L 2625 3416 
Q 2550 3747 2413 3897 
Q 2184 4138 1850 4138 
Q 1581 4138 1378 3988 
Q 1113 3794 959 3422 
Q 806 3050 800 2363 
Q 1003 2672 1297 2822 
Q 1591 2972 1913 2972 
Q 2475 2972 2870 2558 
Q 3266 2144 3266 1488 
Q 3266 1056 3080 686 
Q 2894 316 2569 119 
Q 2244 -78 1831 -78 
Q 1128 -78 684 439 
Q 241 956 241 2144 
Q 241 3472 731 4075 
Q 1159 4600 1884 4600 
Q 2425 4600 2770 4297 
Q 3116 3994 3184 3459 
z
M 888 1484 
Q 888 1194 1011 928 
Q 1134 663 1356 523 
Q 1578 384 1822 384 
Q 2178 384 2434 671 
Q 2691 959 2691 1453 
Q 2691 1928 2437 2201 
Q 2184 2475 1800 2475 
Q 1419 2475 1153 2201 
Q 888 1928 888 1484 
z
" transform="scale(0.015625)"/>
       </defs>
       <use xlink:href="#ArialMT-36"/>
       <use xlink:href="#ArialMT-30" transform="translate(55.615234 0)"/>
      </g>
     </g>
    </g>
    <g id="xtick_5">
     <g id="line2d_5">
      <path d="M 287.326671 251.152 
L 287.326671 28.32 
" clip-path="url(#p55e56aada6)" style="fill: none; stroke: #cccccc; stroke-width: 0.8; stroke-linecap: round"/>
     </g>
     <g id="text_5">
      <!-- 80 -->
      <g style="fill: #262626" transform="translate(281.765734 265.309812) scale(0.1 -0.1)">
       <defs>
        <path id="ArialMT-38" d="M 1131 2484 
Q 781 2613 612 2850 
Q 444 3088 444 3419 
Q 444 3919 803 4259 
Q 1163 4600 1759 4600 
Q 2359 4600 2725 4251 
Q 3091 3903 3091 3403 
Q 3091 3084 2923 2848 
Q 2756 2613 2416 2484 
Q 2838 2347 3058 2040 
Q 3278 1734 3278 1309 
Q 3278 722 2862 322 
Q 2447 -78 1769 -78 
Q 1091 -78 675 323 
Q 259 725 259 1325 
Q 259 1772 486 2073 
Q 713 2375 1131 2484 
z
M 1019 3438 
Q 1019 3113 1228 2906 
Q 1438 2700 1772 2700 
Q 2097 2700 2305 2904 
Q 2513 3109 2513 3406 
Q 2513 3716 2298 3927 
Q 2084 4138 1766 4138 
Q 1444 4138 1231 3931 
Q 1019 3725 1019 3438 
z
M 838 1322 
Q 838 1081 952 856 
Q 1066 631 1291 507 
Q 1516 384 1775 384 
Q 2178 384 2440 643 
Q 2703 903 2703 1303 
Q 2703 1709 2433 1975 
Q 2163 2241 1756 2241 
Q 1359 2241 1098 1978 
Q 838 1716 838 1322 
z
" transform="scale(0.015625)"/>
       </defs>
       <use xlink:href="#ArialMT-38"/>
       <use xlink:href="#ArialMT-30" transform="translate(55.615234 0)"/>
      </g>
     </g>
    </g>
    <g id="xtick_6">
     <g id="line2d_6">
      <path d="M 343.504816 251.152 
L 343.504816 28.32 
" clip-path="url(#p55e56aada6)" style="fill: none; stroke: #cccccc; stroke-width: 0.8; stroke-linecap: round"/>
     </g>
     <g id="text_6">
      <!-- 100 -->
      <g style="fill: #262626" transform="translate(335.16341 265.309812) scale(0.1 -0.1)">
       <defs>
        <path id="ArialMT-31" d="M 2384 0 
L 1822 0 
L 1822 3584 
Q 1619 3391 1289 3197 
Q 959 3003 697 2906 
L 697 3450 
Q 1169 3672 1522 3987 
Q 1875 4303 2022 4600 
L 2384 4600 
L 2384 0 
z
" transform="scale(0.015625)"/>
       </defs>
       <use xlink:href="#ArialMT-31"/>
       <use xlink:href="#ArialMT-30" transform="translate(55.615234 0)"/>
       <use xlink:href="#ArialMT-30" transform="translate(111.230469 0)"/>
      </g>
     </g>
    </g>
    <g id="text_7">
     <!-- $u_0$ -->
     <g style="fill: #262626" transform="translate(196.105 278.455125) scale(0.1 -0.1)">
      <defs>
       <path id="DejaVuSans-Oblique-75" d="M 428 1388 
L 838 3500 
L 1416 3500 
L 1006 1409 
Q 975 1256 961 1147 
Q 947 1038 947 966 
Q 947 700 1109 554 
Q 1272 409 1569 409 
Q 2031 409 2368 721 
Q 2706 1034 2809 1563 
L 3194 3500 
L 3769 3500 
L 3091 0 
L 2516 0 
L 2631 550 
Q 2388 244 2052 76 
Q 1716 -91 1338 -91 
Q 878 -91 622 161 
Q 366 413 366 863 
Q 366 956 381 1097 
Q 397 1238 428 1388 
z
" transform="scale(0.015625)"/>
       <path id="DejaVuSans-30" d="M 2034 4250 
Q 1547 4250 1301 3770 
Q 1056 3291 1056 2328 
Q 1056 1369 1301 889 
Q 1547 409 2034 409 
Q 2525 409 2770 889 
Q 3016 1369 3016 2328 
Q 3016 3291 2770 3770 
Q 2525 4250 2034 4250 
z
M 2034 4750 
Q 2819 4750 3233 4129 
Q 3647 3509 3647 2328 
Q 3647 1150 3233 529 
Q 2819 -91 2034 -91 
Q 1250 -91 836 529 
Q 422 1150 422 2328 
Q 422 3509 836 4129 
Q 1250 4750 2034 4750 
z
" transform="scale(0.015625)"/>
      </defs>
      <use xlink:href="#DejaVuSans-Oblique-75" transform="translate(0 0.3125)"/>
      <use xlink:href="#DejaVuSans-30" transform="translate(63.378906 -16.09375) scale(0.7)"/>
     </g>
    </g>
   </g>
   <g id="matplotlib.axis_2">
    <g id="ytick_1">
     <g id="line2d_7">
      <path d="M 48.71 241.023273 
L 354.6 241.023273 
" clip-path="url(#p55e56aada6)" style="fill: none; stroke: #cccccc; stroke-width: 0.8; stroke-linecap: round"/>
     </g>
     <g id="text_8">
      <!-- 0.0 -->
      <g style="fill: #262626" transform="translate(27.81 244.602179) scale(0.1 -0.1)">
       <defs>
        <path id="ArialMT-2e" d="M 581 0 
L 581 641 
L 1222 641 
L 1222 0 
L 581 0 
z
" transform="scale(0.015625)"/>
       </defs>
       <use xlink:href="#ArialMT-30"/>
       <use xlink:href="#ArialMT-2e" transform="translate(55.615234 0)"/>
       <use xlink:href="#ArialMT-30" transform="translate(83.398438 0)"/>
      </g>
     </g>
    </g>
    <g id="ytick_2">
     <g id="line2d_8">
      <path d="M 48.71 200.508364 
L 354.6 200.508364 
" clip-path="url(#p55e56aada6)" style="fill: none; stroke: #cccccc; stroke-width: 0.8; stroke-linecap: round"/>
     </g>
     <g id="text_9">
      <!-- 0.2 -->
      <g style="fill: #262626" transform="translate(27.81 204.08727) scale(0.1 -0.1)">
       <use xlink:href="#ArialMT-30"/>
       <use xlink:href="#ArialMT-2e" transform="translate(55.615234 0)"/>
       <use xlink:href="#ArialMT-32" transform="translate(83.398438 0)"/>
      </g>
     </g>
    </g>
    <g id="ytick_3">
     <g id="line2d_9">
      <path d="M 48.71 159.993455 
L 354.6 159.993455 
" clip-path="url(#p55e56aada6)" style="fill: none; stroke: #cccccc; stroke-width: 0.8; stroke-linecap: round"/>
     </g>
     <g id="text_10">
      <!-- 0.4 -->
      <g style="fill: #262626" transform="translate(27.81 163.572361) scale(0.1 -0.1)">
       <use xlink:href="#ArialMT-30"/>
       <use xlink:href="#ArialMT-2e" transform="translate(55.615234 0)"/>
       <use xlink:href="#ArialMT-34" transform="translate(83.398438 0)"/>
      </g>
     </g>
    </g>
    <g id="ytick_4">
     <g id="line2d_10">
      <path d="M 48.71 119.478545 
L 354.6 119.478545 
" clip-path="url(#p55e56aada6)" style="fill: none; stroke: #cccccc; stroke-width: 0.8; stroke-linecap: round"/>
     </g>
     <g id="text_11">
      <!-- 0.6 -->
      <g style="fill: #262626" transform="translate(27.81 123.057452) scale(0.1 -0.1)">
       <use xlink:href="#ArialMT-30"/>
       <use xlink:href="#ArialMT-2e" transform="translate(55.615234 0)"/>
       <use xlink:href="#ArialMT-36" transform="translate(83.398438 0)"/>
      </g>
     </g>
    </g>
    <g id="ytick_5">
     <g id="line2d_11">
      <path d="M 48.71 78.963636 
L 354.6 78.963636 
" clip-path="url(#p55e56aada6)" style="fill: none; stroke: #cccccc; stroke-width: 0.8; stroke-linecap: round"/>
     </g>
     <g id="text_12">
      <!-- 0.8 -->
      <g style="fill: #262626" transform="translate(27.81 82.542543) scale(0.1 -0.1)">
       <use xlink:href="#ArialMT-30"/>
       <use xlink:href="#ArialMT-2e" transform="translate(55.615234 0)"/>
       <use xlink:href="#ArialMT-38" transform="translate(83.398438 0)"/>
      </g>
     </g>
    </g>
    <g id="ytick_6">
     <g id="line2d_12">
      <path d="M 48.71 38.448727 
L 354.6 38.448727 
" clip-path="url(#p55e56aada6)" style="fill: none; stroke: #cccccc; stroke-width: 0.8; stroke-linecap: round"/>
     </g>
     <g id="text_13">
      <!-- 1.0 -->
      <g style="fill: #262626" transform="translate(27.81 42.027634) scale(0.1 -0.1)">
       <use xlink:href="#ArialMT-31"/>
       <use xlink:href="#ArialMT-2e" transform="translate(55.615234 0)"/>
       <use xlink:href="#ArialMT-30" transform="translate(83.398438 0)"/>
      </g>
     </g>
    </g>
    <g id="text_14">
     <!-- $\psi(u_0, T)$ -->
     <g style="fill: #262626" transform="translate(21.71 158.086) rotate(-90) scale(0.1 -0.1)">
      <defs>
       <path id="DejaVuSans-Oblique-3c8" d="M 1591 -78 
Q 891 38 616 341 
Q 278 713 425 1472 
L 819 3500 
L 1400 3500 
L 1009 1494 
Q 900 922 1119 684 
Q 1313 478 1691 434 
L 2284 3500 
L 2856 3500 
L 2263 438 
Q 2681 481 2928 688 
Q 3247 950 3353 1497 
L 3741 3500 
L 4322 3500 
L 3928 1475 
Q 3775 688 3300 344 
Q 2872 34 2163 -75 
L 1919 -1331 
L 1347 -1331 
L 1591 -78 
z
" transform="scale(0.015625)"/>
       <path id="DejaVuSans-28" d="M 1984 4856 
Q 1566 4138 1362 3434 
Q 1159 2731 1159 2009 
Q 1159 1288 1364 580 
Q 1569 -128 1984 -844 
L 1484 -844 
Q 1016 -109 783 600 
Q 550 1309 550 2009 
Q 550 2706 781 3412 
Q 1013 4119 1484 4856 
L 1984 4856 
z
" transform="scale(0.015625)"/>
       <path id="DejaVuSans-2c" d="M 750 794 
L 1409 794 
L 1409 256 
L 897 -744 
L 494 -744 
L 750 256 
L 750 794 
z
" transform="scale(0.015625)"/>
       <path id="DejaVuSans-Oblique-54" d="M 378 4666 
L 4325 4666 
L 4225 4134 
L 2559 4134 
L 1759 0 
L 1125 0 
L 1925 4134 
L 275 4134 
L 378 4666 
z
" transform="scale(0.015625)"/>
       <path id="DejaVuSans-29" d="M 513 4856 
L 1013 4856 
Q 1481 4119 1714 3412 
Q 1947 2706 1947 2009 
Q 1947 1309 1714 600 
Q 1481 -109 1013 -844 
L 513 -844 
Q 928 -128 1133 580 
Q 1338 1288 1338 2009 
Q 1338 2731 1133 3434 
Q 928 4138 513 4856 
z
" transform="scale(0.015625)"/>
      </defs>
      <use xlink:href="#DejaVuSans-Oblique-3c8" transform="translate(0 0.125)"/>
      <use xlink:href="#DejaVuSans-28" transform="translate(65.966797 0.125)"/>
      <use xlink:href="#DejaVuSans-Oblique-75" transform="translate(104.980469 0.125)"/>
      <use xlink:href="#DejaVuSans-30" transform="translate(168.359375 -16.28125) scale(0.7)"/>
      <use xlink:href="#DejaVuSans-2c" transform="translate(215.629883 0.125)"/>
      <use xlink:href="#DejaVuSans-Oblique-54" transform="translate(266.899414 0.125)"/>
      <use xlink:href="#DejaVuSans-29" transform="translate(327.983398 0.125)"/>
     </g>
    </g>
   </g>
   <g id="line2d_13">
    <path d="M 62.614091 83.217702 
L 65.422998 100.233964 
L 68.231905 108.134371 
L 71.040813 115.021905 
L 73.84972 121.90944 
L 76.658627 126.36608 
L 79.467534 132.038167 
L 82.276442 135.481935 
L 85.085349 137.912829 
L 87.894256 142.166895 
L 90.703163 146.015811 
L 93.512071 148.851855 
L 96.320978 152.093047 
L 99.129885 154.118793 
L 101.938792 156.954836 
L 104.7477 158.778007 
L 107.556607 160.803753 
L 110.365514 163.842371 
L 113.174421 165.260393 
L 115.983329 166.678415 
L 118.792236 168.501585 
L 121.601143 169.919607 
L 124.410051 171.135055 
L 127.218958 173.1608 
L 130.027865 174.376247 
L 132.836772 175.996844 
L 135.64568 177.820015 
L 138.454587 179.035462 
L 141.263494 180.656058 
L 144.072401 181.871505 
L 146.881309 183.289527 
L 149.690216 184.504975 
L 152.499123 185.112698 
L 155.30803 186.935869 
L 158.116938 187.543593 
L 160.925845 188.961615 
L 163.734752 190.379636 
L 166.543659 191.189935 
L 169.352567 192.405382 
L 172.161474 193.418255 
L 174.970381 194.025978 
L 177.779288 194.836276 
L 180.588196 195.849149 
L 183.397103 196.659447 
L 186.20601 197.874895 
L 189.014917 198.280044 
L 191.823825 198.887767 
L 194.632732 199.292916 
L 197.441639 199.698065 
L 200.250546 200.103215 
L 203.059454 201.116087 
L 205.868361 201.723811 
L 208.677268 202.331535 
L 211.486175 203.141833 
L 214.295083 203.546982 
L 217.10399 203.749556 
L 219.912897 204.559855 
L 222.721804 204.559855 
L 225.530712 205.775302 
L 228.339619 206.990749 
L 231.148526 208.206196 
L 233.957433 208.81392 
L 236.766341 209.016495 
L 239.575248 209.624218 
L 242.384155 210.029367 
L 245.193062 210.434516 
L 248.00197 211.447389 
L 250.810877 211.649964 
L 253.619784 212.460262 
L 256.428691 212.662836 
L 259.237599 212.662836 
L 262.046506 213.067985 
L 264.855413 213.473135 
L 267.66432 213.878284 
L 270.473228 214.283433 
L 273.282135 214.688582 
L 276.091042 215.093731 
L 278.899949 215.49888 
L 281.708857 215.904029 
L 284.517764 216.309178 
L 287.326671 216.511753 
L 290.135579 217.119476 
L 292.944486 217.7272 
L 295.753393 217.7272 
L 298.5623 218.334924 
L 301.371208 218.740073 
L 304.180115 219.145222 
L 306.989022 219.145222 
L 309.797929 219.550371 
L 312.606837 219.752945 
L 315.415744 219.752945 
L 318.224651 220.158095 
L 321.033558 220.360669 
L 323.842466 220.765818 
L 326.651373 221.576116 
L 329.46028 221.778691 
L 332.269187 221.981265 
L 335.078095 221.981265 
L 337.887002 222.588989 
L 340.695909 222.791564 
" clip-path="url(#p55e56aada6)" style="fill: none; stroke: #1f77b4; stroke-width: 1.5; stroke-linecap: round"/>
   </g>
   <g id="line2d_14">
    <path d="M 62.614091 57.085585 
L 65.422998 62.352524 
L 68.231905 65.188567 
L 71.040813 68.227185 
L 73.84972 70.65808 
L 76.658627 73.494124 
L 79.467534 75.925018 
L 82.276442 76.735316 
L 85.085349 77.545615 
L 87.894256 79.57136 
L 90.703163 81.394531 
L 93.512071 82.407404 
L 96.320978 83.015127 
L 99.129885 84.433149 
L 101.938792 85.648596 
L 104.7477 87.269193 
L 107.556607 87.674342 
L 110.365514 89.092364 
L 113.174421 89.902662 
L 115.983329 90.71296 
L 118.792236 91.928407 
L 121.601143 93.346429 
L 124.410051 94.359302 
L 127.218958 94.967025 
L 130.027865 95.574749 
L 132.836772 97.39792 
L 135.64568 98.815942 
L 138.454587 99.423665 
L 141.263494 100.031389 
L 144.072401 100.841687 
L 146.881309 101.044262 
L 149.690216 101.651985 
L 152.499123 101.85456 
L 155.30803 102.462284 
L 158.116938 103.070007 
L 160.925845 104.285455 
L 163.734752 105.095753 
L 166.543659 106.108625 
L 169.352567 106.918924 
L 172.161474 106.918924 
L 174.970381 107.324073 
L 177.779288 107.729222 
L 180.588196 107.931796 
L 183.397103 108.742095 
L 186.20601 109.349818 
L 189.014917 110.362691 
L 191.823825 111.375564 
L 194.632732 111.780713 
L 197.441639 111.780713 
L 200.250546 111.780713 
L 203.059454 112.388436 
L 205.868361 112.388436 
L 208.677268 112.591011 
L 211.486175 113.198735 
L 214.295083 113.401309 
L 217.10399 114.009033 
L 219.912897 114.211607 
L 222.721804 115.021905 
L 225.530712 115.22448 
L 228.339619 115.832204 
L 231.148526 116.237353 
L 233.957433 116.237353 
L 236.766341 116.845076 
L 239.575248 117.655375 
L 242.384155 117.857949 
L 245.193062 118.060524 
L 248.00197 118.668247 
L 250.810877 118.870822 
L 253.619784 119.073396 
L 256.428691 119.275971 
L 259.237599 119.275971 
L 262.046506 120.086269 
L 264.855413 120.288844 
L 267.66432 120.896567 
L 270.473228 120.896567 
L 273.282135 120.896567 
L 276.091042 121.504291 
L 278.899949 121.706865 
L 281.708857 121.90944 
L 284.517764 122.112015 
L 287.326671 122.112015 
L 290.135579 122.719738 
L 292.944486 124.13776 
L 295.753393 124.340335 
L 298.5623 124.745484 
L 301.371208 124.948058 
L 304.180115 124.948058 
L 306.989022 125.150633 
L 309.797929 125.555782 
L 312.606837 125.758356 
L 315.415744 126.36608 
L 318.224651 126.771229 
L 321.033558 126.771229 
L 323.842466 126.771229 
L 326.651373 127.176378 
L 329.46028 127.176378 
L 332.269187 127.378953 
L 335.078095 127.581527 
L 337.887002 127.986676 
L 340.695909 128.189251 
" clip-path="url(#p55e56aada6)" style="fill: none; stroke: #ff7f0e; stroke-width: 1.5; stroke-linecap: round"/>
   </g>
   <g id="patch_3">
    <path d="M 48.71 251.152 
L 48.71 28.32 
" style="fill: none; stroke: #cccccc; stroke-width: 0.8; stroke-linejoin: miter; stroke-linecap: square"/>
   </g>
   <g id="patch_4">
    <path d="M 354.6 251.152 
L 354.6 28.32 
" style="fill: none; stroke: #cccccc; stroke-width: 0.8; stroke-linejoin: miter; stroke-linecap: square"/>
   </g>
   <g id="patch_5">
    <path d="M 48.71 251.152 
L 354.6 251.152 
" style="fill: none; stroke: #cccccc; stroke-width: 0.8; stroke-linejoin: miter; stroke-linecap: square"/>
   </g>
   <g id="patch_6">
    <path d="M 48.71 28.32 
L 354.6 28.32 
" style="fill: none; stroke: #cccccc; stroke-width: 0.8; stroke-linejoin: miter; stroke-linecap: square"/>
   </g>
   <g id="text_15">
    <!-- $\lambda = 1, \alpha = 1.5, \lambda_P = 1, T = 100$ -->
    <g style="fill: #262626" transform="translate(116.875 22.32) scale(0.12 -0.12)">
     <defs>
      <path id="DejaVuSans-Oblique-3bb" d="M 2350 4316 
L 3125 0 
L 2516 0 
L 2038 2588 
L 328 0 
L -281 0 
L 1903 3356 
L 1794 3975 
Q 1725 4369 1391 4369 
L 1091 4369 
L 1184 4863 
L 1550 4856 
Q 2253 4847 2350 4316 
z
" transform="scale(0.015625)"/>
      <path id="DejaVuSans-3d" d="M 678 2906 
L 4684 2906 
L 4684 2381 
L 678 2381 
L 678 2906 
z
M 678 1631 
L 4684 1631 
L 4684 1100 
L 678 1100 
L 678 1631 
z
" transform="scale(0.015625)"/>
      <path id="DejaVuSans-31" d="M 794 531 
L 1825 531 
L 1825 4091 
L 703 3866 
L 703 4441 
L 1819 4666 
L 2450 4666 
L 2450 531 
L 3481 531 
L 3481 0 
L 794 0 
L 794 531 
z
" transform="scale(0.015625)"/>
      <path id="DejaVuSans-Oblique-3b1" d="M 2619 1628 
L 2622 2350 
Q 2625 3088 2069 3091 
Q 1653 3094 1394 2747 
Q 1069 2319 959 1747 
Q 825 1059 994 731 
Q 1169 397 1547 397 
Q 1966 397 2319 1063 
L 2619 1628 
z
M 2166 3578 
Q 3141 3594 3128 2584 
Q 3128 2584 3616 3500 
L 4128 3500 
L 3119 1603 
L 3109 919 
Q 3109 766 3194 638 
Q 3291 488 3391 488 
L 3669 488 
L 3575 0 
L 3228 0 
Q 2934 0 2722 263 
Q 2622 394 2619 669 
Q 2416 334 2066 50 
Q 1900 -81 1453 -78 
Q 722 -72 456 397 
Q 184 884 353 1747 
Q 534 2675 1009 3097 
Q 1544 3569 2166 3578 
z
" transform="scale(0.015625)"/>
      <path id="DejaVuSans-2e" d="M 684 794 
L 1344 794 
L 1344 0 
L 684 0 
L 684 794 
z
" transform="scale(0.015625)"/>
      <path id="DejaVuSans-35" d="M 691 4666 
L 3169 4666 
L 3169 4134 
L 1269 4134 
L 1269 2991 
Q 1406 3038 1543 3061 
Q 1681 3084 1819 3084 
Q 2600 3084 3056 2656 
Q 3513 2228 3513 1497 
Q 3513 744 3044 326 
Q 2575 -91 1722 -91 
Q 1428 -91 1123 -41 
Q 819 9 494 109 
L 494 744 
Q 775 591 1075 516 
Q 1375 441 1709 441 
Q 2250 441 2565 725 
Q 2881 1009 2881 1497 
Q 2881 1984 2565 2268 
Q 2250 2553 1709 2553 
Q 1456 2553 1204 2497 
Q 953 2441 691 2322 
L 691 4666 
z
" transform="scale(0.015625)"/>
      <path id="DejaVuSans-Oblique-50" d="M 1081 4666 
L 2541 4666 
Q 3178 4666 3512 4369 
Q 3847 4072 3847 3500 
Q 3847 2731 3353 2303 
Q 2859 1875 1966 1875 
L 1172 1875 
L 806 0 
L 172 0 
L 1081 4666 
z
M 1613 4147 
L 1275 2394 
L 2069 2394 
Q 2606 2394 2893 2669 
Q 3181 2944 3181 3456 
Q 3181 3784 2986 3965 
Q 2791 4147 2438 4147 
L 1613 4147 
z
" transform="scale(0.015625)"/>
     </defs>
     <use xlink:href="#DejaVuSans-Oblique-3bb" transform="translate(0 0.015625)"/>
     <use xlink:href="#DejaVuSans-3d" transform="translate(78.662109 0.015625)"/>
     <use xlink:href="#DejaVuSans-31" transform="translate(181.933594 0.015625)"/>
     <use xlink:href="#DejaVuSans-2c" transform="translate(245.556641 0.015625)"/>
     <use xlink:href="#DejaVuSans-Oblique-3b1" transform="translate(296.826172 0.015625)"/>
     <use xlink:href="#DejaVuSans-3d" transform="translate(382.226562 0.015625)"/>
     <use xlink:href="#DejaVuSans-31" transform="translate(485.498047 0.015625)"/>
     <use xlink:href="#DejaVuSans-2e" transform="translate(549.121094 0.015625)"/>
     <use xlink:href="#DejaVuSans-35" transform="translate(580.908203 0.015625)"/>
     <use xlink:href="#DejaVuSans-2c" transform="translate(644.53125 0.015625)"/>
     <use xlink:href="#DejaVuSans-Oblique-3bb" transform="translate(695.800781 0.015625)"/>
     <use xlink:href="#DejaVuSans-Oblique-50" transform="translate(754.980469 -16.390625) scale(0.7)"/>
     <use xlink:href="#DejaVuSans-3d" transform="translate(819.40918 0.015625)"/>
     <use xlink:href="#DejaVuSans-31" transform="translate(922.680664 0.015625)"/>
     <use xlink:href="#DejaVuSans-2c" transform="translate(986.303711 0.015625)"/>
     <use xlink:href="#DejaVuSans-Oblique-54" transform="translate(1037.573242 0.015625)"/>
     <use xlink:href="#DejaVuSans-3d" transform="translate(1118.139648 0.015625)"/>
     <use xlink:href="#DejaVuSans-31" transform="translate(1221.411133 0.015625)"/>
     <use xlink:href="#DejaVuSans-30" transform="translate(1285.03418 0.015625)"/>
     <use xlink:href="#DejaVuSans-30" transform="translate(1348.657227 0.015625)"/>
    </g>
   </g>
   <g id="legend_1">
    <g id="patch_7">
     <path d="M 222.776562 64.610625 
L 347.6 64.610625 
Q 349.6 64.610625 349.6 62.610625 
L 349.6 35.32 
Q 349.6 33.32 347.6 33.32 
L 222.776562 33.32 
Q 220.776562 33.32 220.776562 35.32 
L 220.776562 62.610625 
Q 220.776562 64.610625 222.776562 64.610625 
z
" style="fill: #ffffff; opacity: 0.8; stroke: #cccccc; stroke-linejoin: miter"/>
    </g>
    <g id="line2d_15">
     <path d="M 224.776562 40.977812 
L 234.776562 40.977812 
L 244.776562 40.977812 
" style="fill: none; stroke: #1f77b4; stroke-width: 1.5; stroke-linecap: round"/>
    </g>
    <g id="text_16">
     <!-- Monte Carlo -->
     <g style="fill: #262626" transform="translate(252.776562 44.477812) scale(0.1 -0.1)">
      <defs>
       <path id="ArialMT-4d" d="M 475 0 
L 475 4581 
L 1388 4581 
L 2472 1338 
Q 2622 884 2691 659 
Q 2769 909 2934 1394 
L 4031 4581 
L 4847 4581 
L 4847 0 
L 4263 0 
L 4263 3834 
L 2931 0 
L 2384 0 
L 1059 3900 
L 1059 0 
L 475 0 
z
" transform="scale(0.015625)"/>
       <path id="ArialMT-6f" d="M 213 1659 
Q 213 2581 725 3025 
Q 1153 3394 1769 3394 
Q 2453 3394 2887 2945 
Q 3322 2497 3322 1706 
Q 3322 1066 3130 698 
Q 2938 331 2570 128 
Q 2203 -75 1769 -75 
Q 1072 -75 642 372 
Q 213 819 213 1659 
z
M 791 1659 
Q 791 1022 1069 705 
Q 1347 388 1769 388 
Q 2188 388 2466 706 
Q 2744 1025 2744 1678 
Q 2744 2294 2464 2611 
Q 2184 2928 1769 2928 
Q 1347 2928 1069 2612 
Q 791 2297 791 1659 
z
" transform="scale(0.015625)"/>
       <path id="ArialMT-6e" d="M 422 0 
L 422 3319 
L 928 3319 
L 928 2847 
Q 1294 3394 1984 3394 
Q 2284 3394 2536 3286 
Q 2788 3178 2913 3003 
Q 3038 2828 3088 2588 
Q 3119 2431 3119 2041 
L 3119 0 
L 2556 0 
L 2556 2019 
Q 2556 2363 2490 2533 
Q 2425 2703 2258 2804 
Q 2091 2906 1866 2906 
Q 1506 2906 1245 2678 
Q 984 2450 984 1813 
L 984 0 
L 422 0 
z
" transform="scale(0.015625)"/>
       <path id="ArialMT-74" d="M 1650 503 
L 1731 6 
Q 1494 -44 1306 -44 
Q 1000 -44 831 53 
Q 663 150 594 308 
Q 525 466 525 972 
L 525 2881 
L 113 2881 
L 113 3319 
L 525 3319 
L 525 4141 
L 1084 4478 
L 1084 3319 
L 1650 3319 
L 1650 2881 
L 1084 2881 
L 1084 941 
Q 1084 700 1114 631 
Q 1144 563 1211 522 
Q 1278 481 1403 481 
Q 1497 481 1650 503 
z
" transform="scale(0.015625)"/>
       <path id="ArialMT-65" d="M 2694 1069 
L 3275 997 
Q 3138 488 2766 206 
Q 2394 -75 1816 -75 
Q 1088 -75 661 373 
Q 234 822 234 1631 
Q 234 2469 665 2931 
Q 1097 3394 1784 3394 
Q 2450 3394 2872 2941 
Q 3294 2488 3294 1666 
Q 3294 1616 3291 1516 
L 816 1516 
Q 847 969 1125 678 
Q 1403 388 1819 388 
Q 2128 388 2347 550 
Q 2566 713 2694 1069 
z
M 847 1978 
L 2700 1978 
Q 2663 2397 2488 2606 
Q 2219 2931 1791 2931 
Q 1403 2931 1139 2672 
Q 875 2413 847 1978 
z
" transform="scale(0.015625)"/>
       <path id="ArialMT-20" transform="scale(0.015625)"/>
       <path id="ArialMT-43" d="M 3763 1606 
L 4369 1453 
Q 4178 706 3683 314 
Q 3188 -78 2472 -78 
Q 1731 -78 1267 223 
Q 803 525 561 1097 
Q 319 1669 319 2325 
Q 319 3041 592 3573 
Q 866 4106 1370 4382 
Q 1875 4659 2481 4659 
Q 3169 4659 3637 4309 
Q 4106 3959 4291 3325 
L 3694 3184 
Q 3534 3684 3231 3912 
Q 2928 4141 2469 4141 
Q 1941 4141 1586 3887 
Q 1231 3634 1087 3207 
Q 944 2781 944 2328 
Q 944 1744 1114 1308 
Q 1284 872 1643 656 
Q 2003 441 2422 441 
Q 2931 441 3284 734 
Q 3638 1028 3763 1606 
z
" transform="scale(0.015625)"/>
       <path id="ArialMT-61" d="M 2588 409 
Q 2275 144 1986 34 
Q 1697 -75 1366 -75 
Q 819 -75 525 192 
Q 231 459 231 875 
Q 231 1119 342 1320 
Q 453 1522 633 1644 
Q 813 1766 1038 1828 
Q 1203 1872 1538 1913 
Q 2219 1994 2541 2106 
Q 2544 2222 2544 2253 
Q 2544 2597 2384 2738 
Q 2169 2928 1744 2928 
Q 1347 2928 1158 2789 
Q 969 2650 878 2297 
L 328 2372 
Q 403 2725 575 2942 
Q 747 3159 1072 3276 
Q 1397 3394 1825 3394 
Q 2250 3394 2515 3294 
Q 2781 3194 2906 3042 
Q 3031 2891 3081 2659 
Q 3109 2516 3109 2141 
L 3109 1391 
Q 3109 606 3145 398 
Q 3181 191 3288 0 
L 2700 0 
Q 2613 175 2588 409 
z
M 2541 1666 
Q 2234 1541 1622 1453 
Q 1275 1403 1131 1340 
Q 988 1278 909 1158 
Q 831 1038 831 891 
Q 831 666 1001 516 
Q 1172 366 1500 366 
Q 1825 366 2078 508 
Q 2331 650 2450 897 
Q 2541 1088 2541 1459 
L 2541 1666 
z
" transform="scale(0.015625)"/>
       <path id="ArialMT-72" d="M 416 0 
L 416 3319 
L 922 3319 
L 922 2816 
Q 1116 3169 1280 3281 
Q 1444 3394 1641 3394 
Q 1925 3394 2219 3213 
L 2025 2691 
Q 1819 2813 1613 2813 
Q 1428 2813 1281 2702 
Q 1134 2591 1072 2394 
Q 978 2094 978 1738 
L 978 0 
L 416 0 
z
" transform="scale(0.015625)"/>
       <path id="ArialMT-6c" d="M 409 0 
L 409 4581 
L 972 4581 
L 972 0 
L 409 0 
z
" transform="scale(0.015625)"/>
      </defs>
      <use xlink:href="#ArialMT-4d"/>
      <use xlink:href="#ArialMT-6f" transform="translate(83.300781 0)"/>
      <use xlink:href="#ArialMT-6e" transform="translate(138.916016 0)"/>
      <use xlink:href="#ArialMT-74" transform="translate(194.53125 0)"/>
      <use xlink:href="#ArialMT-65" transform="translate(222.314453 0)"/>
      <use xlink:href="#ArialMT-20" transform="translate(277.929688 0)"/>
      <use xlink:href="#ArialMT-43" transform="translate(305.712891 0)"/>
      <use xlink:href="#ArialMT-61" transform="translate(377.929688 0)"/>
      <use xlink:href="#ArialMT-72" transform="translate(433.544922 0)"/>
      <use xlink:href="#ArialMT-6c" transform="translate(466.845703 0)"/>
      <use xlink:href="#ArialMT-6f" transform="translate(489.0625 0)"/>
     </g>
    </g>
    <g id="line2d_16">
     <path d="M 224.776562 55.123125 
L 234.776562 55.123125 
L 244.776562 55.123125 
" style="fill: none; stroke: #ff7f0e; stroke-width: 1.5; stroke-linecap: round"/>
    </g>
    <g id="text_17">
     <!-- Pollaczek-Khintchine -->
     <g style="fill: #262626" transform="translate(252.776562 58.623125) scale(0.1 -0.1)">
      <defs>
       <path id="ArialMT-50" d="M 494 0 
L 494 4581 
L 2222 4581 
Q 2678 4581 2919 4538 
Q 3256 4481 3484 4323 
Q 3713 4166 3852 3881 
Q 3991 3597 3991 3256 
Q 3991 2672 3619 2267 
Q 3247 1863 2275 1863 
L 1100 1863 
L 1100 0 
L 494 0 
z
M 1100 2403 
L 2284 2403 
Q 2872 2403 3119 2622 
Q 3366 2841 3366 3238 
Q 3366 3525 3220 3729 
Q 3075 3934 2838 4000 
Q 2684 4041 2272 4041 
L 1100 4041 
L 1100 2403 
z
" transform="scale(0.015625)"/>
       <path id="ArialMT-63" d="M 2588 1216 
L 3141 1144 
Q 3050 572 2676 248 
Q 2303 -75 1759 -75 
Q 1078 -75 664 370 
Q 250 816 250 1647 
Q 250 2184 428 2587 
Q 606 2991 970 3192 
Q 1334 3394 1763 3394 
Q 2303 3394 2647 3120 
Q 2991 2847 3088 2344 
L 2541 2259 
Q 2463 2594 2264 2762 
Q 2066 2931 1784 2931 
Q 1359 2931 1093 2626 
Q 828 2322 828 1663 
Q 828 994 1084 691 
Q 1341 388 1753 388 
Q 2084 388 2306 591 
Q 2528 794 2588 1216 
z
" transform="scale(0.015625)"/>
       <path id="ArialMT-7a" d="M 125 0 
L 125 456 
L 2238 2881 
Q 1878 2863 1603 2863 
L 250 2863 
L 250 3319 
L 2963 3319 
L 2963 2947 
L 1166 841 
L 819 456 
Q 1197 484 1528 484 
L 3063 484 
L 3063 0 
L 125 0 
z
" transform="scale(0.015625)"/>
       <path id="ArialMT-6b" d="M 425 0 
L 425 4581 
L 988 4581 
L 988 1969 
L 2319 3319 
L 3047 3319 
L 1778 2088 
L 3175 0 
L 2481 0 
L 1384 1697 
L 988 1316 
L 988 0 
L 425 0 
z
" transform="scale(0.015625)"/>
       <path id="ArialMT-2d" d="M 203 1375 
L 203 1941 
L 1931 1941 
L 1931 1375 
L 203 1375 
z
" transform="scale(0.015625)"/>
       <path id="ArialMT-4b" d="M 469 0 
L 469 4581 
L 1075 4581 
L 1075 2309 
L 3350 4581 
L 4172 4581 
L 2250 2725 
L 4256 0 
L 3456 0 
L 1825 2319 
L 1075 1588 
L 1075 0 
L 469 0 
z
" transform="scale(0.015625)"/>
       <path id="ArialMT-68" d="M 422 0 
L 422 4581 
L 984 4581 
L 984 2938 
Q 1378 3394 1978 3394 
Q 2347 3394 2619 3248 
Q 2891 3103 3008 2847 
Q 3125 2591 3125 2103 
L 3125 0 
L 2563 0 
L 2563 2103 
Q 2563 2525 2380 2717 
Q 2197 2909 1863 2909 
Q 1613 2909 1392 2779 
Q 1172 2650 1078 2428 
Q 984 2206 984 1816 
L 984 0 
L 422 0 
z
" transform="scale(0.015625)"/>
       <path id="ArialMT-69" d="M 425 3934 
L 425 4581 
L 988 4581 
L 988 3934 
L 425 3934 
z
M 425 0 
L 425 3319 
L 988 3319 
L 988 0 
L 425 0 
z
" transform="scale(0.015625)"/>
      </defs>
      <use xlink:href="#ArialMT-50"/>
      <use xlink:href="#ArialMT-6f" transform="translate(66.699219 0)"/>
      <use xlink:href="#ArialMT-6c" transform="translate(122.314453 0)"/>
      <use xlink:href="#ArialMT-6c" transform="translate(144.53125 0)"/>
      <use xlink:href="#ArialMT-61" transform="translate(166.748047 0)"/>
      <use xlink:href="#ArialMT-63" transform="translate(222.363281 0)"/>
      <use xlink:href="#ArialMT-7a" transform="translate(272.363281 0)"/>
      <use xlink:href="#ArialMT-65" transform="translate(322.363281 0)"/>
      <use xlink:href="#ArialMT-6b" transform="translate(377.978516 0)"/>
      <use xlink:href="#ArialMT-2d" transform="translate(427.978516 0)"/>
      <use xlink:href="#ArialMT-4b" transform="translate(461.279297 0)"/>
      <use xlink:href="#ArialMT-68" transform="translate(527.978516 0)"/>
      <use xlink:href="#ArialMT-69" transform="translate(583.59375 0)"/>
      <use xlink:href="#ArialMT-6e" transform="translate(605.810547 0)"/>
      <use xlink:href="#ArialMT-74" transform="translate(661.425781 0)"/>
      <use xlink:href="#ArialMT-63" transform="translate(689.208984 0)"/>
      <use xlink:href="#ArialMT-68" transform="translate(739.208984 0)"/>
      <use xlink:href="#ArialMT-69" transform="translate(794.824219 0)"/>
      <use xlink:href="#ArialMT-6e" transform="translate(817.041016 0)"/>
      <use xlink:href="#ArialMT-65" transform="translate(872.65625 0)"/>
     </g>
    </g>
   </g>
  </g>
  <g id="axes_2">
   <g id="patch_8">
    <path d="M 403.31 251.152 
L 709.2 251.152 
L 709.2 28.32 
L 403.31 28.32 
z
" style="fill: #ffffff"/>
   </g>
   <g id="matplotlib.axis_3">
    <g id="xtick_7">
     <g id="line2d_17">
      <path d="M 417.214091 251.152 
L 417.214091 28.32 
" clip-path="url(#pf2ea06c636)" style="fill: none; stroke: #cccccc; stroke-width: 0.8; stroke-linecap: round"/>
     </g>
     <g id="text_18">
      <!-- 0 -->
      <g style="fill: #262626" transform="translate(414.433622 265.309812) scale(0.1 -0.1)">
       <use xlink:href="#ArialMT-30"/>
      </g>
     </g>
    </g>
    <g id="xtick_8">
     <g id="line2d_18">
      <path d="M 473.392236 251.152 
L 473.392236 28.32 
" clip-path="url(#pf2ea06c636)" style="fill: none; stroke: #cccccc; stroke-width: 0.8; stroke-linecap: round"/>
     </g>
     <g id="text_19">
      <!-- 20 -->
      <g style="fill: #262626" transform="translate(467.831298 265.309812) scale(0.1 -0.1)">
       <use xlink:href="#ArialMT-32"/>
       <use xlink:href="#ArialMT-30" transform="translate(55.615234 0)"/>
      </g>
     </g>
    </g>
    <g id="xtick_9">
     <g id="line2d_19">
      <path d="M 529.570381 251.152 
L 529.570381 28.32 
" clip-path="url(#pf2ea06c636)" style="fill: none; stroke: #cccccc; stroke-width: 0.8; stroke-linecap: round"/>
     </g>
     <g id="text_20">
      <!-- 40 -->
      <g style="fill: #262626" transform="translate(524.009444 265.309812) scale(0.1 -0.1)">
       <use xlink:href="#ArialMT-34"/>
       <use xlink:href="#ArialMT-30" transform="translate(55.615234 0)"/>
      </g>
     </g>
    </g>
    <g id="xtick_10">
     <g id="line2d_20">
      <path d="M 585.748526 251.152 
L 585.748526 28.32 
" clip-path="url(#pf2ea06c636)" style="fill: none; stroke: #cccccc; stroke-width: 0.8; stroke-linecap: round"/>
     </g>
     <g id="text_21">
      <!-- 60 -->
      <g style="fill: #262626" transform="translate(580.187589 265.309812) scale(0.1 -0.1)">
       <use xlink:href="#ArialMT-36"/>
       <use xlink:href="#ArialMT-30" transform="translate(55.615234 0)"/>
      </g>
     </g>
    </g>
    <g id="xtick_11">
     <g id="line2d_21">
      <path d="M 641.926671 251.152 
L 641.926671 28.32 
" clip-path="url(#pf2ea06c636)" style="fill: none; stroke: #cccccc; stroke-width: 0.8; stroke-linecap: round"/>
     </g>
     <g id="text_22">
      <!-- 80 -->
      <g style="fill: #262626" transform="translate(636.365734 265.309812) scale(0.1 -0.1)">
       <use xlink:href="#ArialMT-38"/>
       <use xlink:href="#ArialMT-30" transform="translate(55.615234 0)"/>
      </g>
     </g>
    </g>
    <g id="xtick_12">
     <g id="line2d_22">
      <path d="M 698.104816 251.152 
L 698.104816 28.32 
" clip-path="url(#pf2ea06c636)" style="fill: none; stroke: #cccccc; stroke-width: 0.8; stroke-linecap: round"/>
     </g>
     <g id="text_23">
      <!-- 100 -->
      <g style="fill: #262626" transform="translate(689.76341 265.309812) scale(0.1 -0.1)">
       <use xlink:href="#ArialMT-31"/>
       <use xlink:href="#ArialMT-30" transform="translate(55.615234 0)"/>
       <use xlink:href="#ArialMT-30" transform="translate(111.230469 0)"/>
      </g>
     </g>
    </g>
    <g id="text_24">
     <!-- $u_0$ -->
     <g style="fill: #262626" transform="translate(550.705 278.455125) scale(0.1 -0.1)">
      <use xlink:href="#DejaVuSans-Oblique-75" transform="translate(0 0.3125)"/>
      <use xlink:href="#DejaVuSans-30" transform="translate(63.378906 -16.09375) scale(0.7)"/>
     </g>
    </g>
   </g>
   <g id="matplotlib.axis_4">
    <g id="ytick_7">
     <g id="line2d_23">
      <path d="M 403.31 241.023273 
L 709.2 241.023273 
" clip-path="url(#pf2ea06c636)" style="fill: none; stroke: #cccccc; stroke-width: 0.8; stroke-linecap: round"/>
     </g>
     <g id="text_25">
      <!-- 0.0 -->
      <g style="fill: #262626" transform="translate(382.41 244.602179) scale(0.1 -0.1)">
       <use xlink:href="#ArialMT-30"/>
       <use xlink:href="#ArialMT-2e" transform="translate(55.615234 0)"/>
       <use xlink:href="#ArialMT-30" transform="translate(83.398438 0)"/>
      </g>
     </g>
    </g>
    <g id="ytick_8">
     <g id="line2d_24">
      <path d="M 403.31 200.508364 
L 709.2 200.508364 
" clip-path="url(#pf2ea06c636)" style="fill: none; stroke: #cccccc; stroke-width: 0.8; stroke-linecap: round"/>
     </g>
     <g id="text_26">
      <!-- 0.2 -->
      <g style="fill: #262626" transform="translate(382.41 204.08727) scale(0.1 -0.1)">
       <use xlink:href="#ArialMT-30"/>
       <use xlink:href="#ArialMT-2e" transform="translate(55.615234 0)"/>
       <use xlink:href="#ArialMT-32" transform="translate(83.398438 0)"/>
      </g>
     </g>
    </g>
    <g id="ytick_9">
     <g id="line2d_25">
      <path d="M 403.31 159.993455 
L 709.2 159.993455 
" clip-path="url(#pf2ea06c636)" style="fill: none; stroke: #cccccc; stroke-width: 0.8; stroke-linecap: round"/>
     </g>
     <g id="text_27">
      <!-- 0.4 -->
      <g style="fill: #262626" transform="translate(382.41 163.572361) scale(0.1 -0.1)">
       <use xlink:href="#ArialMT-30"/>
       <use xlink:href="#ArialMT-2e" transform="translate(55.615234 0)"/>
       <use xlink:href="#ArialMT-34" transform="translate(83.398438 0)"/>
      </g>
     </g>
    </g>
    <g id="ytick_10">
     <g id="line2d_26">
      <path d="M 403.31 119.478545 
L 709.2 119.478545 
" clip-path="url(#pf2ea06c636)" style="fill: none; stroke: #cccccc; stroke-width: 0.8; stroke-linecap: round"/>
     </g>
     <g id="text_28">
      <!-- 0.6 -->
      <g style="fill: #262626" transform="translate(382.41 123.057452) scale(0.1 -0.1)">
       <use xlink:href="#ArialMT-30"/>
       <use xlink:href="#ArialMT-2e" transform="translate(55.615234 0)"/>
       <use xlink:href="#ArialMT-36" transform="translate(83.398438 0)"/>
      </g>
     </g>
    </g>
    <g id="ytick_11">
     <g id="line2d_27">
      <path d="M 403.31 78.963636 
L 709.2 78.963636 
" clip-path="url(#pf2ea06c636)" style="fill: none; stroke: #cccccc; stroke-width: 0.8; stroke-linecap: round"/>
     </g>
     <g id="text_29">
      <!-- 0.8 -->
      <g style="fill: #262626" transform="translate(382.41 82.542543) scale(0.1 -0.1)">
       <use xlink:href="#ArialMT-30"/>
       <use xlink:href="#ArialMT-2e" transform="translate(55.615234 0)"/>
       <use xlink:href="#ArialMT-38" transform="translate(83.398438 0)"/>
      </g>
     </g>
    </g>
    <g id="ytick_12">
     <g id="line2d_28">
      <path d="M 403.31 38.448727 
L 709.2 38.448727 
" clip-path="url(#pf2ea06c636)" style="fill: none; stroke: #cccccc; stroke-width: 0.8; stroke-linecap: round"/>
     </g>
     <g id="text_30">
      <!-- 1.0 -->
      <g style="fill: #262626" transform="translate(382.41 42.027634) scale(0.1 -0.1)">
       <use xlink:href="#ArialMT-31"/>
       <use xlink:href="#ArialMT-2e" transform="translate(55.615234 0)"/>
       <use xlink:href="#ArialMT-30" transform="translate(83.398438 0)"/>
      </g>
     </g>
    </g>
    <g id="text_31">
     <!-- $\psi(u_0, T)$ -->
     <g style="fill: #262626" transform="translate(376.31 158.086) rotate(-90) scale(0.1 -0.1)">
      <use xlink:href="#DejaVuSans-Oblique-3c8" transform="translate(0 0.125)"/>
      <use xlink:href="#DejaVuSans-28" transform="translate(65.966797 0.125)"/>
      <use xlink:href="#DejaVuSans-Oblique-75" transform="translate(104.980469 0.125)"/>
      <use xlink:href="#DejaVuSans-30" transform="translate(168.359375 -16.28125) scale(0.7)"/>
      <use xlink:href="#DejaVuSans-2c" transform="translate(215.629883 0.125)"/>
      <use xlink:href="#DejaVuSans-Oblique-54" transform="translate(266.899414 0.125)"/>
      <use xlink:href="#DejaVuSans-29" transform="translate(327.983398 0.125)"/>
     </g>
    </g>
   </g>
   <g id="line2d_29">
    <path d="M 417.214091 60.529353 
L 420.022998 108.53952 
L 422.831905 140.343724 
L 425.640813 163.842371 
L 428.44972 183.897251 
L 431.258627 199.698065 
L 434.067534 209.624218 
L 436.876442 219.550371 
L 439.685349 227.045629 
L 442.494256 231.09712 
L 445.303163 234.338313 
L 448.112071 235.958909 
L 450.920978 237.78208 
L 453.729885 238.794953 
L 456.538792 239.807825 
L 459.3477 240.212975 
L 462.156607 240.618124 
L 464.965514 240.618124 
L 467.774421 240.618124 
L 470.583329 240.618124 
L 473.392236 241.023273 
L 476.201143 241.023273 
L 479.010051 241.023273 
L 481.818958 241.023273 
L 484.627865 241.023273 
L 487.436772 241.023273 
L 490.24568 241.023273 
L 493.054587 241.023273 
L 495.863494 241.023273 
L 498.672401 241.023273 
L 501.481309 241.023273 
L 504.290216 241.023273 
L 507.099123 241.023273 
L 509.90803 241.023273 
L 512.716938 241.023273 
L 515.525845 241.023273 
L 518.334752 241.023273 
L 521.143659 241.023273 
L 523.952567 241.023273 
L 526.761474 241.023273 
L 529.570381 241.023273 
L 532.379288 241.023273 
L 535.188196 241.023273 
L 537.997103 241.023273 
L 540.80601 241.023273 
L 543.614917 241.023273 
L 546.423825 241.023273 
L 549.232732 241.023273 
L 552.041639 241.023273 
L 554.850546 241.023273 
L 557.659454 241.023273 
L 560.468361 241.023273 
L 563.277268 241.023273 
L 566.086175 241.023273 
L 568.895083 241.023273 
L 571.70399 241.023273 
L 574.512897 241.023273 
L 577.321804 241.023273 
L 580.130712 241.023273 
L 582.939619 241.023273 
L 585.748526 241.023273 
L 588.557433 241.023273 
L 591.366341 241.023273 
L 594.175248 241.023273 
L 596.984155 241.023273 
L 599.793062 241.023273 
L 602.60197 241.023273 
L 605.410877 241.023273 
L 608.219784 241.023273 
L 611.028691 241.023273 
L 613.837599 241.023273 
L 616.646506 241.023273 
L 619.455413 241.023273 
L 622.26432 241.023273 
L 625.073228 241.023273 
L 627.882135 241.023273 
L 630.691042 241.023273 
L 633.499949 241.023273 
L 636.308857 241.023273 
L 639.117764 241.023273 
L 641.926671 241.023273 
L 644.735579 241.023273 
L 647.544486 241.023273 
L 650.353393 241.023273 
L 653.1623 241.023273 
L 655.971208 241.023273 
L 658.780115 241.023273 
L 661.589022 241.023273 
L 664.397929 241.023273 
L 667.206837 241.023273 
L 670.015744 241.023273 
L 672.824651 241.023273 
L 675.633558 241.023273 
L 678.442466 241.023273 
L 681.251373 241.023273 
L 684.06028 241.023273 
L 686.869187 241.023273 
L 689.678095 241.023273 
L 692.487002 241.023273 
L 695.295909 241.023273 
" clip-path="url(#pf2ea06c636)" style="fill: none; stroke: #1f77b4; stroke-width: 1.5; stroke-linecap: round"/>
   </g>
   <g id="line2d_30">
    <path d="M 417.214091 57.085585 
L 420.022998 95.979898 
L 422.831905 120.896567 
L 425.640813 137.912829 
L 428.44972 155.131665 
L 431.258627 168.501585 
L 434.067534 181.061207 
L 436.876442 193.620829 
L 439.685349 200.710938 
L 442.494256 207.801047 
L 445.303163 212.865411 
L 448.112071 216.916902 
L 450.920978 220.158095 
L 453.729885 223.399287 
L 456.538792 225.830182 
L 459.3477 227.653353 
L 462.156607 229.881673 
L 464.965514 231.09712 
L 467.774421 232.109993 
L 470.583329 233.32544 
L 473.392236 235.148611 
L 476.201143 235.958909 
L 479.010051 237.579505 
L 481.818958 238.187229 
L 484.627865 238.592378 
L 487.436772 238.997527 
L 490.24568 239.200102 
L 493.054587 239.402676 
L 495.863494 239.807825 
L 498.672401 239.807825 
L 501.481309 239.807825 
L 504.290216 240.0104 
L 507.099123 240.415549 
L 509.90803 240.415549 
L 512.716938 240.415549 
L 515.525845 240.415549 
L 518.334752 240.415549 
L 521.143659 240.415549 
L 523.952567 240.618124 
L 526.761474 240.618124 
L 529.570381 240.618124 
L 532.379288 240.618124 
L 535.188196 240.820698 
L 537.997103 240.820698 
L 540.80601 240.820698 
L 543.614917 240.820698 
L 546.423825 240.820698 
L 549.232732 240.820698 
L 552.041639 241.023273 
L 554.850546 241.023273 
L 557.659454 241.023273 
L 560.468361 241.023273 
L 563.277268 241.023273 
L 566.086175 241.023273 
L 568.895083 241.023273 
L 571.70399 241.023273 
L 574.512897 241.023273 
L 577.321804 241.023273 
L 580.130712 241.023273 
L 582.939619 241.023273 
L 585.748526 241.023273 
L 588.557433 241.023273 
L 591.366341 241.023273 
L 594.175248 241.023273 
L 596.984155 241.023273 
L 599.793062 241.023273 
L 602.60197 241.023273 
L 605.410877 241.023273 
L 608.219784 241.023273 
L 611.028691 241.023273 
L 613.837599 241.023273 
L 616.646506 241.023273 
L 619.455413 241.023273 
L 622.26432 241.023273 
L 625.073228 241.023273 
L 627.882135 241.023273 
L 630.691042 241.023273 
L 633.499949 241.023273 
L 636.308857 241.023273 
L 639.117764 241.023273 
L 641.926671 241.023273 
L 644.735579 241.023273 
L 647.544486 241.023273 
L 650.353393 241.023273 
L 653.1623 241.023273 
L 655.971208 241.023273 
L 658.780115 241.023273 
L 661.589022 241.023273 
L 664.397929 241.023273 
L 667.206837 241.023273 
L 670.015744 241.023273 
L 672.824651 241.023273 
L 675.633558 241.023273 
L 678.442466 241.023273 
L 681.251373 241.023273 
L 684.06028 241.023273 
L 686.869187 241.023273 
L 689.678095 241.023273 
L 692.487002 241.023273 
L 695.295909 241.023273 
" clip-path="url(#pf2ea06c636)" style="fill: none; stroke: #ff7f0e; stroke-width: 1.5; stroke-linecap: round"/>
   </g>
   <g id="line2d_31">
    <path d="M 417.214091 72.211152 
L 420.022998 98.126897 
L 422.831905 120.064102 
L 425.640813 138.633545 
L 428.44972 154.35224 
L 431.258627 167.657827 
L 434.067534 178.920764 
L 436.876442 188.454634 
L 439.685349 196.524881 
L 442.494256 203.356197 
L 445.303163 209.138782 
L 448.112071 214.033634 
L 450.920978 218.177036 
L 453.729885 221.684351 
L 456.538792 224.653229 
L 459.3477 227.16633 
L 462.156607 229.293624 
L 464.965514 231.094339 
L 467.774421 232.618612 
L 470.583329 233.908881 
L 473.392236 235.00107 
L 476.201143 235.925588 
L 479.010051 236.708176 
L 481.818958 237.370622 
L 484.627865 237.931371 
L 487.436772 238.406034 
L 490.24568 238.807828 
L 493.054587 239.147939 
L 495.863494 239.435837 
L 498.672401 239.679538 
L 501.481309 239.885826 
L 504.290216 240.060445 
L 507.099123 240.208256 
L 509.90803 240.333376 
L 512.716938 240.439288 
L 515.525845 240.52894 
L 518.334752 240.604829 
L 521.143659 240.669068 
L 523.952567 240.723445 
L 526.761474 240.769474 
L 529.570381 240.808437 
L 532.379288 240.841418 
L 535.188196 240.869336 
L 537.997103 240.892968 
L 540.80601 240.912972 
L 543.614917 240.929905 
L 546.423825 240.944239 
L 549.232732 240.956372 
L 552.041639 240.966643 
L 554.850546 240.975336 
L 557.659454 240.982695 
L 560.468361 240.988925 
L 563.277268 240.994198 
L 566.086175 240.998661 
L 568.895083 241.00244 
L 571.70399 241.005638 
L 574.512897 241.008345 
L 577.321804 241.010637 
L 580.130712 241.012577 
L 582.939619 241.014219 
L 585.748526 241.015609 
L 588.557433 241.016785 
L 591.366341 241.017781 
L 594.175248 241.018624 
L 596.984155 241.019338 
L 599.793062 241.019942 
L 602.60197 241.020453 
L 605.410877 241.020886 
L 608.219784 241.021253 
L 611.028691 241.021563 
L 613.837599 241.021825 
L 616.646506 241.022047 
L 619.455413 241.022236 
L 622.26432 241.022395 
L 625.073228 241.02253 
L 627.882135 241.022644 
L 630.691042 241.02274 
L 633.499949 241.022822 
L 636.308857 241.022891 
L 639.117764 241.02295 
L 641.926671 241.022999 
L 644.735579 241.023041 
L 647.544486 241.023077 
L 650.353393 241.023107 
L 653.1623 241.023132 
L 655.971208 241.023154 
L 658.780115 241.023172 
L 661.589022 241.023188 
L 664.397929 241.023201 
L 667.206837 241.023212 
L 670.015744 241.023221 
L 672.824651 241.023229 
L 675.633558 241.023236 
L 678.442466 241.023241 
L 681.251373 241.023246 
L 684.06028 241.02325 
L 686.869187 241.023254 
L 689.678095 241.023257 
L 692.487002 241.023259 
L 695.295909 241.023261 
" clip-path="url(#pf2ea06c636)" style="fill: none; stroke: #2ca02c; stroke-width: 1.5; stroke-linecap: round"/>
   </g>
   <g id="patch_9">
    <path d="M 403.31 251.152 
L 403.31 28.32 
" style="fill: none; stroke: #cccccc; stroke-width: 0.8; stroke-linejoin: miter; stroke-linecap: square"/>
   </g>
   <g id="patch_10">
    <path d="M 709.2 251.152 
L 709.2 28.32 
" style="fill: none; stroke: #cccccc; stroke-width: 0.8; stroke-linejoin: miter; stroke-linecap: square"/>
   </g>
   <g id="patch_11">
    <path d="M 403.31 251.152 
L 709.2 251.152 
" style="fill: none; stroke: #cccccc; stroke-width: 0.8; stroke-linejoin: miter; stroke-linecap: square"/>
   </g>
   <g id="patch_12">
    <path d="M 403.31 28.32 
L 709.2 28.32 
" style="fill: none; stroke: #cccccc; stroke-width: 0.8; stroke-linejoin: miter; stroke-linecap: square"/>
   </g>
   <g id="text_32">
    <!-- $\lambda = 1, \alpha = 4, \lambda_P = 1, T = 100$ -->
    <g style="fill: #262626" transform="translate(477.235 22.32) scale(0.12 -0.12)">
     <defs>
      <path id="DejaVuSans-34" d="M 2419 4116 
L 825 1625 
L 2419 1625 
L 2419 4116 
z
M 2253 4666 
L 3047 4666 
L 3047 1625 
L 3713 1625 
L 3713 1100 
L 3047 1100 
L 3047 0 
L 2419 0 
L 2419 1100 
L 313 1100 
L 313 1709 
L 2253 4666 
z
" transform="scale(0.015625)"/>
     </defs>
     <use xlink:href="#DejaVuSans-Oblique-3bb" transform="translate(0 0.015625)"/>
     <use xlink:href="#DejaVuSans-3d" transform="translate(78.662109 0.015625)"/>
     <use xlink:href="#DejaVuSans-31" transform="translate(181.933594 0.015625)"/>
     <use xlink:href="#DejaVuSans-2c" transform="translate(245.556641 0.015625)"/>
     <use xlink:href="#DejaVuSans-Oblique-3b1" transform="translate(296.826172 0.015625)"/>
     <use xlink:href="#DejaVuSans-3d" transform="translate(382.226562 0.015625)"/>
     <use xlink:href="#DejaVuSans-34" transform="translate(485.498047 0.015625)"/>
     <use xlink:href="#DejaVuSans-2c" transform="translate(549.121094 0.015625)"/>
     <use xlink:href="#DejaVuSans-Oblique-3bb" transform="translate(600.390625 0.015625)"/>
     <use xlink:href="#DejaVuSans-Oblique-50" transform="translate(659.570312 -16.390625) scale(0.7)"/>
     <use xlink:href="#DejaVuSans-3d" transform="translate(723.999023 0.015625)"/>
     <use xlink:href="#DejaVuSans-31" transform="translate(827.270508 0.015625)"/>
     <use xlink:href="#DejaVuSans-2c" transform="translate(890.893555 0.015625)"/>
     <use xlink:href="#DejaVuSans-Oblique-54" transform="translate(942.163086 0.015625)"/>
     <use xlink:href="#DejaVuSans-3d" transform="translate(1022.729492 0.015625)"/>
     <use xlink:href="#DejaVuSans-31" transform="translate(1126.000977 0.015625)"/>
     <use xlink:href="#DejaVuSans-30" transform="translate(1189.624023 0.015625)"/>
     <use xlink:href="#DejaVuSans-30" transform="translate(1253.24707 0.015625)"/>
    </g>
   </g>
   <g id="legend_2">
    <g id="patch_13">
     <path d="M 577.376563 78.873125 
L 702.2 78.873125 
Q 704.2 78.873125 704.2 76.873125 
L 704.2 35.32 
Q 704.2 33.32 702.2 33.32 
L 577.376563 33.32 
Q 575.376563 33.32 575.376563 35.32 
L 575.376563 76.873125 
Q 575.376563 78.873125 577.376563 78.873125 
z
" style="fill: #ffffff; opacity: 0.8; stroke: #cccccc; stroke-linejoin: miter"/>
    </g>
    <g id="line2d_32">
     <path d="M 579.376563 40.977812 
L 589.376563 40.977812 
L 599.376563 40.977812 
" style="fill: none; stroke: #1f77b4; stroke-width: 1.5; stroke-linecap: round"/>
    </g>
    <g id="text_33">
     <!-- Monte Carlo -->
     <g style="fill: #262626" transform="translate(607.376563 44.477812) scale(0.1 -0.1)">
      <use xlink:href="#ArialMT-4d"/>
      <use xlink:href="#ArialMT-6f" transform="translate(83.300781 0)"/>
      <use xlink:href="#ArialMT-6e" transform="translate(138.916016 0)"/>
      <use xlink:href="#ArialMT-74" transform="translate(194.53125 0)"/>
      <use xlink:href="#ArialMT-65" transform="translate(222.314453 0)"/>
      <use xlink:href="#ArialMT-20" transform="translate(277.929688 0)"/>
      <use xlink:href="#ArialMT-43" transform="translate(305.712891 0)"/>
      <use xlink:href="#ArialMT-61" transform="translate(377.929688 0)"/>
      <use xlink:href="#ArialMT-72" transform="translate(433.544922 0)"/>
      <use xlink:href="#ArialMT-6c" transform="translate(466.845703 0)"/>
      <use xlink:href="#ArialMT-6f" transform="translate(489.0625 0)"/>
     </g>
    </g>
    <g id="line2d_33">
     <path d="M 579.376563 55.123125 
L 589.376563 55.123125 
L 599.376563 55.123125 
" style="fill: none; stroke: #ff7f0e; stroke-width: 1.5; stroke-linecap: round"/>
    </g>
    <g id="text_34">
     <!-- Pollaczek-Khintchine -->
     <g style="fill: #262626" transform="translate(607.376563 58.623125) scale(0.1 -0.1)">
      <use xlink:href="#ArialMT-50"/>
      <use xlink:href="#ArialMT-6f" transform="translate(66.699219 0)"/>
      <use xlink:href="#ArialMT-6c" transform="translate(122.314453 0)"/>
      <use xlink:href="#ArialMT-6c" transform="translate(144.53125 0)"/>
      <use xlink:href="#ArialMT-61" transform="translate(166.748047 0)"/>
      <use xlink:href="#ArialMT-63" transform="translate(222.363281 0)"/>
      <use xlink:href="#ArialMT-7a" transform="translate(272.363281 0)"/>
      <use xlink:href="#ArialMT-65" transform="translate(322.363281 0)"/>
      <use xlink:href="#ArialMT-6b" transform="translate(377.978516 0)"/>
      <use xlink:href="#ArialMT-2d" transform="translate(427.978516 0)"/>
      <use xlink:href="#ArialMT-4b" transform="translate(461.279297 0)"/>
      <use xlink:href="#ArialMT-68" transform="translate(527.978516 0)"/>
      <use xlink:href="#ArialMT-69" transform="translate(583.59375 0)"/>
      <use xlink:href="#ArialMT-6e" transform="translate(605.810547 0)"/>
      <use xlink:href="#ArialMT-74" transform="translate(661.425781 0)"/>
      <use xlink:href="#ArialMT-63" transform="translate(689.208984 0)"/>
      <use xlink:href="#ArialMT-68" transform="translate(739.208984 0)"/>
      <use xlink:href="#ArialMT-69" transform="translate(794.824219 0)"/>
      <use xlink:href="#ArialMT-6e" transform="translate(817.041016 0)"/>
      <use xlink:href="#ArialMT-65" transform="translate(872.65625 0)"/>
     </g>
    </g>
    <g id="line2d_34">
     <path d="M 579.376563 69.268437 
L 589.376563 69.268437 
L 599.376563 69.268437 
" style="fill: none; stroke: #2ca02c; stroke-width: 1.5; stroke-linecap: round"/>
    </g>
    <g id="text_35">
     <!-- de Vylder -->
     <g style="fill: #262626" transform="translate(607.376563 72.768437) scale(0.1 -0.1)">
      <defs>
       <path id="ArialMT-64" d="M 2575 0 
L 2575 419 
Q 2259 -75 1647 -75 
Q 1250 -75 917 144 
Q 584 363 401 755 
Q 219 1147 219 1656 
Q 219 2153 384 2558 
Q 550 2963 881 3178 
Q 1213 3394 1622 3394 
Q 1922 3394 2156 3267 
Q 2391 3141 2538 2938 
L 2538 4581 
L 3097 4581 
L 3097 0 
L 2575 0 
z
M 797 1656 
Q 797 1019 1065 703 
Q 1334 388 1700 388 
Q 2069 388 2326 689 
Q 2584 991 2584 1609 
Q 2584 2291 2321 2609 
Q 2059 2928 1675 2928 
Q 1300 2928 1048 2622 
Q 797 2316 797 1656 
z
" transform="scale(0.015625)"/>
       <path id="ArialMT-56" d="M 1803 0 
L 28 4581 
L 684 4581 
L 1875 1253 
Q 2019 853 2116 503 
Q 2222 878 2363 1253 
L 3600 4581 
L 4219 4581 
L 2425 0 
L 1803 0 
z
" transform="scale(0.015625)"/>
       <path id="ArialMT-79" d="M 397 -1278 
L 334 -750 
Q 519 -800 656 -800 
Q 844 -800 956 -737 
Q 1069 -675 1141 -563 
Q 1194 -478 1313 -144 
Q 1328 -97 1363 -6 
L 103 3319 
L 709 3319 
L 1400 1397 
Q 1534 1031 1641 628 
Q 1738 1016 1872 1384 
L 2581 3319 
L 3144 3319 
L 1881 -56 
Q 1678 -603 1566 -809 
Q 1416 -1088 1222 -1217 
Q 1028 -1347 759 -1347 
Q 597 -1347 397 -1278 
z
" transform="scale(0.015625)"/>
      </defs>
      <use xlink:href="#ArialMT-64"/>
      <use xlink:href="#ArialMT-65" transform="translate(55.615234 0)"/>
      <use xlink:href="#ArialMT-20" transform="translate(111.230469 0)"/>
      <use xlink:href="#ArialMT-56" transform="translate(139.013672 0)"/>
      <use xlink:href="#ArialMT-79" transform="translate(201.962891 0)"/>
      <use xlink:href="#ArialMT-6c" transform="translate(251.962891 0)"/>
      <use xlink:href="#ArialMT-64" transform="translate(274.179688 0)"/>
      <use xlink:href="#ArialMT-65" transform="translate(329.794922 0)"/>
      <use xlink:href="#ArialMT-72" transform="translate(385.410156 0)"/>
     </g>
    </g>
   </g>
  </g>
  <g id="axes_3">
   <g id="patch_14">
    <path d="M 48.71 533.752 
L 354.6 533.752 
L 354.6 310.92 
L 48.71 310.92 
z
" style="fill: #ffffff"/>
   </g>
   <g id="matplotlib.axis_5">
    <g id="xtick_13">
     <g id="line2d_35">
      <path d="M 62.614091 533.752 
L 62.614091 310.92 
" clip-path="url(#pc1c9957ff5)" style="fill: none; stroke: #cccccc; stroke-width: 0.8; stroke-linecap: round"/>
     </g>
     <g id="text_36">
      <!-- 0 -->
      <g style="fill: #262626" transform="translate(59.833622 547.909813) scale(0.1 -0.1)">
       <use xlink:href="#ArialMT-30"/>
      </g>
     </g>
    </g>
    <g id="xtick_14">
     <g id="line2d_36">
      <path d="M 118.792236 533.752 
L 118.792236 310.92 
" clip-path="url(#pc1c9957ff5)" style="fill: none; stroke: #cccccc; stroke-width: 0.8; stroke-linecap: round"/>
     </g>
     <g id="text_37">
      <!-- 20 -->
      <g style="fill: #262626" transform="translate(113.231298 547.909813) scale(0.1 -0.1)">
       <use xlink:href="#ArialMT-32"/>
       <use xlink:href="#ArialMT-30" transform="translate(55.615234 0)"/>
      </g>
     </g>
    </g>
    <g id="xtick_15">
     <g id="line2d_37">
      <path d="M 174.970381 533.752 
L 174.970381 310.92 
" clip-path="url(#pc1c9957ff5)" style="fill: none; stroke: #cccccc; stroke-width: 0.8; stroke-linecap: round"/>
     </g>
     <g id="text_38">
      <!-- 40 -->
      <g style="fill: #262626" transform="translate(169.409444 547.909813) scale(0.1 -0.1)">
       <use xlink:href="#ArialMT-34"/>
       <use xlink:href="#ArialMT-30" transform="translate(55.615234 0)"/>
      </g>
     </g>
    </g>
    <g id="xtick_16">
     <g id="line2d_38">
      <path d="M 231.148526 533.752 
L 231.148526 310.92 
" clip-path="url(#pc1c9957ff5)" style="fill: none; stroke: #cccccc; stroke-width: 0.8; stroke-linecap: round"/>
     </g>
     <g id="text_39">
      <!-- 60 -->
      <g style="fill: #262626" transform="translate(225.587589 547.909813) scale(0.1 -0.1)">
       <use xlink:href="#ArialMT-36"/>
       <use xlink:href="#ArialMT-30" transform="translate(55.615234 0)"/>
      </g>
     </g>
    </g>
    <g id="xtick_17">
     <g id="line2d_39">
      <path d="M 287.326671 533.752 
L 287.326671 310.92 
" clip-path="url(#pc1c9957ff5)" style="fill: none; stroke: #cccccc; stroke-width: 0.8; stroke-linecap: round"/>
     </g>
     <g id="text_40">
      <!-- 80 -->
      <g style="fill: #262626" transform="translate(281.765734 547.909813) scale(0.1 -0.1)">
       <use xlink:href="#ArialMT-38"/>
       <use xlink:href="#ArialMT-30" transform="translate(55.615234 0)"/>
      </g>
     </g>
    </g>
    <g id="xtick_18">
     <g id="line2d_40">
      <path d="M 343.504816 533.752 
L 343.504816 310.92 
" clip-path="url(#pc1c9957ff5)" style="fill: none; stroke: #cccccc; stroke-width: 0.8; stroke-linecap: round"/>
     </g>
     <g id="text_41">
      <!-- 100 -->
      <g style="fill: #262626" transform="translate(335.16341 547.909813) scale(0.1 -0.1)">
       <use xlink:href="#ArialMT-31"/>
       <use xlink:href="#ArialMT-30" transform="translate(55.615234 0)"/>
       <use xlink:href="#ArialMT-30" transform="translate(111.230469 0)"/>
      </g>
     </g>
    </g>
    <g id="text_42">
     <!-- $u_0$ -->
     <g style="fill: #262626" transform="translate(196.105 561.055125) scale(0.1 -0.1)">
      <use xlink:href="#DejaVuSans-Oblique-75" transform="translate(0 0.3125)"/>
      <use xlink:href="#DejaVuSans-30" transform="translate(63.378906 -16.09375) scale(0.7)"/>
     </g>
    </g>
   </g>
   <g id="matplotlib.axis_6">
    <g id="ytick_13">
     <g id="line2d_41">
      <path d="M 48.71 523.623273 
L 354.6 523.623273 
" clip-path="url(#pc1c9957ff5)" style="fill: none; stroke: #cccccc; stroke-width: 0.8; stroke-linecap: round"/>
     </g>
     <g id="text_43">
      <!-- 0.0 -->
      <g style="fill: #262626" transform="translate(27.81 527.202179) scale(0.1 -0.1)">
       <use xlink:href="#ArialMT-30"/>
       <use xlink:href="#ArialMT-2e" transform="translate(55.615234 0)"/>
       <use xlink:href="#ArialMT-30" transform="translate(83.398438 0)"/>
      </g>
     </g>
    </g>
    <g id="ytick_14">
     <g id="line2d_42">
      <path d="M 48.71 483.108364 
L 354.6 483.108364 
" clip-path="url(#pc1c9957ff5)" style="fill: none; stroke: #cccccc; stroke-width: 0.8; stroke-linecap: round"/>
     </g>
     <g id="text_44">
      <!-- 0.2 -->
      <g style="fill: #262626" transform="translate(27.81 486.68727) scale(0.1 -0.1)">
       <use xlink:href="#ArialMT-30"/>
       <use xlink:href="#ArialMT-2e" transform="translate(55.615234 0)"/>
       <use xlink:href="#ArialMT-32" transform="translate(83.398438 0)"/>
      </g>
     </g>
    </g>
    <g id="ytick_15">
     <g id="line2d_43">
      <path d="M 48.71 442.593455 
L 354.6 442.593455 
" clip-path="url(#pc1c9957ff5)" style="fill: none; stroke: #cccccc; stroke-width: 0.8; stroke-linecap: round"/>
     </g>
     <g id="text_45">
      <!-- 0.4 -->
      <g style="fill: #262626" transform="translate(27.81 446.172361) scale(0.1 -0.1)">
       <use xlink:href="#ArialMT-30"/>
       <use xlink:href="#ArialMT-2e" transform="translate(55.615234 0)"/>
       <use xlink:href="#ArialMT-34" transform="translate(83.398438 0)"/>
      </g>
     </g>
    </g>
    <g id="ytick_16">
     <g id="line2d_44">
      <path d="M 48.71 402.078545 
L 354.6 402.078545 
" clip-path="url(#pc1c9957ff5)" style="fill: none; stroke: #cccccc; stroke-width: 0.8; stroke-linecap: round"/>
     </g>
     <g id="text_46">
      <!-- 0.6 -->
      <g style="fill: #262626" transform="translate(27.81 405.657452) scale(0.1 -0.1)">
       <use xlink:href="#ArialMT-30"/>
       <use xlink:href="#ArialMT-2e" transform="translate(55.615234 0)"/>
       <use xlink:href="#ArialMT-36" transform="translate(83.398438 0)"/>
      </g>
     </g>
    </g>
    <g id="ytick_17">
     <g id="line2d_45">
      <path d="M 48.71 361.563636 
L 354.6 361.563636 
" clip-path="url(#pc1c9957ff5)" style="fill: none; stroke: #cccccc; stroke-width: 0.8; stroke-linecap: round"/>
     </g>
     <g id="text_47">
      <!-- 0.8 -->
      <g style="fill: #262626" transform="translate(27.81 365.142543) scale(0.1 -0.1)">
       <use xlink:href="#ArialMT-30"/>
       <use xlink:href="#ArialMT-2e" transform="translate(55.615234 0)"/>
       <use xlink:href="#ArialMT-38" transform="translate(83.398438 0)"/>
      </g>
     </g>
    </g>
    <g id="ytick_18">
     <g id="line2d_46">
      <path d="M 48.71 321.048727 
L 354.6 321.048727 
" clip-path="url(#pc1c9957ff5)" style="fill: none; stroke: #cccccc; stroke-width: 0.8; stroke-linecap: round"/>
     </g>
     <g id="text_48">
      <!-- 1.0 -->
      <g style="fill: #262626" transform="translate(27.81 324.627634) scale(0.1 -0.1)">
       <use xlink:href="#ArialMT-31"/>
       <use xlink:href="#ArialMT-2e" transform="translate(55.615234 0)"/>
       <use xlink:href="#ArialMT-30" transform="translate(83.398438 0)"/>
      </g>
     </g>
    </g>
    <g id="text_49">
     <!-- $\psi(u_0, T)$ -->
     <g style="fill: #262626" transform="translate(21.71 440.686) rotate(-90) scale(0.1 -0.1)">
      <use xlink:href="#DejaVuSans-Oblique-3c8" transform="translate(0 0.125)"/>
      <use xlink:href="#DejaVuSans-28" transform="translate(65.966797 0.125)"/>
      <use xlink:href="#DejaVuSans-Oblique-75" transform="translate(104.980469 0.125)"/>
      <use xlink:href="#DejaVuSans-30" transform="translate(168.359375 -16.28125) scale(0.7)"/>
      <use xlink:href="#DejaVuSans-2c" transform="translate(215.629883 0.125)"/>
      <use xlink:href="#DejaVuSans-Oblique-54" transform="translate(266.899414 0.125)"/>
      <use xlink:href="#DejaVuSans-29" transform="translate(327.983398 0.125)"/>
     </g>
    </g>
   </g>
   <g id="line2d_47">
    <path d="M 62.614091 353.055505 
L 65.422998 362.373935 
L 68.231905 368.248596 
L 71.040813 372.705236 
L 73.84972 375.946429 
L 76.658627 378.579898 
L 79.467534 381.618516 
L 82.276442 383.644262 
L 85.085349 386.075156 
L 87.894256 388.506051 
L 90.703163 390.734371 
L 93.512071 392.152393 
L 96.320978 394.178138 
L 99.129885 394.988436 
L 101.938792 396.406458 
L 104.7477 399.039927 
L 107.556607 400.660524 
L 110.365514 401.470822 
L 113.174421 403.496567 
L 115.983329 405.319738 
L 118.792236 406.73776 
L 121.601143 407.750633 
L 124.410051 409.168655 
L 127.218958 411.802124 
L 130.027865 412.409847 
L 132.836772 413.42272 
L 135.64568 414.435593 
L 138.454587 415.448465 
L 141.263494 417.069062 
L 144.072401 418.689658 
L 146.881309 419.702531 
L 149.690216 420.917978 
L 152.499123 421.120553 
L 155.30803 421.930851 
L 158.116938 422.538575 
L 160.925845 423.956596 
L 163.734752 425.172044 
L 166.543659 425.982342 
L 169.352567 426.590065 
L 172.161474 427.602938 
L 174.970381 427.602938 
L 177.779288 428.008087 
L 180.588196 428.818385 
L 183.397103 429.426109 
L 186.20601 430.844131 
L 189.014917 431.24928 
L 191.823825 431.857004 
L 194.632732 433.275025 
L 197.441639 434.085324 
L 200.250546 435.098196 
L 203.059454 435.503345 
L 205.868361 435.908495 
L 208.677268 437.123942 
L 211.486175 437.529091 
L 214.295083 437.93424 
L 217.10399 438.541964 
L 219.912897 439.757411 
L 222.721804 440.567709 
L 225.530712 441.580582 
L 228.339619 442.593455 
L 231.148526 442.796029 
L 233.957433 443.808902 
L 236.766341 444.416625 
L 239.575248 444.6192 
L 242.384155 445.024349 
L 245.193062 445.834647 
L 248.00197 446.037222 
L 250.810877 446.239796 
L 253.619784 447.860393 
L 256.428691 448.670691 
L 259.237599 448.670691 
L 262.046506 449.07584 
L 264.855413 449.480989 
L 267.66432 450.493862 
L 270.473228 451.101585 
L 273.282135 451.101585 
L 276.091042 451.30416 
L 278.899949 451.911884 
L 281.708857 452.519607 
L 284.517764 452.924756 
L 287.326671 453.329905 
L 290.135579 454.140204 
L 292.944486 454.140204 
L 295.753393 454.950502 
L 298.5623 455.355651 
L 301.371208 455.355651 
L 304.180115 455.558225 
L 306.989022 456.368524 
L 309.797929 456.773673 
L 312.606837 457.178822 
L 315.415744 457.381396 
L 318.224651 457.381396 
L 321.033558 457.786545 
L 323.842466 458.394269 
L 326.651373 459.001993 
L 329.46028 459.204567 
L 332.269187 459.812291 
L 335.078095 459.812291 
L 337.887002 459.812291 
L 340.695909 460.21744 
" clip-path="url(#pc1c9957ff5)" style="fill: none; stroke: #1f77b4; stroke-width: 1.5; stroke-linecap: round"/>
   </g>
   <g id="line2d_48">
    <path d="M 62.614091 340.090735 
L 65.422998 345.762822 
L 68.231905 349.206589 
L 71.040813 352.447782 
L 73.84972 355.4864 
L 76.658627 357.309571 
L 79.467534 358.930167 
L 82.276442 360.753338 
L 85.085349 362.17136 
L 87.894256 363.184233 
L 90.703163 365.007404 
L 93.512071 366.222851 
L 96.320978 367.235724 
L 99.129885 369.058895 
L 101.938792 369.666618 
L 104.7477 371.692364 
L 107.556607 372.502662 
L 110.365514 373.31296 
L 113.174421 373.718109 
L 115.983329 374.528407 
L 118.792236 374.528407 
L 121.601143 375.946429 
L 124.410051 376.756727 
L 127.218958 377.567025 
L 130.027865 377.972175 
L 132.836772 378.985047 
L 135.64568 379.99792 
L 138.454587 380.403069 
L 141.263494 380.605644 
L 144.072401 381.010793 
L 146.881309 381.821091 
L 149.690216 382.428815 
L 152.499123 382.631389 
L 155.30803 383.441687 
L 158.116938 384.45456 
L 160.925845 384.859709 
L 163.734752 386.075156 
L 166.543659 386.68288 
L 169.352567 386.885455 
L 172.161474 387.290604 
L 174.970381 388.708625 
L 177.779288 389.113775 
L 180.588196 389.924073 
L 183.397103 390.126647 
L 186.20601 390.734371 
L 189.014917 391.342095 
L 191.823825 391.949818 
L 194.632732 391.949818 
L 197.441639 392.760116 
L 200.250546 393.36784 
L 203.059454 393.570415 
L 205.868361 394.178138 
L 208.677268 394.785862 
L 211.486175 395.798735 
L 214.295083 396.406458 
L 217.10399 396.811607 
L 219.912897 397.621905 
L 222.721804 397.82448 
L 225.530712 398.027055 
L 228.339619 398.634778 
L 231.148526 398.634778 
L 233.957433 399.039927 
L 236.766341 399.445076 
L 239.575248 399.445076 
L 242.384155 399.445076 
L 245.193062 399.647651 
L 248.00197 400.0528 
L 250.810877 400.660524 
L 253.619784 400.863098 
L 256.428691 400.863098 
L 259.237599 401.065673 
L 262.046506 401.470822 
L 264.855413 401.470822 
L 267.66432 401.673396 
L 270.473228 402.078545 
L 273.282135 402.28112 
L 276.091042 402.28112 
L 278.899949 403.496567 
L 281.708857 403.699142 
L 284.517764 403.901716 
L 287.326671 404.104291 
L 290.135579 404.306865 
L 292.944486 404.712015 
L 295.753393 404.914589 
L 298.5623 405.117164 
L 301.371208 405.522313 
L 304.180115 406.332611 
L 306.989022 406.332611 
L 309.797929 406.73776 
L 312.606837 406.940335 
L 315.415744 407.142909 
L 318.224651 407.142909 
L 321.033558 407.345484 
L 323.842466 407.548058 
L 326.651373 407.548058 
L 329.46028 408.358356 
L 332.269187 408.358356 
L 335.078095 408.560931 
L 337.887002 408.96608 
L 340.695909 408.96608 
" clip-path="url(#pc1c9957ff5)" style="fill: none; stroke: #ff7f0e; stroke-width: 1.5; stroke-linecap: round"/>
   </g>
   <g id="patch_15">
    <path d="M 48.71 533.752 
L 48.71 310.92 
" style="fill: none; stroke: #cccccc; stroke-width: 0.8; stroke-linejoin: miter; stroke-linecap: square"/>
   </g>
   <g id="patch_16">
    <path d="M 354.6 533.752 
L 354.6 310.92 
" style="fill: none; stroke: #cccccc; stroke-width: 0.8; stroke-linejoin: miter; stroke-linecap: square"/>
   </g>
   <g id="patch_17">
    <path d="M 48.71 533.752 
L 354.6 533.752 
" style="fill: none; stroke: #cccccc; stroke-width: 0.8; stroke-linejoin: miter; stroke-linecap: square"/>
   </g>
   <g id="patch_18">
    <path d="M 48.71 310.92 
L 354.6 310.92 
" style="fill: none; stroke: #cccccc; stroke-width: 0.8; stroke-linejoin: miter; stroke-linecap: square"/>
   </g>
   <g id="text_50">
    <!-- $\lambda = 10, \alpha = 1.5, \lambda_P = 1, T = 100$ -->
    <g style="fill: #262626" transform="translate(113.095 304.92) scale(0.12 -0.12)">
     <use xlink:href="#DejaVuSans-Oblique-3bb" transform="translate(0 0.015625)"/>
     <use xlink:href="#DejaVuSans-3d" transform="translate(78.662109 0.015625)"/>
     <use xlink:href="#DejaVuSans-31" transform="translate(181.933594 0.015625)"/>
     <use xlink:href="#DejaVuSans-30" transform="translate(245.556641 0.015625)"/>
     <use xlink:href="#DejaVuSans-2c" transform="translate(309.179688 0.015625)"/>
     <use xlink:href="#DejaVuSans-Oblique-3b1" transform="translate(360.449219 0.015625)"/>
     <use xlink:href="#DejaVuSans-3d" transform="translate(445.849609 0.015625)"/>
     <use xlink:href="#DejaVuSans-31" transform="translate(549.121094 0.015625)"/>
     <use xlink:href="#DejaVuSans-2e" transform="translate(612.744141 0.015625)"/>
     <use xlink:href="#DejaVuSans-35" transform="translate(644.53125 0.015625)"/>
     <use xlink:href="#DejaVuSans-2c" transform="translate(708.154297 0.015625)"/>
     <use xlink:href="#DejaVuSans-Oblique-3bb" transform="translate(759.423828 0.015625)"/>
     <use xlink:href="#DejaVuSans-Oblique-50" transform="translate(818.603516 -16.390625) scale(0.7)"/>
     <use xlink:href="#DejaVuSans-3d" transform="translate(883.032227 0.015625)"/>
     <use xlink:href="#DejaVuSans-31" transform="translate(986.303711 0.015625)"/>
     <use xlink:href="#DejaVuSans-2c" transform="translate(1049.926758 0.015625)"/>
     <use xlink:href="#DejaVuSans-Oblique-54" transform="translate(1101.196289 0.015625)"/>
     <use xlink:href="#DejaVuSans-3d" transform="translate(1181.762695 0.015625)"/>
     <use xlink:href="#DejaVuSans-31" transform="translate(1285.03418 0.015625)"/>
     <use xlink:href="#DejaVuSans-30" transform="translate(1348.657227 0.015625)"/>
     <use xlink:href="#DejaVuSans-30" transform="translate(1412.280273 0.015625)"/>
    </g>
   </g>
   <g id="legend_3">
    <g id="patch_19">
     <path d="M 222.776562 347.210625 
L 347.6 347.210625 
Q 349.6 347.210625 349.6 345.210625 
L 349.6 317.92 
Q 349.6 315.92 347.6 315.92 
L 222.776562 315.92 
Q 220.776562 315.92 220.776562 317.92 
L 220.776562 345.210625 
Q 220.776562 347.210625 222.776562 347.210625 
z
" style="fill: #ffffff; opacity: 0.8; stroke: #cccccc; stroke-linejoin: miter"/>
    </g>
    <g id="line2d_49">
     <path d="M 224.776562 323.577812 
L 234.776562 323.577812 
L 244.776562 323.577812 
" style="fill: none; stroke: #1f77b4; stroke-width: 1.5; stroke-linecap: round"/>
    </g>
    <g id="text_51">
     <!-- Monte Carlo -->
     <g style="fill: #262626" transform="translate(252.776562 327.077812) scale(0.1 -0.1)">
      <use xlink:href="#ArialMT-4d"/>
      <use xlink:href="#ArialMT-6f" transform="translate(83.300781 0)"/>
      <use xlink:href="#ArialMT-6e" transform="translate(138.916016 0)"/>
      <use xlink:href="#ArialMT-74" transform="translate(194.53125 0)"/>
      <use xlink:href="#ArialMT-65" transform="translate(222.314453 0)"/>
      <use xlink:href="#ArialMT-20" transform="translate(277.929688 0)"/>
      <use xlink:href="#ArialMT-43" transform="translate(305.712891 0)"/>
      <use xlink:href="#ArialMT-61" transform="translate(377.929688 0)"/>
      <use xlink:href="#ArialMT-72" transform="translate(433.544922 0)"/>
      <use xlink:href="#ArialMT-6c" transform="translate(466.845703 0)"/>
      <use xlink:href="#ArialMT-6f" transform="translate(489.0625 0)"/>
     </g>
    </g>
    <g id="line2d_50">
     <path d="M 224.776562 337.723125 
L 234.776562 337.723125 
L 244.776562 337.723125 
" style="fill: none; stroke: #ff7f0e; stroke-width: 1.5; stroke-linecap: round"/>
    </g>
    <g id="text_52">
     <!-- Pollaczek-Khintchine -->
     <g style="fill: #262626" transform="translate(252.776562 341.223125) scale(0.1 -0.1)">
      <use xlink:href="#ArialMT-50"/>
      <use xlink:href="#ArialMT-6f" transform="translate(66.699219 0)"/>
      <use xlink:href="#ArialMT-6c" transform="translate(122.314453 0)"/>
      <use xlink:href="#ArialMT-6c" transform="translate(144.53125 0)"/>
      <use xlink:href="#ArialMT-61" transform="translate(166.748047 0)"/>
      <use xlink:href="#ArialMT-63" transform="translate(222.363281 0)"/>
      <use xlink:href="#ArialMT-7a" transform="translate(272.363281 0)"/>
      <use xlink:href="#ArialMT-65" transform="translate(322.363281 0)"/>
      <use xlink:href="#ArialMT-6b" transform="translate(377.978516 0)"/>
      <use xlink:href="#ArialMT-2d" transform="translate(427.978516 0)"/>
      <use xlink:href="#ArialMT-4b" transform="translate(461.279297 0)"/>
      <use xlink:href="#ArialMT-68" transform="translate(527.978516 0)"/>
      <use xlink:href="#ArialMT-69" transform="translate(583.59375 0)"/>
      <use xlink:href="#ArialMT-6e" transform="translate(605.810547 0)"/>
      <use xlink:href="#ArialMT-74" transform="translate(661.425781 0)"/>
      <use xlink:href="#ArialMT-63" transform="translate(689.208984 0)"/>
      <use xlink:href="#ArialMT-68" transform="translate(739.208984 0)"/>
      <use xlink:href="#ArialMT-69" transform="translate(794.824219 0)"/>
      <use xlink:href="#ArialMT-6e" transform="translate(817.041016 0)"/>
      <use xlink:href="#ArialMT-65" transform="translate(872.65625 0)"/>
     </g>
    </g>
   </g>
  </g>
  <g id="axes_4">
   <g id="patch_20">
    <path d="M 403.31 533.752 
L 709.2 533.752 
L 709.2 310.92 
L 403.31 310.92 
z
" style="fill: #ffffff"/>
   </g>
   <g id="matplotlib.axis_7">
    <g id="xtick_19">
     <g id="line2d_51">
      <path d="M 417.214091 533.752 
L 417.214091 310.92 
" clip-path="url(#p65d7796aa4)" style="fill: none; stroke: #cccccc; stroke-width: 0.8; stroke-linecap: round"/>
     </g>
     <g id="text_53">
      <!-- 0 -->
      <g style="fill: #262626" transform="translate(414.433622 547.909813) scale(0.1 -0.1)">
       <use xlink:href="#ArialMT-30"/>
      </g>
     </g>
    </g>
    <g id="xtick_20">
     <g id="line2d_52">
      <path d="M 473.392236 533.752 
L 473.392236 310.92 
" clip-path="url(#p65d7796aa4)" style="fill: none; stroke: #cccccc; stroke-width: 0.8; stroke-linecap: round"/>
     </g>
     <g id="text_54">
      <!-- 20 -->
      <g style="fill: #262626" transform="translate(467.831298 547.909813) scale(0.1 -0.1)">
       <use xlink:href="#ArialMT-32"/>
       <use xlink:href="#ArialMT-30" transform="translate(55.615234 0)"/>
      </g>
     </g>
    </g>
    <g id="xtick_21">
     <g id="line2d_53">
      <path d="M 529.570381 533.752 
L 529.570381 310.92 
" clip-path="url(#p65d7796aa4)" style="fill: none; stroke: #cccccc; stroke-width: 0.8; stroke-linecap: round"/>
     </g>
     <g id="text_55">
      <!-- 40 -->
      <g style="fill: #262626" transform="translate(524.009444 547.909813) scale(0.1 -0.1)">
       <use xlink:href="#ArialMT-34"/>
       <use xlink:href="#ArialMT-30" transform="translate(55.615234 0)"/>
      </g>
     </g>
    </g>
    <g id="xtick_22">
     <g id="line2d_54">
      <path d="M 585.748526 533.752 
L 585.748526 310.92 
" clip-path="url(#p65d7796aa4)" style="fill: none; stroke: #cccccc; stroke-width: 0.8; stroke-linecap: round"/>
     </g>
     <g id="text_56">
      <!-- 60 -->
      <g style="fill: #262626" transform="translate(580.187589 547.909813) scale(0.1 -0.1)">
       <use xlink:href="#ArialMT-36"/>
       <use xlink:href="#ArialMT-30" transform="translate(55.615234 0)"/>
      </g>
     </g>
    </g>
    <g id="xtick_23">
     <g id="line2d_55">
      <path d="M 641.926671 533.752 
L 641.926671 310.92 
" clip-path="url(#p65d7796aa4)" style="fill: none; stroke: #cccccc; stroke-width: 0.8; stroke-linecap: round"/>
     </g>
     <g id="text_57">
      <!-- 80 -->
      <g style="fill: #262626" transform="translate(636.365734 547.909813) scale(0.1 -0.1)">
       <use xlink:href="#ArialMT-38"/>
       <use xlink:href="#ArialMT-30" transform="translate(55.615234 0)"/>
      </g>
     </g>
    </g>
    <g id="xtick_24">
     <g id="line2d_56">
      <path d="M 698.104816 533.752 
L 698.104816 310.92 
" clip-path="url(#p65d7796aa4)" style="fill: none; stroke: #cccccc; stroke-width: 0.8; stroke-linecap: round"/>
     </g>
     <g id="text_58">
      <!-- 100 -->
      <g style="fill: #262626" transform="translate(689.76341 547.909813) scale(0.1 -0.1)">
       <use xlink:href="#ArialMT-31"/>
       <use xlink:href="#ArialMT-30" transform="translate(55.615234 0)"/>
       <use xlink:href="#ArialMT-30" transform="translate(111.230469 0)"/>
      </g>
     </g>
    </g>
    <g id="text_59">
     <!-- $u_0$ -->
     <g style="fill: #262626" transform="translate(550.705 561.055125) scale(0.1 -0.1)">
      <use xlink:href="#DejaVuSans-Oblique-75" transform="translate(0 0.3125)"/>
      <use xlink:href="#DejaVuSans-30" transform="translate(63.378906 -16.09375) scale(0.7)"/>
     </g>
    </g>
   </g>
   <g id="matplotlib.axis_8">
    <g id="ytick_19">
     <g id="line2d_57">
      <path d="M 403.31 523.623273 
L 709.2 523.623273 
" clip-path="url(#p65d7796aa4)" style="fill: none; stroke: #cccccc; stroke-width: 0.8; stroke-linecap: round"/>
     </g>
     <g id="text_60">
      <!-- 0.0 -->
      <g style="fill: #262626" transform="translate(382.41 527.202179) scale(0.1 -0.1)">
       <use xlink:href="#ArialMT-30"/>
       <use xlink:href="#ArialMT-2e" transform="translate(55.615234 0)"/>
       <use xlink:href="#ArialMT-30" transform="translate(83.398438 0)"/>
      </g>
     </g>
    </g>
    <g id="ytick_20">
     <g id="line2d_58">
      <path d="M 403.31 483.108364 
L 709.2 483.108364 
" clip-path="url(#p65d7796aa4)" style="fill: none; stroke: #cccccc; stroke-width: 0.8; stroke-linecap: round"/>
     </g>
     <g id="text_61">
      <!-- 0.2 -->
      <g style="fill: #262626" transform="translate(382.41 486.68727) scale(0.1 -0.1)">
       <use xlink:href="#ArialMT-30"/>
       <use xlink:href="#ArialMT-2e" transform="translate(55.615234 0)"/>
       <use xlink:href="#ArialMT-32" transform="translate(83.398438 0)"/>
      </g>
     </g>
    </g>
    <g id="ytick_21">
     <g id="line2d_59">
      <path d="M 403.31 442.593455 
L 709.2 442.593455 
" clip-path="url(#p65d7796aa4)" style="fill: none; stroke: #cccccc; stroke-width: 0.8; stroke-linecap: round"/>
     </g>
     <g id="text_62">
      <!-- 0.4 -->
      <g style="fill: #262626" transform="translate(382.41 446.172361) scale(0.1 -0.1)">
       <use xlink:href="#ArialMT-30"/>
       <use xlink:href="#ArialMT-2e" transform="translate(55.615234 0)"/>
       <use xlink:href="#ArialMT-34" transform="translate(83.398438 0)"/>
      </g>
     </g>
    </g>
    <g id="ytick_22">
     <g id="line2d_60">
      <path d="M 403.31 402.078545 
L 709.2 402.078545 
" clip-path="url(#p65d7796aa4)" style="fill: none; stroke: #cccccc; stroke-width: 0.8; stroke-linecap: round"/>
     </g>
     <g id="text_63">
      <!-- 0.6 -->
      <g style="fill: #262626" transform="translate(382.41 405.657452) scale(0.1 -0.1)">
       <use xlink:href="#ArialMT-30"/>
       <use xlink:href="#ArialMT-2e" transform="translate(55.615234 0)"/>
       <use xlink:href="#ArialMT-36" transform="translate(83.398438 0)"/>
      </g>
     </g>
    </g>
    <g id="ytick_23">
     <g id="line2d_61">
      <path d="M 403.31 361.563636 
L 709.2 361.563636 
" clip-path="url(#p65d7796aa4)" style="fill: none; stroke: #cccccc; stroke-width: 0.8; stroke-linecap: round"/>
     </g>
     <g id="text_64">
      <!-- 0.8 -->
      <g style="fill: #262626" transform="translate(382.41 365.142543) scale(0.1 -0.1)">
       <use xlink:href="#ArialMT-30"/>
       <use xlink:href="#ArialMT-2e" transform="translate(55.615234 0)"/>
       <use xlink:href="#ArialMT-38" transform="translate(83.398438 0)"/>
      </g>
     </g>
    </g>
    <g id="ytick_24">
     <g id="line2d_62">
      <path d="M 403.31 321.048727 
L 709.2 321.048727 
" clip-path="url(#p65d7796aa4)" style="fill: none; stroke: #cccccc; stroke-width: 0.8; stroke-linecap: round"/>
     </g>
     <g id="text_65">
      <!-- 1.0 -->
      <g style="fill: #262626" transform="translate(382.41 324.627634) scale(0.1 -0.1)">
       <use xlink:href="#ArialMT-31"/>
       <use xlink:href="#ArialMT-2e" transform="translate(55.615234 0)"/>
       <use xlink:href="#ArialMT-30" transform="translate(83.398438 0)"/>
      </g>
     </g>
    </g>
    <g id="text_66">
     <!-- $\psi(u_0, T)$ -->
     <g style="fill: #262626" transform="translate(376.31 440.686) rotate(-90) scale(0.1 -0.1)">
      <use xlink:href="#DejaVuSans-Oblique-3c8" transform="translate(0 0.125)"/>
      <use xlink:href="#DejaVuSans-28" transform="translate(65.966797 0.125)"/>
      <use xlink:href="#DejaVuSans-Oblique-75" transform="translate(104.980469 0.125)"/>
      <use xlink:href="#DejaVuSans-30" transform="translate(168.359375 -16.28125) scale(0.7)"/>
      <use xlink:href="#DejaVuSans-2c" transform="translate(215.629883 0.125)"/>
      <use xlink:href="#DejaVuSans-Oblique-54" transform="translate(266.899414 0.125)"/>
      <use xlink:href="#DejaVuSans-29" transform="translate(327.983398 0.125)"/>
     </g>
    </g>
   </g>
   <g id="line2d_63">
    <path d="M 417.214091 341.508756 
L 420.022998 373.920684 
L 422.831905 399.445076 
L 425.640813 418.081935 
L 428.44972 435.70592 
L 431.258627 449.278415 
L 434.067534 462.243185 
L 436.876442 472.574487 
L 439.685349 480.27232 
L 442.494256 486.146982 
L 445.303163 492.224218 
L 448.112071 497.288582 
L 450.920978 502.352945 
L 453.729885 505.999287 
L 456.538792 509.645629 
L 459.3477 511.266225 
L 462.156607 513.69712 
L 464.965514 515.317716 
L 467.774421 517.140887 
L 470.583329 517.546036 
L 473.392236 518.356335 
L 476.201143 519.369207 
L 479.010051 519.976931 
L 481.818958 520.584655 
L 484.627865 520.787229 
L 487.436772 521.192378 
L 490.24568 521.597527 
L 493.054587 521.800102 
L 495.863494 522.205251 
L 498.672401 522.205251 
L 501.481309 522.6104 
L 504.290216 522.6104 
L 507.099123 522.812975 
L 509.90803 523.218124 
L 512.716938 523.218124 
L 515.525845 523.623273 
L 518.334752 523.623273 
L 521.143659 523.623273 
L 523.952567 523.623273 
L 526.761474 523.623273 
L 529.570381 523.623273 
L 532.379288 523.623273 
L 535.188196 523.623273 
L 537.997103 523.623273 
L 540.80601 523.623273 
L 543.614917 523.623273 
L 546.423825 523.623273 
L 549.232732 523.623273 
L 552.041639 523.623273 
L 554.850546 523.623273 
L 557.659454 523.623273 
L 560.468361 523.623273 
L 563.277268 523.623273 
L 566.086175 523.623273 
L 568.895083 523.623273 
L 571.70399 523.623273 
L 574.512897 523.623273 
L 577.321804 523.623273 
L 580.130712 523.623273 
L 582.939619 523.623273 
L 585.748526 523.623273 
L 588.557433 523.623273 
L 591.366341 523.623273 
L 594.175248 523.623273 
L 596.984155 523.623273 
L 599.793062 523.623273 
L 602.60197 523.623273 
L 605.410877 523.623273 
L 608.219784 523.623273 
L 611.028691 523.623273 
L 613.837599 523.623273 
L 616.646506 523.623273 
L 619.455413 523.623273 
L 622.26432 523.623273 
L 625.073228 523.623273 
L 627.882135 523.623273 
L 630.691042 523.623273 
L 633.499949 523.623273 
L 636.308857 523.623273 
L 639.117764 523.623273 
L 641.926671 523.623273 
L 644.735579 523.623273 
L 647.544486 523.623273 
L 650.353393 523.623273 
L 653.1623 523.623273 
L 655.971208 523.623273 
L 658.780115 523.623273 
L 661.589022 523.623273 
L 664.397929 523.623273 
L 667.206837 523.623273 
L 670.015744 523.623273 
L 672.824651 523.623273 
L 675.633558 523.623273 
L 678.442466 523.623273 
L 681.251373 523.623273 
L 684.06028 523.623273 
L 686.869187 523.623273 
L 689.678095 523.623273 
L 692.487002 523.623273 
L 695.295909 523.623273 
" clip-path="url(#p65d7796aa4)" style="fill: none; stroke: #1f77b4; stroke-width: 1.5; stroke-linecap: round"/>
   </g>
   <g id="line2d_64">
    <path d="M 417.214091 339.88816 
L 420.022998 375.946429 
L 422.831905 402.888844 
L 425.640813 421.728276 
L 428.44972 436.921367 
L 431.258627 450.696436 
L 434.067534 460.825164 
L 436.876442 470.548742 
L 439.685349 479.056873 
L 442.494256 486.349556 
L 445.303163 490.401047 
L 448.112071 495.667985 
L 450.920978 501.137498 
L 453.729885 503.568393 
L 456.538792 507.01216 
L 459.3477 508.430182 
L 462.156607 510.455927 
L 464.965514 512.481673 
L 467.774421 513.69712 
L 470.583329 514.102269 
L 473.392236 515.520291 
L 476.201143 516.330589 
L 479.010051 517.748611 
L 481.818958 518.964058 
L 484.627865 519.571782 
L 487.436772 520.38208 
L 490.24568 520.584655 
L 493.054587 520.989804 
L 495.863494 521.192378 
L 498.672401 521.394953 
L 501.481309 521.394953 
L 504.290216 521.597527 
L 507.099123 522.002676 
L 509.90803 522.407825 
L 512.716938 522.6104 
L 515.525845 522.812975 
L 518.334752 523.015549 
L 521.143659 523.015549 
L 523.952567 523.015549 
L 526.761474 523.015549 
L 529.570381 523.015549 
L 532.379288 523.218124 
L 535.188196 523.218124 
L 537.997103 523.218124 
L 540.80601 523.218124 
L 543.614917 523.218124 
L 546.423825 523.218124 
L 549.232732 523.218124 
L 552.041639 523.218124 
L 554.850546 523.218124 
L 557.659454 523.218124 
L 560.468361 523.420698 
L 563.277268 523.420698 
L 566.086175 523.420698 
L 568.895083 523.420698 
L 571.70399 523.623273 
L 574.512897 523.623273 
L 577.321804 523.623273 
L 580.130712 523.623273 
L 582.939619 523.623273 
L 585.748526 523.623273 
L 588.557433 523.623273 
L 591.366341 523.623273 
L 594.175248 523.623273 
L 596.984155 523.623273 
L 599.793062 523.623273 
L 602.60197 523.623273 
L 605.410877 523.623273 
L 608.219784 523.623273 
L 611.028691 523.623273 
L 613.837599 523.623273 
L 616.646506 523.623273 
L 619.455413 523.623273 
L 622.26432 523.623273 
L 625.073228 523.623273 
L 627.882135 523.623273 
L 630.691042 523.623273 
L 633.499949 523.623273 
L 636.308857 523.623273 
L 639.117764 523.623273 
L 641.926671 523.623273 
L 644.735579 523.623273 
L 647.544486 523.623273 
L 650.353393 523.623273 
L 653.1623 523.623273 
L 655.971208 523.623273 
L 658.780115 523.623273 
L 661.589022 523.623273 
L 664.397929 523.623273 
L 667.206837 523.623273 
L 670.015744 523.623273 
L 672.824651 523.623273 
L 675.633558 523.623273 
L 678.442466 523.623273 
L 681.251373 523.623273 
L 684.06028 523.623273 
L 686.869187 523.623273 
L 689.678095 523.623273 
L 692.487002 523.623273 
L 695.295909 523.623273 
" clip-path="url(#p65d7796aa4)" style="fill: none; stroke: #ff7f0e; stroke-width: 1.5; stroke-linecap: round"/>
   </g>
   <g id="line2d_65">
    <path d="M 417.214091 354.811152 
L 420.022998 380.726897 
L 422.831905 402.664102 
L 425.640813 421.233545 
L 428.44972 436.95224 
L 431.258627 450.257827 
L 434.067534 461.520764 
L 436.876442 471.054634 
L 439.685349 479.124881 
L 442.494256 485.956197 
L 445.303163 491.738782 
L 448.112071 496.633634 
L 450.920978 500.777036 
L 453.729885 504.284351 
L 456.538792 507.253229 
L 459.3477 509.76633 
L 462.156607 511.893624 
L 464.965514 513.694339 
L 467.774421 515.218612 
L 470.583329 516.508881 
L 473.392236 517.60107 
L 476.201143 518.525588 
L 479.010051 519.308176 
L 481.818958 519.970622 
L 484.627865 520.531371 
L 487.436772 521.006034 
L 490.24568 521.407828 
L 493.054587 521.747939 
L 495.863494 522.035837 
L 498.672401 522.279538 
L 501.481309 522.485826 
L 504.290216 522.660445 
L 507.099123 522.808256 
L 509.90803 522.933376 
L 512.716938 523.039288 
L 515.525845 523.12894 
L 518.334752 523.204829 
L 521.143659 523.269068 
L 523.952567 523.323445 
L 526.761474 523.369474 
L 529.570381 523.408437 
L 532.379288 523.441418 
L 535.188196 523.469336 
L 537.997103 523.492968 
L 540.80601 523.512972 
L 543.614917 523.529905 
L 546.423825 523.544239 
L 549.232732 523.556372 
L 552.041639 523.566643 
L 554.850546 523.575336 
L 557.659454 523.582695 
L 560.468361 523.588925 
L 563.277268 523.594198 
L 566.086175 523.598661 
L 568.895083 523.60244 
L 571.70399 523.605638 
L 574.512897 523.608345 
L 577.321804 523.610637 
L 580.130712 523.612577 
L 582.939619 523.614219 
L 585.748526 523.615609 
L 588.557433 523.616785 
L 591.366341 523.617781 
L 594.175248 523.618624 
L 596.984155 523.619338 
L 599.793062 523.619942 
L 602.60197 523.620453 
L 605.410877 523.620886 
L 608.219784 523.621253 
L 611.028691 523.621563 
L 613.837599 523.621825 
L 616.646506 523.622047 
L 619.455413 523.622236 
L 622.26432 523.622395 
L 625.073228 523.62253 
L 627.882135 523.622644 
L 630.691042 523.62274 
L 633.499949 523.622822 
L 636.308857 523.622891 
L 639.117764 523.62295 
L 641.926671 523.622999 
L 644.735579 523.623041 
L 647.544486 523.623077 
L 650.353393 523.623107 
L 653.1623 523.623132 
L 655.971208 523.623154 
L 658.780115 523.623172 
L 661.589022 523.623188 
L 664.397929 523.623201 
L 667.206837 523.623212 
L 670.015744 523.623221 
L 672.824651 523.623229 
L 675.633558 523.623236 
L 678.442466 523.623241 
L 681.251373 523.623246 
L 684.06028 523.62325 
L 686.869187 523.623254 
L 689.678095 523.623257 
L 692.487002 523.623259 
L 695.295909 523.623261 
" clip-path="url(#p65d7796aa4)" style="fill: none; stroke: #2ca02c; stroke-width: 1.5; stroke-linecap: round"/>
   </g>
   <g id="patch_21">
    <path d="M 403.31 533.752 
L 403.31 310.92 
" style="fill: none; stroke: #cccccc; stroke-width: 0.8; stroke-linejoin: miter; stroke-linecap: square"/>
   </g>
   <g id="patch_22">
    <path d="M 709.2 533.752 
L 709.2 310.92 
" style="fill: none; stroke: #cccccc; stroke-width: 0.8; stroke-linejoin: miter; stroke-linecap: square"/>
   </g>
   <g id="patch_23">
    <path d="M 403.31 533.752 
L 709.2 533.752 
" style="fill: none; stroke: #cccccc; stroke-width: 0.8; stroke-linejoin: miter; stroke-linecap: square"/>
   </g>
   <g id="patch_24">
    <path d="M 403.31 310.92 
L 709.2 310.92 
" style="fill: none; stroke: #cccccc; stroke-width: 0.8; stroke-linejoin: miter; stroke-linecap: square"/>
   </g>
   <g id="text_67">
    <!-- $\lambda = 10, \alpha = 4, \lambda_P = 1, T = 100$ -->
    <g style="fill: #262626" transform="translate(473.395 304.92) scale(0.12 -0.12)">
     <use xlink:href="#DejaVuSans-Oblique-3bb" transform="translate(0 0.015625)"/>
     <use xlink:href="#DejaVuSans-3d" transform="translate(78.662109 0.015625)"/>
     <use xlink:href="#DejaVuSans-31" transform="translate(181.933594 0.015625)"/>
     <use xlink:href="#DejaVuSans-30" transform="translate(245.556641 0.015625)"/>
     <use xlink:href="#DejaVuSans-2c" transform="translate(309.179688 0.015625)"/>
     <use xlink:href="#DejaVuSans-Oblique-3b1" transform="translate(360.449219 0.015625)"/>
     <use xlink:href="#DejaVuSans-3d" transform="translate(445.849609 0.015625)"/>
     <use xlink:href="#DejaVuSans-34" transform="translate(549.121094 0.015625)"/>
     <use xlink:href="#DejaVuSans-2c" transform="translate(612.744141 0.015625)"/>
     <use xlink:href="#DejaVuSans-Oblique-3bb" transform="translate(664.013672 0.015625)"/>
     <use xlink:href="#DejaVuSans-Oblique-50" transform="translate(723.193359 -16.390625) scale(0.7)"/>
     <use xlink:href="#DejaVuSans-3d" transform="translate(787.62207 0.015625)"/>
     <use xlink:href="#DejaVuSans-31" transform="translate(890.893555 0.015625)"/>
     <use xlink:href="#DejaVuSans-2c" transform="translate(954.516602 0.015625)"/>
     <use xlink:href="#DejaVuSans-Oblique-54" transform="translate(1005.786133 0.015625)"/>
     <use xlink:href="#DejaVuSans-3d" transform="translate(1086.352539 0.015625)"/>
     <use xlink:href="#DejaVuSans-31" transform="translate(1189.624023 0.015625)"/>
     <use xlink:href="#DejaVuSans-30" transform="translate(1253.24707 0.015625)"/>
     <use xlink:href="#DejaVuSans-30" transform="translate(1316.870117 0.015625)"/>
    </g>
   </g>
   <g id="legend_4">
    <g id="patch_25">
     <path d="M 577.376563 361.473125 
L 702.2 361.473125 
Q 704.2 361.473125 704.2 359.473125 
L 704.2 317.92 
Q 704.2 315.92 702.2 315.92 
L 577.376563 315.92 
Q 575.376563 315.92 575.376563 317.92 
L 575.376563 359.473125 
Q 575.376563 361.473125 577.376563 361.473125 
z
" style="fill: #ffffff; opacity: 0.8; stroke: #cccccc; stroke-linejoin: miter"/>
    </g>
    <g id="line2d_66">
     <path d="M 579.376563 323.577812 
L 589.376563 323.577812 
L 599.376563 323.577812 
" style="fill: none; stroke: #1f77b4; stroke-width: 1.5; stroke-linecap: round"/>
    </g>
    <g id="text_68">
     <!-- Monte Carlo -->
     <g style="fill: #262626" transform="translate(607.376563 327.077812) scale(0.1 -0.1)">
      <use xlink:href="#ArialMT-4d"/>
      <use xlink:href="#ArialMT-6f" transform="translate(83.300781 0)"/>
      <use xlink:href="#ArialMT-6e" transform="translate(138.916016 0)"/>
      <use xlink:href="#ArialMT-74" transform="translate(194.53125 0)"/>
      <use xlink:href="#ArialMT-65" transform="translate(222.314453 0)"/>
      <use xlink:href="#ArialMT-20" transform="translate(277.929688 0)"/>
      <use xlink:href="#ArialMT-43" transform="translate(305.712891 0)"/>
      <use xlink:href="#ArialMT-61" transform="translate(377.929688 0)"/>
      <use xlink:href="#ArialMT-72" transform="translate(433.544922 0)"/>
      <use xlink:href="#ArialMT-6c" transform="translate(466.845703 0)"/>
      <use xlink:href="#ArialMT-6f" transform="translate(489.0625 0)"/>
     </g>
    </g>
    <g id="line2d_67">
     <path d="M 579.376563 337.723125 
L 589.376563 337.723125 
L 599.376563 337.723125 
" style="fill: none; stroke: #ff7f0e; stroke-width: 1.5; stroke-linecap: round"/>
    </g>
    <g id="text_69">
     <!-- Pollaczek-Khintchine -->
     <g style="fill: #262626" transform="translate(607.376563 341.223125) scale(0.1 -0.1)">
      <use xlink:href="#ArialMT-50"/>
      <use xlink:href="#ArialMT-6f" transform="translate(66.699219 0)"/>
      <use xlink:href="#ArialMT-6c" transform="translate(122.314453 0)"/>
      <use xlink:href="#ArialMT-6c" transform="translate(144.53125 0)"/>
      <use xlink:href="#ArialMT-61" transform="translate(166.748047 0)"/>
      <use xlink:href="#ArialMT-63" transform="translate(222.363281 0)"/>
      <use xlink:href="#ArialMT-7a" transform="translate(272.363281 0)"/>
      <use xlink:href="#ArialMT-65" transform="translate(322.363281 0)"/>
      <use xlink:href="#ArialMT-6b" transform="translate(377.978516 0)"/>
      <use xlink:href="#ArialMT-2d" transform="translate(427.978516 0)"/>
      <use xlink:href="#ArialMT-4b" transform="translate(461.279297 0)"/>
      <use xlink:href="#ArialMT-68" transform="translate(527.978516 0)"/>
      <use xlink:href="#ArialMT-69" transform="translate(583.59375 0)"/>
      <use xlink:href="#ArialMT-6e" transform="translate(605.810547 0)"/>
      <use xlink:href="#ArialMT-74" transform="translate(661.425781 0)"/>
      <use xlink:href="#ArialMT-63" transform="translate(689.208984 0)"/>
      <use xlink:href="#ArialMT-68" transform="translate(739.208984 0)"/>
      <use xlink:href="#ArialMT-69" transform="translate(794.824219 0)"/>
      <use xlink:href="#ArialMT-6e" transform="translate(817.041016 0)"/>
      <use xlink:href="#ArialMT-65" transform="translate(872.65625 0)"/>
     </g>
    </g>
    <g id="line2d_68">
     <path d="M 579.376563 351.868438 
L 589.376563 351.868438 
L 599.376563 351.868438 
" style="fill: none; stroke: #2ca02c; stroke-width: 1.5; stroke-linecap: round"/>
    </g>
    <g id="text_70">
     <!-- de Vylder -->
     <g style="fill: #262626" transform="translate(607.376563 355.368438) scale(0.1 -0.1)">
      <use xlink:href="#ArialMT-64"/>
      <use xlink:href="#ArialMT-65" transform="translate(55.615234 0)"/>
      <use xlink:href="#ArialMT-20" transform="translate(111.230469 0)"/>
      <use xlink:href="#ArialMT-56" transform="translate(139.013672 0)"/>
      <use xlink:href="#ArialMT-79" transform="translate(201.962891 0)"/>
      <use xlink:href="#ArialMT-6c" transform="translate(251.962891 0)"/>
      <use xlink:href="#ArialMT-64" transform="translate(274.179688 0)"/>
      <use xlink:href="#ArialMT-65" transform="translate(329.794922 0)"/>
      <use xlink:href="#ArialMT-72" transform="translate(385.410156 0)"/>
     </g>
    </g>
   </g>
  </g>
 </g>
 <defs>
  <clipPath id="p55e56aada6">
   <rect x="48.71" y="28.32" width="305.89" height="222.832"/>
  </clipPath>
  <clipPath id="pf2ea06c636">
   <rect x="403.31" y="28.32" width="305.89" height="222.832"/>
  </clipPath>
  <clipPath id="pc1c9957ff5">
   <rect x="48.71" y="310.92" width="305.89" height="222.832"/>
  </clipPath>
  <clipPath id="p65d7796aa4">
   <rect x="403.31" y="310.92" width="305.89" height="222.832"/>
  </clipPath>
 </defs>
</svg>
