<?xml version="1.0" encoding="utf-8" standalone="no"?>
<!DOCTYPE svg PUBLIC "-//W3C//DTD SVG 1.1//EN"
  "http://www.w3.org/Graphics/SVG/1.1/DTD/svg11.dtd">
<svg xmlns:xlink="http://www.w3.org/1999/xlink" width="720pt" height="576pt" viewBox="0 0 720 576" xmlns="http://www.w3.org/2000/svg" version="1.1">
 <metadata>
  <rdf:RDF xmlns:dc="http://purl.org/dc/elements/1.1/" xmlns:cc="http://creativecommons.org/ns#" xmlns:rdf="http://www.w3.org/1999/02/22-rdf-syntax-ns#">
   <cc:Work>
    <dc:type rdf:resource="http://purl.org/dc/dcmitype/StillImage"/>
    <dc:date>2025-02-02T10:43:54.885321</dc:date>
    <dc:format>image/svg+xml</dc:format>
    <dc:creator>
     <cc:Agent>
      <dc:title>Matplotlib v3.10.0, https://matplotlib.org/</dc:title>
     </cc:Agent>
    </dc:creator>
   </cc:Work>
  </rdf:RDF>
 </metadata>
 <defs>
  <style type="text/css">*{stroke-linejoin: round; stroke-linecap: butt}</style>
 </defs>
 <g id="figure_1">
  <g id="patch_1">
   <path d="M 0 576 
L 720 576 
L 720 0 
L 0 0 
z
" style="fill: #ffffff"/>
  </g>
  <g id="axes_1">
   <g id="patch_2">
    <path d="M 48.71 251.44 
L 354.6 251.44 
L 354.6 28.32 
L 48.71 28.32 
z
" style="fill: #ffffff"/>
   </g>
   <g id="matplotlib.axis_1">
    <g id="xtick_1">
     <g id="line2d_1">
      <path d="M 61.209637 251.44 
L 61.209637 28.32 
" clip-path="url(#p06efa64f63)" style="fill: none; stroke: #cccccc; stroke-width: 0.8; stroke-linecap: round"/>
     </g>
     <g id="text_1">
      <!-- 0 -->
      <g style="fill: #262626" transform="translate(58.429169 265.597812) scale(0.1 -0.1)">
       <defs>
        <path id="ArialMT-30" d="M 266 2259 
Q 266 3072 433 3567 
Q 600 4063 929 4331 
Q 1259 4600 1759 4600 
Q 2128 4600 2406 4451 
Q 2684 4303 2865 4023 
Q 3047 3744 3150 3342 
Q 3253 2941 3253 2259 
Q 3253 1453 3087 958 
Q 2922 463 2592 192 
Q 2263 -78 1759 -78 
Q 1097 -78 719 397 
Q 266 969 266 2259 
z
M 844 2259 
Q 844 1131 1108 757 
Q 1372 384 1759 384 
Q 2147 384 2411 759 
Q 2675 1134 2675 2259 
Q 2675 3391 2411 3762 
Q 2147 4134 1753 4134 
Q 1366 4134 1134 3806 
Q 844 3388 844 2259 
z
" transform="scale(0.015625)"/>
       </defs>
       <use xlink:href="#ArialMT-30"/>
      </g>
     </g>
    </g>
    <g id="xtick_2">
     <g id="line2d_2">
      <path d="M 96.320978 251.44 
L 96.320978 28.32 
" clip-path="url(#p06efa64f63)" style="fill: none; stroke: #cccccc; stroke-width: 0.8; stroke-linecap: round"/>
     </g>
     <g id="text_2">
      <!-- 25 -->
      <g style="fill: #262626" transform="translate(90.76004 265.597812) scale(0.1 -0.1)">
       <defs>
        <path id="ArialMT-32" d="M 3222 541 
L 3222 0 
L 194 0 
Q 188 203 259 391 
Q 375 700 629 1000 
Q 884 1300 1366 1694 
Q 2113 2306 2375 2664 
Q 2638 3022 2638 3341 
Q 2638 3675 2398 3904 
Q 2159 4134 1775 4134 
Q 1369 4134 1125 3890 
Q 881 3647 878 3216 
L 300 3275 
Q 359 3922 746 4261 
Q 1134 4600 1788 4600 
Q 2447 4600 2831 4234 
Q 3216 3869 3216 3328 
Q 3216 3053 3103 2787 
Q 2991 2522 2730 2228 
Q 2469 1934 1863 1422 
Q 1356 997 1212 845 
Q 1069 694 975 541 
L 3222 541 
z
" transform="scale(0.015625)"/>
        <path id="ArialMT-35" d="M 266 1200 
L 856 1250 
Q 922 819 1161 601 
Q 1400 384 1738 384 
Q 2144 384 2425 690 
Q 2706 997 2706 1503 
Q 2706 1984 2436 2262 
Q 2166 2541 1728 2541 
Q 1456 2541 1237 2417 
Q 1019 2294 894 2097 
L 366 2166 
L 809 4519 
L 3088 4519 
L 3088 3981 
L 1259 3981 
L 1013 2750 
Q 1425 3038 1878 3038 
Q 2478 3038 2890 2622 
Q 3303 2206 3303 1553 
Q 3303 931 2941 478 
Q 2500 -78 1738 -78 
Q 1113 -78 717 272 
Q 322 622 266 1200 
z
" transform="scale(0.015625)"/>
       </defs>
       <use xlink:href="#ArialMT-32"/>
       <use xlink:href="#ArialMT-35" transform="translate(55.615234 0)"/>
      </g>
     </g>
    </g>
    <g id="xtick_3">
     <g id="line2d_3">
      <path d="M 131.432319 251.44 
L 131.432319 28.32 
" clip-path="url(#p06efa64f63)" style="fill: none; stroke: #cccccc; stroke-width: 0.8; stroke-linecap: round"/>
     </g>
     <g id="text_3">
      <!-- 50 -->
      <g style="fill: #262626" transform="translate(125.871381 265.597812) scale(0.1 -0.1)">
       <use xlink:href="#ArialMT-35"/>
       <use xlink:href="#ArialMT-30" transform="translate(55.615234 0)"/>
      </g>
     </g>
    </g>
    <g id="xtick_4">
     <g id="line2d_4">
      <path d="M 166.543659 251.44 
L 166.543659 28.32 
" clip-path="url(#p06efa64f63)" style="fill: none; stroke: #cccccc; stroke-width: 0.8; stroke-linecap: round"/>
     </g>
     <g id="text_4">
      <!-- 75 -->
      <g style="fill: #262626" transform="translate(160.982722 265.597812) scale(0.1 -0.1)">
       <defs>
        <path id="ArialMT-37" d="M 303 3981 
L 303 4522 
L 3269 4522 
L 3269 4084 
Q 2831 3619 2401 2847 
Q 1972 2075 1738 1259 
Q 1569 684 1522 0 
L 944 0 
Q 953 541 1156 1306 
Q 1359 2072 1739 2783 
Q 2119 3494 2547 3981 
L 303 3981 
z
" transform="scale(0.015625)"/>
       </defs>
       <use xlink:href="#ArialMT-37"/>
       <use xlink:href="#ArialMT-35" transform="translate(55.615234 0)"/>
      </g>
     </g>
    </g>
    <g id="xtick_5">
     <g id="line2d_5">
      <path d="M 201.655 251.44 
L 201.655 28.32 
" clip-path="url(#p06efa64f63)" style="fill: none; stroke: #cccccc; stroke-width: 0.8; stroke-linecap: round"/>
     </g>
     <g id="text_5">
      <!-- 100 -->
      <g style="fill: #262626" transform="translate(193.313594 265.597812) scale(0.1 -0.1)">
       <defs>
        <path id="ArialMT-31" d="M 2384 0 
L 1822 0 
L 1822 3584 
Q 1619 3391 1289 3197 
Q 959 3003 697 2906 
L 697 3450 
Q 1169 3672 1522 3987 
Q 1875 4303 2022 4600 
L 2384 4600 
L 2384 0 
z
" transform="scale(0.015625)"/>
       </defs>
       <use xlink:href="#ArialMT-31"/>
       <use xlink:href="#ArialMT-30" transform="translate(55.615234 0)"/>
       <use xlink:href="#ArialMT-30" transform="translate(111.230469 0)"/>
      </g>
     </g>
    </g>
    <g id="xtick_6">
     <g id="line2d_6">
      <path d="M 236.766341 251.44 
L 236.766341 28.32 
" clip-path="url(#p06efa64f63)" style="fill: none; stroke: #cccccc; stroke-width: 0.8; stroke-linecap: round"/>
     </g>
     <g id="text_6">
      <!-- 125 -->
      <g style="fill: #262626" transform="translate(228.424934 265.597812) scale(0.1 -0.1)">
       <use xlink:href="#ArialMT-31"/>
       <use xlink:href="#ArialMT-32" transform="translate(55.615234 0)"/>
       <use xlink:href="#ArialMT-35" transform="translate(111.230469 0)"/>
      </g>
     </g>
    </g>
    <g id="xtick_7">
     <g id="line2d_7">
      <path d="M 271.877681 251.44 
L 271.877681 28.32 
" clip-path="url(#p06efa64f63)" style="fill: none; stroke: #cccccc; stroke-width: 0.8; stroke-linecap: round"/>
     </g>
     <g id="text_7">
      <!-- 150 -->
      <g style="fill: #262626" transform="translate(263.536275 265.597812) scale(0.1 -0.1)">
       <use xlink:href="#ArialMT-31"/>
       <use xlink:href="#ArialMT-35" transform="translate(55.615234 0)"/>
       <use xlink:href="#ArialMT-30" transform="translate(111.230469 0)"/>
      </g>
     </g>
    </g>
    <g id="xtick_8">
     <g id="line2d_8">
      <path d="M 306.989022 251.44 
L 306.989022 28.32 
" clip-path="url(#p06efa64f63)" style="fill: none; stroke: #cccccc; stroke-width: 0.8; stroke-linecap: round"/>
     </g>
     <g id="text_8">
      <!-- 175 -->
      <g style="fill: #262626" transform="translate(298.647616 265.597812) scale(0.1 -0.1)">
       <use xlink:href="#ArialMT-31"/>
       <use xlink:href="#ArialMT-37" transform="translate(55.615234 0)"/>
       <use xlink:href="#ArialMT-35" transform="translate(111.230469 0)"/>
      </g>
     </g>
    </g>
    <g id="xtick_9">
     <g id="line2d_9">
      <path d="M 342.100363 251.44 
L 342.100363 28.32 
" clip-path="url(#p06efa64f63)" style="fill: none; stroke: #cccccc; stroke-width: 0.8; stroke-linecap: round"/>
     </g>
     <g id="text_9">
      <!-- 200 -->
      <g style="fill: #262626" transform="translate(333.758956 265.597812) scale(0.1 -0.1)">
       <use xlink:href="#ArialMT-32"/>
       <use xlink:href="#ArialMT-30" transform="translate(55.615234 0)"/>
       <use xlink:href="#ArialMT-30" transform="translate(111.230469 0)"/>
      </g>
     </g>
    </g>
    <g id="text_10">
     <!-- $T$ -->
     <g style="fill: #262626" transform="translate(198.555 278.743125) scale(0.1 -0.1)">
      <defs>
       <path id="DejaVuSans-Oblique-54" d="M 378 4666 
L 4325 4666 
L 4225 4134 
L 2559 4134 
L 1759 0 
L 1125 0 
L 1925 4134 
L 275 4134 
L 378 4666 
z
" transform="scale(0.015625)"/>
      </defs>
      <use xlink:href="#DejaVuSans-Oblique-54" transform="translate(0 0.09375)"/>
     </g>
    </g>
   </g>
   <g id="matplotlib.axis_2">
    <g id="ytick_1">
     <g id="line2d_10">
      <path d="M 48.71 241.298182 
L 354.6 241.298182 
" clip-path="url(#p06efa64f63)" style="fill: none; stroke: #cccccc; stroke-width: 0.8; stroke-linecap: round"/>
     </g>
     <g id="text_11">
      <!-- 0.0 -->
      <g style="fill: #262626" transform="translate(27.81 244.877088) scale(0.1 -0.1)">
       <defs>
        <path id="ArialMT-2e" d="M 581 0 
L 581 641 
L 1222 641 
L 1222 0 
L 581 0 
z
" transform="scale(0.015625)"/>
       </defs>
       <use xlink:href="#ArialMT-30"/>
       <use xlink:href="#ArialMT-2e" transform="translate(55.615234 0)"/>
       <use xlink:href="#ArialMT-30" transform="translate(83.398438 0)"/>
      </g>
     </g>
    </g>
    <g id="ytick_2">
     <g id="line2d_11">
      <path d="M 48.71 200.730909 
L 354.6 200.730909 
" clip-path="url(#p06efa64f63)" style="fill: none; stroke: #cccccc; stroke-width: 0.8; stroke-linecap: round"/>
     </g>
     <g id="text_12">
      <!-- 0.2 -->
      <g style="fill: #262626" transform="translate(27.81 204.309815) scale(0.1 -0.1)">
       <use xlink:href="#ArialMT-30"/>
       <use xlink:href="#ArialMT-2e" transform="translate(55.615234 0)"/>
       <use xlink:href="#ArialMT-32" transform="translate(83.398438 0)"/>
      </g>
     </g>
    </g>
    <g id="ytick_3">
     <g id="line2d_12">
      <path d="M 48.71 160.163636 
L 354.6 160.163636 
" clip-path="url(#p06efa64f63)" style="fill: none; stroke: #cccccc; stroke-width: 0.8; stroke-linecap: round"/>
     </g>
     <g id="text_13">
      <!-- 0.4 -->
      <g style="fill: #262626" transform="translate(27.81 163.742543) scale(0.1 -0.1)">
       <defs>
        <path id="ArialMT-34" d="M 2069 0 
L 2069 1097 
L 81 1097 
L 81 1613 
L 2172 4581 
L 2631 4581 
L 2631 1613 
L 3250 1613 
L 3250 1097 
L 2631 1097 
L 2631 0 
L 2069 0 
z
M 2069 1613 
L 2069 3678 
L 634 1613 
L 2069 1613 
z
" transform="scale(0.015625)"/>
       </defs>
       <use xlink:href="#ArialMT-30"/>
       <use xlink:href="#ArialMT-2e" transform="translate(55.615234 0)"/>
       <use xlink:href="#ArialMT-34" transform="translate(83.398438 0)"/>
      </g>
     </g>
    </g>
    <g id="ytick_4">
     <g id="line2d_13">
      <path d="M 48.71 119.596364 
L 354.6 119.596364 
" clip-path="url(#p06efa64f63)" style="fill: none; stroke: #cccccc; stroke-width: 0.8; stroke-linecap: round"/>
     </g>
     <g id="text_14">
      <!-- 0.6 -->
      <g style="fill: #262626" transform="translate(27.81 123.17527) scale(0.1 -0.1)">
       <defs>
        <path id="ArialMT-36" d="M 3184 3459 
L 2625 3416 
Q 2550 3747 2413 3897 
Q 2184 4138 1850 4138 
Q 1581 4138 1378 3988 
Q 1113 3794 959 3422 
Q 806 3050 800 2363 
Q 1003 2672 1297 2822 
Q 1591 2972 1913 2972 
Q 2475 2972 2870 2558 
Q 3266 2144 3266 1488 
Q 3266 1056 3080 686 
Q 2894 316 2569 119 
Q 2244 -78 1831 -78 
Q 1128 -78 684 439 
Q 241 956 241 2144 
Q 241 3472 731 4075 
Q 1159 4600 1884 4600 
Q 2425 4600 2770 4297 
Q 3116 3994 3184 3459 
z
M 888 1484 
Q 888 1194 1011 928 
Q 1134 663 1356 523 
Q 1578 384 1822 384 
Q 2178 384 2434 671 
Q 2691 959 2691 1453 
Q 2691 1928 2437 2201 
Q 2184 2475 1800 2475 
Q 1419 2475 1153 2201 
Q 888 1928 888 1484 
z
" transform="scale(0.015625)"/>
       </defs>
       <use xlink:href="#ArialMT-30"/>
       <use xlink:href="#ArialMT-2e" transform="translate(55.615234 0)"/>
       <use xlink:href="#ArialMT-36" transform="translate(83.398438 0)"/>
      </g>
     </g>
    </g>
    <g id="ytick_5">
     <g id="line2d_14">
      <path d="M 48.71 79.029091 
L 354.6 79.029091 
" clip-path="url(#p06efa64f63)" style="fill: none; stroke: #cccccc; stroke-width: 0.8; stroke-linecap: round"/>
     </g>
     <g id="text_15">
      <!-- 0.8 -->
      <g style="fill: #262626" transform="translate(27.81 82.607997) scale(0.1 -0.1)">
       <defs>
        <path id="ArialMT-38" d="M 1131 2484 
Q 781 2613 612 2850 
Q 444 3088 444 3419 
Q 444 3919 803 4259 
Q 1163 4600 1759 4600 
Q 2359 4600 2725 4251 
Q 3091 3903 3091 3403 
Q 3091 3084 2923 2848 
Q 2756 2613 2416 2484 
Q 2838 2347 3058 2040 
Q 3278 1734 3278 1309 
Q 3278 722 2862 322 
Q 2447 -78 1769 -78 
Q 1091 -78 675 323 
Q 259 725 259 1325 
Q 259 1772 486 2073 
Q 713 2375 1131 2484 
z
M 1019 3438 
Q 1019 3113 1228 2906 
Q 1438 2700 1772 2700 
Q 2097 2700 2305 2904 
Q 2513 3109 2513 3406 
Q 2513 3716 2298 3927 
Q 2084 4138 1766 4138 
Q 1444 4138 1231 3931 
Q 1019 3725 1019 3438 
z
M 838 1322 
Q 838 1081 952 856 
Q 1066 631 1291 507 
Q 1516 384 1775 384 
Q 2178 384 2440 643 
Q 2703 903 2703 1303 
Q 2703 1709 2433 1975 
Q 2163 2241 1756 2241 
Q 1359 2241 1098 1978 
Q 838 1716 838 1322 
z
" transform="scale(0.015625)"/>
       </defs>
       <use xlink:href="#ArialMT-30"/>
       <use xlink:href="#ArialMT-2e" transform="translate(55.615234 0)"/>
       <use xlink:href="#ArialMT-38" transform="translate(83.398438 0)"/>
      </g>
     </g>
    </g>
    <g id="ytick_6">
     <g id="line2d_15">
      <path d="M 48.71 38.461818 
L 354.6 38.461818 
" clip-path="url(#p06efa64f63)" style="fill: none; stroke: #cccccc; stroke-width: 0.8; stroke-linecap: round"/>
     </g>
     <g id="text_16">
      <!-- 1.0 -->
      <g style="fill: #262626" transform="translate(27.81 42.040724) scale(0.1 -0.1)">
       <use xlink:href="#ArialMT-31"/>
       <use xlink:href="#ArialMT-2e" transform="translate(55.615234 0)"/>
       <use xlink:href="#ArialMT-30" transform="translate(83.398438 0)"/>
      </g>
     </g>
    </g>
    <g id="text_17">
     <!-- $\psi(u_0, T)$ -->
     <g style="fill: #262626" transform="translate(21.71 158.23) rotate(-90) scale(0.1 -0.1)">
      <defs>
       <path id="DejaVuSans-Oblique-3c8" d="M 1591 -78 
Q 891 38 616 341 
Q 278 713 425 1472 
L 819 3500 
L 1400 3500 
L 1009 1494 
Q 900 922 1119 684 
Q 1313 478 1691 434 
L 2284 3500 
L 2856 3500 
L 2263 438 
Q 2681 481 2928 688 
Q 3247 950 3353 1497 
L 3741 3500 
L 4322 3500 
L 3928 1475 
Q 3775 688 3300 344 
Q 2872 34 2163 -75 
L 1919 -1331 
L 1347 -1331 
L 1591 -78 
z
" transform="scale(0.015625)"/>
       <path id="DejaVuSans-28" d="M 1984 4856 
Q 1566 4138 1362 3434 
Q 1159 2731 1159 2009 
Q 1159 1288 1364 580 
Q 1569 -128 1984 -844 
L 1484 -844 
Q 1016 -109 783 600 
Q 550 1309 550 2009 
Q 550 2706 781 3412 
Q 1013 4119 1484 4856 
L 1984 4856 
z
" transform="scale(0.015625)"/>
       <path id="DejaVuSans-Oblique-75" d="M 428 1388 
L 838 3500 
L 1416 3500 
L 1006 1409 
Q 975 1256 961 1147 
Q 947 1038 947 966 
Q 947 700 1109 554 
Q 1272 409 1569 409 
Q 2031 409 2368 721 
Q 2706 1034 2809 1563 
L 3194 3500 
L 3769 3500 
L 3091 0 
L 2516 0 
L 2631 550 
Q 2388 244 2052 76 
Q 1716 -91 1338 -91 
Q 878 -91 622 161 
Q 366 413 366 863 
Q 366 956 381 1097 
Q 397 1238 428 1388 
z
" transform="scale(0.015625)"/>
       <path id="DejaVuSans-30" d="M 2034 4250 
Q 1547 4250 1301 3770 
Q 1056 3291 1056 2328 
Q 1056 1369 1301 889 
Q 1547 409 2034 409 
Q 2525 409 2770 889 
Q 3016 1369 3016 2328 
Q 3016 3291 2770 3770 
Q 2525 4250 2034 4250 
z
M 2034 4750 
Q 2819 4750 3233 4129 
Q 3647 3509 3647 2328 
Q 3647 1150 3233 529 
Q 2819 -91 2034 -91 
Q 1250 -91 836 529 
Q 422 1150 422 2328 
Q 422 3509 836 4129 
Q 1250 4750 2034 4750 
z
" transform="scale(0.015625)"/>
       <path id="DejaVuSans-2c" d="M 750 794 
L 1409 794 
L 1409 256 
L 897 -744 
L 494 -744 
L 750 256 
L 750 794 
z
" transform="scale(0.015625)"/>
       <path id="DejaVuSans-29" d="M 513 4856 
L 1013 4856 
Q 1481 4119 1714 3412 
Q 1947 2706 1947 2009 
Q 1947 1309 1714 600 
Q 1481 -109 1013 -844 
L 513 -844 
Q 928 -128 1133 580 
Q 1338 1288 1338 2009 
Q 1338 2731 1133 3434 
Q 928 4138 513 4856 
z
" transform="scale(0.015625)"/>
      </defs>
      <use xlink:href="#DejaVuSans-Oblique-3c8" transform="translate(0 0.125)"/>
      <use xlink:href="#DejaVuSans-28" transform="translate(65.966797 0.125)"/>
      <use xlink:href="#DejaVuSans-Oblique-75" transform="translate(104.980469 0.125)"/>
      <use xlink:href="#DejaVuSans-30" transform="translate(168.359375 -16.28125) scale(0.7)"/>
      <use xlink:href="#DejaVuSans-2c" transform="translate(215.629883 0.125)"/>
      <use xlink:href="#DejaVuSans-Oblique-54" transform="translate(266.899414 0.125)"/>
      <use xlink:href="#DejaVuSans-29" transform="translate(327.983398 0.125)"/>
     </g>
    </g>
   </g>
   <g id="line2d_16">
    <path d="M 62.614091 237.444291 
L 64.018545 231.156364 
L 65.422998 228.113818 
L 71.040813 213.5096 
L 72.445266 210.467055 
L 73.84972 206.816 
L 76.658627 203.164945 
L 78.063081 201.947927 
L 79.467534 199.919564 
L 82.276442 197.079855 
L 83.680895 195.254327 
L 86.489803 192.820291 
L 87.894256 192.008945 
L 89.29871 190.791927 
L 90.703163 188.357891 
L 92.107617 185.315345 
L 93.512071 184.909673 
L 96.320978 182.881309 
L 97.725432 181.664291 
L 99.129885 180.650109 
L 100.534339 179.433091 
L 101.938792 177.607564 
L 103.343246 176.593382 
L 104.7477 175.173527 
L 106.152153 174.159345 
L 108.961061 172.942327 
L 110.365514 172.536655 
L 111.769968 171.725309 
L 113.174421 171.1168 
L 114.578875 170.102618 
L 115.983329 169.494109 
L 117.387782 168.479927 
L 118.792236 168.074255 
L 120.19669 168.074255 
L 123.005597 167.262909 
L 124.410051 166.6544 
L 125.814504 165.640218 
L 131.432319 164.017527 
L 132.836772 163.814691 
L 134.241226 163.206182 
L 135.64568 162.192 
L 137.050133 161.989164 
L 138.454587 161.989164 
L 142.667948 160.772145 
L 144.072401 160.772145 
L 145.476855 160.569309 
L 146.881309 160.163636 
L 148.285762 159.555127 
L 149.690216 158.135273 
L 151.094669 157.7296 
L 153.903577 157.323927 
L 155.30803 156.918255 
L 156.712484 156.106909 
L 158.116938 155.904073 
L 159.521391 155.904073 
L 160.925845 155.092727 
L 162.330298 155.092727 
L 163.734752 154.687055 
L 165.139206 153.875709 
L 166.543659 153.470036 
L 169.352567 153.470036 
L 170.75702 152.861527 
L 174.970381 152.253018 
L 177.779288 151.036 
L 179.183742 151.036 
L 180.588196 150.833164 
L 181.992649 150.224655 
L 183.397103 150.021818 
L 184.801556 149.616145 
L 186.20601 149.413309 
L 187.610464 148.601964 
L 189.014917 147.587782 
L 190.419371 147.587782 
L 191.823825 147.384945 
L 193.228278 146.776436 
L 196.037185 146.776436 
L 197.441639 146.5736 
L 200.250546 146.5736 
L 204.463907 145.965091 
L 205.868361 145.559418 
L 208.677268 145.559418 
L 210.081722 145.356582 
L 211.486175 145.356582 
L 212.890629 144.748073 
L 214.295083 144.3424 
L 215.699536 144.139564 
L 217.10399 143.531055 
L 218.508444 143.531055 
L 219.912897 143.328218 
L 221.317351 143.328218 
L 222.721804 143.125382 
L 224.126258 143.125382 
L 226.935165 142.719709 
L 232.55298 142.719709 
L 233.957433 142.314036 
L 236.766341 141.908364 
L 238.170794 141.502691 
L 239.575248 141.299855 
L 240.979702 140.894182 
L 242.384155 140.894182 
L 243.788609 140.488509 
L 246.597516 140.488509 
L 248.00197 140.285673 
L 249.406423 139.88 
L 250.810877 139.88 
L 255.024238 138.662982 
L 256.428691 138.460145 
L 257.833145 138.460145 
L 259.237599 138.257309 
L 263.45096 138.257309 
L 264.855413 138.054473 
L 266.259867 138.054473 
L 267.66432 137.6488 
L 269.068774 137.445964 
L 270.473228 137.040291 
L 271.877681 136.837455 
L 274.686589 136.026109 
L 280.304403 136.026109 
L 284.517764 135.4176 
L 287.326671 135.4176 
L 288.731125 135.214764 
L 290.135579 135.214764 
L 292.944486 134.809091 
L 295.753393 134.809091 
L 297.157847 134.403418 
L 298.5623 134.403418 
L 301.371208 133.997745 
L 304.180115 133.997745 
L 305.584568 133.794909 
L 308.393476 133.794909 
L 309.797929 133.389236 
L 311.202383 133.389236 
L 312.606837 133.1864 
L 323.842466 133.1864 
L 325.246919 132.983564 
L 326.651373 132.983564 
L 328.055826 132.577891 
L 329.46028 132.577891 
L 330.864734 132.375055 
L 332.269187 132.375055 
L 333.673641 132.172218 
L 335.078095 132.172218 
L 336.482548 131.969382 
L 337.887002 131.563709 
L 340.695909 131.563709 
L 340.695909 131.563709 
" clip-path="url(#p06efa64f63)" style="fill: none; stroke: #1f77b4; stroke-width: 1.5; stroke-linecap: round"/>
   </g>
   <g id="line2d_17">
    <path d="M 62.614091 78.826255 
L 340.695909 78.826255 
L 340.695909 78.826255 
" clip-path="url(#p06efa64f63)" style="fill: none; stroke: #ff7f0e; stroke-width: 1.5; stroke-linecap: round"/>
   </g>
   <g id="patch_3">
    <path d="M 48.71 251.44 
L 48.71 28.32 
" style="fill: none; stroke: #cccccc; stroke-width: 0.8; stroke-linejoin: miter; stroke-linecap: square"/>
   </g>
   <g id="patch_4">
    <path d="M 354.6 251.44 
L 354.6 28.32 
" style="fill: none; stroke: #cccccc; stroke-width: 0.8; stroke-linejoin: miter; stroke-linecap: square"/>
   </g>
   <g id="patch_5">
    <path d="M 48.71 251.44 
L 354.6 251.44 
" style="fill: none; stroke: #cccccc; stroke-width: 0.8; stroke-linejoin: miter; stroke-linecap: square"/>
   </g>
   <g id="patch_6">
    <path d="M 48.71 28.32 
L 354.6 28.32 
" style="fill: none; stroke: #cccccc; stroke-width: 0.8; stroke-linejoin: miter; stroke-linecap: square"/>
   </g>
   <g id="text_18">
    <!-- $\lambda = 1, \alpha = 1.5, \lambda_P = 1, u_0 = 10$ -->
    <g style="fill: #262626" transform="translate(117.715 22.32) scale(0.12 -0.12)">
     <defs>
      <path id="DejaVuSans-Oblique-3bb" d="M 2350 4316 
L 3125 0 
L 2516 0 
L 2038 2588 
L 328 0 
L -281 0 
L 1903 3356 
L 1794 3975 
Q 1725 4369 1391 4369 
L 1091 4369 
L 1184 4863 
L 1550 4856 
Q 2253 4847 2350 4316 
z
" transform="scale(0.015625)"/>
      <path id="DejaVuSans-3d" d="M 678 2906 
L 4684 2906 
L 4684 2381 
L 678 2381 
L 678 2906 
z
M 678 1631 
L 4684 1631 
L 4684 1100 
L 678 1100 
L 678 1631 
z
" transform="scale(0.015625)"/>
      <path id="DejaVuSans-31" d="M 794 531 
L 1825 531 
L 1825 4091 
L 703 3866 
L 703 4441 
L 1819 4666 
L 2450 4666 
L 2450 531 
L 3481 531 
L 3481 0 
L 794 0 
L 794 531 
z
" transform="scale(0.015625)"/>
      <path id="DejaVuSans-Oblique-3b1" d="M 2619 1628 
L 2622 2350 
Q 2625 3088 2069 3091 
Q 1653 3094 1394 2747 
Q 1069 2319 959 1747 
Q 825 1059 994 731 
Q 1169 397 1547 397 
Q 1966 397 2319 1063 
L 2619 1628 
z
M 2166 3578 
Q 3141 3594 3128 2584 
Q 3128 2584 3616 3500 
L 4128 3500 
L 3119 1603 
L 3109 919 
Q 3109 766 3194 638 
Q 3291 488 3391 488 
L 3669 488 
L 3575 0 
L 3228 0 
Q 2934 0 2722 263 
Q 2622 394 2619 669 
Q 2416 334 2066 50 
Q 1900 -81 1453 -78 
Q 722 -72 456 397 
Q 184 884 353 1747 
Q 534 2675 1009 3097 
Q 1544 3569 2166 3578 
z
" transform="scale(0.015625)"/>
      <path id="DejaVuSans-2e" d="M 684 794 
L 1344 794 
L 1344 0 
L 684 0 
L 684 794 
z
" transform="scale(0.015625)"/>
      <path id="DejaVuSans-35" d="M 691 4666 
L 3169 4666 
L 3169 4134 
L 1269 4134 
L 1269 2991 
Q 1406 3038 1543 3061 
Q 1681 3084 1819 3084 
Q 2600 3084 3056 2656 
Q 3513 2228 3513 1497 
Q 3513 744 3044 326 
Q 2575 -91 1722 -91 
Q 1428 -91 1123 -41 
Q 819 9 494 109 
L 494 744 
Q 775 591 1075 516 
Q 1375 441 1709 441 
Q 2250 441 2565 725 
Q 2881 1009 2881 1497 
Q 2881 1984 2565 2268 
Q 2250 2553 1709 2553 
Q 1456 2553 1204 2497 
Q 953 2441 691 2322 
L 691 4666 
z
" transform="scale(0.015625)"/>
      <path id="DejaVuSans-Oblique-50" d="M 1081 4666 
L 2541 4666 
Q 3178 4666 3512 4369 
Q 3847 4072 3847 3500 
Q 3847 2731 3353 2303 
Q 2859 1875 1966 1875 
L 1172 1875 
L 806 0 
L 172 0 
L 1081 4666 
z
M 1613 4147 
L 1275 2394 
L 2069 2394 
Q 2606 2394 2893 2669 
Q 3181 2944 3181 3456 
Q 3181 3784 2986 3965 
Q 2791 4147 2438 4147 
L 1613 4147 
z
" transform="scale(0.015625)"/>
     </defs>
     <use xlink:href="#DejaVuSans-Oblique-3bb" transform="translate(0 0.015625)"/>
     <use xlink:href="#DejaVuSans-3d" transform="translate(78.662109 0.015625)"/>
     <use xlink:href="#DejaVuSans-31" transform="translate(181.933594 0.015625)"/>
     <use xlink:href="#DejaVuSans-2c" transform="translate(245.556641 0.015625)"/>
     <use xlink:href="#DejaVuSans-Oblique-3b1" transform="translate(296.826172 0.015625)"/>
     <use xlink:href="#DejaVuSans-3d" transform="translate(382.226562 0.015625)"/>
     <use xlink:href="#DejaVuSans-31" transform="translate(485.498047 0.015625)"/>
     <use xlink:href="#DejaVuSans-2e" transform="translate(549.121094 0.015625)"/>
     <use xlink:href="#DejaVuSans-35" transform="translate(580.908203 0.015625)"/>
     <use xlink:href="#DejaVuSans-2c" transform="translate(644.53125 0.015625)"/>
     <use xlink:href="#DejaVuSans-Oblique-3bb" transform="translate(695.800781 0.015625)"/>
     <use xlink:href="#DejaVuSans-Oblique-50" transform="translate(754.980469 -16.390625) scale(0.7)"/>
     <use xlink:href="#DejaVuSans-3d" transform="translate(819.40918 0.015625)"/>
     <use xlink:href="#DejaVuSans-31" transform="translate(922.680664 0.015625)"/>
     <use xlink:href="#DejaVuSans-2c" transform="translate(986.303711 0.015625)"/>
     <use xlink:href="#DejaVuSans-Oblique-75" transform="translate(1037.573242 0.015625)"/>
     <use xlink:href="#DejaVuSans-30" transform="translate(1100.952148 -16.390625) scale(0.7)"/>
     <use xlink:href="#DejaVuSans-3d" transform="translate(1167.705078 0.015625)"/>
     <use xlink:href="#DejaVuSans-31" transform="translate(1270.976562 0.015625)"/>
     <use xlink:href="#DejaVuSans-30" transform="translate(1334.599609 0.015625)"/>
    </g>
   </g>
   <g id="legend_1">
    <g id="patch_7">
     <path d="M 222.776562 64.610625 
L 347.6 64.610625 
Q 349.6 64.610625 349.6 62.610625 
L 349.6 35.32 
Q 349.6 33.32 347.6 33.32 
L 222.776562 33.32 
Q 220.776562 33.32 220.776562 35.32 
L 220.776562 62.610625 
Q 220.776562 64.610625 222.776562 64.610625 
z
" style="fill: #ffffff; opacity: 0.8; stroke: #cccccc; stroke-linejoin: miter"/>
    </g>
    <g id="line2d_18">
     <path d="M 224.776562 40.977812 
L 234.776562 40.977812 
L 244.776562 40.977812 
" style="fill: none; stroke: #1f77b4; stroke-width: 1.5; stroke-linecap: round"/>
    </g>
    <g id="text_19">
     <!-- Monte Carlo -->
     <g style="fill: #262626" transform="translate(252.776562 44.477812) scale(0.1 -0.1)">
      <defs>
       <path id="ArialMT-4d" d="M 475 0 
L 475 4581 
L 1388 4581 
L 2472 1338 
Q 2622 884 2691 659 
Q 2769 909 2934 1394 
L 4031 4581 
L 4847 4581 
L 4847 0 
L 4263 0 
L 4263 3834 
L 2931 0 
L 2384 0 
L 1059 3900 
L 1059 0 
L 475 0 
z
" transform="scale(0.015625)"/>
       <path id="ArialMT-6f" d="M 213 1659 
Q 213 2581 725 3025 
Q 1153 3394 1769 3394 
Q 2453 3394 2887 2945 
Q 3322 2497 3322 1706 
Q 3322 1066 3130 698 
Q 2938 331 2570 128 
Q 2203 -75 1769 -75 
Q 1072 -75 642 372 
Q 213 819 213 1659 
z
M 791 1659 
Q 791 1022 1069 705 
Q 1347 388 1769 388 
Q 2188 388 2466 706 
Q 2744 1025 2744 1678 
Q 2744 2294 2464 2611 
Q 2184 2928 1769 2928 
Q 1347 2928 1069 2612 
Q 791 2297 791 1659 
z
" transform="scale(0.015625)"/>
       <path id="ArialMT-6e" d="M 422 0 
L 422 3319 
L 928 3319 
L 928 2847 
Q 1294 3394 1984 3394 
Q 2284 3394 2536 3286 
Q 2788 3178 2913 3003 
Q 3038 2828 3088 2588 
Q 3119 2431 3119 2041 
L 3119 0 
L 2556 0 
L 2556 2019 
Q 2556 2363 2490 2533 
Q 2425 2703 2258 2804 
Q 2091 2906 1866 2906 
Q 1506 2906 1245 2678 
Q 984 2450 984 1813 
L 984 0 
L 422 0 
z
" transform="scale(0.015625)"/>
       <path id="ArialMT-74" d="M 1650 503 
L 1731 6 
Q 1494 -44 1306 -44 
Q 1000 -44 831 53 
Q 663 150 594 308 
Q 525 466 525 972 
L 525 2881 
L 113 2881 
L 113 3319 
L 525 3319 
L 525 4141 
L 1084 4478 
L 1084 3319 
L 1650 3319 
L 1650 2881 
L 1084 2881 
L 1084 941 
Q 1084 700 1114 631 
Q 1144 563 1211 522 
Q 1278 481 1403 481 
Q 1497 481 1650 503 
z
" transform="scale(0.015625)"/>
       <path id="ArialMT-65" d="M 2694 1069 
L 3275 997 
Q 3138 488 2766 206 
Q 2394 -75 1816 -75 
Q 1088 -75 661 373 
Q 234 822 234 1631 
Q 234 2469 665 2931 
Q 1097 3394 1784 3394 
Q 2450 3394 2872 2941 
Q 3294 2488 3294 1666 
Q 3294 1616 3291 1516 
L 816 1516 
Q 847 969 1125 678 
Q 1403 388 1819 388 
Q 2128 388 2347 550 
Q 2566 713 2694 1069 
z
M 847 1978 
L 2700 1978 
Q 2663 2397 2488 2606 
Q 2219 2931 1791 2931 
Q 1403 2931 1139 2672 
Q 875 2413 847 1978 
z
" transform="scale(0.015625)"/>
       <path id="ArialMT-20" transform="scale(0.015625)"/>
       <path id="ArialMT-43" d="M 3763 1606 
L 4369 1453 
Q 4178 706 3683 314 
Q 3188 -78 2472 -78 
Q 1731 -78 1267 223 
Q 803 525 561 1097 
Q 319 1669 319 2325 
Q 319 3041 592 3573 
Q 866 4106 1370 4382 
Q 1875 4659 2481 4659 
Q 3169 4659 3637 4309 
Q 4106 3959 4291 3325 
L 3694 3184 
Q 3534 3684 3231 3912 
Q 2928 4141 2469 4141 
Q 1941 4141 1586 3887 
Q 1231 3634 1087 3207 
Q 944 2781 944 2328 
Q 944 1744 1114 1308 
Q 1284 872 1643 656 
Q 2003 441 2422 441 
Q 2931 441 3284 734 
Q 3638 1028 3763 1606 
z
" transform="scale(0.015625)"/>
       <path id="ArialMT-61" d="M 2588 409 
Q 2275 144 1986 34 
Q 1697 -75 1366 -75 
Q 819 -75 525 192 
Q 231 459 231 875 
Q 231 1119 342 1320 
Q 453 1522 633 1644 
Q 813 1766 1038 1828 
Q 1203 1872 1538 1913 
Q 2219 1994 2541 2106 
Q 2544 2222 2544 2253 
Q 2544 2597 2384 2738 
Q 2169 2928 1744 2928 
Q 1347 2928 1158 2789 
Q 969 2650 878 2297 
L 328 2372 
Q 403 2725 575 2942 
Q 747 3159 1072 3276 
Q 1397 3394 1825 3394 
Q 2250 3394 2515 3294 
Q 2781 3194 2906 3042 
Q 3031 2891 3081 2659 
Q 3109 2516 3109 2141 
L 3109 1391 
Q 3109 606 3145 398 
Q 3181 191 3288 0 
L 2700 0 
Q 2613 175 2588 409 
z
M 2541 1666 
Q 2234 1541 1622 1453 
Q 1275 1403 1131 1340 
Q 988 1278 909 1158 
Q 831 1038 831 891 
Q 831 666 1001 516 
Q 1172 366 1500 366 
Q 1825 366 2078 508 
Q 2331 650 2450 897 
Q 2541 1088 2541 1459 
L 2541 1666 
z
" transform="scale(0.015625)"/>
       <path id="ArialMT-72" d="M 416 0 
L 416 3319 
L 922 3319 
L 922 2816 
Q 1116 3169 1280 3281 
Q 1444 3394 1641 3394 
Q 1925 3394 2219 3213 
L 2025 2691 
Q 1819 2813 1613 2813 
Q 1428 2813 1281 2702 
Q 1134 2591 1072 2394 
Q 978 2094 978 1738 
L 978 0 
L 416 0 
z
" transform="scale(0.015625)"/>
       <path id="ArialMT-6c" d="M 409 0 
L 409 4581 
L 972 4581 
L 972 0 
L 409 0 
z
" transform="scale(0.015625)"/>
      </defs>
      <use xlink:href="#ArialMT-4d"/>
      <use xlink:href="#ArialMT-6f" transform="translate(83.300781 0)"/>
      <use xlink:href="#ArialMT-6e" transform="translate(138.916016 0)"/>
      <use xlink:href="#ArialMT-74" transform="translate(194.53125 0)"/>
      <use xlink:href="#ArialMT-65" transform="translate(222.314453 0)"/>
      <use xlink:href="#ArialMT-20" transform="translate(277.929688 0)"/>
      <use xlink:href="#ArialMT-43" transform="translate(305.712891 0)"/>
      <use xlink:href="#ArialMT-61" transform="translate(377.929688 0)"/>
      <use xlink:href="#ArialMT-72" transform="translate(433.544922 0)"/>
      <use xlink:href="#ArialMT-6c" transform="translate(466.845703 0)"/>
      <use xlink:href="#ArialMT-6f" transform="translate(489.0625 0)"/>
     </g>
    </g>
    <g id="line2d_19">
     <path d="M 224.776562 55.123125 
L 234.776562 55.123125 
L 244.776562 55.123125 
" style="fill: none; stroke: #ff7f0e; stroke-width: 1.5; stroke-linecap: round"/>
    </g>
    <g id="text_20">
     <!-- Pollaczek-Khintchine -->
     <g style="fill: #262626" transform="translate(252.776562 58.623125) scale(0.1 -0.1)">
      <defs>
       <path id="ArialMT-50" d="M 494 0 
L 494 4581 
L 2222 4581 
Q 2678 4581 2919 4538 
Q 3256 4481 3484 4323 
Q 3713 4166 3852 3881 
Q 3991 3597 3991 3256 
Q 3991 2672 3619 2267 
Q 3247 1863 2275 1863 
L 1100 1863 
L 1100 0 
L 494 0 
z
M 1100 2403 
L 2284 2403 
Q 2872 2403 3119 2622 
Q 3366 2841 3366 3238 
Q 3366 3525 3220 3729 
Q 3075 3934 2838 4000 
Q 2684 4041 2272 4041 
L 1100 4041 
L 1100 2403 
z
" transform="scale(0.015625)"/>
       <path id="ArialMT-63" d="M 2588 1216 
L 3141 1144 
Q 3050 572 2676 248 
Q 2303 -75 1759 -75 
Q 1078 -75 664 370 
Q 250 816 250 1647 
Q 250 2184 428 2587 
Q 606 2991 970 3192 
Q 1334 3394 1763 3394 
Q 2303 3394 2647 3120 
Q 2991 2847 3088 2344 
L 2541 2259 
Q 2463 2594 2264 2762 
Q 2066 2931 1784 2931 
Q 1359 2931 1093 2626 
Q 828 2322 828 1663 
Q 828 994 1084 691 
Q 1341 388 1753 388 
Q 2084 388 2306 591 
Q 2528 794 2588 1216 
z
" transform="scale(0.015625)"/>
       <path id="ArialMT-7a" d="M 125 0 
L 125 456 
L 2238 2881 
Q 1878 2863 1603 2863 
L 250 2863 
L 250 3319 
L 2963 3319 
L 2963 2947 
L 1166 841 
L 819 456 
Q 1197 484 1528 484 
L 3063 484 
L 3063 0 
L 125 0 
z
" transform="scale(0.015625)"/>
       <path id="ArialMT-6b" d="M 425 0 
L 425 4581 
L 988 4581 
L 988 1969 
L 2319 3319 
L 3047 3319 
L 1778 2088 
L 3175 0 
L 2481 0 
L 1384 1697 
L 988 1316 
L 988 0 
L 425 0 
z
" transform="scale(0.015625)"/>
       <path id="ArialMT-2d" d="M 203 1375 
L 203 1941 
L 1931 1941 
L 1931 1375 
L 203 1375 
z
" transform="scale(0.015625)"/>
       <path id="ArialMT-4b" d="M 469 0 
L 469 4581 
L 1075 4581 
L 1075 2309 
L 3350 4581 
L 4172 4581 
L 2250 2725 
L 4256 0 
L 3456 0 
L 1825 2319 
L 1075 1588 
L 1075 0 
L 469 0 
z
" transform="scale(0.015625)"/>
       <path id="ArialMT-68" d="M 422 0 
L 422 4581 
L 984 4581 
L 984 2938 
Q 1378 3394 1978 3394 
Q 2347 3394 2619 3248 
Q 2891 3103 3008 2847 
Q 3125 2591 3125 2103 
L 3125 0 
L 2563 0 
L 2563 2103 
Q 2563 2525 2380 2717 
Q 2197 2909 1863 2909 
Q 1613 2909 1392 2779 
Q 1172 2650 1078 2428 
Q 984 2206 984 1816 
L 984 0 
L 422 0 
z
" transform="scale(0.015625)"/>
       <path id="ArialMT-69" d="M 425 3934 
L 425 4581 
L 988 4581 
L 988 3934 
L 425 3934 
z
M 425 0 
L 425 3319 
L 988 3319 
L 988 0 
L 425 0 
z
" transform="scale(0.015625)"/>
      </defs>
      <use xlink:href="#ArialMT-50"/>
      <use xlink:href="#ArialMT-6f" transform="translate(66.699219 0)"/>
      <use xlink:href="#ArialMT-6c" transform="translate(122.314453 0)"/>
      <use xlink:href="#ArialMT-6c" transform="translate(144.53125 0)"/>
      <use xlink:href="#ArialMT-61" transform="translate(166.748047 0)"/>
      <use xlink:href="#ArialMT-63" transform="translate(222.363281 0)"/>
      <use xlink:href="#ArialMT-7a" transform="translate(272.363281 0)"/>
      <use xlink:href="#ArialMT-65" transform="translate(322.363281 0)"/>
      <use xlink:href="#ArialMT-6b" transform="translate(377.978516 0)"/>
      <use xlink:href="#ArialMT-2d" transform="translate(427.978516 0)"/>
      <use xlink:href="#ArialMT-4b" transform="translate(461.279297 0)"/>
      <use xlink:href="#ArialMT-68" transform="translate(527.978516 0)"/>
      <use xlink:href="#ArialMT-69" transform="translate(583.59375 0)"/>
      <use xlink:href="#ArialMT-6e" transform="translate(605.810547 0)"/>
      <use xlink:href="#ArialMT-74" transform="translate(661.425781 0)"/>
      <use xlink:href="#ArialMT-63" transform="translate(689.208984 0)"/>
      <use xlink:href="#ArialMT-68" transform="translate(739.208984 0)"/>
      <use xlink:href="#ArialMT-69" transform="translate(794.824219 0)"/>
      <use xlink:href="#ArialMT-6e" transform="translate(817.041016 0)"/>
      <use xlink:href="#ArialMT-65" transform="translate(872.65625 0)"/>
     </g>
    </g>
   </g>
  </g>
  <g id="axes_2">
   <g id="patch_8">
    <path d="M 403.31 251.44 
L 709.2 251.44 
L 709.2 28.32 
L 403.31 28.32 
z
" style="fill: #ffffff"/>
   </g>
   <g id="matplotlib.axis_3">
    <g id="xtick_10">
     <g id="line2d_20">
      <path d="M 415.809637 251.44 
L 415.809637 28.32 
" clip-path="url(#p61b78ec793)" style="fill: none; stroke: #cccccc; stroke-width: 0.8; stroke-linecap: round"/>
     </g>
     <g id="text_21">
      <!-- 0 -->
      <g style="fill: #262626" transform="translate(413.029169 265.597812) scale(0.1 -0.1)">
       <use xlink:href="#ArialMT-30"/>
      </g>
     </g>
    </g>
    <g id="xtick_11">
     <g id="line2d_21">
      <path d="M 450.920978 251.44 
L 450.920978 28.32 
" clip-path="url(#p61b78ec793)" style="fill: none; stroke: #cccccc; stroke-width: 0.8; stroke-linecap: round"/>
     </g>
     <g id="text_22">
      <!-- 25 -->
      <g style="fill: #262626" transform="translate(445.36004 265.597812) scale(0.1 -0.1)">
       <use xlink:href="#ArialMT-32"/>
       <use xlink:href="#ArialMT-35" transform="translate(55.615234 0)"/>
      </g>
     </g>
    </g>
    <g id="xtick_12">
     <g id="line2d_22">
      <path d="M 486.032319 251.44 
L 486.032319 28.32 
" clip-path="url(#p61b78ec793)" style="fill: none; stroke: #cccccc; stroke-width: 0.8; stroke-linecap: round"/>
     </g>
     <g id="text_23">
      <!-- 50 -->
      <g style="fill: #262626" transform="translate(480.471381 265.597812) scale(0.1 -0.1)">
       <use xlink:href="#ArialMT-35"/>
       <use xlink:href="#ArialMT-30" transform="translate(55.615234 0)"/>
      </g>
     </g>
    </g>
    <g id="xtick_13">
     <g id="line2d_23">
      <path d="M 521.143659 251.44 
L 521.143659 28.32 
" clip-path="url(#p61b78ec793)" style="fill: none; stroke: #cccccc; stroke-width: 0.8; stroke-linecap: round"/>
     </g>
     <g id="text_24">
      <!-- 75 -->
      <g style="fill: #262626" transform="translate(515.582722 265.597812) scale(0.1 -0.1)">
       <use xlink:href="#ArialMT-37"/>
       <use xlink:href="#ArialMT-35" transform="translate(55.615234 0)"/>
      </g>
     </g>
    </g>
    <g id="xtick_14">
     <g id="line2d_24">
      <path d="M 556.255 251.44 
L 556.255 28.32 
" clip-path="url(#p61b78ec793)" style="fill: none; stroke: #cccccc; stroke-width: 0.8; stroke-linecap: round"/>
     </g>
     <g id="text_25">
      <!-- 100 -->
      <g style="fill: #262626" transform="translate(547.913594 265.597812) scale(0.1 -0.1)">
       <use xlink:href="#ArialMT-31"/>
       <use xlink:href="#ArialMT-30" transform="translate(55.615234 0)"/>
       <use xlink:href="#ArialMT-30" transform="translate(111.230469 0)"/>
      </g>
     </g>
    </g>
    <g id="xtick_15">
     <g id="line2d_25">
      <path d="M 591.366341 251.44 
L 591.366341 28.32 
" clip-path="url(#p61b78ec793)" style="fill: none; stroke: #cccccc; stroke-width: 0.8; stroke-linecap: round"/>
     </g>
     <g id="text_26">
      <!-- 125 -->
      <g style="fill: #262626" transform="translate(583.024934 265.597812) scale(0.1 -0.1)">
       <use xlink:href="#ArialMT-31"/>
       <use xlink:href="#ArialMT-32" transform="translate(55.615234 0)"/>
       <use xlink:href="#ArialMT-35" transform="translate(111.230469 0)"/>
      </g>
     </g>
    </g>
    <g id="xtick_16">
     <g id="line2d_26">
      <path d="M 626.477681 251.44 
L 626.477681 28.32 
" clip-path="url(#p61b78ec793)" style="fill: none; stroke: #cccccc; stroke-width: 0.8; stroke-linecap: round"/>
     </g>
     <g id="text_27">
      <!-- 150 -->
      <g style="fill: #262626" transform="translate(618.136275 265.597812) scale(0.1 -0.1)">
       <use xlink:href="#ArialMT-31"/>
       <use xlink:href="#ArialMT-35" transform="translate(55.615234 0)"/>
       <use xlink:href="#ArialMT-30" transform="translate(111.230469 0)"/>
      </g>
     </g>
    </g>
    <g id="xtick_17">
     <g id="line2d_27">
      <path d="M 661.589022 251.44 
L 661.589022 28.32 
" clip-path="url(#p61b78ec793)" style="fill: none; stroke: #cccccc; stroke-width: 0.8; stroke-linecap: round"/>
     </g>
     <g id="text_28">
      <!-- 175 -->
      <g style="fill: #262626" transform="translate(653.247616 265.597812) scale(0.1 -0.1)">
       <use xlink:href="#ArialMT-31"/>
       <use xlink:href="#ArialMT-37" transform="translate(55.615234 0)"/>
       <use xlink:href="#ArialMT-35" transform="translate(111.230469 0)"/>
      </g>
     </g>
    </g>
    <g id="xtick_18">
     <g id="line2d_28">
      <path d="M 696.700363 251.44 
L 696.700363 28.32 
" clip-path="url(#p61b78ec793)" style="fill: none; stroke: #cccccc; stroke-width: 0.8; stroke-linecap: round"/>
     </g>
     <g id="text_29">
      <!-- 200 -->
      <g style="fill: #262626" transform="translate(688.358956 265.597812) scale(0.1 -0.1)">
       <use xlink:href="#ArialMT-32"/>
       <use xlink:href="#ArialMT-30" transform="translate(55.615234 0)"/>
       <use xlink:href="#ArialMT-30" transform="translate(111.230469 0)"/>
      </g>
     </g>
    </g>
    <g id="text_30">
     <!-- $T$ -->
     <g style="fill: #262626" transform="translate(553.155 278.743125) scale(0.1 -0.1)">
      <use xlink:href="#DejaVuSans-Oblique-54" transform="translate(0 0.09375)"/>
     </g>
    </g>
   </g>
   <g id="matplotlib.axis_4">
    <g id="ytick_7">
     <g id="line2d_29">
      <path d="M 403.31 241.298182 
L 709.2 241.298182 
" clip-path="url(#p61b78ec793)" style="fill: none; stroke: #cccccc; stroke-width: 0.8; stroke-linecap: round"/>
     </g>
     <g id="text_31">
      <!-- 0.0 -->
      <g style="fill: #262626" transform="translate(382.41 244.877088) scale(0.1 -0.1)">
       <use xlink:href="#ArialMT-30"/>
       <use xlink:href="#ArialMT-2e" transform="translate(55.615234 0)"/>
       <use xlink:href="#ArialMT-30" transform="translate(83.398438 0)"/>
      </g>
     </g>
    </g>
    <g id="ytick_8">
     <g id="line2d_30">
      <path d="M 403.31 200.730909 
L 709.2 200.730909 
" clip-path="url(#p61b78ec793)" style="fill: none; stroke: #cccccc; stroke-width: 0.8; stroke-linecap: round"/>
     </g>
     <g id="text_32">
      <!-- 0.2 -->
      <g style="fill: #262626" transform="translate(382.41 204.309815) scale(0.1 -0.1)">
       <use xlink:href="#ArialMT-30"/>
       <use xlink:href="#ArialMT-2e" transform="translate(55.615234 0)"/>
       <use xlink:href="#ArialMT-32" transform="translate(83.398438 0)"/>
      </g>
     </g>
    </g>
    <g id="ytick_9">
     <g id="line2d_31">
      <path d="M 403.31 160.163636 
L 709.2 160.163636 
" clip-path="url(#p61b78ec793)" style="fill: none; stroke: #cccccc; stroke-width: 0.8; stroke-linecap: round"/>
     </g>
     <g id="text_33">
      <!-- 0.4 -->
      <g style="fill: #262626" transform="translate(382.41 163.742543) scale(0.1 -0.1)">
       <use xlink:href="#ArialMT-30"/>
       <use xlink:href="#ArialMT-2e" transform="translate(55.615234 0)"/>
       <use xlink:href="#ArialMT-34" transform="translate(83.398438 0)"/>
      </g>
     </g>
    </g>
    <g id="ytick_10">
     <g id="line2d_32">
      <path d="M 403.31 119.596364 
L 709.2 119.596364 
" clip-path="url(#p61b78ec793)" style="fill: none; stroke: #cccccc; stroke-width: 0.8; stroke-linecap: round"/>
     </g>
     <g id="text_34">
      <!-- 0.6 -->
      <g style="fill: #262626" transform="translate(382.41 123.17527) scale(0.1 -0.1)">
       <use xlink:href="#ArialMT-30"/>
       <use xlink:href="#ArialMT-2e" transform="translate(55.615234 0)"/>
       <use xlink:href="#ArialMT-36" transform="translate(83.398438 0)"/>
      </g>
     </g>
    </g>
    <g id="ytick_11">
     <g id="line2d_33">
      <path d="M 403.31 79.029091 
L 709.2 79.029091 
" clip-path="url(#p61b78ec793)" style="fill: none; stroke: #cccccc; stroke-width: 0.8; stroke-linecap: round"/>
     </g>
     <g id="text_35">
      <!-- 0.8 -->
      <g style="fill: #262626" transform="translate(382.41 82.607997) scale(0.1 -0.1)">
       <use xlink:href="#ArialMT-30"/>
       <use xlink:href="#ArialMT-2e" transform="translate(55.615234 0)"/>
       <use xlink:href="#ArialMT-38" transform="translate(83.398438 0)"/>
      </g>
     </g>
    </g>
    <g id="ytick_12">
     <g id="line2d_34">
      <path d="M 403.31 38.461818 
L 709.2 38.461818 
" clip-path="url(#p61b78ec793)" style="fill: none; stroke: #cccccc; stroke-width: 0.8; stroke-linecap: round"/>
     </g>
     <g id="text_36">
      <!-- 1.0 -->
      <g style="fill: #262626" transform="translate(382.41 42.040724) scale(0.1 -0.1)">
       <use xlink:href="#ArialMT-31"/>
       <use xlink:href="#ArialMT-2e" transform="translate(55.615234 0)"/>
       <use xlink:href="#ArialMT-30" transform="translate(83.398438 0)"/>
      </g>
     </g>
    </g>
    <g id="text_37">
     <!-- $\psi(u_0, T)$ -->
     <g style="fill: #262626" transform="translate(376.31 158.23) rotate(-90) scale(0.1 -0.1)">
      <use xlink:href="#DejaVuSans-Oblique-3c8" transform="translate(0 0.125)"/>
      <use xlink:href="#DejaVuSans-28" transform="translate(65.966797 0.125)"/>
      <use xlink:href="#DejaVuSans-Oblique-75" transform="translate(104.980469 0.125)"/>
      <use xlink:href="#DejaVuSans-30" transform="translate(168.359375 -16.28125) scale(0.7)"/>
      <use xlink:href="#DejaVuSans-2c" transform="translate(215.629883 0.125)"/>
      <use xlink:href="#DejaVuSans-Oblique-54" transform="translate(266.899414 0.125)"/>
      <use xlink:href="#DejaVuSans-29" transform="translate(327.983398 0.125)"/>
     </g>
    </g>
   </g>
   <g id="line2d_35">
    <path d="M 417.214091 241.298182 
L 424.236359 241.298182 
L 425.640813 240.892509 
L 427.045266 240.689673 
L 431.258627 240.689673 
L 432.663081 240.486836 
L 445.303163 240.486836 
L 448.112071 240.081164 
L 450.920978 240.081164 
L 452.325432 239.878327 
L 453.729885 239.878327 
L 455.134339 239.675491 
L 459.3477 239.675491 
L 462.156607 239.269818 
L 463.561061 239.269818 
L 464.965514 239.066982 
L 466.369968 239.066982 
L 467.774421 238.864145 
L 469.178875 238.864145 
L 470.583329 238.661309 
L 471.987782 238.661309 
L 476.201143 238.0528 
L 477.605597 237.647127 
L 479.010051 237.647127 
L 480.414504 237.444291 
L 481.818958 236.835782 
L 487.436772 236.835782 
L 488.841226 236.430109 
L 490.24568 236.430109 
L 491.650133 236.227273 
L 497.267948 236.227273 
L 498.672401 235.8216 
L 501.481309 235.8216 
L 502.885762 235.415927 
L 518.334752 235.415927 
L 521.143659 235.010255 
L 526.761474 235.010255 
L 528.165927 234.807418 
L 529.570381 234.807418 
L 530.974835 234.604582 
L 532.379288 234.198909 
L 537.997103 234.198909 
L 539.401556 233.5904 
L 540.80601 233.387564 
L 546.423825 233.387564 
L 547.828278 233.184727 
L 550.637185 233.184727 
L 552.041639 232.981891 
L 553.446093 232.981891 
L 554.850546 232.576218 
L 556.255 231.764873 
L 557.659454 231.562036 
L 566.086175 231.562036 
L 567.490629 231.3592 
L 573.108444 231.3592 
L 574.512897 231.156364 
L 578.726258 231.156364 
L 581.535165 230.345018 
L 584.344073 230.345018 
L 585.748526 230.142182 
L 589.961887 230.142182 
L 591.366341 229.939345 
L 592.770794 229.939345 
L 594.175248 229.736509 
L 601.197516 229.736509 
L 604.006423 229.330836 
L 608.219784 229.330836 
L 609.624238 229.128 
L 611.028691 229.128 
L 612.433145 228.722327 
L 616.646506 228.722327 
L 618.05096 228.519491 
L 623.668774 228.519491 
L 625.073228 228.113818 
L 627.882135 228.113818 
L 629.286589 227.910982 
L 636.308857 227.910982 
L 637.71331 227.708145 
L 640.522218 227.708145 
L 641.926671 227.302473 
L 644.735579 227.302473 
L 646.140032 227.099636 
L 653.1623 227.099636 
L 654.566754 226.8968 
L 660.184568 226.8968 
L 662.993476 226.491127 
L 665.802383 226.491127 
L 667.206837 226.288291 
L 677.038012 226.288291 
L 678.442466 226.085455 
L 679.846919 226.085455 
L 682.655826 225.679782 
L 688.273641 225.679782 
L 691.082548 225.274109 
L 695.295909 225.274109 
L 695.295909 225.274109 
" clip-path="url(#p61b78ec793)" style="fill: none; stroke: #1f77b4; stroke-width: 1.5; stroke-linecap: round"/>
   </g>
   <g id="line2d_36">
    <path d="M 417.214091 210.061382 
L 695.295909 210.061382 
L 695.295909 210.061382 
" clip-path="url(#p61b78ec793)" style="fill: none; stroke: #ff7f0e; stroke-width: 1.5; stroke-linecap: round"/>
   </g>
   <g id="line2d_37">
    <path d="M 417.214091 209.372481 
L 695.295909 209.372481 
L 695.295909 209.372481 
" clip-path="url(#p61b78ec793)" style="fill: none; stroke: #2ca02c; stroke-width: 1.5; stroke-linecap: round"/>
   </g>
   <g id="patch_9">
    <path d="M 403.31 251.44 
L 403.31 28.32 
" style="fill: none; stroke: #cccccc; stroke-width: 0.8; stroke-linejoin: miter; stroke-linecap: square"/>
   </g>
   <g id="patch_10">
    <path d="M 709.2 251.44 
L 709.2 28.32 
" style="fill: none; stroke: #cccccc; stroke-width: 0.8; stroke-linejoin: miter; stroke-linecap: square"/>
   </g>
   <g id="patch_11">
    <path d="M 403.31 251.44 
L 709.2 251.44 
" style="fill: none; stroke: #cccccc; stroke-width: 0.8; stroke-linejoin: miter; stroke-linecap: square"/>
   </g>
   <g id="patch_12">
    <path d="M 403.31 28.32 
L 709.2 28.32 
" style="fill: none; stroke: #cccccc; stroke-width: 0.8; stroke-linejoin: miter; stroke-linecap: square"/>
   </g>
   <g id="text_38">
    <!-- $\lambda = 1, \alpha = 4, \lambda_P = 1, u_0 = 10$ -->
    <g style="fill: #262626" transform="translate(478.075 22.32) scale(0.12 -0.12)">
     <defs>
      <path id="DejaVuSans-34" d="M 2419 4116 
L 825 1625 
L 2419 1625 
L 2419 4116 
z
M 2253 4666 
L 3047 4666 
L 3047 1625 
L 3713 1625 
L 3713 1100 
L 3047 1100 
L 3047 0 
L 2419 0 
L 2419 1100 
L 313 1100 
L 313 1709 
L 2253 4666 
z
" transform="scale(0.015625)"/>
     </defs>
     <use xlink:href="#DejaVuSans-Oblique-3bb" transform="translate(0 0.015625)"/>
     <use xlink:href="#DejaVuSans-3d" transform="translate(78.662109 0.015625)"/>
     <use xlink:href="#DejaVuSans-31" transform="translate(181.933594 0.015625)"/>
     <use xlink:href="#DejaVuSans-2c" transform="translate(245.556641 0.015625)"/>
     <use xlink:href="#DejaVuSans-Oblique-3b1" transform="translate(296.826172 0.015625)"/>
     <use xlink:href="#DejaVuSans-3d" transform="translate(382.226562 0.015625)"/>
     <use xlink:href="#DejaVuSans-34" transform="translate(485.498047 0.015625)"/>
     <use xlink:href="#DejaVuSans-2c" transform="translate(549.121094 0.015625)"/>
     <use xlink:href="#DejaVuSans-Oblique-3bb" transform="translate(600.390625 0.015625)"/>
     <use xlink:href="#DejaVuSans-Oblique-50" transform="translate(659.570312 -16.390625) scale(0.7)"/>
     <use xlink:href="#DejaVuSans-3d" transform="translate(723.999023 0.015625)"/>
     <use xlink:href="#DejaVuSans-31" transform="translate(827.270508 0.015625)"/>
     <use xlink:href="#DejaVuSans-2c" transform="translate(890.893555 0.015625)"/>
     <use xlink:href="#DejaVuSans-Oblique-75" transform="translate(942.163086 0.015625)"/>
     <use xlink:href="#DejaVuSans-30" transform="translate(1005.541992 -16.390625) scale(0.7)"/>
     <use xlink:href="#DejaVuSans-3d" transform="translate(1072.294922 0.015625)"/>
     <use xlink:href="#DejaVuSans-31" transform="translate(1175.566406 0.015625)"/>
     <use xlink:href="#DejaVuSans-30" transform="translate(1239.189453 0.015625)"/>
    </g>
   </g>
   <g id="legend_2">
    <g id="patch_13">
     <path d="M 577.376563 78.873125 
L 702.2 78.873125 
Q 704.2 78.873125 704.2 76.873125 
L 704.2 35.32 
Q 704.2 33.32 702.2 33.32 
L 577.376563 33.32 
Q 575.376563 33.32 575.376563 35.32 
L 575.376563 76.873125 
Q 575.376563 78.873125 577.376563 78.873125 
z
" style="fill: #ffffff; opacity: 0.8; stroke: #cccccc; stroke-linejoin: miter"/>
    </g>
    <g id="line2d_38">
     <path d="M 579.376563 40.977812 
L 589.376563 40.977812 
L 599.376563 40.977812 
" style="fill: none; stroke: #1f77b4; stroke-width: 1.5; stroke-linecap: round"/>
    </g>
    <g id="text_39">
     <!-- Monte Carlo -->
     <g style="fill: #262626" transform="translate(607.376563 44.477812) scale(0.1 -0.1)">
      <use xlink:href="#ArialMT-4d"/>
      <use xlink:href="#ArialMT-6f" transform="translate(83.300781 0)"/>
      <use xlink:href="#ArialMT-6e" transform="translate(138.916016 0)"/>
      <use xlink:href="#ArialMT-74" transform="translate(194.53125 0)"/>
      <use xlink:href="#ArialMT-65" transform="translate(222.314453 0)"/>
      <use xlink:href="#ArialMT-20" transform="translate(277.929688 0)"/>
      <use xlink:href="#ArialMT-43" transform="translate(305.712891 0)"/>
      <use xlink:href="#ArialMT-61" transform="translate(377.929688 0)"/>
      <use xlink:href="#ArialMT-72" transform="translate(433.544922 0)"/>
      <use xlink:href="#ArialMT-6c" transform="translate(466.845703 0)"/>
      <use xlink:href="#ArialMT-6f" transform="translate(489.0625 0)"/>
     </g>
    </g>
    <g id="line2d_39">
     <path d="M 579.376563 55.123125 
L 589.376563 55.123125 
L 599.376563 55.123125 
" style="fill: none; stroke: #ff7f0e; stroke-width: 1.5; stroke-linecap: round"/>
    </g>
    <g id="text_40">
     <!-- Pollaczek-Khintchine -->
     <g style="fill: #262626" transform="translate(607.376563 58.623125) scale(0.1 -0.1)">
      <use xlink:href="#ArialMT-50"/>
      <use xlink:href="#ArialMT-6f" transform="translate(66.699219 0)"/>
      <use xlink:href="#ArialMT-6c" transform="translate(122.314453 0)"/>
      <use xlink:href="#ArialMT-6c" transform="translate(144.53125 0)"/>
      <use xlink:href="#ArialMT-61" transform="translate(166.748047 0)"/>
      <use xlink:href="#ArialMT-63" transform="translate(222.363281 0)"/>
      <use xlink:href="#ArialMT-7a" transform="translate(272.363281 0)"/>
      <use xlink:href="#ArialMT-65" transform="translate(322.363281 0)"/>
      <use xlink:href="#ArialMT-6b" transform="translate(377.978516 0)"/>
      <use xlink:href="#ArialMT-2d" transform="translate(427.978516 0)"/>
      <use xlink:href="#ArialMT-4b" transform="translate(461.279297 0)"/>
      <use xlink:href="#ArialMT-68" transform="translate(527.978516 0)"/>
      <use xlink:href="#ArialMT-69" transform="translate(583.59375 0)"/>
      <use xlink:href="#ArialMT-6e" transform="translate(605.810547 0)"/>
      <use xlink:href="#ArialMT-74" transform="translate(661.425781 0)"/>
      <use xlink:href="#ArialMT-63" transform="translate(689.208984 0)"/>
      <use xlink:href="#ArialMT-68" transform="translate(739.208984 0)"/>
      <use xlink:href="#ArialMT-69" transform="translate(794.824219 0)"/>
      <use xlink:href="#ArialMT-6e" transform="translate(817.041016 0)"/>
      <use xlink:href="#ArialMT-65" transform="translate(872.65625 0)"/>
     </g>
    </g>
    <g id="line2d_40">
     <path d="M 579.376563 69.268437 
L 589.376563 69.268437 
L 599.376563 69.268437 
" style="fill: none; stroke: #2ca02c; stroke-width: 1.5; stroke-linecap: round"/>
    </g>
    <g id="text_41">
     <!-- de Vylder -->
     <g style="fill: #262626" transform="translate(607.376563 72.768437) scale(0.1 -0.1)">
      <defs>
       <path id="ArialMT-64" d="M 2575 0 
L 2575 419 
Q 2259 -75 1647 -75 
Q 1250 -75 917 144 
Q 584 363 401 755 
Q 219 1147 219 1656 
Q 219 2153 384 2558 
Q 550 2963 881 3178 
Q 1213 3394 1622 3394 
Q 1922 3394 2156 3267 
Q 2391 3141 2538 2938 
L 2538 4581 
L 3097 4581 
L 3097 0 
L 2575 0 
z
M 797 1656 
Q 797 1019 1065 703 
Q 1334 388 1700 388 
Q 2069 388 2326 689 
Q 2584 991 2584 1609 
Q 2584 2291 2321 2609 
Q 2059 2928 1675 2928 
Q 1300 2928 1048 2622 
Q 797 2316 797 1656 
z
" transform="scale(0.015625)"/>
       <path id="ArialMT-56" d="M 1803 0 
L 28 4581 
L 684 4581 
L 1875 1253 
Q 2019 853 2116 503 
Q 2222 878 2363 1253 
L 3600 4581 
L 4219 4581 
L 2425 0 
L 1803 0 
z
" transform="scale(0.015625)"/>
       <path id="ArialMT-79" d="M 397 -1278 
L 334 -750 
Q 519 -800 656 -800 
Q 844 -800 956 -737 
Q 1069 -675 1141 -563 
Q 1194 -478 1313 -144 
Q 1328 -97 1363 -6 
L 103 3319 
L 709 3319 
L 1400 1397 
Q 1534 1031 1641 628 
Q 1738 1016 1872 1384 
L 2581 3319 
L 3144 3319 
L 1881 -56 
Q 1678 -603 1566 -809 
Q 1416 -1088 1222 -1217 
Q 1028 -1347 759 -1347 
Q 597 -1347 397 -1278 
z
" transform="scale(0.015625)"/>
      </defs>
      <use xlink:href="#ArialMT-64"/>
      <use xlink:href="#ArialMT-65" transform="translate(55.615234 0)"/>
      <use xlink:href="#ArialMT-20" transform="translate(111.230469 0)"/>
      <use xlink:href="#ArialMT-56" transform="translate(139.013672 0)"/>
      <use xlink:href="#ArialMT-79" transform="translate(201.962891 0)"/>
      <use xlink:href="#ArialMT-6c" transform="translate(251.962891 0)"/>
      <use xlink:href="#ArialMT-64" transform="translate(274.179688 0)"/>
      <use xlink:href="#ArialMT-65" transform="translate(329.794922 0)"/>
      <use xlink:href="#ArialMT-72" transform="translate(385.410156 0)"/>
     </g>
    </g>
   </g>
  </g>
  <g id="axes_3">
   <g id="patch_14">
    <path d="M 48.71 534.04 
L 354.6 534.04 
L 354.6 310.92 
L 48.71 310.92 
z
" style="fill: #ffffff"/>
   </g>
   <g id="matplotlib.axis_5">
    <g id="xtick_19">
     <g id="line2d_41">
      <path d="M 61.209637 534.04 
L 61.209637 310.92 
" clip-path="url(#p4dfcbcfd1c)" style="fill: none; stroke: #cccccc; stroke-width: 0.8; stroke-linecap: round"/>
     </g>
     <g id="text_42">
      <!-- 0 -->
      <g style="fill: #262626" transform="translate(58.429169 548.197812) scale(0.1 -0.1)">
       <use xlink:href="#ArialMT-30"/>
      </g>
     </g>
    </g>
    <g id="xtick_20">
     <g id="line2d_42">
      <path d="M 96.320978 534.04 
L 96.320978 310.92 
" clip-path="url(#p4dfcbcfd1c)" style="fill: none; stroke: #cccccc; stroke-width: 0.8; stroke-linecap: round"/>
     </g>
     <g id="text_43">
      <!-- 25 -->
      <g style="fill: #262626" transform="translate(90.76004 548.197812) scale(0.1 -0.1)">
       <use xlink:href="#ArialMT-32"/>
       <use xlink:href="#ArialMT-35" transform="translate(55.615234 0)"/>
      </g>
     </g>
    </g>
    <g id="xtick_21">
     <g id="line2d_43">
      <path d="M 131.432319 534.04 
L 131.432319 310.92 
" clip-path="url(#p4dfcbcfd1c)" style="fill: none; stroke: #cccccc; stroke-width: 0.8; stroke-linecap: round"/>
     </g>
     <g id="text_44">
      <!-- 50 -->
      <g style="fill: #262626" transform="translate(125.871381 548.197812) scale(0.1 -0.1)">
       <use xlink:href="#ArialMT-35"/>
       <use xlink:href="#ArialMT-30" transform="translate(55.615234 0)"/>
      </g>
     </g>
    </g>
    <g id="xtick_22">
     <g id="line2d_44">
      <path d="M 166.543659 534.04 
L 166.543659 310.92 
" clip-path="url(#p4dfcbcfd1c)" style="fill: none; stroke: #cccccc; stroke-width: 0.8; stroke-linecap: round"/>
     </g>
     <g id="text_45">
      <!-- 75 -->
      <g style="fill: #262626" transform="translate(160.982722 548.197812) scale(0.1 -0.1)">
       <use xlink:href="#ArialMT-37"/>
       <use xlink:href="#ArialMT-35" transform="translate(55.615234 0)"/>
      </g>
     </g>
    </g>
    <g id="xtick_23">
     <g id="line2d_45">
      <path d="M 201.655 534.04 
L 201.655 310.92 
" clip-path="url(#p4dfcbcfd1c)" style="fill: none; stroke: #cccccc; stroke-width: 0.8; stroke-linecap: round"/>
     </g>
     <g id="text_46">
      <!-- 100 -->
      <g style="fill: #262626" transform="translate(193.313594 548.197812) scale(0.1 -0.1)">
       <use xlink:href="#ArialMT-31"/>
       <use xlink:href="#ArialMT-30" transform="translate(55.615234 0)"/>
       <use xlink:href="#ArialMT-30" transform="translate(111.230469 0)"/>
      </g>
     </g>
    </g>
    <g id="xtick_24">
     <g id="line2d_46">
      <path d="M 236.766341 534.04 
L 236.766341 310.92 
" clip-path="url(#p4dfcbcfd1c)" style="fill: none; stroke: #cccccc; stroke-width: 0.8; stroke-linecap: round"/>
     </g>
     <g id="text_47">
      <!-- 125 -->
      <g style="fill: #262626" transform="translate(228.424934 548.197812) scale(0.1 -0.1)">
       <use xlink:href="#ArialMT-31"/>
       <use xlink:href="#ArialMT-32" transform="translate(55.615234 0)"/>
       <use xlink:href="#ArialMT-35" transform="translate(111.230469 0)"/>
      </g>
     </g>
    </g>
    <g id="xtick_25">
     <g id="line2d_47">
      <path d="M 271.877681 534.04 
L 271.877681 310.92 
" clip-path="url(#p4dfcbcfd1c)" style="fill: none; stroke: #cccccc; stroke-width: 0.8; stroke-linecap: round"/>
     </g>
     <g id="text_48">
      <!-- 150 -->
      <g style="fill: #262626" transform="translate(263.536275 548.197812) scale(0.1 -0.1)">
       <use xlink:href="#ArialMT-31"/>
       <use xlink:href="#ArialMT-35" transform="translate(55.615234 0)"/>
       <use xlink:href="#ArialMT-30" transform="translate(111.230469 0)"/>
      </g>
     </g>
    </g>
    <g id="xtick_26">
     <g id="line2d_48">
      <path d="M 306.989022 534.04 
L 306.989022 310.92 
" clip-path="url(#p4dfcbcfd1c)" style="fill: none; stroke: #cccccc; stroke-width: 0.8; stroke-linecap: round"/>
     </g>
     <g id="text_49">
      <!-- 175 -->
      <g style="fill: #262626" transform="translate(298.647616 548.197812) scale(0.1 -0.1)">
       <use xlink:href="#ArialMT-31"/>
       <use xlink:href="#ArialMT-37" transform="translate(55.615234 0)"/>
       <use xlink:href="#ArialMT-35" transform="translate(111.230469 0)"/>
      </g>
     </g>
    </g>
    <g id="xtick_27">
     <g id="line2d_49">
      <path d="M 342.100363 534.04 
L 342.100363 310.92 
" clip-path="url(#p4dfcbcfd1c)" style="fill: none; stroke: #cccccc; stroke-width: 0.8; stroke-linecap: round"/>
     </g>
     <g id="text_50">
      <!-- 200 -->
      <g style="fill: #262626" transform="translate(333.758956 548.197812) scale(0.1 -0.1)">
       <use xlink:href="#ArialMT-32"/>
       <use xlink:href="#ArialMT-30" transform="translate(55.615234 0)"/>
       <use xlink:href="#ArialMT-30" transform="translate(111.230469 0)"/>
      </g>
     </g>
    </g>
    <g id="text_51">
     <!-- $T$ -->
     <g style="fill: #262626" transform="translate(198.555 561.343125) scale(0.1 -0.1)">
      <use xlink:href="#DejaVuSans-Oblique-54" transform="translate(0 0.09375)"/>
     </g>
    </g>
   </g>
   <g id="matplotlib.axis_6">
    <g id="ytick_13">
     <g id="line2d_50">
      <path d="M 48.71 523.898182 
L 354.6 523.898182 
" clip-path="url(#p4dfcbcfd1c)" style="fill: none; stroke: #cccccc; stroke-width: 0.8; stroke-linecap: round"/>
     </g>
     <g id="text_52">
      <!-- 0.0 -->
      <g style="fill: #262626" transform="translate(27.81 527.477088) scale(0.1 -0.1)">
       <use xlink:href="#ArialMT-30"/>
       <use xlink:href="#ArialMT-2e" transform="translate(55.615234 0)"/>
       <use xlink:href="#ArialMT-30" transform="translate(83.398438 0)"/>
      </g>
     </g>
    </g>
    <g id="ytick_14">
     <g id="line2d_51">
      <path d="M 48.71 483.330909 
L 354.6 483.330909 
" clip-path="url(#p4dfcbcfd1c)" style="fill: none; stroke: #cccccc; stroke-width: 0.8; stroke-linecap: round"/>
     </g>
     <g id="text_53">
      <!-- 0.2 -->
      <g style="fill: #262626" transform="translate(27.81 486.909815) scale(0.1 -0.1)">
       <use xlink:href="#ArialMT-30"/>
       <use xlink:href="#ArialMT-2e" transform="translate(55.615234 0)"/>
       <use xlink:href="#ArialMT-32" transform="translate(83.398438 0)"/>
      </g>
     </g>
    </g>
    <g id="ytick_15">
     <g id="line2d_52">
      <path d="M 48.71 442.763636 
L 354.6 442.763636 
" clip-path="url(#p4dfcbcfd1c)" style="fill: none; stroke: #cccccc; stroke-width: 0.8; stroke-linecap: round"/>
     </g>
     <g id="text_54">
      <!-- 0.4 -->
      <g style="fill: #262626" transform="translate(27.81 446.342543) scale(0.1 -0.1)">
       <use xlink:href="#ArialMT-30"/>
       <use xlink:href="#ArialMT-2e" transform="translate(55.615234 0)"/>
       <use xlink:href="#ArialMT-34" transform="translate(83.398438 0)"/>
      </g>
     </g>
    </g>
    <g id="ytick_16">
     <g id="line2d_53">
      <path d="M 48.71 402.196364 
L 354.6 402.196364 
" clip-path="url(#p4dfcbcfd1c)" style="fill: none; stroke: #cccccc; stroke-width: 0.8; stroke-linecap: round"/>
     </g>
     <g id="text_55">
      <!-- 0.6 -->
      <g style="fill: #262626" transform="translate(27.81 405.77527) scale(0.1 -0.1)">
       <use xlink:href="#ArialMT-30"/>
       <use xlink:href="#ArialMT-2e" transform="translate(55.615234 0)"/>
       <use xlink:href="#ArialMT-36" transform="translate(83.398438 0)"/>
      </g>
     </g>
    </g>
    <g id="ytick_17">
     <g id="line2d_54">
      <path d="M 48.71 361.629091 
L 354.6 361.629091 
" clip-path="url(#p4dfcbcfd1c)" style="fill: none; stroke: #cccccc; stroke-width: 0.8; stroke-linecap: round"/>
     </g>
     <g id="text_56">
      <!-- 0.8 -->
      <g style="fill: #262626" transform="translate(27.81 365.207997) scale(0.1 -0.1)">
       <use xlink:href="#ArialMT-30"/>
       <use xlink:href="#ArialMT-2e" transform="translate(55.615234 0)"/>
       <use xlink:href="#ArialMT-38" transform="translate(83.398438 0)"/>
      </g>
     </g>
    </g>
    <g id="ytick_18">
     <g id="line2d_55">
      <path d="M 48.71 321.061818 
L 354.6 321.061818 
" clip-path="url(#p4dfcbcfd1c)" style="fill: none; stroke: #cccccc; stroke-width: 0.8; stroke-linecap: round"/>
     </g>
     <g id="text_57">
      <!-- 1.0 -->
      <g style="fill: #262626" transform="translate(27.81 324.640724) scale(0.1 -0.1)">
       <use xlink:href="#ArialMT-31"/>
       <use xlink:href="#ArialMT-2e" transform="translate(55.615234 0)"/>
       <use xlink:href="#ArialMT-30" transform="translate(83.398438 0)"/>
      </g>
     </g>
    </g>
    <g id="text_58">
     <!-- $\psi(u_0, T)$ -->
     <g style="fill: #262626" transform="translate(21.71 440.83) rotate(-90) scale(0.1 -0.1)">
      <use xlink:href="#DejaVuSans-Oblique-3c8" transform="translate(0 0.125)"/>
      <use xlink:href="#DejaVuSans-28" transform="translate(65.966797 0.125)"/>
      <use xlink:href="#DejaVuSans-Oblique-75" transform="translate(104.980469 0.125)"/>
      <use xlink:href="#DejaVuSans-30" transform="translate(168.359375 -16.28125) scale(0.7)"/>
      <use xlink:href="#DejaVuSans-2c" transform="translate(215.629883 0.125)"/>
      <use xlink:href="#DejaVuSans-Oblique-54" transform="translate(266.899414 0.125)"/>
      <use xlink:href="#DejaVuSans-29" transform="translate(327.983398 0.125)"/>
     </g>
    </g>
   </g>
   <g id="line2d_56">
    <path d="M 62.614091 485.764945 
L 64.018545 470.146545 
L 65.422998 460.4104 
L 66.827452 452.702618 
L 68.231905 447.428873 
L 69.636359 443.777818 
L 71.040813 438.909745 
L 72.445266 436.070036 
L 73.84972 432.824655 
L 75.254174 430.796291 
L 76.658627 428.362255 
L 78.063081 426.333891 
L 79.467534 425.116873 
L 80.871988 422.682836 
L 83.680895 421.060145 
L 85.085349 419.843127 
L 86.489803 419.031782 
L 90.703163 415.380727 
L 92.107617 414.772218 
L 93.512071 413.5552 
L 97.725432 411.729673 
L 99.129885 410.715491 
L 100.534339 410.512655 
L 103.343246 408.889964 
L 104.7477 408.889964 
L 106.152153 408.281455 
L 107.556607 407.470109 
L 108.961061 407.470109 
L 110.365514 407.267273 
L 111.769968 406.8616 
L 113.174421 406.253091 
L 115.983329 406.253091 
L 117.387782 406.050255 
L 121.601143 406.050255 
L 123.005597 405.644582 
L 124.410051 405.441745 
L 125.814504 405.441745 
L 127.218958 404.6304 
L 128.623411 404.224727 
L 130.027865 404.224727 
L 131.432319 403.413382 
L 132.836772 403.413382 
L 134.241226 403.007709 
L 137.050133 402.602036 
L 138.454587 401.993527 
L 139.85904 401.587855 
L 141.263494 401.385018 
L 144.072401 401.385018 
L 145.476855 401.182182 
L 146.881309 400.573673 
L 148.285762 400.168 
L 149.690216 400.168 
L 155.30803 399.356655 
L 158.116938 399.356655 
L 162.330298 398.748145 
L 163.734752 398.748145 
L 165.139206 398.545309 
L 166.543659 398.545309 
L 167.948113 398.139636 
L 173.565927 398.139636 
L 174.970381 397.9368 
L 176.374835 397.328291 
L 177.779288 397.328291 
L 179.183742 397.125455 
L 180.588196 397.125455 
L 181.992649 396.922618 
L 183.397103 396.922618 
L 189.014917 396.111273 
L 191.823825 396.111273 
L 194.632732 395.7056 
L 196.037185 395.7056 
L 197.441639 395.502764 
L 204.463907 395.502764 
L 205.868361 395.299927 
L 207.272815 395.299927 
L 210.081722 394.894255 
L 211.486175 394.894255 
L 212.890629 394.691418 
L 215.699536 394.691418 
L 218.508444 394.285745 
L 221.317351 394.285745 
L 222.721804 394.082909 
L 224.126258 393.677236 
L 225.530712 393.677236 
L 226.935165 393.4744 
L 229.744073 393.4744 
L 231.148526 393.271564 
L 233.957433 393.271564 
L 238.170794 392.663055 
L 240.979702 392.663055 
L 242.384155 392.257382 
L 243.788609 392.257382 
L 245.193062 392.054545 
L 252.215331 392.054545 
L 253.619784 391.446036 
L 256.428691 391.040364 
L 260.642052 391.040364 
L 262.046506 390.634691 
L 270.473228 390.634691 
L 271.877681 390.431855 
L 290.135579 390.431855 
L 291.540032 390.229018 
L 292.944486 389.823345 
L 304.180115 389.823345 
L 305.584568 389.620509 
L 306.989022 389.620509 
L 308.393476 389.417673 
L 311.202383 389.417673 
L 312.606837 389.214836 
L 318.224651 389.214836 
L 319.629105 389.012 
L 328.055826 389.012 
L 329.46028 388.809164 
L 335.078095 388.809164 
L 336.482548 388.606327 
L 340.695909 388.606327 
L 340.695909 388.606327 
" clip-path="url(#p4dfcbcfd1c)" style="fill: none; stroke: #1f77b4; stroke-width: 1.5; stroke-linecap: round"/>
   </g>
   <g id="line2d_57">
    <path d="M 62.614091 366.294327 
L 340.695909 366.294327 
L 340.695909 366.294327 
" clip-path="url(#p4dfcbcfd1c)" style="fill: none; stroke: #ff7f0e; stroke-width: 1.5; stroke-linecap: round"/>
   </g>
   <g id="patch_15">
    <path d="M 48.71 534.04 
L 48.71 310.92 
" style="fill: none; stroke: #cccccc; stroke-width: 0.8; stroke-linejoin: miter; stroke-linecap: square"/>
   </g>
   <g id="patch_16">
    <path d="M 354.6 534.04 
L 354.6 310.92 
" style="fill: none; stroke: #cccccc; stroke-width: 0.8; stroke-linejoin: miter; stroke-linecap: square"/>
   </g>
   <g id="patch_17">
    <path d="M 48.71 534.04 
L 354.6 534.04 
" style="fill: none; stroke: #cccccc; stroke-width: 0.8; stroke-linejoin: miter; stroke-linecap: square"/>
   </g>
   <g id="patch_18">
    <path d="M 48.71 310.92 
L 354.6 310.92 
" style="fill: none; stroke: #cccccc; stroke-width: 0.8; stroke-linejoin: miter; stroke-linecap: square"/>
   </g>
   <g id="text_59">
    <!-- $\lambda = 10, \alpha = 1.5, \lambda_P = 1, u_0 = 10$ -->
    <g style="fill: #262626" transform="translate(113.935 304.92) scale(0.12 -0.12)">
     <use xlink:href="#DejaVuSans-Oblique-3bb" transform="translate(0 0.015625)"/>
     <use xlink:href="#DejaVuSans-3d" transform="translate(78.662109 0.015625)"/>
     <use xlink:href="#DejaVuSans-31" transform="translate(181.933594 0.015625)"/>
     <use xlink:href="#DejaVuSans-30" transform="translate(245.556641 0.015625)"/>
     <use xlink:href="#DejaVuSans-2c" transform="translate(309.179688 0.015625)"/>
     <use xlink:href="#DejaVuSans-Oblique-3b1" transform="translate(360.449219 0.015625)"/>
     <use xlink:href="#DejaVuSans-3d" transform="translate(445.849609 0.015625)"/>
     <use xlink:href="#DejaVuSans-31" transform="translate(549.121094 0.015625)"/>
     <use xlink:href="#DejaVuSans-2e" transform="translate(612.744141 0.015625)"/>
     <use xlink:href="#DejaVuSans-35" transform="translate(644.53125 0.015625)"/>
     <use xlink:href="#DejaVuSans-2c" transform="translate(708.154297 0.015625)"/>
     <use xlink:href="#DejaVuSans-Oblique-3bb" transform="translate(759.423828 0.015625)"/>
     <use xlink:href="#DejaVuSans-Oblique-50" transform="translate(818.603516 -16.390625) scale(0.7)"/>
     <use xlink:href="#DejaVuSans-3d" transform="translate(883.032227 0.015625)"/>
     <use xlink:href="#DejaVuSans-31" transform="translate(986.303711 0.015625)"/>
     <use xlink:href="#DejaVuSans-2c" transform="translate(1049.926758 0.015625)"/>
     <use xlink:href="#DejaVuSans-Oblique-75" transform="translate(1101.196289 0.015625)"/>
     <use xlink:href="#DejaVuSans-30" transform="translate(1164.575195 -16.390625) scale(0.7)"/>
     <use xlink:href="#DejaVuSans-3d" transform="translate(1231.328125 0.015625)"/>
     <use xlink:href="#DejaVuSans-31" transform="translate(1334.599609 0.015625)"/>
     <use xlink:href="#DejaVuSans-30" transform="translate(1398.222656 0.015625)"/>
    </g>
   </g>
   <g id="legend_3">
    <g id="patch_19">
     <path d="M 222.776562 347.210625 
L 347.6 347.210625 
Q 349.6 347.210625 349.6 345.210625 
L 349.6 317.92 
Q 349.6 315.92 347.6 315.92 
L 222.776562 315.92 
Q 220.776562 315.92 220.776562 317.92 
L 220.776562 345.210625 
Q 220.776562 347.210625 222.776562 347.210625 
z
" style="fill: #ffffff; opacity: 0.8; stroke: #cccccc; stroke-linejoin: miter"/>
    </g>
    <g id="line2d_58">
     <path d="M 224.776562 323.577812 
L 234.776562 323.577812 
L 244.776562 323.577812 
" style="fill: none; stroke: #1f77b4; stroke-width: 1.5; stroke-linecap: round"/>
    </g>
    <g id="text_60">
     <!-- Monte Carlo -->
     <g style="fill: #262626" transform="translate(252.776562 327.077812) scale(0.1 -0.1)">
      <use xlink:href="#ArialMT-4d"/>
      <use xlink:href="#ArialMT-6f" transform="translate(83.300781 0)"/>
      <use xlink:href="#ArialMT-6e" transform="translate(138.916016 0)"/>
      <use xlink:href="#ArialMT-74" transform="translate(194.53125 0)"/>
      <use xlink:href="#ArialMT-65" transform="translate(222.314453 0)"/>
      <use xlink:href="#ArialMT-20" transform="translate(277.929688 0)"/>
      <use xlink:href="#ArialMT-43" transform="translate(305.712891 0)"/>
      <use xlink:href="#ArialMT-61" transform="translate(377.929688 0)"/>
      <use xlink:href="#ArialMT-72" transform="translate(433.544922 0)"/>
      <use xlink:href="#ArialMT-6c" transform="translate(466.845703 0)"/>
      <use xlink:href="#ArialMT-6f" transform="translate(489.0625 0)"/>
     </g>
    </g>
    <g id="line2d_59">
     <path d="M 224.776562 337.723125 
L 234.776562 337.723125 
L 244.776562 337.723125 
" style="fill: none; stroke: #ff7f0e; stroke-width: 1.5; stroke-linecap: round"/>
    </g>
    <g id="text_61">
     <!-- Pollaczek-Khintchine -->
     <g style="fill: #262626" transform="translate(252.776562 341.223125) scale(0.1 -0.1)">
      <use xlink:href="#ArialMT-50"/>
      <use xlink:href="#ArialMT-6f" transform="translate(66.699219 0)"/>
      <use xlink:href="#ArialMT-6c" transform="translate(122.314453 0)"/>
      <use xlink:href="#ArialMT-6c" transform="translate(144.53125 0)"/>
      <use xlink:href="#ArialMT-61" transform="translate(166.748047 0)"/>
      <use xlink:href="#ArialMT-63" transform="translate(222.363281 0)"/>
      <use xlink:href="#ArialMT-7a" transform="translate(272.363281 0)"/>
      <use xlink:href="#ArialMT-65" transform="translate(322.363281 0)"/>
      <use xlink:href="#ArialMT-6b" transform="translate(377.978516 0)"/>
      <use xlink:href="#ArialMT-2d" transform="translate(427.978516 0)"/>
      <use xlink:href="#ArialMT-4b" transform="translate(461.279297 0)"/>
      <use xlink:href="#ArialMT-68" transform="translate(527.978516 0)"/>
      <use xlink:href="#ArialMT-69" transform="translate(583.59375 0)"/>
      <use xlink:href="#ArialMT-6e" transform="translate(605.810547 0)"/>
      <use xlink:href="#ArialMT-74" transform="translate(661.425781 0)"/>
      <use xlink:href="#ArialMT-63" transform="translate(689.208984 0)"/>
      <use xlink:href="#ArialMT-68" transform="translate(739.208984 0)"/>
      <use xlink:href="#ArialMT-69" transform="translate(794.824219 0)"/>
      <use xlink:href="#ArialMT-6e" transform="translate(817.041016 0)"/>
      <use xlink:href="#ArialMT-65" transform="translate(872.65625 0)"/>
     </g>
    </g>
   </g>
  </g>
  <g id="axes_4">
   <g id="patch_20">
    <path d="M 403.31 534.04 
L 709.2 534.04 
L 709.2 310.92 
L 403.31 310.92 
z
" style="fill: #ffffff"/>
   </g>
   <g id="matplotlib.axis_7">
    <g id="xtick_28">
     <g id="line2d_60">
      <path d="M 415.809637 534.04 
L 415.809637 310.92 
" clip-path="url(#pde60675f9b)" style="fill: none; stroke: #cccccc; stroke-width: 0.8; stroke-linecap: round"/>
     </g>
     <g id="text_62">
      <!-- 0 -->
      <g style="fill: #262626" transform="translate(413.029169 548.197812) scale(0.1 -0.1)">
       <use xlink:href="#ArialMT-30"/>
      </g>
     </g>
    </g>
    <g id="xtick_29">
     <g id="line2d_61">
      <path d="M 450.920978 534.04 
L 450.920978 310.92 
" clip-path="url(#pde60675f9b)" style="fill: none; stroke: #cccccc; stroke-width: 0.8; stroke-linecap: round"/>
     </g>
     <g id="text_63">
      <!-- 25 -->
      <g style="fill: #262626" transform="translate(445.36004 548.197812) scale(0.1 -0.1)">
       <use xlink:href="#ArialMT-32"/>
       <use xlink:href="#ArialMT-35" transform="translate(55.615234 0)"/>
      </g>
     </g>
    </g>
    <g id="xtick_30">
     <g id="line2d_62">
      <path d="M 486.032319 534.04 
L 486.032319 310.92 
" clip-path="url(#pde60675f9b)" style="fill: none; stroke: #cccccc; stroke-width: 0.8; stroke-linecap: round"/>
     </g>
     <g id="text_64">
      <!-- 50 -->
      <g style="fill: #262626" transform="translate(480.471381 548.197812) scale(0.1 -0.1)">
       <use xlink:href="#ArialMT-35"/>
       <use xlink:href="#ArialMT-30" transform="translate(55.615234 0)"/>
      </g>
     </g>
    </g>
    <g id="xtick_31">
     <g id="line2d_63">
      <path d="M 521.143659 534.04 
L 521.143659 310.92 
" clip-path="url(#pde60675f9b)" style="fill: none; stroke: #cccccc; stroke-width: 0.8; stroke-linecap: round"/>
     </g>
     <g id="text_65">
      <!-- 75 -->
      <g style="fill: #262626" transform="translate(515.582722 548.197812) scale(0.1 -0.1)">
       <use xlink:href="#ArialMT-37"/>
       <use xlink:href="#ArialMT-35" transform="translate(55.615234 0)"/>
      </g>
     </g>
    </g>
    <g id="xtick_32">
     <g id="line2d_64">
      <path d="M 556.255 534.04 
L 556.255 310.92 
" clip-path="url(#pde60675f9b)" style="fill: none; stroke: #cccccc; stroke-width: 0.8; stroke-linecap: round"/>
     </g>
     <g id="text_66">
      <!-- 100 -->
      <g style="fill: #262626" transform="translate(547.913594 548.197812) scale(0.1 -0.1)">
       <use xlink:href="#ArialMT-31"/>
       <use xlink:href="#ArialMT-30" transform="translate(55.615234 0)"/>
       <use xlink:href="#ArialMT-30" transform="translate(111.230469 0)"/>
      </g>
     </g>
    </g>
    <g id="xtick_33">
     <g id="line2d_65">
      <path d="M 591.366341 534.04 
L 591.366341 310.92 
" clip-path="url(#pde60675f9b)" style="fill: none; stroke: #cccccc; stroke-width: 0.8; stroke-linecap: round"/>
     </g>
     <g id="text_67">
      <!-- 125 -->
      <g style="fill: #262626" transform="translate(583.024934 548.197812) scale(0.1 -0.1)">
       <use xlink:href="#ArialMT-31"/>
       <use xlink:href="#ArialMT-32" transform="translate(55.615234 0)"/>
       <use xlink:href="#ArialMT-35" transform="translate(111.230469 0)"/>
      </g>
     </g>
    </g>
    <g id="xtick_34">
     <g id="line2d_66">
      <path d="M 626.477681 534.04 
L 626.477681 310.92 
" clip-path="url(#pde60675f9b)" style="fill: none; stroke: #cccccc; stroke-width: 0.8; stroke-linecap: round"/>
     </g>
     <g id="text_68">
      <!-- 150 -->
      <g style="fill: #262626" transform="translate(618.136275 548.197812) scale(0.1 -0.1)">
       <use xlink:href="#ArialMT-31"/>
       <use xlink:href="#ArialMT-35" transform="translate(55.615234 0)"/>
       <use xlink:href="#ArialMT-30" transform="translate(111.230469 0)"/>
      </g>
     </g>
    </g>
    <g id="xtick_35">
     <g id="line2d_67">
      <path d="M 661.589022 534.04 
L 661.589022 310.92 
" clip-path="url(#pde60675f9b)" style="fill: none; stroke: #cccccc; stroke-width: 0.8; stroke-linecap: round"/>
     </g>
     <g id="text_69">
      <!-- 175 -->
      <g style="fill: #262626" transform="translate(653.247616 548.197812) scale(0.1 -0.1)">
       <use xlink:href="#ArialMT-31"/>
       <use xlink:href="#ArialMT-37" transform="translate(55.615234 0)"/>
       <use xlink:href="#ArialMT-35" transform="translate(111.230469 0)"/>
      </g>
     </g>
    </g>
    <g id="xtick_36">
     <g id="line2d_68">
      <path d="M 696.700363 534.04 
L 696.700363 310.92 
" clip-path="url(#pde60675f9b)" style="fill: none; stroke: #cccccc; stroke-width: 0.8; stroke-linecap: round"/>
     </g>
     <g id="text_70">
      <!-- 200 -->
      <g style="fill: #262626" transform="translate(688.358956 548.197812) scale(0.1 -0.1)">
       <use xlink:href="#ArialMT-32"/>
       <use xlink:href="#ArialMT-30" transform="translate(55.615234 0)"/>
       <use xlink:href="#ArialMT-30" transform="translate(111.230469 0)"/>
      </g>
     </g>
    </g>
    <g id="text_71">
     <!-- $T$ -->
     <g style="fill: #262626" transform="translate(553.155 561.343125) scale(0.1 -0.1)">
      <use xlink:href="#DejaVuSans-Oblique-54" transform="translate(0 0.09375)"/>
     </g>
    </g>
   </g>
   <g id="matplotlib.axis_8">
    <g id="ytick_19">
     <g id="line2d_69">
      <path d="M 403.31 523.898182 
L 709.2 523.898182 
" clip-path="url(#pde60675f9b)" style="fill: none; stroke: #cccccc; stroke-width: 0.8; stroke-linecap: round"/>
     </g>
     <g id="text_72">
      <!-- 0.0 -->
      <g style="fill: #262626" transform="translate(382.41 527.477088) scale(0.1 -0.1)">
       <use xlink:href="#ArialMT-30"/>
       <use xlink:href="#ArialMT-2e" transform="translate(55.615234 0)"/>
       <use xlink:href="#ArialMT-30" transform="translate(83.398438 0)"/>
      </g>
     </g>
    </g>
    <g id="ytick_20">
     <g id="line2d_70">
      <path d="M 403.31 483.330909 
L 709.2 483.330909 
" clip-path="url(#pde60675f9b)" style="fill: none; stroke: #cccccc; stroke-width: 0.8; stroke-linecap: round"/>
     </g>
     <g id="text_73">
      <!-- 0.2 -->
      <g style="fill: #262626" transform="translate(382.41 486.909815) scale(0.1 -0.1)">
       <use xlink:href="#ArialMT-30"/>
       <use xlink:href="#ArialMT-2e" transform="translate(55.615234 0)"/>
       <use xlink:href="#ArialMT-32" transform="translate(83.398438 0)"/>
      </g>
     </g>
    </g>
    <g id="ytick_21">
     <g id="line2d_71">
      <path d="M 403.31 442.763636 
L 709.2 442.763636 
" clip-path="url(#pde60675f9b)" style="fill: none; stroke: #cccccc; stroke-width: 0.8; stroke-linecap: round"/>
     </g>
     <g id="text_74">
      <!-- 0.4 -->
      <g style="fill: #262626" transform="translate(382.41 446.342543) scale(0.1 -0.1)">
       <use xlink:href="#ArialMT-30"/>
       <use xlink:href="#ArialMT-2e" transform="translate(55.615234 0)"/>
       <use xlink:href="#ArialMT-34" transform="translate(83.398438 0)"/>
      </g>
     </g>
    </g>
    <g id="ytick_22">
     <g id="line2d_72">
      <path d="M 403.31 402.196364 
L 709.2 402.196364 
" clip-path="url(#pde60675f9b)" style="fill: none; stroke: #cccccc; stroke-width: 0.8; stroke-linecap: round"/>
     </g>
     <g id="text_75">
      <!-- 0.6 -->
      <g style="fill: #262626" transform="translate(382.41 405.77527) scale(0.1 -0.1)">
       <use xlink:href="#ArialMT-30"/>
       <use xlink:href="#ArialMT-2e" transform="translate(55.615234 0)"/>
       <use xlink:href="#ArialMT-36" transform="translate(83.398438 0)"/>
      </g>
     </g>
    </g>
    <g id="ytick_23">
     <g id="line2d_73">
      <path d="M 403.31 361.629091 
L 709.2 361.629091 
" clip-path="url(#pde60675f9b)" style="fill: none; stroke: #cccccc; stroke-width: 0.8; stroke-linecap: round"/>
     </g>
     <g id="text_76">
      <!-- 0.8 -->
      <g style="fill: #262626" transform="translate(382.41 365.207997) scale(0.1 -0.1)">
       <use xlink:href="#ArialMT-30"/>
       <use xlink:href="#ArialMT-2e" transform="translate(55.615234 0)"/>
       <use xlink:href="#ArialMT-38" transform="translate(83.398438 0)"/>
      </g>
     </g>
    </g>
    <g id="ytick_24">
     <g id="line2d_74">
      <path d="M 403.31 321.061818 
L 709.2 321.061818 
" clip-path="url(#pde60675f9b)" style="fill: none; stroke: #cccccc; stroke-width: 0.8; stroke-linecap: round"/>
     </g>
     <g id="text_77">
      <!-- 1.0 -->
      <g style="fill: #262626" transform="translate(382.41 324.640724) scale(0.1 -0.1)">
       <use xlink:href="#ArialMT-31"/>
       <use xlink:href="#ArialMT-2e" transform="translate(55.615234 0)"/>
       <use xlink:href="#ArialMT-30" transform="translate(83.398438 0)"/>
      </g>
     </g>
    </g>
    <g id="text_78">
     <!-- $\psi(u_0, T)$ -->
     <g style="fill: #262626" transform="translate(376.31 440.83) rotate(-90) scale(0.1 -0.1)">
      <use xlink:href="#DejaVuSans-Oblique-3c8" transform="translate(0 0.125)"/>
      <use xlink:href="#DejaVuSans-28" transform="translate(65.966797 0.125)"/>
      <use xlink:href="#DejaVuSans-Oblique-75" transform="translate(104.980469 0.125)"/>
      <use xlink:href="#DejaVuSans-30" transform="translate(168.359375 -16.28125) scale(0.7)"/>
      <use xlink:href="#DejaVuSans-2c" transform="translate(215.629883 0.125)"/>
      <use xlink:href="#DejaVuSans-Oblique-54" transform="translate(266.899414 0.125)"/>
      <use xlink:href="#DejaVuSans-29" transform="translate(327.983398 0.125)"/>
     </g>
    </g>
   </g>
   <g id="line2d_75">
    <path d="M 417.214091 523.289673 
L 418.618545 522.478327 
L 420.022998 521.869818 
L 421.427452 521.464145 
L 427.045266 517.407418 
L 428.44972 515.987564 
L 429.854174 515.581891 
L 431.258627 514.364873 
L 432.663081 513.553527 
L 434.067534 513.350691 
L 436.876442 511.728 
L 438.280895 511.322327 
L 439.685349 510.105309 
L 441.089803 509.902473 
L 442.494256 508.685455 
L 443.89871 508.482618 
L 445.303163 508.076945 
L 449.516524 507.468436 
L 450.920978 506.657091 
L 452.325432 506.251418 
L 455.134339 505.845745 
L 456.538792 505.440073 
L 459.3477 505.0344 
L 460.752153 505.0344 
L 462.156607 504.831564 
L 469.178875 504.831564 
L 471.987782 504.020218 
L 473.392236 503.817382 
L 476.201143 503.817382 
L 479.010051 503.411709 
L 480.414504 503.411709 
L 484.627865 502.8032 
L 486.032319 502.397527 
L 487.436772 502.397527 
L 488.841226 502.194691 
L 493.054587 502.194691 
L 495.863494 501.789018 
L 500.076855 501.789018 
L 501.481309 501.383345 
L 505.694669 501.383345 
L 507.099123 501.180509 
L 514.121391 501.180509 
L 515.525845 500.977673 
L 518.334752 500.977673 
L 519.739206 500.774836 
L 521.143659 500.774836 
L 523.952567 500.369164 
L 528.165927 500.369164 
L 530.974835 499.963491 
L 533.783742 499.963491 
L 535.188196 499.760655 
L 556.255 499.760655 
L 557.659454 499.557818 
L 559.063907 499.557818 
L 560.468361 499.354982 
L 571.70399 499.354982 
L 574.512897 498.949309 
L 585.748526 498.949309 
L 587.15298 498.746473 
L 591.366341 498.746473 
L 592.770794 498.543636 
L 618.05096 498.543636 
L 619.455413 498.3408 
L 650.353393 498.3408 
L 651.757847 498.137964 
L 693.891455 498.137964 
L 695.295909 497.935127 
L 695.295909 497.935127 
" clip-path="url(#pde60675f9b)" style="fill: none; stroke: #1f77b4; stroke-width: 1.5; stroke-linecap: round"/>
   </g>
   <g id="line2d_76">
    <path d="M 417.214091 495.906764 
L 695.295909 495.906764 
L 695.295909 495.906764 
" clip-path="url(#pde60675f9b)" style="fill: none; stroke: #ff7f0e; stroke-width: 1.5; stroke-linecap: round"/>
   </g>
   <g id="line2d_77">
    <path d="M 417.214091 491.972481 
L 695.295909 491.972481 
L 695.295909 491.972481 
" clip-path="url(#pde60675f9b)" style="fill: none; stroke: #2ca02c; stroke-width: 1.5; stroke-linecap: round"/>
   </g>
   <g id="patch_21">
    <path d="M 403.31 534.04 
L 403.31 310.92 
" style="fill: none; stroke: #cccccc; stroke-width: 0.8; stroke-linejoin: miter; stroke-linecap: square"/>
   </g>
   <g id="patch_22">
    <path d="M 709.2 534.04 
L 709.2 310.92 
" style="fill: none; stroke: #cccccc; stroke-width: 0.8; stroke-linejoin: miter; stroke-linecap: square"/>
   </g>
   <g id="patch_23">
    <path d="M 403.31 534.04 
L 709.2 534.04 
" style="fill: none; stroke: #cccccc; stroke-width: 0.8; stroke-linejoin: miter; stroke-linecap: square"/>
   </g>
   <g id="patch_24">
    <path d="M 403.31 310.92 
L 709.2 310.92 
" style="fill: none; stroke: #cccccc; stroke-width: 0.8; stroke-linejoin: miter; stroke-linecap: square"/>
   </g>
   <g id="text_79">
    <!-- $\lambda = 10, \alpha = 4, \lambda_P = 1, u_0 = 10$ -->
    <g style="fill: #262626" transform="translate(474.235 304.92) scale(0.12 -0.12)">
     <use xlink:href="#DejaVuSans-Oblique-3bb" transform="translate(0 0.015625)"/>
     <use xlink:href="#DejaVuSans-3d" transform="translate(78.662109 0.015625)"/>
     <use xlink:href="#DejaVuSans-31" transform="translate(181.933594 0.015625)"/>
     <use xlink:href="#DejaVuSans-30" transform="translate(245.556641 0.015625)"/>
     <use xlink:href="#DejaVuSans-2c" transform="translate(309.179688 0.015625)"/>
     <use xlink:href="#DejaVuSans-Oblique-3b1" transform="translate(360.449219 0.015625)"/>
     <use xlink:href="#DejaVuSans-3d" transform="translate(445.849609 0.015625)"/>
     <use xlink:href="#DejaVuSans-34" transform="translate(549.121094 0.015625)"/>
     <use xlink:href="#DejaVuSans-2c" transform="translate(612.744141 0.015625)"/>
     <use xlink:href="#DejaVuSans-Oblique-3bb" transform="translate(664.013672 0.015625)"/>
     <use xlink:href="#DejaVuSans-Oblique-50" transform="translate(723.193359 -16.390625) scale(0.7)"/>
     <use xlink:href="#DejaVuSans-3d" transform="translate(787.62207 0.015625)"/>
     <use xlink:href="#DejaVuSans-31" transform="translate(890.893555 0.015625)"/>
     <use xlink:href="#DejaVuSans-2c" transform="translate(954.516602 0.015625)"/>
     <use xlink:href="#DejaVuSans-Oblique-75" transform="translate(1005.786133 0.015625)"/>
     <use xlink:href="#DejaVuSans-30" transform="translate(1069.165039 -16.390625) scale(0.7)"/>
     <use xlink:href="#DejaVuSans-3d" transform="translate(1135.917969 0.015625)"/>
     <use xlink:href="#DejaVuSans-31" transform="translate(1239.189453 0.015625)"/>
     <use xlink:href="#DejaVuSans-30" transform="translate(1302.8125 0.015625)"/>
    </g>
   </g>
   <g id="legend_4">
    <g id="patch_25">
     <path d="M 577.376563 361.473125 
L 702.2 361.473125 
Q 704.2 361.473125 704.2 359.473125 
L 704.2 317.92 
Q 704.2 315.92 702.2 315.92 
L 577.376563 315.92 
Q 575.376563 315.92 575.376563 317.92 
L 575.376563 359.473125 
Q 575.376563 361.473125 577.376563 361.473125 
z
" style="fill: #ffffff; opacity: 0.8; stroke: #cccccc; stroke-linejoin: miter"/>
    </g>
    <g id="line2d_78">
     <path d="M 579.376563 323.577812 
L 589.376563 323.577812 
L 599.376563 323.577812 
" style="fill: none; stroke: #1f77b4; stroke-width: 1.5; stroke-linecap: round"/>
    </g>
    <g id="text_80">
     <!-- Monte Carlo -->
     <g style="fill: #262626" transform="translate(607.376563 327.077812) scale(0.1 -0.1)">
      <use xlink:href="#ArialMT-4d"/>
      <use xlink:href="#ArialMT-6f" transform="translate(83.300781 0)"/>
      <use xlink:href="#ArialMT-6e" transform="translate(138.916016 0)"/>
      <use xlink:href="#ArialMT-74" transform="translate(194.53125 0)"/>
      <use xlink:href="#ArialMT-65" transform="translate(222.314453 0)"/>
      <use xlink:href="#ArialMT-20" transform="translate(277.929688 0)"/>
      <use xlink:href="#ArialMT-43" transform="translate(305.712891 0)"/>
      <use xlink:href="#ArialMT-61" transform="translate(377.929688 0)"/>
      <use xlink:href="#ArialMT-72" transform="translate(433.544922 0)"/>
      <use xlink:href="#ArialMT-6c" transform="translate(466.845703 0)"/>
      <use xlink:href="#ArialMT-6f" transform="translate(489.0625 0)"/>
     </g>
    </g>
    <g id="line2d_79">
     <path d="M 579.376563 337.723125 
L 589.376563 337.723125 
L 599.376563 337.723125 
" style="fill: none; stroke: #ff7f0e; stroke-width: 1.5; stroke-linecap: round"/>
    </g>
    <g id="text_81">
     <!-- Pollaczek-Khintchine -->
     <g style="fill: #262626" transform="translate(607.376563 341.223125) scale(0.1 -0.1)">
      <use xlink:href="#ArialMT-50"/>
      <use xlink:href="#ArialMT-6f" transform="translate(66.699219 0)"/>
      <use xlink:href="#ArialMT-6c" transform="translate(122.314453 0)"/>
      <use xlink:href="#ArialMT-6c" transform="translate(144.53125 0)"/>
      <use xlink:href="#ArialMT-61" transform="translate(166.748047 0)"/>
      <use xlink:href="#ArialMT-63" transform="translate(222.363281 0)"/>
      <use xlink:href="#ArialMT-7a" transform="translate(272.363281 0)"/>
      <use xlink:href="#ArialMT-65" transform="translate(322.363281 0)"/>
      <use xlink:href="#ArialMT-6b" transform="translate(377.978516 0)"/>
      <use xlink:href="#ArialMT-2d" transform="translate(427.978516 0)"/>
      <use xlink:href="#ArialMT-4b" transform="translate(461.279297 0)"/>
      <use xlink:href="#ArialMT-68" transform="translate(527.978516 0)"/>
      <use xlink:href="#ArialMT-69" transform="translate(583.59375 0)"/>
      <use xlink:href="#ArialMT-6e" transform="translate(605.810547 0)"/>
      <use xlink:href="#ArialMT-74" transform="translate(661.425781 0)"/>
      <use xlink:href="#ArialMT-63" transform="translate(689.208984 0)"/>
      <use xlink:href="#ArialMT-68" transform="translate(739.208984 0)"/>
      <use xlink:href="#ArialMT-69" transform="translate(794.824219 0)"/>
      <use xlink:href="#ArialMT-6e" transform="translate(817.041016 0)"/>
      <use xlink:href="#ArialMT-65" transform="translate(872.65625 0)"/>
     </g>
    </g>
    <g id="line2d_80">
     <path d="M 579.376563 351.868438 
L 589.376563 351.868438 
L 599.376563 351.868438 
" style="fill: none; stroke: #2ca02c; stroke-width: 1.5; stroke-linecap: round"/>
    </g>
    <g id="text_82">
     <!-- de Vylder -->
     <g style="fill: #262626" transform="translate(607.376563 355.368438) scale(0.1 -0.1)">
      <use xlink:href="#ArialMT-64"/>
      <use xlink:href="#ArialMT-65" transform="translate(55.615234 0)"/>
      <use xlink:href="#ArialMT-20" transform="translate(111.230469 0)"/>
      <use xlink:href="#ArialMT-56" transform="translate(139.013672 0)"/>
      <use xlink:href="#ArialMT-79" transform="translate(201.962891 0)"/>
      <use xlink:href="#ArialMT-6c" transform="translate(251.962891 0)"/>
      <use xlink:href="#ArialMT-64" transform="translate(274.179688 0)"/>
      <use xlink:href="#ArialMT-65" transform="translate(329.794922 0)"/>
      <use xlink:href="#ArialMT-72" transform="translate(385.410156 0)"/>
     </g>
    </g>
   </g>
  </g>
 </g>
 <defs>
  <clipPath id="p06efa64f63">
   <rect x="48.71" y="28.32" width="305.89" height="223.12"/>
  </clipPath>
  <clipPath id="p61b78ec793">
   <rect x="403.31" y="28.32" width="305.89" height="223.12"/>
  </clipPath>
  <clipPath id="p4dfcbcfd1c">
   <rect x="48.71" y="310.92" width="305.89" height="223.12"/>
  </clipPath>
  <clipPath id="pde60675f9b">
   <rect x="403.31" y="310.92" width="305.89" height="223.12"/>
  </clipPath>
 </defs>
</svg>
