<?xml version="1.0" encoding="utf-8" standalone="no"?>
<!DOCTYPE svg PUBLIC "-//W3C//DTD SVG 1.1//EN"
  "http://www.w3.org/Graphics/SVG/1.1/DTD/svg11.dtd">
<svg xmlns:xlink="http://www.w3.org/1999/xlink" width="720pt" height="288pt" viewBox="0 0 720 288" xmlns="http://www.w3.org/2000/svg" version="1.1">
 <metadata>
  <rdf:RDF xmlns:dc="http://purl.org/dc/elements/1.1/" xmlns:cc="http://creativecommons.org/ns#" xmlns:rdf="http://www.w3.org/1999/02/22-rdf-syntax-ns#">
   <cc:Work>
    <dc:type rdf:resource="http://purl.org/dc/dcmitype/StillImage"/>
    <dc:date>2025-02-02T10:53:27.883468</dc:date>
    <dc:format>image/svg+xml</dc:format>
    <dc:creator>
     <cc:Agent>
      <dc:title>Matplotlib v3.10.0, https://matplotlib.org/</dc:title>
     </cc:Agent>
    </dc:creator>
   </cc:Work>
  </rdf:RDF>
 </metadata>
 <defs>
  <style type="text/css">*{stroke-linejoin: round; stroke-linecap: butt}</style>
 </defs>
 <g id="figure_1">
  <g id="patch_1">
   <path d="M 0 288 
L 720 288 
L 720 0 
L 0 0 
z
" style="fill: #ffffff"/>
  </g>
  <g id="axes_1">
   <g id="patch_2">
    <path d="M 48.71 245.752 
L 354.6 245.752 
L 354.6 28.32 
L 48.71 28.32 
z
" style="fill: #ffffff"/>
   </g>
   <g id="matplotlib.axis_1">
    <g id="xtick_1">
     <g id="line2d_1">
      <path d="M 62.614091 245.752 
L 62.614091 28.32 
" clip-path="url(#p13e6abba1a)" style="fill: none; stroke: #cccccc; stroke-width: 0.8; stroke-linecap: round"/>
     </g>
     <g id="text_1">
      <!-- 0 -->
      <g style="fill: #262626" transform="translate(59.833622 259.909812) scale(0.1 -0.1)">
       <defs>
        <path id="ArialMT-30" d="M 266 2259 
Q 266 3072 433 3567 
Q 600 4063 929 4331 
Q 1259 4600 1759 4600 
Q 2128 4600 2406 4451 
Q 2684 4303 2865 4023 
Q 3047 3744 3150 3342 
Q 3253 2941 3253 2259 
Q 3253 1453 3087 958 
Q 2922 463 2592 192 
Q 2263 -78 1759 -78 
Q 1097 -78 719 397 
Q 266 969 266 2259 
z
M 844 2259 
Q 844 1131 1108 757 
Q 1372 384 1759 384 
Q 2147 384 2411 759 
Q 2675 1134 2675 2259 
Q 2675 3391 2411 3762 
Q 2147 4134 1753 4134 
Q 1366 4134 1134 3806 
Q 844 3388 844 2259 
z
" transform="scale(0.015625)"/>
       </defs>
       <use xlink:href="#ArialMT-30"/>
      </g>
     </g>
    </g>
    <g id="xtick_2">
     <g id="line2d_2">
      <path d="M 118.792236 245.752 
L 118.792236 28.32 
" clip-path="url(#p13e6abba1a)" style="fill: none; stroke: #cccccc; stroke-width: 0.8; stroke-linecap: round"/>
     </g>
     <g id="text_2">
      <!-- 20 -->
      <g style="fill: #262626" transform="translate(113.231298 259.909812) scale(0.1 -0.1)">
       <defs>
        <path id="ArialMT-32" d="M 3222 541 
L 3222 0 
L 194 0 
Q 188 203 259 391 
Q 375 700 629 1000 
Q 884 1300 1366 1694 
Q 2113 2306 2375 2664 
Q 2638 3022 2638 3341 
Q 2638 3675 2398 3904 
Q 2159 4134 1775 4134 
Q 1369 4134 1125 3890 
Q 881 3647 878 3216 
L 300 3275 
Q 359 3922 746 4261 
Q 1134 4600 1788 4600 
Q 2447 4600 2831 4234 
Q 3216 3869 3216 3328 
Q 3216 3053 3103 2787 
Q 2991 2522 2730 2228 
Q 2469 1934 1863 1422 
Q 1356 997 1212 845 
Q 1069 694 975 541 
L 3222 541 
z
" transform="scale(0.015625)"/>
       </defs>
       <use xlink:href="#ArialMT-32"/>
       <use xlink:href="#ArialMT-30" transform="translate(55.615234 0)"/>
      </g>
     </g>
    </g>
    <g id="xtick_3">
     <g id="line2d_3">
      <path d="M 174.970381 245.752 
L 174.970381 28.32 
" clip-path="url(#p13e6abba1a)" style="fill: none; stroke: #cccccc; stroke-width: 0.8; stroke-linecap: round"/>
     </g>
     <g id="text_3">
      <!-- 40 -->
      <g style="fill: #262626" transform="translate(169.409444 259.909812) scale(0.1 -0.1)">
       <defs>
        <path id="ArialMT-34" d="M 2069 0 
L 2069 1097 
L 81 1097 
L 81 1613 
L 2172 4581 
L 2631 4581 
L 2631 1613 
L 3250 1613 
L 3250 1097 
L 2631 1097 
L 2631 0 
L 2069 0 
z
M 2069 1613 
L 2069 3678 
L 634 1613 
L 2069 1613 
z
" transform="scale(0.015625)"/>
       </defs>
       <use xlink:href="#ArialMT-34"/>
       <use xlink:href="#ArialMT-30" transform="translate(55.615234 0)"/>
      </g>
     </g>
    </g>
    <g id="xtick_4">
     <g id="line2d_4">
      <path d="M 231.148526 245.752 
L 231.148526 28.32 
" clip-path="url(#p13e6abba1a)" style="fill: none; stroke: #cccccc; stroke-width: 0.8; stroke-linecap: round"/>
     </g>
     <g id="text_4">
      <!-- 60 -->
      <g style="fill: #262626" transform="translate(225.587589 259.909812) scale(0.1 -0.1)">
       <defs>
        <path id="ArialMT-36" d="M 3184 3459 
L 2625 3416 
Q 2550 3747 2413 3897 
Q 2184 4138 1850 4138 
Q 1581 4138 1378 3988 
Q 1113 3794 959 3422 
Q 806 3050 800 2363 
Q 1003 2672 1297 2822 
Q 1591 2972 1913 2972 
Q 2475 2972 2870 2558 
Q 3266 2144 3266 1488 
Q 3266 1056 3080 686 
Q 2894 316 2569 119 
Q 2244 -78 1831 -78 
Q 1128 -78 684 439 
Q 241 956 241 2144 
Q 241 3472 731 4075 
Q 1159 4600 1884 4600 
Q 2425 4600 2770 4297 
Q 3116 3994 3184 3459 
z
M 888 1484 
Q 888 1194 1011 928 
Q 1134 663 1356 523 
Q 1578 384 1822 384 
Q 2178 384 2434 671 
Q 2691 959 2691 1453 
Q 2691 1928 2437 2201 
Q 2184 2475 1800 2475 
Q 1419 2475 1153 2201 
Q 888 1928 888 1484 
z
" transform="scale(0.015625)"/>
       </defs>
       <use xlink:href="#ArialMT-36"/>
       <use xlink:href="#ArialMT-30" transform="translate(55.615234 0)"/>
      </g>
     </g>
    </g>
    <g id="xtick_5">
     <g id="line2d_5">
      <path d="M 287.326671 245.752 
L 287.326671 28.32 
" clip-path="url(#p13e6abba1a)" style="fill: none; stroke: #cccccc; stroke-width: 0.8; stroke-linecap: round"/>
     </g>
     <g id="text_5">
      <!-- 80 -->
      <g style="fill: #262626" transform="translate(281.765734 259.909812) scale(0.1 -0.1)">
       <defs>
        <path id="ArialMT-38" d="M 1131 2484 
Q 781 2613 612 2850 
Q 444 3088 444 3419 
Q 444 3919 803 4259 
Q 1163 4600 1759 4600 
Q 2359 4600 2725 4251 
Q 3091 3903 3091 3403 
Q 3091 3084 2923 2848 
Q 2756 2613 2416 2484 
Q 2838 2347 3058 2040 
Q 3278 1734 3278 1309 
Q 3278 722 2862 322 
Q 2447 -78 1769 -78 
Q 1091 -78 675 323 
Q 259 725 259 1325 
Q 259 1772 486 2073 
Q 713 2375 1131 2484 
z
M 1019 3438 
Q 1019 3113 1228 2906 
Q 1438 2700 1772 2700 
Q 2097 2700 2305 2904 
Q 2513 3109 2513 3406 
Q 2513 3716 2298 3927 
Q 2084 4138 1766 4138 
Q 1444 4138 1231 3931 
Q 1019 3725 1019 3438 
z
M 838 1322 
Q 838 1081 952 856 
Q 1066 631 1291 507 
Q 1516 384 1775 384 
Q 2178 384 2440 643 
Q 2703 903 2703 1303 
Q 2703 1709 2433 1975 
Q 2163 2241 1756 2241 
Q 1359 2241 1098 1978 
Q 838 1716 838 1322 
z
" transform="scale(0.015625)"/>
       </defs>
       <use xlink:href="#ArialMT-38"/>
       <use xlink:href="#ArialMT-30" transform="translate(55.615234 0)"/>
      </g>
     </g>
    </g>
    <g id="xtick_6">
     <g id="line2d_6">
      <path d="M 343.504816 245.752 
L 343.504816 28.32 
" clip-path="url(#p13e6abba1a)" style="fill: none; stroke: #cccccc; stroke-width: 0.8; stroke-linecap: round"/>
     </g>
     <g id="text_6">
      <!-- 100 -->
      <g style="fill: #262626" transform="translate(335.16341 259.909812) scale(0.1 -0.1)">
       <defs>
        <path id="ArialMT-31" d="M 2384 0 
L 1822 0 
L 1822 3584 
Q 1619 3391 1289 3197 
Q 959 3003 697 2906 
L 697 3450 
Q 1169 3672 1522 3987 
Q 1875 4303 2022 4600 
L 2384 4600 
L 2384 0 
z
" transform="scale(0.015625)"/>
       </defs>
       <use xlink:href="#ArialMT-31"/>
       <use xlink:href="#ArialMT-30" transform="translate(55.615234 0)"/>
       <use xlink:href="#ArialMT-30" transform="translate(111.230469 0)"/>
      </g>
     </g>
    </g>
    <g id="text_7">
     <!-- $u_0$ -->
     <g style="fill: #262626" transform="translate(196.105 273.055125) scale(0.1 -0.1)">
      <defs>
       <path id="DejaVuSans-Oblique-75" d="M 428 1388 
L 838 3500 
L 1416 3500 
L 1006 1409 
Q 975 1256 961 1147 
Q 947 1038 947 966 
Q 947 700 1109 554 
Q 1272 409 1569 409 
Q 2031 409 2368 721 
Q 2706 1034 2809 1563 
L 3194 3500 
L 3769 3500 
L 3091 0 
L 2516 0 
L 2631 550 
Q 2388 244 2052 76 
Q 1716 -91 1338 -91 
Q 878 -91 622 161 
Q 366 413 366 863 
Q 366 956 381 1097 
Q 397 1238 428 1388 
z
" transform="scale(0.015625)"/>
       <path id="DejaVuSans-30" d="M 2034 4250 
Q 1547 4250 1301 3770 
Q 1056 3291 1056 2328 
Q 1056 1369 1301 889 
Q 1547 409 2034 409 
Q 2525 409 2770 889 
Q 3016 1369 3016 2328 
Q 3016 3291 2770 3770 
Q 2525 4250 2034 4250 
z
M 2034 4750 
Q 2819 4750 3233 4129 
Q 3647 3509 3647 2328 
Q 3647 1150 3233 529 
Q 2819 -91 2034 -91 
Q 1250 -91 836 529 
Q 422 1150 422 2328 
Q 422 3509 836 4129 
Q 1250 4750 2034 4750 
z
" transform="scale(0.015625)"/>
      </defs>
      <use xlink:href="#DejaVuSans-Oblique-75" transform="translate(0 0.3125)"/>
      <use xlink:href="#DejaVuSans-30" transform="translate(63.378906 -16.09375) scale(0.7)"/>
     </g>
    </g>
   </g>
   <g id="matplotlib.axis_2">
    <g id="ytick_1">
     <g id="line2d_7">
      <path d="M 48.71 235.868727 
L 354.6 235.868727 
" clip-path="url(#p13e6abba1a)" style="fill: none; stroke: #cccccc; stroke-width: 0.8; stroke-linecap: round"/>
     </g>
     <g id="text_8">
      <!-- 0.0 -->
      <g style="fill: #262626" transform="translate(27.81 239.447634) scale(0.1 -0.1)">
       <defs>
        <path id="ArialMT-2e" d="M 581 0 
L 581 641 
L 1222 641 
L 1222 0 
L 581 0 
z
" transform="scale(0.015625)"/>
       </defs>
       <use xlink:href="#ArialMT-30"/>
       <use xlink:href="#ArialMT-2e" transform="translate(55.615234 0)"/>
       <use xlink:href="#ArialMT-30" transform="translate(83.398438 0)"/>
      </g>
     </g>
    </g>
    <g id="ytick_2">
     <g id="line2d_8">
      <path d="M 48.71 196.335636 
L 354.6 196.335636 
" clip-path="url(#p13e6abba1a)" style="fill: none; stroke: #cccccc; stroke-width: 0.8; stroke-linecap: round"/>
     </g>
     <g id="text_9">
      <!-- 0.2 -->
      <g style="fill: #262626" transform="translate(27.81 199.914543) scale(0.1 -0.1)">
       <use xlink:href="#ArialMT-30"/>
       <use xlink:href="#ArialMT-2e" transform="translate(55.615234 0)"/>
       <use xlink:href="#ArialMT-32" transform="translate(83.398438 0)"/>
      </g>
     </g>
    </g>
    <g id="ytick_3">
     <g id="line2d_9">
      <path d="M 48.71 156.802545 
L 354.6 156.802545 
" clip-path="url(#p13e6abba1a)" style="fill: none; stroke: #cccccc; stroke-width: 0.8; stroke-linecap: round"/>
     </g>
     <g id="text_10">
      <!-- 0.4 -->
      <g style="fill: #262626" transform="translate(27.81 160.381452) scale(0.1 -0.1)">
       <use xlink:href="#ArialMT-30"/>
       <use xlink:href="#ArialMT-2e" transform="translate(55.615234 0)"/>
       <use xlink:href="#ArialMT-34" transform="translate(83.398438 0)"/>
      </g>
     </g>
    </g>
    <g id="ytick_4">
     <g id="line2d_10">
      <path d="M 48.71 117.269455 
L 354.6 117.269455 
" clip-path="url(#p13e6abba1a)" style="fill: none; stroke: #cccccc; stroke-width: 0.8; stroke-linecap: round"/>
     </g>
     <g id="text_11">
      <!-- 0.6 -->
      <g style="fill: #262626" transform="translate(27.81 120.848361) scale(0.1 -0.1)">
       <use xlink:href="#ArialMT-30"/>
       <use xlink:href="#ArialMT-2e" transform="translate(55.615234 0)"/>
       <use xlink:href="#ArialMT-36" transform="translate(83.398438 0)"/>
      </g>
     </g>
    </g>
    <g id="ytick_5">
     <g id="line2d_11">
      <path d="M 48.71 77.736364 
L 354.6 77.736364 
" clip-path="url(#p13e6abba1a)" style="fill: none; stroke: #cccccc; stroke-width: 0.8; stroke-linecap: round"/>
     </g>
     <g id="text_12">
      <!-- 0.8 -->
      <g style="fill: #262626" transform="translate(27.81 81.31527) scale(0.1 -0.1)">
       <use xlink:href="#ArialMT-30"/>
       <use xlink:href="#ArialMT-2e" transform="translate(55.615234 0)"/>
       <use xlink:href="#ArialMT-38" transform="translate(83.398438 0)"/>
      </g>
     </g>
    </g>
    <g id="ytick_6">
     <g id="line2d_12">
      <path d="M 48.71 38.203273 
L 354.6 38.203273 
" clip-path="url(#p13e6abba1a)" style="fill: none; stroke: #cccccc; stroke-width: 0.8; stroke-linecap: round"/>
     </g>
     <g id="text_13">
      <!-- 1.0 -->
      <g style="fill: #262626" transform="translate(27.81 41.782179) scale(0.1 -0.1)">
       <use xlink:href="#ArialMT-31"/>
       <use xlink:href="#ArialMT-2e" transform="translate(55.615234 0)"/>
       <use xlink:href="#ArialMT-30" transform="translate(83.398438 0)"/>
      </g>
     </g>
    </g>
    <g id="text_14">
     <!-- $\psi(u_0, T)$ -->
     <g style="fill: #262626" transform="translate(21.71 155.386) rotate(-90) scale(0.1 -0.1)">
      <defs>
       <path id="DejaVuSans-Oblique-3c8" d="M 1591 -78 
Q 891 38 616 341 
Q 278 713 425 1472 
L 819 3500 
L 1400 3500 
L 1009 1494 
Q 900 922 1119 684 
Q 1313 478 1691 434 
L 2284 3500 
L 2856 3500 
L 2263 438 
Q 2681 481 2928 688 
Q 3247 950 3353 1497 
L 3741 3500 
L 4322 3500 
L 3928 1475 
Q 3775 688 3300 344 
Q 2872 34 2163 -75 
L 1919 -1331 
L 1347 -1331 
L 1591 -78 
z
" transform="scale(0.015625)"/>
       <path id="DejaVuSans-28" d="M 1984 4856 
Q 1566 4138 1362 3434 
Q 1159 2731 1159 2009 
Q 1159 1288 1364 580 
Q 1569 -128 1984 -844 
L 1484 -844 
Q 1016 -109 783 600 
Q 550 1309 550 2009 
Q 550 2706 781 3412 
Q 1013 4119 1484 4856 
L 1984 4856 
z
" transform="scale(0.015625)"/>
       <path id="DejaVuSans-2c" d="M 750 794 
L 1409 794 
L 1409 256 
L 897 -744 
L 494 -744 
L 750 256 
L 750 794 
z
" transform="scale(0.015625)"/>
       <path id="DejaVuSans-Oblique-54" d="M 378 4666 
L 4325 4666 
L 4225 4134 
L 2559 4134 
L 1759 0 
L 1125 0 
L 1925 4134 
L 275 4134 
L 378 4666 
z
" transform="scale(0.015625)"/>
       <path id="DejaVuSans-29" d="M 513 4856 
L 1013 4856 
Q 1481 4119 1714 3412 
Q 1947 2706 1947 2009 
Q 1947 1309 1714 600 
Q 1481 -109 1013 -844 
L 513 -844 
Q 928 -128 1133 580 
Q 1338 1288 1338 2009 
Q 1338 2731 1133 3434 
Q 928 4138 513 4856 
z
" transform="scale(0.015625)"/>
      </defs>
      <use xlink:href="#DejaVuSans-Oblique-3c8" transform="translate(0 0.125)"/>
      <use xlink:href="#DejaVuSans-28" transform="translate(65.966797 0.125)"/>
      <use xlink:href="#DejaVuSans-Oblique-75" transform="translate(104.980469 0.125)"/>
      <use xlink:href="#DejaVuSans-30" transform="translate(168.359375 -16.28125) scale(0.7)"/>
      <use xlink:href="#DejaVuSans-2c" transform="translate(215.629883 0.125)"/>
      <use xlink:href="#DejaVuSans-Oblique-54" transform="translate(266.899414 0.125)"/>
      <use xlink:href="#DejaVuSans-29" transform="translate(327.983398 0.125)"/>
     </g>
    </g>
   </g>
   <g id="line2d_13">
    <path d="M 62.614091 57.969818 
L 65.422998 61.527796 
L 68.231905 65.481105 
L 71.040813 70.027411 
L 73.84972 74.573716 
L 76.658627 77.143367 
L 79.467534 83.270996 
L 82.276442 88.014967 
L 85.085349 94.142596 
L 87.894256 99.479564 
L 90.703163 101.653884 
L 93.512071 105.409527 
L 96.320978 109.165171 
L 99.129885 113.11848 
L 101.938792 115.885796 
L 104.7477 120.036771 
L 107.556607 123.001753 
L 110.365514 126.955062 
L 113.174421 128.536385 
L 115.983329 131.896698 
L 118.792236 135.059345 
L 121.601143 141.186975 
L 124.410051 145.930945 
L 127.218958 148.698262 
L 130.027865 152.058575 
L 132.836772 154.43056 
L 135.64568 157.000211 
L 138.454587 160.360524 
L 141.263494 164.906829 
L 144.072401 166.883484 
L 146.881309 168.662473 
L 149.690216 171.034458 
L 152.499123 173.208778 
L 155.30803 174.790102 
L 158.116938 175.778429 
L 160.925845 178.545745 
L 163.734752 179.929404 
L 166.543659 181.313062 
L 169.352567 183.685047 
L 172.161474 185.661702 
L 174.970381 188.033687 
L 177.779288 189.812676 
L 180.588196 191.196335 
L 183.397103 192.777658 
L 186.20601 194.556647 
L 189.014917 197.126298 
L 191.823825 197.91696 
L 194.632732 199.300618 
L 197.441639 201.079607 
L 200.250546 203.451593 
L 203.059454 205.823578 
L 205.868361 207.800233 
L 208.677268 208.78856 
L 211.486175 209.776887 
L 214.295083 210.172218 
L 217.10399 210.765215 
L 219.912897 211.951207 
L 222.721804 212.544204 
L 225.530712 213.1372 
L 228.339619 213.927862 
L 231.148526 214.520858 
L 233.957433 215.113855 
L 236.766341 215.31152 
L 239.575248 216.102182 
L 242.384155 217.48584 
L 245.193062 218.474167 
L 248.00197 219.462495 
L 250.810877 220.055491 
L 253.619784 220.846153 
L 256.428691 221.241484 
L 259.237599 222.032145 
L 262.046506 222.625142 
L 264.855413 223.020473 
L 267.66432 223.613469 
L 270.473228 224.404131 
L 273.282135 224.601796 
L 276.091042 224.997127 
L 278.899949 224.997127 
L 281.708857 225.392458 
L 284.517764 225.787789 
L 287.326671 225.985455 
L 290.135579 226.380785 
L 292.944486 226.776116 
L 295.753393 227.566778 
L 298.5623 228.159775 
L 301.371208 228.752771 
L 304.180115 229.543433 
L 306.989022 229.938764 
L 309.797929 230.334095 
L 312.606837 230.53176 
L 315.415744 230.53176 
L 318.224651 230.53176 
L 321.033558 230.927091 
L 323.842466 230.927091 
L 326.651373 230.927091 
L 329.46028 230.927091 
L 332.269187 231.124756 
L 335.078095 231.124756 
L 337.887002 231.322422 
L 340.695909 231.717753 
" clip-path="url(#p13e6abba1a)" style="fill: none; stroke: #1f77b4; stroke-width: 1.5; stroke-linecap: round"/>
   </g>
   <g id="line2d_14">
    <path d="M 62.614091 60.737135 
L 65.422998 63.702116 
L 68.231905 67.260095 
L 71.040813 71.411069 
L 73.84972 75.166713 
L 76.658627 78.922356 
L 79.467534 84.259324 
L 82.276442 88.805629 
L 85.085349 91.968276 
L 87.894256 94.933258 
L 90.703163 98.688902 
L 93.512071 102.24688 
L 96.320978 104.816531 
L 99.129885 109.955833 
L 101.938792 114.502138 
L 104.7477 116.083462 
L 107.556607 119.246109 
L 110.365514 123.001753 
L 113.174421 126.559731 
L 115.983329 128.931716 
L 118.792236 132.68736 
L 121.601143 135.652342 
L 124.410051 137.431331 
L 127.218958 140.791644 
L 130.027865 142.965964 
L 132.836772 145.73328 
L 135.64568 150.279585 
L 138.454587 152.453905 
L 141.263494 154.628225 
L 144.072401 157.593207 
L 146.881309 161.151185 
L 149.690216 163.523171 
L 152.499123 164.906829 
L 155.30803 166.685818 
L 158.116938 168.069476 
L 160.925845 170.046131 
L 163.734752 172.615782 
L 166.543659 174.790102 
L 169.352567 175.976095 
L 172.161474 177.952749 
L 174.970381 179.731738 
L 177.779288 180.5224 
L 180.588196 181.708393 
L 183.397103 182.69672 
L 186.20601 183.487382 
L 189.014917 184.673375 
L 191.823825 186.452364 
L 194.632732 188.033687 
L 197.441639 189.417345 
L 200.250546 190.603338 
L 203.059454 191.196335 
L 205.868361 191.591665 
L 208.677268 193.172989 
L 211.486175 194.161316 
L 214.295083 195.544975 
L 217.10399 197.126298 
L 219.912897 197.521629 
L 222.721804 198.312291 
L 225.530712 198.905287 
L 228.339619 200.09128 
L 231.148526 201.277273 
L 233.957433 202.2656 
L 236.766341 203.253927 
L 239.575248 204.044589 
L 242.384155 205.032916 
L 245.193062 206.218909 
L 248.00197 207.207236 
L 250.810877 207.800233 
L 253.619784 208.393229 
L 256.428691 208.78856 
L 259.237599 209.579222 
L 262.046506 210.369884 
L 264.855413 211.160545 
L 267.66432 211.951207 
L 270.473228 212.741869 
L 273.282135 213.532531 
L 276.091042 214.718524 
L 278.899949 215.113855 
L 281.708857 216.102182 
L 284.517764 216.497513 
L 287.326671 217.090509 
L 290.135579 217.288175 
L 292.944486 217.683505 
L 295.753393 217.881171 
L 298.5623 218.276502 
L 301.371208 218.671833 
L 304.180115 218.869498 
L 306.989022 219.067164 
L 309.797929 219.857825 
L 312.606837 220.450822 
L 315.415744 220.846153 
L 318.224651 221.439149 
L 321.033558 222.032145 
L 323.842466 222.625142 
L 326.651373 222.822807 
L 329.46028 223.020473 
L 332.269187 223.415804 
L 335.078095 223.613469 
L 337.887002 224.0088 
L 340.695909 224.404131 
" clip-path="url(#p13e6abba1a)" style="fill: none; stroke: #ff7f0e; stroke-width: 1.5; stroke-linecap: round"/>
   </g>
   <g id="line2d_15">
    <path d="M 62.614091 51.993886 
L 65.422998 57.054337 
L 68.231905 61.975519 
L 71.040813 66.761265 
L 73.84972 71.415301 
L 76.658627 75.941252 
L 79.467534 80.342644 
L 82.276442 84.622904 
L 85.085349 88.785367 
L 87.894256 92.833274 
L 90.703163 96.769777 
L 93.512071 100.597944 
L 96.320978 104.320755 
L 99.129885 107.941109 
L 101.938792 111.461828 
L 104.7477 114.885652 
L 107.556607 118.215248 
L 110.365514 121.45321 
L 113.174421 124.602059 
L 115.983329 127.664249 
L 118.792236 130.642163 
L 121.601143 133.538121 
L 124.410051 136.35438 
L 127.218958 139.093132 
L 130.027865 141.75651 
L 132.836772 144.346588 
L 135.64568 146.865385 
L 138.454587 149.314862 
L 141.263494 151.696926 
L 144.072401 154.013432 
L 146.881309 156.266186 
L 149.690216 158.456942 
L 152.499123 160.587405 
L 155.30803 162.659235 
L 158.116938 164.674047 
L 160.925845 166.633408 
L 163.734752 168.538845 
L 166.543659 170.391842 
L 169.352567 172.193843 
L 172.161474 173.946251 
L 174.970381 175.65043 
L 177.779288 177.307708 
L 180.588196 178.919376 
L 183.397103 180.486689 
L 186.20601 182.010868 
L 189.014917 183.4931 
L 191.823825 184.934538 
L 194.632732 186.336307 
L 197.441639 187.699497 
L 200.250546 189.025171 
L 203.059454 190.314361 
L 205.868361 191.56807 
L 208.677268 192.787277 
L 211.486175 193.972929 
L 214.295083 195.12595 
L 217.10399 196.247239 
L 219.912897 197.337669 
L 222.721804 198.398089 
L 225.530712 199.429325 
L 228.339619 200.43218 
L 231.148526 201.407436 
L 233.957433 202.355851 
L 236.766341 203.278165 
L 239.575248 204.175095 
L 242.384155 205.047341 
L 245.193062 205.895582 
L 248.00197 206.720478 
L 250.810877 207.522672 
L 253.619784 208.302789 
L 256.428691 209.061436 
L 259.237599 209.799204 
L 262.046506 210.516668 
L 264.855413 211.214386 
L 267.66432 211.892903 
L 270.473228 212.552746 
L 273.282135 213.194429 
L 276.091042 213.818452 
L 278.899949 214.425302 
L 281.708857 215.01545 
L 284.517764 215.589356 
L 287.326671 216.147469 
L 290.135579 216.690221 
L 292.944486 217.218036 
L 295.753393 217.731325 
L 298.5623 218.230487 
L 301.371208 218.715912 
L 304.180115 219.187978 
L 306.989022 219.647052 
L 309.797929 220.093491 
L 312.606837 220.527644 
L 315.415744 220.949849 
L 318.224651 221.360434 
L 321.033558 221.759719 
L 323.842466 222.148016 
L 326.651373 222.525626 
L 329.46028 222.892844 
L 332.269187 223.249955 
L 335.078095 223.597239 
L 337.887002 223.934964 
L 340.695909 224.263396 
" clip-path="url(#p13e6abba1a)" style="fill: none; stroke: #2ca02c; stroke-width: 1.5; stroke-linecap: round"/>
   </g>
   <g id="patch_3">
    <path d="M 48.71 245.752 
L 48.71 28.32 
" style="fill: none; stroke: #cccccc; stroke-width: 0.8; stroke-linejoin: miter; stroke-linecap: square"/>
   </g>
   <g id="patch_4">
    <path d="M 354.6 245.752 
L 354.6 28.32 
" style="fill: none; stroke: #cccccc; stroke-width: 0.8; stroke-linejoin: miter; stroke-linecap: square"/>
   </g>
   <g id="patch_5">
    <path d="M 48.71 245.752 
L 354.6 245.752 
" style="fill: none; stroke: #cccccc; stroke-width: 0.8; stroke-linejoin: miter; stroke-linecap: square"/>
   </g>
   <g id="patch_6">
    <path d="M 48.71 28.32 
L 354.6 28.32 
" style="fill: none; stroke: #cccccc; stroke-width: 0.8; stroke-linejoin: miter; stroke-linecap: square"/>
   </g>
   <g id="text_15">
    <!-- $\lambda = 1, a = 0, b = 10, T = 100$ -->
    <g style="fill: #262626" transform="translate(121.495 22.32) scale(0.12 -0.12)">
     <defs>
      <path id="DejaVuSans-Oblique-3bb" d="M 2350 4316 
L 3125 0 
L 2516 0 
L 2038 2588 
L 328 0 
L -281 0 
L 1903 3356 
L 1794 3975 
Q 1725 4369 1391 4369 
L 1091 4369 
L 1184 4863 
L 1550 4856 
Q 2253 4847 2350 4316 
z
" transform="scale(0.015625)"/>
      <path id="DejaVuSans-3d" d="M 678 2906 
L 4684 2906 
L 4684 2381 
L 678 2381 
L 678 2906 
z
M 678 1631 
L 4684 1631 
L 4684 1100 
L 678 1100 
L 678 1631 
z
" transform="scale(0.015625)"/>
      <path id="DejaVuSans-31" d="M 794 531 
L 1825 531 
L 1825 4091 
L 703 3866 
L 703 4441 
L 1819 4666 
L 2450 4666 
L 2450 531 
L 3481 531 
L 3481 0 
L 794 0 
L 794 531 
z
" transform="scale(0.015625)"/>
      <path id="DejaVuSans-Oblique-61" d="M 3438 1997 
L 3047 0 
L 2472 0 
L 2578 531 
Q 2325 219 2001 64 
Q 1678 -91 1281 -91 
Q 834 -91 548 182 
Q 263 456 263 884 
Q 263 1497 752 1853 
Q 1241 2209 2100 2209 
L 2900 2209 
L 2931 2363 
Q 2938 2388 2941 2417 
Q 2944 2447 2944 2509 
Q 2944 2788 2717 2942 
Q 2491 3097 2081 3097 
Q 1800 3097 1504 3025 
Q 1209 2953 897 2809 
L 997 3341 
Q 1322 3463 1633 3523 
Q 1944 3584 2234 3584 
Q 2853 3584 3176 3315 
Q 3500 3047 3500 2534 
Q 3500 2431 3484 2292 
Q 3469 2153 3438 1997 
z
M 2816 1759 
L 2241 1759 
Q 1534 1759 1195 1570 
Q 856 1381 856 984 
Q 856 709 1029 553 
Q 1203 397 1509 397 
Q 1978 397 2328 733 
Q 2678 1069 2791 1631 
L 2816 1759 
z
" transform="scale(0.015625)"/>
      <path id="DejaVuSans-Oblique-62" d="M 3169 2138 
Q 3169 2591 2961 2847 
Q 2753 3103 2388 3103 
Q 2122 3103 1889 2973 
Q 1656 2844 1484 2597 
Q 1303 2338 1198 1995 
Q 1094 1653 1094 1313 
Q 1094 881 1298 636 
Q 1503 391 1863 391 
Q 2134 391 2365 517 
Q 2597 644 2772 891 
Q 2950 1147 3059 1487 
Q 3169 1828 3169 2138 
z
M 1381 2969 
Q 1594 3256 1914 3420 
Q 2234 3584 2584 3584 
Q 3122 3584 3439 3221 
Q 3756 2859 3756 2241 
Q 3756 1734 3570 1259 
Q 3384 784 3041 416 
Q 2816 172 2522 40 
Q 2228 -91 1906 -91 
Q 1566 -91 1316 65 
Q 1066 222 909 531 
L 806 0 
L 231 0 
L 1178 4863 
L 1753 4863 
L 1381 2969 
z
" transform="scale(0.015625)"/>
     </defs>
     <use xlink:href="#DejaVuSans-Oblique-3bb" transform="translate(0 0.015625)"/>
     <use xlink:href="#DejaVuSans-3d" transform="translate(78.662109 0.015625)"/>
     <use xlink:href="#DejaVuSans-31" transform="translate(181.933594 0.015625)"/>
     <use xlink:href="#DejaVuSans-2c" transform="translate(245.556641 0.015625)"/>
     <use xlink:href="#DejaVuSans-Oblique-61" transform="translate(296.826172 0.015625)"/>
     <use xlink:href="#DejaVuSans-3d" transform="translate(377.587891 0.015625)"/>
     <use xlink:href="#DejaVuSans-30" transform="translate(480.859375 0.015625)"/>
     <use xlink:href="#DejaVuSans-2c" transform="translate(544.482422 0.015625)"/>
     <use xlink:href="#DejaVuSans-Oblique-62" transform="translate(595.751953 0.015625)"/>
     <use xlink:href="#DejaVuSans-3d" transform="translate(678.710938 0.015625)"/>
     <use xlink:href="#DejaVuSans-31" transform="translate(781.982422 0.015625)"/>
     <use xlink:href="#DejaVuSans-30" transform="translate(845.605469 0.015625)"/>
     <use xlink:href="#DejaVuSans-2c" transform="translate(909.228516 0.015625)"/>
     <use xlink:href="#DejaVuSans-Oblique-54" transform="translate(960.498047 0.015625)"/>
     <use xlink:href="#DejaVuSans-3d" transform="translate(1041.064453 0.015625)"/>
     <use xlink:href="#DejaVuSans-31" transform="translate(1144.335938 0.015625)"/>
     <use xlink:href="#DejaVuSans-30" transform="translate(1207.958984 0.015625)"/>
     <use xlink:href="#DejaVuSans-30" transform="translate(1271.582031 0.015625)"/>
    </g>
   </g>
   <g id="legend_1">
    <g id="patch_7">
     <path d="M 222.776562 78.873125 
L 347.6 78.873125 
Q 349.6 78.873125 349.6 76.873125 
L 349.6 35.32 
Q 349.6 33.32 347.6 33.32 
L 222.776562 33.32 
Q 220.776562 33.32 220.776562 35.32 
L 220.776562 76.873125 
Q 220.776562 78.873125 222.776562 78.873125 
z
" style="fill: #ffffff; opacity: 0.8; stroke: #cccccc; stroke-linejoin: miter"/>
    </g>
    <g id="line2d_16">
     <path d="M 224.776562 40.977813 
L 234.776562 40.977813 
L 244.776562 40.977813 
" style="fill: none; stroke: #1f77b4; stroke-width: 1.5; stroke-linecap: round"/>
    </g>
    <g id="text_16">
     <!-- Monte Carlo -->
     <g style="fill: #262626" transform="translate(252.776562 44.477813) scale(0.1 -0.1)">
      <defs>
       <path id="ArialMT-4d" d="M 475 0 
L 475 4581 
L 1388 4581 
L 2472 1338 
Q 2622 884 2691 659 
Q 2769 909 2934 1394 
L 4031 4581 
L 4847 4581 
L 4847 0 
L 4263 0 
L 4263 3834 
L 2931 0 
L 2384 0 
L 1059 3900 
L 1059 0 
L 475 0 
z
" transform="scale(0.015625)"/>
       <path id="ArialMT-6f" d="M 213 1659 
Q 213 2581 725 3025 
Q 1153 3394 1769 3394 
Q 2453 3394 2887 2945 
Q 3322 2497 3322 1706 
Q 3322 1066 3130 698 
Q 2938 331 2570 128 
Q 2203 -75 1769 -75 
Q 1072 -75 642 372 
Q 213 819 213 1659 
z
M 791 1659 
Q 791 1022 1069 705 
Q 1347 388 1769 388 
Q 2188 388 2466 706 
Q 2744 1025 2744 1678 
Q 2744 2294 2464 2611 
Q 2184 2928 1769 2928 
Q 1347 2928 1069 2612 
Q 791 2297 791 1659 
z
" transform="scale(0.015625)"/>
       <path id="ArialMT-6e" d="M 422 0 
L 422 3319 
L 928 3319 
L 928 2847 
Q 1294 3394 1984 3394 
Q 2284 3394 2536 3286 
Q 2788 3178 2913 3003 
Q 3038 2828 3088 2588 
Q 3119 2431 3119 2041 
L 3119 0 
L 2556 0 
L 2556 2019 
Q 2556 2363 2490 2533 
Q 2425 2703 2258 2804 
Q 2091 2906 1866 2906 
Q 1506 2906 1245 2678 
Q 984 2450 984 1813 
L 984 0 
L 422 0 
z
" transform="scale(0.015625)"/>
       <path id="ArialMT-74" d="M 1650 503 
L 1731 6 
Q 1494 -44 1306 -44 
Q 1000 -44 831 53 
Q 663 150 594 308 
Q 525 466 525 972 
L 525 2881 
L 113 2881 
L 113 3319 
L 525 3319 
L 525 4141 
L 1084 4478 
L 1084 3319 
L 1650 3319 
L 1650 2881 
L 1084 2881 
L 1084 941 
Q 1084 700 1114 631 
Q 1144 563 1211 522 
Q 1278 481 1403 481 
Q 1497 481 1650 503 
z
" transform="scale(0.015625)"/>
       <path id="ArialMT-65" d="M 2694 1069 
L 3275 997 
Q 3138 488 2766 206 
Q 2394 -75 1816 -75 
Q 1088 -75 661 373 
Q 234 822 234 1631 
Q 234 2469 665 2931 
Q 1097 3394 1784 3394 
Q 2450 3394 2872 2941 
Q 3294 2488 3294 1666 
Q 3294 1616 3291 1516 
L 816 1516 
Q 847 969 1125 678 
Q 1403 388 1819 388 
Q 2128 388 2347 550 
Q 2566 713 2694 1069 
z
M 847 1978 
L 2700 1978 
Q 2663 2397 2488 2606 
Q 2219 2931 1791 2931 
Q 1403 2931 1139 2672 
Q 875 2413 847 1978 
z
" transform="scale(0.015625)"/>
       <path id="ArialMT-20" transform="scale(0.015625)"/>
       <path id="ArialMT-43" d="M 3763 1606 
L 4369 1453 
Q 4178 706 3683 314 
Q 3188 -78 2472 -78 
Q 1731 -78 1267 223 
Q 803 525 561 1097 
Q 319 1669 319 2325 
Q 319 3041 592 3573 
Q 866 4106 1370 4382 
Q 1875 4659 2481 4659 
Q 3169 4659 3637 4309 
Q 4106 3959 4291 3325 
L 3694 3184 
Q 3534 3684 3231 3912 
Q 2928 4141 2469 4141 
Q 1941 4141 1586 3887 
Q 1231 3634 1087 3207 
Q 944 2781 944 2328 
Q 944 1744 1114 1308 
Q 1284 872 1643 656 
Q 2003 441 2422 441 
Q 2931 441 3284 734 
Q 3638 1028 3763 1606 
z
" transform="scale(0.015625)"/>
       <path id="ArialMT-61" d="M 2588 409 
Q 2275 144 1986 34 
Q 1697 -75 1366 -75 
Q 819 -75 525 192 
Q 231 459 231 875 
Q 231 1119 342 1320 
Q 453 1522 633 1644 
Q 813 1766 1038 1828 
Q 1203 1872 1538 1913 
Q 2219 1994 2541 2106 
Q 2544 2222 2544 2253 
Q 2544 2597 2384 2738 
Q 2169 2928 1744 2928 
Q 1347 2928 1158 2789 
Q 969 2650 878 2297 
L 328 2372 
Q 403 2725 575 2942 
Q 747 3159 1072 3276 
Q 1397 3394 1825 3394 
Q 2250 3394 2515 3294 
Q 2781 3194 2906 3042 
Q 3031 2891 3081 2659 
Q 3109 2516 3109 2141 
L 3109 1391 
Q 3109 606 3145 398 
Q 3181 191 3288 0 
L 2700 0 
Q 2613 175 2588 409 
z
M 2541 1666 
Q 2234 1541 1622 1453 
Q 1275 1403 1131 1340 
Q 988 1278 909 1158 
Q 831 1038 831 891 
Q 831 666 1001 516 
Q 1172 366 1500 366 
Q 1825 366 2078 508 
Q 2331 650 2450 897 
Q 2541 1088 2541 1459 
L 2541 1666 
z
" transform="scale(0.015625)"/>
       <path id="ArialMT-72" d="M 416 0 
L 416 3319 
L 922 3319 
L 922 2816 
Q 1116 3169 1280 3281 
Q 1444 3394 1641 3394 
Q 1925 3394 2219 3213 
L 2025 2691 
Q 1819 2813 1613 2813 
Q 1428 2813 1281 2702 
Q 1134 2591 1072 2394 
Q 978 2094 978 1738 
L 978 0 
L 416 0 
z
" transform="scale(0.015625)"/>
       <path id="ArialMT-6c" d="M 409 0 
L 409 4581 
L 972 4581 
L 972 0 
L 409 0 
z
" transform="scale(0.015625)"/>
      </defs>
      <use xlink:href="#ArialMT-4d"/>
      <use xlink:href="#ArialMT-6f" transform="translate(83.300781 0)"/>
      <use xlink:href="#ArialMT-6e" transform="translate(138.916016 0)"/>
      <use xlink:href="#ArialMT-74" transform="translate(194.53125 0)"/>
      <use xlink:href="#ArialMT-65" transform="translate(222.314453 0)"/>
      <use xlink:href="#ArialMT-20" transform="translate(277.929688 0)"/>
      <use xlink:href="#ArialMT-43" transform="translate(305.712891 0)"/>
      <use xlink:href="#ArialMT-61" transform="translate(377.929688 0)"/>
      <use xlink:href="#ArialMT-72" transform="translate(433.544922 0)"/>
      <use xlink:href="#ArialMT-6c" transform="translate(466.845703 0)"/>
      <use xlink:href="#ArialMT-6f" transform="translate(489.0625 0)"/>
     </g>
    </g>
    <g id="line2d_17">
     <path d="M 224.776562 55.123125 
L 234.776562 55.123125 
L 244.776562 55.123125 
" style="fill: none; stroke: #ff7f0e; stroke-width: 1.5; stroke-linecap: round"/>
    </g>
    <g id="text_17">
     <!-- Pollaczek-Khintchine -->
     <g style="fill: #262626" transform="translate(252.776562 58.623125) scale(0.1 -0.1)">
      <defs>
       <path id="ArialMT-50" d="M 494 0 
L 494 4581 
L 2222 4581 
Q 2678 4581 2919 4538 
Q 3256 4481 3484 4323 
Q 3713 4166 3852 3881 
Q 3991 3597 3991 3256 
Q 3991 2672 3619 2267 
Q 3247 1863 2275 1863 
L 1100 1863 
L 1100 0 
L 494 0 
z
M 1100 2403 
L 2284 2403 
Q 2872 2403 3119 2622 
Q 3366 2841 3366 3238 
Q 3366 3525 3220 3729 
Q 3075 3934 2838 4000 
Q 2684 4041 2272 4041 
L 1100 4041 
L 1100 2403 
z
" transform="scale(0.015625)"/>
       <path id="ArialMT-63" d="M 2588 1216 
L 3141 1144 
Q 3050 572 2676 248 
Q 2303 -75 1759 -75 
Q 1078 -75 664 370 
Q 250 816 250 1647 
Q 250 2184 428 2587 
Q 606 2991 970 3192 
Q 1334 3394 1763 3394 
Q 2303 3394 2647 3120 
Q 2991 2847 3088 2344 
L 2541 2259 
Q 2463 2594 2264 2762 
Q 2066 2931 1784 2931 
Q 1359 2931 1093 2626 
Q 828 2322 828 1663 
Q 828 994 1084 691 
Q 1341 388 1753 388 
Q 2084 388 2306 591 
Q 2528 794 2588 1216 
z
" transform="scale(0.015625)"/>
       <path id="ArialMT-7a" d="M 125 0 
L 125 456 
L 2238 2881 
Q 1878 2863 1603 2863 
L 250 2863 
L 250 3319 
L 2963 3319 
L 2963 2947 
L 1166 841 
L 819 456 
Q 1197 484 1528 484 
L 3063 484 
L 3063 0 
L 125 0 
z
" transform="scale(0.015625)"/>
       <path id="ArialMT-6b" d="M 425 0 
L 425 4581 
L 988 4581 
L 988 1969 
L 2319 3319 
L 3047 3319 
L 1778 2088 
L 3175 0 
L 2481 0 
L 1384 1697 
L 988 1316 
L 988 0 
L 425 0 
z
" transform="scale(0.015625)"/>
       <path id="ArialMT-2d" d="M 203 1375 
L 203 1941 
L 1931 1941 
L 1931 1375 
L 203 1375 
z
" transform="scale(0.015625)"/>
       <path id="ArialMT-4b" d="M 469 0 
L 469 4581 
L 1075 4581 
L 1075 2309 
L 3350 4581 
L 4172 4581 
L 2250 2725 
L 4256 0 
L 3456 0 
L 1825 2319 
L 1075 1588 
L 1075 0 
L 469 0 
z
" transform="scale(0.015625)"/>
       <path id="ArialMT-68" d="M 422 0 
L 422 4581 
L 984 4581 
L 984 2938 
Q 1378 3394 1978 3394 
Q 2347 3394 2619 3248 
Q 2891 3103 3008 2847 
Q 3125 2591 3125 2103 
L 3125 0 
L 2563 0 
L 2563 2103 
Q 2563 2525 2380 2717 
Q 2197 2909 1863 2909 
Q 1613 2909 1392 2779 
Q 1172 2650 1078 2428 
Q 984 2206 984 1816 
L 984 0 
L 422 0 
z
" transform="scale(0.015625)"/>
       <path id="ArialMT-69" d="M 425 3934 
L 425 4581 
L 988 4581 
L 988 3934 
L 425 3934 
z
M 425 0 
L 425 3319 
L 988 3319 
L 988 0 
L 425 0 
z
" transform="scale(0.015625)"/>
      </defs>
      <use xlink:href="#ArialMT-50"/>
      <use xlink:href="#ArialMT-6f" transform="translate(66.699219 0)"/>
      <use xlink:href="#ArialMT-6c" transform="translate(122.314453 0)"/>
      <use xlink:href="#ArialMT-6c" transform="translate(144.53125 0)"/>
      <use xlink:href="#ArialMT-61" transform="translate(166.748047 0)"/>
      <use xlink:href="#ArialMT-63" transform="translate(222.363281 0)"/>
      <use xlink:href="#ArialMT-7a" transform="translate(272.363281 0)"/>
      <use xlink:href="#ArialMT-65" transform="translate(322.363281 0)"/>
      <use xlink:href="#ArialMT-6b" transform="translate(377.978516 0)"/>
      <use xlink:href="#ArialMT-2d" transform="translate(427.978516 0)"/>
      <use xlink:href="#ArialMT-4b" transform="translate(461.279297 0)"/>
      <use xlink:href="#ArialMT-68" transform="translate(527.978516 0)"/>
      <use xlink:href="#ArialMT-69" transform="translate(583.59375 0)"/>
      <use xlink:href="#ArialMT-6e" transform="translate(605.810547 0)"/>
      <use xlink:href="#ArialMT-74" transform="translate(661.425781 0)"/>
      <use xlink:href="#ArialMT-63" transform="translate(689.208984 0)"/>
      <use xlink:href="#ArialMT-68" transform="translate(739.208984 0)"/>
      <use xlink:href="#ArialMT-69" transform="translate(794.824219 0)"/>
      <use xlink:href="#ArialMT-6e" transform="translate(817.041016 0)"/>
      <use xlink:href="#ArialMT-65" transform="translate(872.65625 0)"/>
     </g>
    </g>
    <g id="line2d_18">
     <path d="M 224.776562 69.268438 
L 234.776562 69.268438 
L 244.776562 69.268438 
" style="fill: none; stroke: #2ca02c; stroke-width: 1.5; stroke-linecap: round"/>
    </g>
    <g id="text_18">
     <!-- de Vylder -->
     <g style="fill: #262626" transform="translate(252.776562 72.768438) scale(0.1 -0.1)">
      <defs>
       <path id="ArialMT-64" d="M 2575 0 
L 2575 419 
Q 2259 -75 1647 -75 
Q 1250 -75 917 144 
Q 584 363 401 755 
Q 219 1147 219 1656 
Q 219 2153 384 2558 
Q 550 2963 881 3178 
Q 1213 3394 1622 3394 
Q 1922 3394 2156 3267 
Q 2391 3141 2538 2938 
L 2538 4581 
L 3097 4581 
L 3097 0 
L 2575 0 
z
M 797 1656 
Q 797 1019 1065 703 
Q 1334 388 1700 388 
Q 2069 388 2326 689 
Q 2584 991 2584 1609 
Q 2584 2291 2321 2609 
Q 2059 2928 1675 2928 
Q 1300 2928 1048 2622 
Q 797 2316 797 1656 
z
" transform="scale(0.015625)"/>
       <path id="ArialMT-56" d="M 1803 0 
L 28 4581 
L 684 4581 
L 1875 1253 
Q 2019 853 2116 503 
Q 2222 878 2363 1253 
L 3600 4581 
L 4219 4581 
L 2425 0 
L 1803 0 
z
" transform="scale(0.015625)"/>
       <path id="ArialMT-79" d="M 397 -1278 
L 334 -750 
Q 519 -800 656 -800 
Q 844 -800 956 -737 
Q 1069 -675 1141 -563 
Q 1194 -478 1313 -144 
Q 1328 -97 1363 -6 
L 103 3319 
L 709 3319 
L 1400 1397 
Q 1534 1031 1641 628 
Q 1738 1016 1872 1384 
L 2581 3319 
L 3144 3319 
L 1881 -56 
Q 1678 -603 1566 -809 
Q 1416 -1088 1222 -1217 
Q 1028 -1347 759 -1347 
Q 597 -1347 397 -1278 
z
" transform="scale(0.015625)"/>
      </defs>
      <use xlink:href="#ArialMT-64"/>
      <use xlink:href="#ArialMT-65" transform="translate(55.615234 0)"/>
      <use xlink:href="#ArialMT-20" transform="translate(111.230469 0)"/>
      <use xlink:href="#ArialMT-56" transform="translate(139.013672 0)"/>
      <use xlink:href="#ArialMT-79" transform="translate(201.962891 0)"/>
      <use xlink:href="#ArialMT-6c" transform="translate(251.962891 0)"/>
      <use xlink:href="#ArialMT-64" transform="translate(274.179688 0)"/>
      <use xlink:href="#ArialMT-65" transform="translate(329.794922 0)"/>
      <use xlink:href="#ArialMT-72" transform="translate(385.410156 0)"/>
     </g>
    </g>
   </g>
  </g>
  <g id="axes_2">
   <g id="patch_8">
    <path d="M 403.31 245.752 
L 709.2 245.752 
L 709.2 28.32 
L 403.31 28.32 
z
" style="fill: #ffffff"/>
   </g>
   <g id="matplotlib.axis_3">
    <g id="xtick_7">
     <g id="line2d_19">
      <path d="M 417.214091 245.752 
L 417.214091 28.32 
" clip-path="url(#p7c3170c595)" style="fill: none; stroke: #cccccc; stroke-width: 0.8; stroke-linecap: round"/>
     </g>
     <g id="text_19">
      <!-- 0 -->
      <g style="fill: #262626" transform="translate(414.433622 259.909812) scale(0.1 -0.1)">
       <use xlink:href="#ArialMT-30"/>
      </g>
     </g>
    </g>
    <g id="xtick_8">
     <g id="line2d_20">
      <path d="M 473.392236 245.752 
L 473.392236 28.32 
" clip-path="url(#p7c3170c595)" style="fill: none; stroke: #cccccc; stroke-width: 0.8; stroke-linecap: round"/>
     </g>
     <g id="text_20">
      <!-- 20 -->
      <g style="fill: #262626" transform="translate(467.831298 259.909812) scale(0.1 -0.1)">
       <use xlink:href="#ArialMT-32"/>
       <use xlink:href="#ArialMT-30" transform="translate(55.615234 0)"/>
      </g>
     </g>
    </g>
    <g id="xtick_9">
     <g id="line2d_21">
      <path d="M 529.570381 245.752 
L 529.570381 28.32 
" clip-path="url(#p7c3170c595)" style="fill: none; stroke: #cccccc; stroke-width: 0.8; stroke-linecap: round"/>
     </g>
     <g id="text_21">
      <!-- 40 -->
      <g style="fill: #262626" transform="translate(524.009444 259.909812) scale(0.1 -0.1)">
       <use xlink:href="#ArialMT-34"/>
       <use xlink:href="#ArialMT-30" transform="translate(55.615234 0)"/>
      </g>
     </g>
    </g>
    <g id="xtick_10">
     <g id="line2d_22">
      <path d="M 585.748526 245.752 
L 585.748526 28.32 
" clip-path="url(#p7c3170c595)" style="fill: none; stroke: #cccccc; stroke-width: 0.8; stroke-linecap: round"/>
     </g>
     <g id="text_22">
      <!-- 60 -->
      <g style="fill: #262626" transform="translate(580.187589 259.909812) scale(0.1 -0.1)">
       <use xlink:href="#ArialMT-36"/>
       <use xlink:href="#ArialMT-30" transform="translate(55.615234 0)"/>
      </g>
     </g>
    </g>
    <g id="xtick_11">
     <g id="line2d_23">
      <path d="M 641.926671 245.752 
L 641.926671 28.32 
" clip-path="url(#p7c3170c595)" style="fill: none; stroke: #cccccc; stroke-width: 0.8; stroke-linecap: round"/>
     </g>
     <g id="text_23">
      <!-- 80 -->
      <g style="fill: #262626" transform="translate(636.365734 259.909812) scale(0.1 -0.1)">
       <use xlink:href="#ArialMT-38"/>
       <use xlink:href="#ArialMT-30" transform="translate(55.615234 0)"/>
      </g>
     </g>
    </g>
    <g id="xtick_12">
     <g id="line2d_24">
      <path d="M 698.104816 245.752 
L 698.104816 28.32 
" clip-path="url(#p7c3170c595)" style="fill: none; stroke: #cccccc; stroke-width: 0.8; stroke-linecap: round"/>
     </g>
     <g id="text_24">
      <!-- 100 -->
      <g style="fill: #262626" transform="translate(689.76341 259.909812) scale(0.1 -0.1)">
       <use xlink:href="#ArialMT-31"/>
       <use xlink:href="#ArialMT-30" transform="translate(55.615234 0)"/>
       <use xlink:href="#ArialMT-30" transform="translate(111.230469 0)"/>
      </g>
     </g>
    </g>
    <g id="text_25">
     <!-- $u_0$ -->
     <g style="fill: #262626" transform="translate(550.705 273.055125) scale(0.1 -0.1)">
      <use xlink:href="#DejaVuSans-Oblique-75" transform="translate(0 0.3125)"/>
      <use xlink:href="#DejaVuSans-30" transform="translate(63.378906 -16.09375) scale(0.7)"/>
     </g>
    </g>
   </g>
   <g id="matplotlib.axis_4">
    <g id="ytick_7">
     <g id="line2d_25">
      <path d="M 403.31 235.868727 
L 709.2 235.868727 
" clip-path="url(#p7c3170c595)" style="fill: none; stroke: #cccccc; stroke-width: 0.8; stroke-linecap: round"/>
     </g>
     <g id="text_26">
      <!-- 0.0 -->
      <g style="fill: #262626" transform="translate(382.41 239.447634) scale(0.1 -0.1)">
       <use xlink:href="#ArialMT-30"/>
       <use xlink:href="#ArialMT-2e" transform="translate(55.615234 0)"/>
       <use xlink:href="#ArialMT-30" transform="translate(83.398438 0)"/>
      </g>
     </g>
    </g>
    <g id="ytick_8">
     <g id="line2d_26">
      <path d="M 403.31 196.335636 
L 709.2 196.335636 
" clip-path="url(#p7c3170c595)" style="fill: none; stroke: #cccccc; stroke-width: 0.8; stroke-linecap: round"/>
     </g>
     <g id="text_27">
      <!-- 0.2 -->
      <g style="fill: #262626" transform="translate(382.41 199.914543) scale(0.1 -0.1)">
       <use xlink:href="#ArialMT-30"/>
       <use xlink:href="#ArialMT-2e" transform="translate(55.615234 0)"/>
       <use xlink:href="#ArialMT-32" transform="translate(83.398438 0)"/>
      </g>
     </g>
    </g>
    <g id="ytick_9">
     <g id="line2d_27">
      <path d="M 403.31 156.802545 
L 709.2 156.802545 
" clip-path="url(#p7c3170c595)" style="fill: none; stroke: #cccccc; stroke-width: 0.8; stroke-linecap: round"/>
     </g>
     <g id="text_28">
      <!-- 0.4 -->
      <g style="fill: #262626" transform="translate(382.41 160.381452) scale(0.1 -0.1)">
       <use xlink:href="#ArialMT-30"/>
       <use xlink:href="#ArialMT-2e" transform="translate(55.615234 0)"/>
       <use xlink:href="#ArialMT-34" transform="translate(83.398438 0)"/>
      </g>
     </g>
    </g>
    <g id="ytick_10">
     <g id="line2d_28">
      <path d="M 403.31 117.269455 
L 709.2 117.269455 
" clip-path="url(#p7c3170c595)" style="fill: none; stroke: #cccccc; stroke-width: 0.8; stroke-linecap: round"/>
     </g>
     <g id="text_29">
      <!-- 0.6 -->
      <g style="fill: #262626" transform="translate(382.41 120.848361) scale(0.1 -0.1)">
       <use xlink:href="#ArialMT-30"/>
       <use xlink:href="#ArialMT-2e" transform="translate(55.615234 0)"/>
       <use xlink:href="#ArialMT-36" transform="translate(83.398438 0)"/>
      </g>
     </g>
    </g>
    <g id="ytick_11">
     <g id="line2d_29">
      <path d="M 403.31 77.736364 
L 709.2 77.736364 
" clip-path="url(#p7c3170c595)" style="fill: none; stroke: #cccccc; stroke-width: 0.8; stroke-linecap: round"/>
     </g>
     <g id="text_30">
      <!-- 0.8 -->
      <g style="fill: #262626" transform="translate(382.41 81.31527) scale(0.1 -0.1)">
       <use xlink:href="#ArialMT-30"/>
       <use xlink:href="#ArialMT-2e" transform="translate(55.615234 0)"/>
       <use xlink:href="#ArialMT-38" transform="translate(83.398438 0)"/>
      </g>
     </g>
    </g>
    <g id="ytick_12">
     <g id="line2d_30">
      <path d="M 403.31 38.203273 
L 709.2 38.203273 
" clip-path="url(#p7c3170c595)" style="fill: none; stroke: #cccccc; stroke-width: 0.8; stroke-linecap: round"/>
     </g>
     <g id="text_31">
      <!-- 1.0 -->
      <g style="fill: #262626" transform="translate(382.41 41.782179) scale(0.1 -0.1)">
       <use xlink:href="#ArialMT-31"/>
       <use xlink:href="#ArialMT-2e" transform="translate(55.615234 0)"/>
       <use xlink:href="#ArialMT-30" transform="translate(83.398438 0)"/>
      </g>
     </g>
    </g>
    <g id="text_32">
     <!-- $\psi(u_0, T)$ -->
     <g style="fill: #262626" transform="translate(376.31 155.386) rotate(-90) scale(0.1 -0.1)">
      <use xlink:href="#DejaVuSans-Oblique-3c8" transform="translate(0 0.125)"/>
      <use xlink:href="#DejaVuSans-28" transform="translate(65.966797 0.125)"/>
      <use xlink:href="#DejaVuSans-Oblique-75" transform="translate(104.980469 0.125)"/>
      <use xlink:href="#DejaVuSans-30" transform="translate(168.359375 -16.28125) scale(0.7)"/>
      <use xlink:href="#DejaVuSans-2c" transform="translate(215.629883 0.125)"/>
      <use xlink:href="#DejaVuSans-Oblique-54" transform="translate(266.899414 0.125)"/>
      <use xlink:href="#DejaVuSans-29" transform="translate(327.983398 0.125)"/>
     </g>
    </g>
   </g>
   <g id="line2d_31">
    <path d="M 417.214091 53.423513 
L 420.022998 55.993164 
L 422.831905 59.748807 
L 425.640813 63.899782 
L 428.44972 67.260095 
L 431.258627 71.015738 
L 434.067534 75.364378 
L 436.876442 78.32936 
L 439.685349 83.073331 
L 442.494256 87.02664 
L 445.303163 89.596291 
L 448.112071 94.142596 
L 450.920978 98.688902 
L 453.729885 102.24688 
L 456.538792 106.200189 
L 459.3477 109.362836 
L 462.156607 113.316145 
L 464.965514 116.478793 
L 467.774421 118.653113 
L 470.583329 121.222764 
L 473.392236 123.792415 
L 476.201143 127.548058 
L 479.010051 129.920044 
L 481.818958 133.478022 
L 484.627865 135.850007 
L 487.436772 138.617324 
L 490.24568 142.175302 
L 493.054587 143.756625 
L 495.863494 146.523942 
L 498.672401 149.686589 
L 501.481309 151.663244 
L 504.290216 154.825891 
L 507.099123 157.197876 
L 509.90803 160.558189 
L 512.716938 162.732509 
L 515.525845 164.511498 
L 518.334752 166.685818 
L 521.143659 169.453135 
L 523.952567 170.836793 
L 526.761474 172.615782 
L 529.570381 173.99944 
L 532.379288 176.17376 
L 535.188196 177.755084 
L 537.997103 181.115396 
L 540.80601 183.092051 
L 543.614917 184.080378 
L 546.423825 185.266371 
L 549.232732 187.04536 
L 552.041639 188.231353 
L 554.850546 189.615011 
L 557.659454 191.986996 
L 560.468361 193.963651 
L 563.277268 195.940305 
L 566.086175 197.323964 
L 568.895083 197.91696 
L 571.70399 199.300618 
L 574.512897 200.684276 
L 577.321804 201.079607 
L 580.130712 202.660931 
L 582.939619 203.253927 
L 585.748526 204.637585 
L 588.557433 206.021244 
L 591.366341 207.404902 
L 594.175248 208.393229 
L 596.984155 209.579222 
L 599.793062 209.579222 
L 602.60197 210.567549 
L 605.410877 211.555876 
L 608.219784 212.346538 
L 611.028691 213.1372 
L 613.837599 214.125527 
L 616.646506 214.718524 
L 619.455413 215.31152 
L 622.26432 216.102182 
L 625.073228 216.695178 
L 627.882135 217.48584 
L 630.691042 217.881171 
L 633.499949 217.881171 
L 636.308857 218.474167 
L 639.117764 219.66016 
L 641.926671 219.66016 
L 644.735579 220.253156 
L 647.544486 220.648487 
L 650.353393 220.648487 
L 653.1623 220.846153 
L 655.971208 221.241484 
L 658.780115 221.439149 
L 661.589022 222.032145 
L 664.397929 222.229811 
L 667.206837 222.229811 
L 670.015744 222.229811 
L 672.824651 222.822807 
L 675.633558 223.020473 
L 678.442466 224.206465 
L 681.251373 224.799462 
L 684.06028 224.799462 
L 686.869187 224.997127 
L 689.678095 224.997127 
L 692.487002 225.392458 
L 695.295909 225.590124 
" clip-path="url(#p7c3170c595)" style="fill: none; stroke: #1f77b4; stroke-width: 1.5; stroke-linecap: round"/>
   </g>
   <g id="line2d_32">
    <path d="M 417.214091 58.958145 
L 420.022998 60.341804 
L 422.831905 64.097447 
L 425.640813 67.260095 
L 428.44972 72.004065 
L 431.258627 75.166713 
L 434.067534 78.922356 
L 436.876442 82.282669 
L 439.685349 87.02664 
L 442.494256 90.979949 
L 445.303163 94.933258 
L 448.112071 98.886567 
L 450.920978 103.432873 
L 453.729885 108.572175 
L 456.538792 111.537156 
L 459.3477 114.699804 
L 462.156607 119.246109 
L 464.965514 122.408756 
L 467.774421 125.769069 
L 470.583329 129.524713 
L 473.392236 133.280356 
L 476.201143 136.640669 
L 479.010051 139.21032 
L 481.818958 140.593978 
L 484.627865 143.954291 
L 487.436772 146.919273 
L 490.24568 149.291258 
L 493.054587 151.267913 
L 495.863494 153.046902 
L 498.672401 157.000211 
L 501.481309 158.976865 
L 504.290216 160.95352 
L 507.099123 163.523171 
L 509.90803 165.499825 
L 512.716938 167.871811 
L 515.525845 169.848465 
L 518.334752 171.429789 
L 521.143659 173.99944 
L 523.952567 175.778429 
L 526.761474 177.359753 
L 529.570381 178.150415 
L 532.379288 179.336407 
L 535.188196 181.115396 
L 537.997103 182.69672 
L 540.80601 184.278044 
L 543.614917 185.661702 
L 546.423825 187.243025 
L 549.232732 188.231353 
L 552.041639 189.417345 
L 554.850546 190.208007 
L 557.659454 190.801004 
L 560.468361 191.196335 
L 563.277268 192.184662 
L 566.086175 193.963651 
L 568.895083 194.556647 
L 571.70399 196.137971 
L 574.512897 197.719295 
L 577.321804 198.707622 
L 580.130712 199.893615 
L 582.939619 201.474938 
L 585.748526 202.660931 
L 588.557433 203.846924 
L 591.366341 205.230582 
L 594.175248 206.021244 
L 596.984155 207.602567 
L 599.793062 208.590895 
L 602.60197 209.183891 
L 605.410877 209.776887 
L 608.219784 210.369884 
L 611.028691 210.567549 
L 613.837599 211.753542 
L 616.646506 212.148873 
L 619.455413 213.1372 
L 622.26432 213.334865 
L 625.073228 214.125527 
L 627.882135 214.916189 
L 630.691042 215.706851 
L 633.499949 215.904516 
L 636.308857 216.299847 
L 639.117764 216.892844 
L 641.926671 217.683505 
L 644.735579 217.881171 
L 647.544486 218.671833 
L 650.353393 219.264829 
L 653.1623 219.66016 
L 655.971208 219.857825 
L 658.780115 220.055491 
L 661.589022 220.253156 
L 664.397929 220.450822 
L 667.206837 221.043818 
L 670.015744 221.043818 
L 672.824651 221.439149 
L 675.633558 221.83448 
L 678.442466 221.83448 
L 681.251373 222.032145 
L 684.06028 222.229811 
L 686.869187 222.427476 
L 689.678095 222.625142 
L 692.487002 222.822807 
L 695.295909 223.218138 
" clip-path="url(#p7c3170c595)" style="fill: none; stroke: #ff7f0e; stroke-width: 1.5; stroke-linecap: round"/>
   </g>
   <g id="line2d_33">
    <path d="M 417.214091 51.993886 
L 420.022998 57.054337 
L 422.831905 61.975519 
L 425.640813 66.761265 
L 428.44972 71.415301 
L 431.258627 75.941252 
L 434.067534 80.342644 
L 436.876442 84.622904 
L 439.685349 88.785367 
L 442.494256 92.833274 
L 445.303163 96.769777 
L 448.112071 100.597944 
L 450.920978 104.320755 
L 453.729885 107.941109 
L 456.538792 111.461828 
L 459.3477 114.885652 
L 462.156607 118.215248 
L 464.965514 121.45321 
L 467.774421 124.602059 
L 470.583329 127.664249 
L 473.392236 130.642163 
L 476.201143 133.538121 
L 479.010051 136.35438 
L 481.818958 139.093132 
L 484.627865 141.75651 
L 487.436772 144.346588 
L 490.24568 146.865385 
L 493.054587 149.314862 
L 495.863494 151.696926 
L 498.672401 154.013432 
L 501.481309 156.266186 
L 504.290216 158.456942 
L 507.099123 160.587405 
L 509.90803 162.659235 
L 512.716938 164.674047 
L 515.525845 166.633408 
L 518.334752 168.538845 
L 521.143659 170.391842 
L 523.952567 172.193843 
L 526.761474 173.946251 
L 529.570381 175.65043 
L 532.379288 177.307708 
L 535.188196 178.919376 
L 537.997103 180.486689 
L 540.80601 182.010868 
L 543.614917 183.4931 
L 546.423825 184.934538 
L 549.232732 186.336307 
L 552.041639 187.699497 
L 554.850546 189.025171 
L 557.659454 190.314361 
L 560.468361 191.56807 
L 563.277268 192.787277 
L 566.086175 193.972929 
L 568.895083 195.12595 
L 571.70399 196.247239 
L 574.512897 197.337669 
L 577.321804 198.398089 
L 580.130712 199.429325 
L 582.939619 200.43218 
L 585.748526 201.407436 
L 588.557433 202.355851 
L 591.366341 203.278165 
L 594.175248 204.175095 
L 596.984155 205.047341 
L 599.793062 205.895582 
L 602.60197 206.720478 
L 605.410877 207.522672 
L 608.219784 208.302789 
L 611.028691 209.061436 
L 613.837599 209.799204 
L 616.646506 210.516668 
L 619.455413 211.214386 
L 622.26432 211.892903 
L 625.073228 212.552746 
L 627.882135 213.194429 
L 630.691042 213.818452 
L 633.499949 214.425302 
L 636.308857 215.01545 
L 639.117764 215.589356 
L 641.926671 216.147469 
L 644.735579 216.690221 
L 647.544486 217.218036 
L 650.353393 217.731325 
L 653.1623 218.230487 
L 655.971208 218.715912 
L 658.780115 219.187978 
L 661.589022 219.647052 
L 664.397929 220.093491 
L 667.206837 220.527644 
L 670.015744 220.949849 
L 672.824651 221.360434 
L 675.633558 221.759719 
L 678.442466 222.148016 
L 681.251373 222.525626 
L 684.06028 222.892844 
L 686.869187 223.249955 
L 689.678095 223.597239 
L 692.487002 223.934964 
L 695.295909 224.263396 
" clip-path="url(#p7c3170c595)" style="fill: none; stroke: #2ca02c; stroke-width: 1.5; stroke-linecap: round"/>
   </g>
   <g id="patch_9">
    <path d="M 403.31 245.752 
L 403.31 28.32 
" style="fill: none; stroke: #cccccc; stroke-width: 0.8; stroke-linejoin: miter; stroke-linecap: square"/>
   </g>
   <g id="patch_10">
    <path d="M 709.2 245.752 
L 709.2 28.32 
" style="fill: none; stroke: #cccccc; stroke-width: 0.8; stroke-linejoin: miter; stroke-linecap: square"/>
   </g>
   <g id="patch_11">
    <path d="M 403.31 245.752 
L 709.2 245.752 
" style="fill: none; stroke: #cccccc; stroke-width: 0.8; stroke-linejoin: miter; stroke-linecap: square"/>
   </g>
   <g id="patch_12">
    <path d="M 403.31 28.32 
L 709.2 28.32 
" style="fill: none; stroke: #cccccc; stroke-width: 0.8; stroke-linejoin: miter; stroke-linecap: square"/>
   </g>
   <g id="text_33">
    <!-- $\lambda = 10, a = 0, b = 10, T = 100$ -->
    <g style="fill: #262626" transform="translate(472.315 22.32) scale(0.12 -0.12)">
     <use xlink:href="#DejaVuSans-Oblique-3bb" transform="translate(0 0.015625)"/>
     <use xlink:href="#DejaVuSans-3d" transform="translate(78.662109 0.015625)"/>
     <use xlink:href="#DejaVuSans-31" transform="translate(181.933594 0.015625)"/>
     <use xlink:href="#DejaVuSans-30" transform="translate(245.556641 0.015625)"/>
     <use xlink:href="#DejaVuSans-2c" transform="translate(309.179688 0.015625)"/>
     <use xlink:href="#DejaVuSans-Oblique-61" transform="translate(360.449219 0.015625)"/>
     <use xlink:href="#DejaVuSans-3d" transform="translate(441.210938 0.015625)"/>
     <use xlink:href="#DejaVuSans-30" transform="translate(544.482422 0.015625)"/>
     <use xlink:href="#DejaVuSans-2c" transform="translate(608.105469 0.015625)"/>
     <use xlink:href="#DejaVuSans-Oblique-62" transform="translate(659.375 0.015625)"/>
     <use xlink:href="#DejaVuSans-3d" transform="translate(742.333984 0.015625)"/>
     <use xlink:href="#DejaVuSans-31" transform="translate(845.605469 0.015625)"/>
     <use xlink:href="#DejaVuSans-30" transform="translate(909.228516 0.015625)"/>
     <use xlink:href="#DejaVuSans-2c" transform="translate(972.851562 0.015625)"/>
     <use xlink:href="#DejaVuSans-Oblique-54" transform="translate(1024.121094 0.015625)"/>
     <use xlink:href="#DejaVuSans-3d" transform="translate(1104.6875 0.015625)"/>
     <use xlink:href="#DejaVuSans-31" transform="translate(1207.958984 0.015625)"/>
     <use xlink:href="#DejaVuSans-30" transform="translate(1271.582031 0.015625)"/>
     <use xlink:href="#DejaVuSans-30" transform="translate(1335.205078 0.015625)"/>
    </g>
   </g>
   <g id="legend_2">
    <g id="patch_13">
     <path d="M 577.376563 78.873125 
L 702.2 78.873125 
Q 704.2 78.873125 704.2 76.873125 
L 704.2 35.32 
Q 704.2 33.32 702.2 33.32 
L 577.376563 33.32 
Q 575.376563 33.32 575.376563 35.32 
L 575.376563 76.873125 
Q 575.376563 78.873125 577.376563 78.873125 
z
" style="fill: #ffffff; opacity: 0.8; stroke: #cccccc; stroke-linejoin: miter"/>
    </g>
    <g id="line2d_34">
     <path d="M 579.376563 40.977813 
L 589.376563 40.977813 
L 599.376563 40.977813 
" style="fill: none; stroke: #1f77b4; stroke-width: 1.5; stroke-linecap: round"/>
    </g>
    <g id="text_34">
     <!-- Monte Carlo -->
     <g style="fill: #262626" transform="translate(607.376563 44.477813) scale(0.1 -0.1)">
      <use xlink:href="#ArialMT-4d"/>
      <use xlink:href="#ArialMT-6f" transform="translate(83.300781 0)"/>
      <use xlink:href="#ArialMT-6e" transform="translate(138.916016 0)"/>
      <use xlink:href="#ArialMT-74" transform="translate(194.53125 0)"/>
      <use xlink:href="#ArialMT-65" transform="translate(222.314453 0)"/>
      <use xlink:href="#ArialMT-20" transform="translate(277.929688 0)"/>
      <use xlink:href="#ArialMT-43" transform="translate(305.712891 0)"/>
      <use xlink:href="#ArialMT-61" transform="translate(377.929688 0)"/>
      <use xlink:href="#ArialMT-72" transform="translate(433.544922 0)"/>
      <use xlink:href="#ArialMT-6c" transform="translate(466.845703 0)"/>
      <use xlink:href="#ArialMT-6f" transform="translate(489.0625 0)"/>
     </g>
    </g>
    <g id="line2d_35">
     <path d="M 579.376563 55.123125 
L 589.376563 55.123125 
L 599.376563 55.123125 
" style="fill: none; stroke: #ff7f0e; stroke-width: 1.5; stroke-linecap: round"/>
    </g>
    <g id="text_35">
     <!-- Pollaczek-Khintchine -->
     <g style="fill: #262626" transform="translate(607.376563 58.623125) scale(0.1 -0.1)">
      <use xlink:href="#ArialMT-50"/>
      <use xlink:href="#ArialMT-6f" transform="translate(66.699219 0)"/>
      <use xlink:href="#ArialMT-6c" transform="translate(122.314453 0)"/>
      <use xlink:href="#ArialMT-6c" transform="translate(144.53125 0)"/>
      <use xlink:href="#ArialMT-61" transform="translate(166.748047 0)"/>
      <use xlink:href="#ArialMT-63" transform="translate(222.363281 0)"/>
      <use xlink:href="#ArialMT-7a" transform="translate(272.363281 0)"/>
      <use xlink:href="#ArialMT-65" transform="translate(322.363281 0)"/>
      <use xlink:href="#ArialMT-6b" transform="translate(377.978516 0)"/>
      <use xlink:href="#ArialMT-2d" transform="translate(427.978516 0)"/>
      <use xlink:href="#ArialMT-4b" transform="translate(461.279297 0)"/>
      <use xlink:href="#ArialMT-68" transform="translate(527.978516 0)"/>
      <use xlink:href="#ArialMT-69" transform="translate(583.59375 0)"/>
      <use xlink:href="#ArialMT-6e" transform="translate(605.810547 0)"/>
      <use xlink:href="#ArialMT-74" transform="translate(661.425781 0)"/>
      <use xlink:href="#ArialMT-63" transform="translate(689.208984 0)"/>
      <use xlink:href="#ArialMT-68" transform="translate(739.208984 0)"/>
      <use xlink:href="#ArialMT-69" transform="translate(794.824219 0)"/>
      <use xlink:href="#ArialMT-6e" transform="translate(817.041016 0)"/>
      <use xlink:href="#ArialMT-65" transform="translate(872.65625 0)"/>
     </g>
    </g>
    <g id="line2d_36">
     <path d="M 579.376563 69.268438 
L 589.376563 69.268438 
L 599.376563 69.268438 
" style="fill: none; stroke: #2ca02c; stroke-width: 1.5; stroke-linecap: round"/>
    </g>
    <g id="text_36">
     <!-- de Vylder -->
     <g style="fill: #262626" transform="translate(607.376563 72.768438) scale(0.1 -0.1)">
      <use xlink:href="#ArialMT-64"/>
      <use xlink:href="#ArialMT-65" transform="translate(55.615234 0)"/>
      <use xlink:href="#ArialMT-20" transform="translate(111.230469 0)"/>
      <use xlink:href="#ArialMT-56" transform="translate(139.013672 0)"/>
      <use xlink:href="#ArialMT-79" transform="translate(201.962891 0)"/>
      <use xlink:href="#ArialMT-6c" transform="translate(251.962891 0)"/>
      <use xlink:href="#ArialMT-64" transform="translate(274.179688 0)"/>
      <use xlink:href="#ArialMT-65" transform="translate(329.794922 0)"/>
      <use xlink:href="#ArialMT-72" transform="translate(385.410156 0)"/>
     </g>
    </g>
   </g>
  </g>
 </g>
 <defs>
  <clipPath id="p13e6abba1a">
   <rect x="48.71" y="28.32" width="305.89" height="217.432"/>
  </clipPath>
  <clipPath id="p7c3170c595">
   <rect x="403.31" y="28.32" width="305.89" height="217.432"/>
  </clipPath>
 </defs>
</svg>
